<?xml version="1.0" encoding="utf-8"?>
<!-- Generator: Adobe Illustrator 22.0.1, SVG Export Plug-In . SVG Version: 6.00 Build 0)  -->
<svg version="1.1"
	 id="svg2" inkscape:export-filename="C:\Users\Marlene\JUG\grafiken\Plakate\Plakat_2017_11\plakat2017-11.png" inkscape:export-xdpi="300" inkscape:export-ydpi="300" inkscape:version="0.91 r13725" sodipodi:docname="Plakat11-2017n.svg" xmlns:cc="http://creativecommons.org/ns#" xmlns:dc="http://purl.org/dc/elements/1.1/" xmlns:inkscape="http://www.inkscape.org/namespaces/inkscape" xmlns:rdf="http://www.w3.org/1999/02/22-rdf-syntax-ns#" xmlns:sodipodi="http://sodipodi.sourceforge.net/DTD/sodipodi-0.dtd" xmlns:svg="http://www.w3.org/2000/svg"
	 xmlns="http://www.w3.org/2000/svg" xmlns:xlink="http://www.w3.org/1999/xlink" x="0px" y="0px" viewBox="0 0 595.3 841.9"
	 style="enable-background:new 0 0 595.3 841.9;" xml:space="preserve">
<style type="text/css">
	.st0{fill:#FFFFFF;stroke:#373799;stroke-width:3.3336;stroke-miterlimit:10;}
	.st1{fill:#373799;}
	.st2{fill:#FFFFFF;}
	.st3{font-family:'ArialMT';}
	.st4{font-size:20.0503px;}
	.st5{fill:none;}
	.st6{font-size:24px;}
	.st7{font-size:16px;}
	.st8{font-size:32px;}
	.st9{font-size:20px;}
	.st10{font-size:12px;}
	.st11{fill:#E1D2B1;stroke:#000000;stroke-miterlimit:10;}
	.st12{fill:#D3623A;stroke:#000000;stroke-miterlimit:10;}
	.st13{fill:none;stroke:#000000;stroke-miterlimit:10;}
	.st14{fill:#FFFFFF;stroke:#000000;stroke-miterlimit:10;}
	.st15{stroke:#000000;stroke-miterlimit:10;}
	.st16{fill:#FFFFFF;stroke:#000000;stroke-width:0.5;stroke-miterlimit:10;}
	.st17{fill:#57888D;stroke:#000000;stroke-miterlimit:10;}
	.st18{stroke:#000000;stroke-width:0.5;stroke-miterlimit:10;}
	.st19{fill:#0C4C91;stroke:#000000;stroke-miterlimit:10;}
	.st20{fill:none;stroke:#FFFFFF;stroke-miterlimit:10;}
	.st21{fill:none;stroke:#002294;stroke-width:0.25;stroke-miterlimit:10;stroke-dasharray:2;}
	.st22{fill:#A0A0A0;stroke:#000000;stroke-miterlimit:10;}
	.st23{fill:none;stroke:#002294;stroke-width:0.25;stroke-miterlimit:10;}
	.st24{fill:none;stroke:#002294;stroke-width:0.25;stroke-miterlimit:10;stroke-dasharray:1.9783,1.9783;}
	.st25{fill:#FFFFFF;stroke:#FFFFFF;}
	.st26{fill:#F58219;stroke:#FFFFFF;}
	.st27{fill:#4E7896;stroke:#FFFFFF;}
	.st28{font-size:15.868px;}
</style>
<defs>
	
	<inkscape:path-effect  effect="spiro" id="path-effect4253-2" is_visible="true"></inkscape:path-effect>
	<inkscape:path-effect  effect="spiro" id="path-effect4253-1-8" is_visible="true"></inkscape:path-effect>
	<inkscape:path-effect  effect="spiro" id="path-effect4253-8" is_visible="true"></inkscape:path-effect>
	<inkscape:path-effect  effect="spiro" id="path-effect4253-1-9" is_visible="true"></inkscape:path-effect>
	<inkscape:path-effect  effect="spiro" id="path-effect4253-6-5" is_visible="true"></inkscape:path-effect>
	<inkscape:path-effect  effect="spiro" id="path-effect4253-1-7" is_visible="true"></inkscape:path-effect>
</defs>
<sodipodi:namedview  bordercolor="#666666" borderopacity="1" gridtolerance="10" guidetolerance="10" id="namedview112" inkscape:current-layer="g7316" inkscape:cx="452.9265" inkscape:cy="547.45936" inkscape:pageopacity="1" inkscape:pageshadow="2" inkscape:window-height="1018" inkscape:window-maximized="1" inkscape:window-width="1920" inkscape:window-x="-8" inkscape:window-y="-8" inkscape:zoom="16" objecttolerance="10" pagecolor="#ffffff" showgrid="false">
	</sodipodi:namedview>
<g id="g76">
	<rect id="rect78" x="16" y="274.8" class="st0" width="285.1" height="307.5"/>
	<rect id="rect5741_1_" x="14.3" y="236.4" class="st1" width="288.2" height="36.9"/>
	<text id="text105" transform="matrix(0.928 0 0 1 34.4785 264.1471)" class="st2 st3 st4">Thema</text>
	<g id="flowRoot4506" transform="translate(1.2612568,-18.288224)">
	</g>
</g>
<defs>
	
	<inkscape:path-effect  effect="spiro" id="path-effect4253" is_visible="true"></inkscape:path-effect>
	<inkscape:path-effect  effect="spiro" id="path-effect4253-1" is_visible="true"></inkscape:path-effect>
	<inkscape:path-effect  effect="spiro" id="path-effect4253-7" is_visible="true"></inkscape:path-effect>
	<inkscape:path-effect  effect="spiro" id="path-effect4253-1-1" is_visible="true"></inkscape:path-effect>
	<inkscape:path-effect  effect="spiro" id="path-effect4253-6" is_visible="true"></inkscape:path-effect>
	<inkscape:path-effect  effect="spiro" id="path-effect4253-1-6" is_visible="true"></inkscape:path-effect>
</defs>
<sodipodi:namedview  bordercolor="#666666" borderopacity="1.0" fit-margin-bottom="0" fit-margin-left="0" fit-margin-right="0" fit-margin-top="0" id="base" inkscape:current-layer="layer1" inkscape:cx="226.64962" inkscape:cy="585.35062" inkscape:document-units="px" inkscape:pageopacity="0.0" inkscape:pageshadow="2" inkscape:window-height="1147" inkscape:window-maximized="1" inkscape:window-width="1920" inkscape:window-x="-8" inkscape:window-y="-8" inkscape:zoom="0.70710678" pagecolor="#ffffff" showgrid="false">
	</sodipodi:namedview>
<rect id="rect4799-6-8-3-1" x="-0.2" y="130" class="st5" width="594.9" height="568.6"/>
<rect id="rect4799-6-8" x="-0.2" y="-0.1" class="st1" width="595.3" height="218.1"/>
<text transform="matrix(1 0 0 1 33.3 53.0566)" class="st2 st3 st6">Vortrag bei der Java User Group Görlitz </text>
<text transform="matrix(1 0 0 1 474.6 53.0566)" class="st2 st3 st7">im iJUG e.V.</text>
<text transform="matrix(1 0 0 1 31.7886 121.8585)" class="st2 st3 st8">Refactoring to a System of Systems</text>
<g id="g26">
	<g id="g28">
		<text id="text30" transform="matrix(1 0 0 1 33.3 187.7448)" class="st2 st3 st9">Oliver Gierke, Pivotal</text>
	</g>
</g>
<g id="flowRoot5521" transform="translate(-2.2268386,3.3339304)">
</g>
<g id="flowRoot5689" transform="translate(13.793466,-6.686375)">
</g>
<g id="flowRoot5763" transform="translate(-2.2268386,3.3339304)">
</g>
<g id="flowRoot5773" transform="translate(-3.0349635,9.3725)">
</g>
<text transform="matrix(1 0 0 1 25.4784 294.2113)" class="st3 st10">Beim Bauen monolithischer Systeme nutzen </text>
<text transform="matrix(1 0 0 1 25.4784 308.6113)" class="st3 st10">Entwicklerteams eine Reihe typischer Muster um </text>
<text transform="matrix(1 0 0 1 25.4784 323.0113)" class="st3 st10">die Interaktion verschiedener Systemteile zu </text>
<text transform="matrix(1 0 0 1 25.4784 337.4113)" class="st3 st10">implementieren. Behält man diese Interaktions</text>
<text transform="matrix(1 0 0 1 272.2784 337.4113)" class="st3 st10">-</text>
<text transform="matrix(1 0 0 1 25.4784 351.8113)" class="st3 st10">muster bei, während man ein System in verschie</text>
<text transform="matrix(1 0 0 1 284.2784 351.8113)" class="st3 st10">-</text>
<text transform="matrix(1 0 0 1 25.4784 366.2113)" class="st3 st10">dene aufteilt, ergeben sich oft große Komplexität </text>
<text transform="matrix(1 0 0 1 25.4784 380.6113)" class="st3 st10">und architektonische Nachteile, die oft die </text>
<text transform="matrix(1 0 0 1 25.4784 395.0113)" class="st3 st10">ursprüngliche Idee, die hinter der Aufteilung </text>
<text transform="matrix(1 0 0 1 25.4784 409.4113)" class="st3 st10">stand, konterkarieren.</text>
<text transform="matrix(1 0 0 1 25.4784 438.2113)" class="st3 st10">Der Vortrag betrachtet ein konkretes Beispiel von </text>
<text transform="matrix(1 0 0 1 25.4784 452.6113)" class="st3 st10">Modulinteraktion in einem monolithischen System </text>
<text transform="matrix(1 0 0 1 25.4784 467.0113)" class="st3 st10">und identifiziert die Problemstellungen die sich </text>
<text transform="matrix(1 0 0 1 25.4784 481.4113)" class="st3 st10">ergeben, wenn man dieses System in exakt dem </text>
<text transform="matrix(1 0 0 1 25.4784 495.8113)" class="st3 st10">gleichen Interaktionsstil aufteilt. Danach wird eine </text>
<text transform="matrix(1 0 0 1 25.4784 510.2113)" class="st3 st10">alternative Implementierungsstrategie für das </text>
<text transform="matrix(1 0 0 1 25.4784 524.6113)" class="st3 st10">monolithische System diskutiert, die die Modulari</text>
<text transform="matrix(1 0 0 1 284.8784 524.6113)" class="st3 st10">-</text>
<text transform="matrix(1 0 0 1 25.4784 539.0113)" class="st3 st10">tät des Ursprungssystems stark verbessert und </text>
<text transform="matrix(1 0 0 1 25.4784 553.4113)" class="st3 st10">im Falle einer Aufteilung in unabhängige Teilsys</text>
<text transform="matrix(1 0 0 1 280.2784 553.4113)" class="st3 st10">-</text>
<text transform="matrix(1 0 0 1 25.4784 567.8113)" class="st3 st10">teme zu einer besseren Architektur führt.</text>
<polygon class="st5" points="129.5,335.2 126.4,335.2 126.4,335.2 "/>
<g>
	<path class="st11" d="M421.7,377.6l4,0c0,0,6.5,4.9,8.8,6.7c4.8,3.7,1.5,0.7,4.8,3.7c1.6,1.4,14.2,7.1,14.2,7.1L437.7,413
		l-11.9-1.8l-9.7-2.3l-9-3l-8.7-15.6l8.5-2.1c5.7,1.2,14.8,0,11.5-4.2C417.4,382.8,421.7,377.6,421.7,377.6z"/>
	<g>
		<path class="st11" d="M570.8,317.2c-2.7,18.2-3.5,22.5-3.6,24.3c0,0.2,0.2,0.3,0.2,0.5l2.4,3.5c0,0-6.3,5.4-8.7,6.8
			c-2.4,1.5-34.1,4-34.1,4s4.4-7.9,3.4-9.1c-0.8-0.9-4.3-5.4-10.7-4.7c-6.6,0.7-0.5-1.2,0-1.5l18.5-14.5L570.8,317.2z"/>
		<path class="st12" d="M549.2,328c0,0,11.6,3.8,15.5,2.1c4-1.7,3.9-2.1,3.9-2.1l12.4-36.4c0,0,13.3-18-8.3-27.4
			c-4.6-2-26.4-8.8-29.6-7.7c0,0-20.2-1.8-26.7-5.3c-15-1.2-13.6,13.6-13.5,13.6c-0.6,3.4,1.6,10.6,5.3,12.7c3.7,2,6.9,4.4,6.9,4.4
			L549.2,328z"/>
		<path class="st11" d="M512.9,277.1c0,0-3.2,2.3-4.6,8.3c-2.3,9.6-1.8,13.7-1.8,13.7c-0.4,4.2-6.5,20-6.5,20l7.2,1.6
			c0,0,0.5,5.3,0.2,9.1c0.1,3.3,0.1,3.4,1.3,8.7c1.2,5.3,2.2,7,4.7,6.8c14.8-1.1,14.8-1.1,22.4-7.5c1-0.9,3.5-3.3,3.8-4.1
			c1-2.4-1.5-7.2-1.5-7.2s2.3,0.6,5.7-1.9c3.3-2.5,4.4-1.9,5-6.3c3.8-13.5-7.4-7.6-9.8-5.7c-0.6,2.2-2.7,2.5-2.7,2.5l4.1-10.8
			l-4.3-3l3.4-9.3c-1.3,2.3,4.5-12.5-12.3-19.8C523,270.3,512.9,277.1,512.9,277.1z"/>
		<path class="st13" d="M539.2,322.8"/>
		<path class="st14" d="M513.3,287.6"/>
		<path class="st14" d="M519.7,291.3"/>
		<path class="st11" d="M539.9,317.3c0,0,0.3-2,1.4-3.3c1.6-1.9,5.8-0.4,5.3,0.4c0,0-0.3,2.2-1.3,4.4c-1.1,2.1-5.4,2.9-5.4,2.9
			l-0.3,1"/>
		<path class="st15" d="M516.3,295.6c-2.6-5.3-6.8-0.5-5.6-0.9C514.9,293.3,516.6,296.1,516.3,295.6z"/>
		<g>
			
				<ellipse transform="matrix(0.2252 -0.9743 0.9743 0.2252 100.8005 733.3444)" class="st15" cx="511.5" cy="303.3" rx="4.2" ry="2.7"/>
			
				<ellipse transform="matrix(0.2357 -0.9718 0.9718 0.2357 93.7773 728.7906)" class="st16" cx="510.2" cy="304.8" rx="2.4" ry="1.8"/>
		</g>
		<path class="st13" d="M507.9,330.6c0,0,3.8,0.8,6.2-0.2l2.4-0.9"/>
		<path class="st13" d="M527.2,261c0,0,2,1.2,1.6,3.5c-0.5,2.3-1.5,3.8-1.5,3.8"/>
		<path class="st13" d="M533.1,270.7c0,0,2.9-1.2,3.1-4.1c0.1-2.9-1.5-5.6-1.5-5.6"/>
		<path class="st13" d="M541.1,262.2c0,0,2.3,9.6-2.1,12"/>
		<line class="st13" x1="537.2" y1="298" x2="541.9" y2="300.3"/>
		<line class="st13" x1="538.5" y1="294.5" x2="543.7" y2="296.5"/>
		<line class="st13" x1="539.6" y1="291.2" x2="545.1" y2="292.4"/>
		<path class="st15" d="M543.9,324.5l2.8,0.7c0,0-3.7,9.4-4.7,11.5c-0.8,1.6-8.6,10-11.7,12.5c0,0,0-2.8-0.8-3.4
			c-0.2-0.1-0.3-0.3-0.5-0.4l-2.8-1.2l9.6-6.3c0,0,3.3-2.4,3.8-4.2c0.4-1.3,0-5-0.2-6.3l0,0C542.4,327.4,543.4,323.2,543.9,324.5z"
			/>
		<path class="st12" d="M528.8,257.3c-9.2-1.8-24.2,0.3-22.2,8.2c4.8,18.5,6.2,3.4,5.4,0.4c-1-3.8-2.2,0.8-2.2,0.8"/>
		<path class="st15" d="M557.6,315c2.1-3.5,7.3-7,7.3-7l4.4-11.6l1.4-4.7l5.9-0.7l2.9-5.5l5.3-7.3c0,0,0.5,5.1-1.7,9.2
			s-8.3,21.8-8.3,21.8l-6.3,18.6l-3.9,2.1l-14.9-1.9c-0.3-0.1-0.3-0.4-0.1-0.5C551.8,326.5,555.9,318,557.6,315z"/>
		<path class="st15" d="M544.4,354.6c0,0,7.1-3.8,9.9-6.5c2.8-2.7,10.5-18.1,10.5-18.1l-3.8,15.3l7.7-17.5l-1.1,13.9l2.4,3.5
			l-8.7,6.8L544.4,354.6z"/>
	</g>
	<path class="st17" d="M482.8,547.4l10.5,105.7c0,0,9.2,7.3,18.7,6.9c9.4-0.4,32.8-7.9,32.8-7.9l37.8-5.2c0,0,0.5-101.8-2.1-114.2
		C578.6,524.2,482.8,547.4,482.8,547.4z"/>
	<path class="st17" d="M493.8,406.9c0,0-42.5-16.8-41.9-18.1c0.5-1.3-10.4,6-15.8,12.4c-5.4,6.5-2.2,17.1-2.2,17.1l66.5,24.4
		L493.8,406.9z"/>
	<path class="st11" d="M371.5,405.5l-11.5-7.4c-5.6-3-9.3-10.8-13.5-13.6c-1.6-1.1,10.8-3.4,10.8-3.4l-14.1,4.4l-35.1-13.6
		c0,0-2.9,0.8-2.9,4.9s4.4,16.2,6.4,19c2,2.8,13.6,19.3,16.2,20.1c2.6,0.7,15.5,1.9,19,2.8c3.5,0.9,13.9,4.5,13.9,4.5L371.5,405.5z"
		/>
	<path class="st17" d="M497,364.5l10.8-6.1c1.9-1.1,4-1.7,6.2-1.8l13.1-0.5l30-3.4l10.3-7.5l0.1-3.4l11.9,5.7l5.8,8.4
		c0,0,1.7,7.8,3,20.8c1.3,13,3.7,29.1,0.1,38.5s-6.5,51.1-9,57.3c-2.4,6.1,3.9,34.6,3.9,34.6l4.8,25.5l-23.8,20.1
		c0,0-74.5,4.8-85.2,0.2l0,0l3.7-22c0.1-1.6,2.3-41.9,2.7-43.4l8.7-56.7L497,364.5z"/>
	<path class="st17" d="M497,364.5L497,364.5l-12,14.9c-0.8,2.5-14.9,18-16.9,19.8L443.5,425l-8.7,9.3L375,402.9c0,0-12.6,3.9-15,7.5
		c-3.7,5.5-5.6,15.5-5.6,15.5L431,473c0,0,2.9,2.9,5.2,2.4c2.3-0.5,9.2-2.3,10.2-3.8s29.2-26.9,29.2-26.9s12.1-6.9,17.1-13.9
		c5.8-8.2,11.5-11.5,11.9-12.8c4.5,1.6,12.9-10.6,13.1-12.9c0.5-5.9-1.4-30.7-10-38.3C504.3,364,504.1,363.4,497,364.5z"/>
	<polygon class="st18" points="586.4,409.9 570.1,470.7 542.2,478.2 568.8,478.2 562.6,542.2 489.6,554.8 562.6,552.9 586.4,532.8 
		577.7,472.7 	"/>
	<polygon class="st18" points="549.7,470.7 570.1,470.7 572.8,463.9 	"/>
	<path class="st18" d="M505.7,418.4c0,0,4.6-0.1,6.5-0.4c2-0.3,6.3-1.1,7.6-2.5c3.5-3.9,3.7-15.1,3.7-20.1c0-9.7-4.8-21.3-9.6-25.8
		c-1.6-1.6-7.8-4.8-9.1-5.5c0,0-0.1,0,0,0.1c1.3,1.4,9.6,10.4,12.1,24.2c0.6,3.6,0.1,16.1,0.1,18.8c0,0.4-0.2,0.8-0.4,1.1
		L505.7,418.4z"/>
	<polygon class="st15" points="540.6,411 564,403.7 585.3,404.4 	"/>
	<polygon class="st15" points="549.6,547.3 541.1,651.9 548,651.4 	"/>
	<polygon class="st15" points="573.2,648.6 574.1,630.3 578.7,535.8 584.6,532.8 586.9,646.9 	"/>
	<polygon class="st15" points="561.6,636.2 574.1,630.3 573.8,636.2 573.2,648.6 554.1,650.9 566.6,645.1 561.6,644 569.7,640.6 	
		"/>
	<polygon class="st15" points="542.6,630.3 532.1,640.7 522.2,644.8 512.8,648.7 526.2,651 505,651.9 512.8,659.3 541.1,651.9 	"/>
	<polygon class="st15" points="575.6,587.7 564.1,627.3 553.9,552 576.4,532.8 582.6,549.1 	"/>
	<polygon class="st15" points="525.5,554.7 538,558.5 542.4,565.8 548.9,590.8 549.6,547.3 	"/>
	<path class="st15" d="M426,445"/>
	<path class="st13" d="M365.8,432.9c0,0,0.5-7.6,2-11.2c1.6-3.6,9.3-11,12.3-11.3s5.8-1.8,5.8-1.8"/>
	<path class="st13" d="M443.2,421.7c0,0-0.5-8.4,0-9.4c0.5-1.1,0.3-4.2,3.5-7.4c8.7-8.7,17.8-9.9,17.8-9.9"/>
	<ellipse class="st13" cx="360.7" cy="423.2" rx="3.3" ry="3.1"/>
	<path class="st15" d="M431.5,435c-4.1,2.2-7.5,15.3-6.1,12.6c1.7-3.2,8.4-12.9,9.4-13.4C435.7,433.6,435.1,433.1,431.5,435z"/>
	<path class="st15" d="M434.8,434.2c0,0-1.8,3.8-2.3,5s-0.9,6.9-0.3,7.9S433.4,440,434.8,434.2z"/>
	<path class="st15" d="M446.3,471.1c0,0,2-1.1,1.4-3.6c-0.6-2.5-4.6-5.7-4.6-5.7l32.7-29.2l-28.3,29.5l63.5-54.4l-5.3,10.1l0,0
		l-9.9,8.2l-9.6,11.4l-10.7,6.8L446.3,471.1z"/>
	<line class="st19" x1="347.9" y1="393.3" x2="345.1" y2="387.1"/>
	<polyline class="st11" points="413.2,398.2 421.8,398.8 420.3,398.5 	"/>
	<polygon class="st15" points="441.3,474.1 434.9,471.1 433.5,465.7 434.9,461.1 430.2,464.2 430.2,469.6 426.1,461.1 426.2,470.1 
		436.1,475.5 	"/>
	<path class="st11" d="M415.2,394.2c0,0,0.5,1.8-0.1,3.4c-0.6,1.6-10.1,4.4-10.1,4.4s-1.6-2.2-2.1-2.9c-0.5-0.7,3.6-2.6,3.6-2.6
		L415.2,394.2z"/>
	<path class="st19" d="M322.3,397.6l-14.4-25.7c0,0-12.7-9.3-16.2-18.8c-3.5-9.5-12.8-41.6-12.8-41.6l106.4-19
		c0,0,2.9,32.3,3.5,35.2c0.6,2.8,1.5,8.5,5.2,15.9c3.8,7.4,6.9,11.1,11.6,21.1c4.6,10,5.8,18.5,5.8,18.5l-22.4,1.1
		c0,0-1.4-8.5-3.4-12.6c-2.1-4.1-10.1-10.4-10.1-10.4l3.2,10.4c0,0,2.9,1.9,3.5,9.8c0.6,7.9,0,11.3,0,11.3l-31.1-4.1
		c0,0-8.3-2.4-14.1,0S322.3,397.6,322.3,397.6z"/>
	<path class="st20" d="M324.9,388.9l12.3-5.7l14.2-0.2l0-13.5c0,0-13.4-1-17.6,0c-3.7,0.9-13.4,7.2-13.4,7.2L324.9,388.9z"/>
	<path class="st11" d="M354.4,399.5c0,0-1.3,0.1-3.2-0.6c-2-0.7-5.6-5.9-5.6-5.9l-2.3-13.5c0,0-2.9-4.9-6-4.4c-3.1,0.6,0,8,0,8
		l0,14.4l-6.1,0l-6.3-1.6"/>
	<path class="st11" d="M330.4,392.5c0,0,2.3,1.6,3,2.7c0.8,1.1,3.9,2.4,3.9,2.4"/>
	<polyline class="st21" points="296.8,361.4 347.8,348.8 394.1,343.6 	"/>
	<path class="st11" d="M312.9,386.9c0-0.8,3.2-0.6,3.2-0.6"/>
	<polygon class="st22" points="376.7,364.7 378.9,371.8 388.4,379.7 385.8,371.8 	"/>
	<polygon class="st22" points="367.9,341.2 385.8,364.7 389.9,367.5 392.8,371.8 395.5,376.5 388.4,379.7 381.7,367.1 	"/>
	<ellipse class="st22" cx="389.9" cy="374.6" rx="2.1" ry="2"/>
	<polygon class="st22" points="392.8,371.8 398.5,374.6 395.5,376.5 	"/>
	<g>
		<g>
			<path class="st22" d="M409.1,395l-13.6-18.5l-7.2,3.2c0,0-1.3-1.7,0.9,4.7c2.2,6.4,0.6,9.7,4.7,13.1c4.1,3.5,11.1,4.2,11.1,4.2
				l4.1-2.3L409.1,395z M402.1,397.4c0,0-6.3-1.4-7.7-4.3c-1.4-2.9-1.6-9-1.6-9s2.4-1.3,2.7-1.3s8.8,12.2,8.8,12.2L402.1,397.4z"/>
		</g>
	</g>
	<g>
		<g>
			<path class="st22" d="M421.9,376.5c0,0-5.5-5.2-9.3-4.7s-14.1,2.8-14.1,2.8l-3,2l4.1,3.1l16,5.5l6.3-2.8L421.9,376.5z
				 M418.4,378.4c-0.5,1.7-3.8,4-3.8,4l-13-3.8l-0.2-2.2l11.5-1.4C413.1,375.1,418.8,376.9,418.4,378.4z"/>
		</g>
	</g>
	<path class="st22" d="M418.7,374"/>
	<path class="st11" d="M418,378.1c0,0-4.1-3.5-7.2-3.1c-3,0.4-8.2,3.6-8.2,3.6s-1.5,3.5,0.8,3.7c2.3,0.2,7.6-2.5,8.4-2.3
		c2.5,0.8,3.7,1.3,4.2,0.9L418,378.1z"/>
	<path class="st11" d="M404.9,384.4c0,0,0.9,1.6,0.7,3.4c-0.2,1.7-8.7,6.4-8.7,6.4s-2-1.8-2.7-2.4c-0.7-0.6,2.9-3.3,2.9-3.3
		L404.9,384.4z"/>
	<path class="st11" d="M409.1,388.7c0,0,0.7,1.7,0.2,3.4c-0.4,1.7-9.4,4.7-9.4,4.7s-2-1.4-2.6-2.1c-0.6-0.7,3.3-2.9,3.3-2.9
		L409.1,388.7z"/>
	<polyline class="st11" points="410,402.2 419.4,403.7 421.5,404.1 	"/>
	<path class="st11" d="M418.4,400.9c0,0-0.1,1.9-1.2,3.3c-1.1,1.4-10.9,1.5-10.9,1.5s-0.8-2.5-1.1-3.4c-0.3-0.9,4.2-1.5,4.2-1.5
		L418.4,400.9z"/>
	<polyline class="st11" points="408.7,393.5 418.5,392.7 418.1,391.5 	"/>
	<polygon class="st20" points="324.8,329.2 299.7,334.4 295.9,317.8 321,312.7 	"/>
	<polygon class="st20" points="330.6,354.6 305.5,359.8 302.6,347.3 327.7,342.2 	"/>
	<line class="st20" x1="312.8" y1="331.7" x2="314.5" y2="344.9"/>
	<line class="st20" x1="351.4" y1="377.4" x2="380.9" y2="378"/>
	<polyline class="st20" points="392.8,371.8 398.5,368.8 389.8,355.9 	"/>
	<polygon class="st20" points="395.1,353.6 383.6,358.7 376.4,343.9 387.8,338.9 	"/>
	<polygon class="st20" points="340.3,355.9 302.7,363.6 291.8,315.7 329.4,308 	"/>
	<polygon class="st20" points="381,320.7 348.4,325.8 345,306.3 377.5,301.1 	"/>
	<line class="st20" x1="332.1" y1="319.7" x2="347.8" y2="317.3"/>
	<polyline class="st20" points="320.4,360.6 328.1,364.8 330.3,370.9 	"/>
	<polygon class="st20" points="360.2,314.4 349.6,316.1 348.2,308.3 358.9,306.6 	"/>
	<polygon class="st20" points="377.4,319.8 366.7,321.5 365.3,313.7 376,312 	"/>
	<polyline class="st20" points="360.4,310.1 369.6,308.6 371.3,312.7 	"/>
	<g>
		<g>
			<path class="st23" d="M337.1,302.2c-0.1,0.2-0.1,0.5,0,1"/>
			<path class="st24" d="M337.3,305.1c0.4,1.7,0.9,3.5,0.9,3.5l9.6,40.2l8.3,11.6l2,26.7"/>
			<line class="st23" x1="358.3" y1="388.2" x2="358.3" y2="389.2"/>
		</g>
	</g>
	<path class="st14" d="M519.8,356.2l6.5-5.2c0,0,30.6-4,30.8-3.9c0.2,0.1,10.4-5.2,10.4-5.2l1.4-2.7l1,3.3l0,2.9l-12.8,7.4
		L519.8,356.2z"/>
</g>
<g id="Ebene_2_1_">
</g>
<rect id="rect4799-6-8-3" x="-0.4" y="633.3" class="st1" width="595.3" height="208.2"/>
<g id="g5902" transform="matrix(1.2833263,0,0,1.2833263,1487.7059,1035.0505)">
	<g id="flowRoot3915-1" transform="translate(-649.1227,-316.58845)">
		<path id="path3282-6" inkscape:connector-curvature="0" class="st25" d="M-147.4,49.2c0,1.2-0.1,2.4-0.4,3.4s-0.7,2-1.4,2.7
			s-1.5,1.4-2.6,1.9c-1.1,0.4-2.5,0.7-4.2,0.7c-1.6,0-2.9-0.2-4.1-0.7c-1.1-0.4-2.1-0.9-2.6-1.4l1.6-3.5c0.7,0.4,1.3,0.7,2.1,1.2
			c0.9,0.4,1.8,0.6,2.6,0.6c1.5,0,2.6-0.4,3.4-1.1c0.7-0.7,1-2.1,1-3.9V32.6h4.6L-147.4,49.2"/>
		<path id="path3284-1" inkscape:connector-curvature="0" class="st25" d="M-132,57.9c-1.7,0-3.2-0.2-4.3-0.7
			c-1.2-0.5-2.2-1.2-3.1-2.1c-0.7-0.9-1.4-1.9-1.8-3.2c-0.4-1.2-0.6-2.5-0.6-3.9V32.7h4.6v15.1c0,1.1,0.1,2.1,0.4,2.9
			c0.3,0.7,0.7,1.4,1,2c0.5,0.5,1,0.8,1.7,1.1c0.7,0.2,1.3,0.4,2.1,0.4c0.7,0,1.5-0.1,2.1-0.4c0.7-0.2,1.2-0.7,1.7-1.1
			c0.5-0.5,0.8-1.1,1-2c0.3-0.8,0.4-1.8,0.4-2.9V32.6h4.6v15.5c0,1.4-0.2,2.7-0.7,3.9c-0.4,1.2-1,2.2-1.8,3.2
			c-0.7,0.9-1.8,1.6-3.1,2.1C-128.8,57.7-130.3,57.9-132,57.9"/>
		<path id="path3286-0" inkscape:connector-curvature="0" class="st25" d="M-104.9,36c-2.6,0-4.6,0.7-5.9,2.4
			c-1.3,1.6-2.1,3.8-2.1,6.5c0,1.3,0.1,2.6,0.5,3.7c0.4,1.1,0.8,2.1,1.4,2.8c0.7,0.7,1.4,1.4,2.4,1.9c1,0.4,2.1,0.7,3.4,0.7
			c0.7,0,1.5,0,2.1-0.1s1-0.1,1.3-0.3v-8.8h4.6v11.8c-0.7,0.2-1.7,0.5-3.2,0.7c-1.5,0.2-3.2,0.4-5.1,0.4s-3.4-0.3-4.9-0.8
			c-1.5-0.6-2.7-1.4-3.8-2.5c-1-1.1-1.8-2.4-2.4-4s-0.8-3.4-0.8-5.5s0.3-3.9,0.9-5.5c0.7-1.6,1.5-2.9,2.6-4s2.4-2,3.8-2.5
			c1.5-0.6,3.1-0.8,4.8-0.8c1.1,0,2.1,0.1,3.1,0.3c0.9,0.1,1.7,0.3,2.3,0.5c0.7,0.2,1.2,0.4,1.6,0.7c0.4,0.2,0.7,0.4,0.9,0.5
			l-1.3,3.7c-0.7-0.4-1.6-0.7-2.6-1C-102.6,36.2-103.7,36-104.9,36"/>
	</g>
	<g id="text3927-1" transform="translate(-952.12858,-907.87941)">
		<path id="path3267-8" inkscape:connector-curvature="0" class="st25" d="M108.8,662.4c-2.6,0-4.6,0.7-5.9,2.4
			c-1.3,1.6-2.1,3.8-2.1,6.5c0,1.3,0.1,2.6,0.5,3.7c0.4,1.1,0.8,2.1,1.4,2.8c0.7,0.7,1.4,1.4,2.4,1.9c1,0.4,2.1,0.7,3.4,0.7
			c0.7,0,1.5,0,2.1-0.1s1-0.1,1.3-0.3v-8.8h4.6V683c-0.7,0.2-1.7,0.5-3.2,0.7s-3.2,0.4-5.1,0.4s-3.4-0.3-4.9-0.8
			c-1.5-0.6-2.7-1.4-3.8-2.5s-1.8-2.4-2.4-4s-0.8-3.4-0.8-5.5s0.3-3.9,0.9-5.5c0.7-1.6,1.5-2.9,2.6-4s2.4-2,3.8-2.5
			c1.5-0.6,3.1-0.8,4.8-0.8c1.1,0,2.1,0.1,3.1,0.3c0.9,0.1,1.7,0.3,2.3,0.5c0.7,0.2,1.2,0.4,1.6,0.7c0.4,0.2,0.7,0.4,0.9,0.5
			l-1.3,3.7c-0.7-0.4-1.6-0.7-2.6-1C111,662.7,109.9,662.4,108.8,662.4"/>
		<path id="path3269-1" inkscape:connector-curvature="0" class="st25" d="M138.3,674.4c0,1.5-0.2,2.8-0.7,4c-0.4,1.2-1,2.2-1.8,3.2
			c-0.7,0.8-1.8,1.5-2.9,2.1c-1.1,0.5-2.3,0.7-3.6,0.7c-1.3,0-2.6-0.2-3.6-0.7c-1.1-0.5-2.1-1.1-2.8-2.1c-0.7-0.8-1.4-1.9-1.9-3.2
			c-0.4-1.2-0.7-2.6-0.7-4s0.2-2.8,0.7-4c0.4-1.2,1-2.2,1.9-3.2c0.8-0.8,1.8-1.5,2.9-2s2.3-0.7,3.6-0.7s2.5,0.2,3.6,0.7
			c1.1,0.4,2.1,1.1,2.9,2s1.4,1.9,1.8,3.2C138,671.6,138.3,673,138.3,674.4 M133.8,674.4c0-1.9-0.4-3.4-1.2-4.4
			c-0.7-1.1-1.9-1.7-3.4-1.7c-1.4,0-2.6,0.6-3.4,1.7c-0.7,1-1.2,2.5-1.2,4.4s0.4,3.4,1.2,4.5c0.8,1.1,2,1.7,3.4,1.7
			c1.4,0,2.5-0.6,3.4-1.7S133.8,676.3,133.8,674.4 M125.5,662.1c-0.7,0-1.2-0.2-1.7-0.7c-0.5-0.4-0.7-1-0.7-1.8s0.2-1.3,0.7-1.8
			c0.5-0.4,1-0.7,1.7-0.7s1.2,0.2,1.7,0.7c0.5,0.4,0.7,1,0.7,1.8s-0.3,1.3-0.7,1.8C126.7,661.8,126.2,662.1,125.5,662.1 M133,662.1
			c-0.7,0-1.2-0.2-1.8-0.7c-0.5-0.4-0.7-1-0.7-1.8s0.2-1.3,0.7-1.8c0.5-0.4,1-0.7,1.8-0.7c0.7,0,1.2,0.2,1.7,0.7
			c0.5,0.4,0.7,1,0.7,1.8s-0.2,1.3-0.7,1.8C134.1,661.8,133.5,662.1,133,662.1"/>
		<path id="path3271-8" inkscape:connector-curvature="0" class="st25" d="M153.3,669.1c-0.4-0.1-0.8-0.2-1.5-0.4
			c-0.7-0.1-1.3-0.2-2.1-0.2c-0.5,0-1,0.1-1.5,0.1c-0.6,0.1-0.9,0.2-1.1,0.3v15h-4.3v-17.8c0.8-0.3,1.9-0.7,3.2-0.8
			c1.3-0.3,2.6-0.4,4.2-0.4c0.3,0,0.7,0,1,0.1c0.4,0,0.7,0.1,1.1,0.1c0.4,0.1,0.7,0.1,1.1,0.2s0.7,0.1,0.8,0.2L153.3,669.1"/>
		<path id="path3273-5" inkscape:connector-curvature="0" class="st25" d="M163.6,684.2c-1.3,0-2.4-0.1-3.2-0.4
			c-0.8-0.3-1.5-0.7-2.1-1.1c-0.5-0.5-0.8-1.1-1-1.8s-0.3-1.6-0.3-2.5v-21.5l4.3-0.7v21.4c0,0.6,0.1,1,0.1,1.3
			c0.1,0.4,0.3,0.7,0.5,0.9s0.5,0.4,0.8,0.6s0.8,0.2,1.4,0.3L163.6,684.2"/>
		<path id="path3275-0" inkscape:connector-curvature="0" class="st25" d="M172,683.8h-4.3v-18.7h4.3V683.8 M172.5,659.6
			c0,0.8-0.3,1.5-0.7,2c-0.6,0.5-1.1,0.7-1.9,0.7c-0.8,0-1.4-0.2-1.9-0.7c-0.6-0.5-0.7-1.1-0.7-2c0-0.8,0.3-1.5,0.7-2
			c0.6-0.5,1.2-0.7,1.9-0.7s1.3,0.2,1.9,0.7C172.2,658.2,172.5,658.8,172.5,659.6"/>
		<path id="path3277-1" inkscape:connector-curvature="0" class="st25" d="M177.3,660.1l4.3-0.7v5.7h6.6v3.6h-6.6v7.6
			c0,1.5,0.2,2.6,0.7,3.2c0.4,0.7,1.3,1,2.4,1c0.7,0,1.5-0.1,2.1-0.3c0.7-0.1,1.1-0.4,1.5-0.5l0.7,3.4c-0.5,0.2-1.2,0.4-2,0.7
			c-0.8,0.2-1.8,0.4-2.9,0.4c-1.3,0-2.4-0.2-3.4-0.6c-0.9-0.4-1.6-0.8-2.1-1.5c-0.6-0.7-0.9-1.5-1.1-2.4c-0.2-1-0.4-2.1-0.4-3.4
			L177.3,660.1"/>
		<path id="path3279-5" inkscape:connector-curvature="0" class="st25" d="M205.6,668.2c-0.5,0.5-1.1,1.2-1.9,2.1
			c-0.7,0.9-1.6,1.9-2.4,3.1c-0.9,1.1-1.8,2.2-2.6,3.5c-0.9,1.2-1.7,2.3-2.4,3.4h9.6v3.6H191v-2.6c0.6-1,1.2-2.1,2-3.2
			c0.7-1.1,1.6-2.2,2.4-3.4c0.8-1.2,1.7-2.2,2.4-3.3c0.8-1,1.6-1.9,2.2-2.6h-8.6v-3.6h14.2L205.6,668.2"/>
	</g>
	<path id="path10-5" inkscape:connector-curvature="0" sodipodi:nodetypes="cccccc" class="st26" d="M-725.6-230.5
		c5.4,5.5-2.5,11.5-2.5,11.5s8.5-2.7,6.8-11.8c-1.3-3.5-13.1-16.6,0.8-29.7C-720.3-260.5-740.4-251.2-725.6-230.5L-725.6-230.5z"/>
	<path id="path10-7-2" inkscape:connector-curvature="0" sodipodi:nodetypes="cccccc" class="st27" d="M-734.4-286
		c0,0,10.5,21,4.6,27.4c-9.5,14.9-12.4,14.9,1.9,36.6c-11.6-9.5-17.6-20.9-14.3-26.6C-731.8-261.1-728.8-266.9-734.4-286L-734.4-286
		z"/>
</g>
<image style="overflow:visible;enable-background:new    ;" width="505" height="238" id="image4325" xlink:href="EB2E1F34.png"  transform="matrix(0.1327 0 0 0.1327 493.831 789.0551)">
</image>
<text id="text109" transform="matrix(1 0 0 1 389.5754 771.9805)" class="st2 st3 st28">http://www.jug-gr.de</text>
<text id="text54" transform="matrix(1 0 0 1 33.2998 687.5503)" class="st2 st3 st6">Mittwoch, 31.01.2018</text>
<text id="text56" transform="matrix(1 0 0 1 33.2998 711.5503)" class="st2 st3 st6">19:00 Uhr</text>
<text id="text58" transform="matrix(1 0 0 1 33.2998 735.5503)" class="st2 st3 st9">Saxonia Systems AG</text>
<g id="g60">
	<text transform="matrix(1 0 0 1 33.2998 759.5503)" class="st2 st3 st9">Berliner Straße 63 </text>
	<text id="text68" transform="matrix(1 0 0 1 32.7998 785.5503)" class="st2 st3 st9">02826 Görlitz</text>
</g>
</svg>
