<?xml version="1.0" encoding="UTF-8" standalone="no"?>
<!-- Created with Inkscape (http://www.inkscape.org/) -->

<svg
   xmlns:dc="http://purl.org/dc/elements/1.1/"
   xmlns:cc="http://creativecommons.org/ns#"
   xmlns:rdf="http://www.w3.org/1999/02/22-rdf-syntax-ns#"
   xmlns:svg="http://www.w3.org/2000/svg"
   xmlns="http://www.w3.org/2000/svg"
   xmlns:sodipodi="http://sodipodi.sourceforge.net/DTD/sodipodi-0.dtd"
   xmlns:inkscape="http://www.inkscape.org/namespaces/inkscape"
   width="68.82711mm"
   height="33.845985mm"
   viewBox="0 0 243.87559 119.92672"
   id="svg2"
   version="1.1"
   inkscape:version="0.91 r13725"
   sodipodi:docname="LogoNeuV7.svg"
   inkscape:export-filename="D:\JUGGR\grafiken\Logo\LogoNeuV7.png"
   inkscape:export-xdpi="150"
   inkscape:export-ydpi="150">
  <defs
     id="defs4" />
  <sodipodi:namedview
     id="base"
     pagecolor="#ffffff"
     bordercolor="#666666"
     borderopacity="1.0"
     inkscape:pageopacity="0.0"
     inkscape:pageshadow="2"
     inkscape:zoom="1.4142136"
     inkscape:cx="22.672358"
     inkscape:cy="148.89208"
     inkscape:document-units="px"
     inkscape:current-layer="layer1"
     showgrid="false"
     showguides="true"
     inkscape:guide-bbox="true"
     inkscape:window-width="1920"
     inkscape:window-height="1147"
     inkscape:window-x="-8"
     inkscape:window-y="-8"
     inkscape:window-maximized="1"
     fit-margin-top="0"
     fit-margin-left="0"
     fit-margin-right="0"
     fit-margin-bottom="0" />
  <metadata
     id="metadata7">
    <rdf:RDF>
      <cc:Work
         rdf:about="">
        <dc:format>image/svg+xml</dc:format>
        <dc:type
           rdf:resource="http://purl.org/dc/dcmitype/StillImage" />
        <dc:title />
      </cc:Work>
    </rdf:RDF>
  </metadata>
  <g
     inkscape:label="Ebene 1"
     inkscape:groupmode="layer"
     id="layer1"
     transform="translate(-156.4575,-510.48169)">
    <g
       transform="translate(366.68099,355.43456)"
       style="font-style:normal;font-weight:normal;font-size:40px;line-height:125%;font-family:Sans;text-align:end;letter-spacing:0px;word-spacing:0px;text-anchor:end;fill:#ffffff;fill-opacity:1;stroke:#000000;stroke-width:2;stroke-linejoin:miter;stroke-miterlimit:4;stroke-opacity:1;stroke-dasharray:none"
       id="flowRoot3915">
      <path
         d="m -102.3475,188.36171 c -3e-5,2.17601 -0.23469,4.20268 -0.704,6.08 -0.46936,1.87734 -1.30136,3.52 -2.496,4.928 -1.15202,1.408 -2.73069,2.51733 -4.736,3.328 -1.96268,0.81067 -4.45868,1.216 -7.488,1.216 -2.81601,0 -5.26934,-0.384 -7.36,-1.152 -2.048,-0.81067 -3.62667,-1.664 -4.736,-2.56 l 2.88,-6.336 c 1.06666,0.72534 2.36799,1.42934 3.904,2.112 1.57866,0.64001 3.17866,0.96001 4.8,0.96 2.73065,1e-5 4.71465,-0.68266 5.952,-2.048 1.23731,-1.36532 1.85598,-3.71199 1.856,-7.04 l 0,-29.248 8.128,0 0,29.76"
         style="font-variant:normal;font-weight:500;font-stretch:normal;font-size:64px;font-family:Ubuntu;-inkscape-font-specification:'Ubuntu Medium';fill:#ffffff;stroke:#000000;stroke-width:2;stroke-miterlimit:4;stroke-dasharray:none"
         id="path3282"
         inkscape:connector-curvature="0" />
      <path
         d="m -74.9125,203.91371 c -3.029353,0 -5.632017,-0.42667 -7.808,-1.28 -2.176012,-0.896 -3.989344,-2.13333 -5.44,-3.712 -1.408008,-1.57866 -2.45334,-3.43466 -3.136,-5.568 -0.682672,-2.13332 -1.024005,-4.47999 -1.024,-7.04 l 0,-27.712 8.128,0 0,26.944 c -1.3e-5,2.00535 0.21332,3.73335 0.64,5.184 0.469319,1.40801 1.109318,2.56001 1.92,3.456 0.853317,0.89601 1.834649,1.55734 2.944,1.984 1.15198,0.42667 2.431979,0.64001 3.84,0.64 1.407976,1e-5 2.687975,-0.21333 3.84,-0.64 1.151973,-0.42666 2.133305,-1.08799 2.944,-1.984 0.853303,-0.89599 1.493303,-2.04799 1.92,-3.456 0.469302,-1.45065 0.703968,-3.17865 0.704,-5.184 l 0,-26.944 8.128,0 0,27.712 c -4e-5,2.56001 -0.362706,4.90668 -1.088,7.04 -0.682705,2.13334 -1.74937,3.98934 -3.2,5.568 -1.408034,1.57867 -3.221366,2.816 -5.44,3.712 -2.218695,0.85333 -4.842692,1.28 -7.872,1.28"
         style="font-variant:normal;font-weight:500;font-stretch:normal;font-size:64px;font-family:Ubuntu;-inkscape-font-specification:'Ubuntu Medium';fill:#ffffff;stroke:#000000;stroke-width:2;stroke-miterlimit:4;stroke-dasharray:none"
         id="path3284"
         inkscape:connector-curvature="0" />
      <path
         d="m -26.2645,164.68171 c -4.565355,4e-5 -8.064018,1.42937 -10.496,4.288 -2.389346,2.81603 -3.584012,6.74136 -3.584,11.776 -1.2e-5,2.38935 0.277321,4.58668 0.832,6.592 0.59732,1.96268 1.450652,3.64801 2.56,5.056 1.151983,1.40801 2.559982,2.51734 4.224,3.328 1.706645,0.76801 3.690643,1.15201 5.952,1.152 1.407973,1e-5 2.623972,-0.0427 3.648,-0.128 1.02397,-0.12799 1.834636,-0.27733 2.432,-0.448 l 0,-15.936 8.064,0 0,21.312 c -1.109372,0.42667 -2.986703,0.896 -5.632,1.408 -2.645365,0.512 -5.696028,0.768 -9.152,0.768 -3.200022,0 -6.122685,-0.512 -8.768,-1.536 -2.645347,-1.024 -4.906678,-2.51733 -6.784,-4.48 -1.834674,-1.96266 -3.264006,-4.37332 -4.288,-7.232 -1.024004,-2.85865 -1.536004,-6.14398 -1.536,-9.856 -4e-6,-3.71197 0.554663,-6.9973 1.664,-9.856 1.151994,-2.85863 2.709325,-5.2693 4.672,-7.232 1.962655,-2.00529 4.266653,-3.51996 6.912,-4.544 2.645314,-1.02396 5.461311,-1.53595 8.448,-1.536 2.047973,5e-5 3.861304,0.14938 5.44,0.448 1.621301,0.25604 3.007966,0.55471 4.16,0.896 1.151964,0.34138 2.09063,0.70404 2.816,1.088 0.767962,0.38404 1.301294,0.66138 1.6,0.832 l -2.432,6.592 c -1.280036,-0.76796 -2.880034,-1.40796 -4.8,-1.92 -1.877363,-0.55463 -3.861361,-0.83196 -5.952,-0.832"
         style="font-variant:normal;font-weight:500;font-stretch:normal;font-size:64px;font-family:Ubuntu;-inkscape-font-specification:'Ubuntu Medium';fill:#ffffff;stroke:#000000;stroke-width:2;stroke-miterlimit:4;stroke-dasharray:none"
         id="path3286"
         inkscape:connector-curvature="0" />
    </g>
    <g
       style="font-style:normal;font-weight:normal;font-size:40px;line-height:125%;font-family:Sans;letter-spacing:0px;word-spacing:0px;fill:#ffffff;fill-opacity:1;stroke:#000000;stroke-width:2;stroke-linejoin:miter;stroke-miterlimit:4;stroke-opacity:1;stroke-dasharray:none"
       id="text3927"
       transform="translate(63.675114,-235.8564)">
      <path
         d="m 116.56038,818.99228 c -4.56535,4e-5 -8.06402,1.42937 -10.496,4.288 -2.38934,2.81603 -3.58401,6.74136 -3.584,11.776 -1e-5,2.38936 0.27732,4.58669 0.832,6.592 0.59732,1.96268 1.45065,3.64801 2.56,5.056 1.15199,1.40801 2.55998,2.51734 4.224,3.328 1.70665,0.76801 3.69065,1.15201 5.952,1.152 1.40798,1e-5 2.62397,-0.0427 3.648,-0.128 1.02397,-0.12799 1.83464,-0.27732 2.432,-0.448 l 0,-15.936 8.064,0 0,21.312 c -1.10937,0.42667 -2.9867,0.896 -5.632,1.408 -2.64536,0.512 -5.69603,0.768 -9.152,0.768 -3.20002,0 -6.12268,-0.512 -8.768,-1.536 -2.64534,-1.024 -4.90668,-2.51733 -6.783997,-4.48 -1.834675,-1.96266 -3.264007,-4.37332 -4.288,-7.232 -1.024005,-2.85865 -1.536004,-6.14398 -1.536,-9.856 -4e-6,-3.71197 0.554662,-6.9973 1.664,-9.856 1.151993,-2.85863 2.709325,-5.26929 4.671997,-7.232 1.96266,-2.00529 4.26666,-3.51995 6.912,-4.544 2.64532,-1.02395 5.46131,-1.53595 8.448,-1.536 2.04798,5e-5 3.86131,0.14938 5.44,0.448 1.6213,0.25605 3.00797,0.55471 4.16,0.896 1.15197,0.34138 2.09063,0.70405 2.816,1.088 0.76796,0.38404 1.3013,0.66138 1.6,0.832 l -2.432,6.592 c -1.28003,-0.76796 -2.88003,-1.40796 -4.8,-1.92 -1.87736,-0.55463 -3.86136,-0.83196 -5.952,-0.832"
         style="font-variant:normal;font-weight:500;font-stretch:normal;font-size:64px;font-family:Ubuntu;-inkscape-font-specification:'Ubuntu Medium';fill:#ffffff;stroke:#000000;stroke-width:2;stroke-miterlimit:4;stroke-dasharray:none"
         id="path3267"
         inkscape:connector-curvature="0" />
      <path
         d="m 169.46238,840.49628 c -3e-5,2.64535 -0.38403,5.05601 -1.152,7.232 -0.76803,2.17601 -1.85603,4.03201 -3.264,5.568 -1.40803,1.536 -3.11469,2.73067 -5.12,3.584 -1.96269,0.85334 -4.13869,1.28 -6.528,1.28 -2.38935,0 -4.56535,-0.42666 -6.528,-1.28 -1.96267,-0.85333 -3.64801,-2.048 -5.056,-3.584 -1.408,-1.53599 -2.51734,-3.39199 -3.328,-5.568 -0.768,-2.17599 -1.152,-4.58665 -1.152,-7.232 0,-2.64531 0.384,-5.03464 1.152,-7.168 0.81066,-2.17597 1.92,-4.03197 3.328,-5.568 1.45066,-1.53597 3.15733,-2.7093 5.12,-3.52 1.96265,-0.8533 4.11732,-1.27996 6.464,-1.28 2.34665,4e-5 4.50131,0.4267 6.464,1.28 2.00531,0.8107 3.71197,1.98403 5.12,3.52 1.40797,1.53603 2.49597,3.39203 3.264,5.568 0.81063,2.13336 1.21597,4.52269 1.216,7.168 m -7.936,0 c -2e-5,-3.32798 -0.72536,-5.95198 -2.176,-7.872 -1.40802,-1.96264 -3.39202,-2.94397 -5.952,-2.944 -2.56001,3e-5 -4.56535,0.98136 -6.016,2.944 -1.40801,1.92002 -2.11201,4.54402 -2.112,7.872 -10e-6,3.37068 0.70399,6.03735 2.112,8 1.45065,1.96268 3.45599,2.94401 6.016,2.944 2.55998,10e-6 4.54398,-0.98132 5.952,-2.944 1.45064,-1.96265 2.17598,-4.62932 2.176,-8 m -14.784,-22.208 c -1.15201,4e-5 -2.15467,-0.38396 -3.008,-1.152 -0.85334,-0.76796 -1.28001,-1.81329 -1.28,-3.136 -10e-6,-1.32262 0.42666,-2.36795 1.28,-3.136 0.85333,-0.81062 1.85599,-1.21595 3.008,-1.216 1.15199,5e-5 2.15465,0.40538 3.008,1.216 0.89599,0.76805 1.34399,1.81338 1.344,3.136 -1e-5,1.32271 -0.44801,2.36804 -1.344,3.136 -0.85335,0.76804 -1.85601,1.15204 -3.008,1.152 m 13.248,0 c -1.15202,4e-5 -2.17602,-0.38396 -3.072,-1.152 -0.85335,-0.76796 -1.28002,-1.81329 -1.28,-3.136 -2e-5,-1.32262 0.42665,-2.36795 1.28,-3.136 0.89598,-0.81062 1.91998,-1.21595 3.072,-1.216 1.15198,5e-5 2.15464,0.40538 3.008,1.216 0.85331,0.76805 1.27997,1.81338 1.28,3.136 -3e-5,1.32271 -0.42669,2.36804 -1.28,3.136 -0.85336,0.76804 -1.85602,1.15204 -3.008,1.152"
         style="font-variant:normal;font-weight:500;font-stretch:normal;font-size:64px;font-family:Ubuntu;-inkscape-font-specification:'Ubuntu Medium';fill:#ffffff;stroke:#000000;stroke-width:2;stroke-miterlimit:4;stroke-dasharray:none"
         id="path3269"
         inkscape:connector-curvature="0" />
      <path
         d="m 196.51238,830.76828 c -0.64002,-0.2133 -1.53602,-0.42664 -2.688,-0.64 -1.10935,-0.25597 -2.41068,-0.38397 -3.904,-0.384 -0.85335,3e-5 -1.77068,0.0854 -2.752,0.256 -0.93868,0.1707 -1.60001,0.32003 -1.984,0.448 l 0,26.816 -7.744,0 0,-31.872 c 1.49333,-0.55463 3.34933,-1.06663 5.568,-1.536 2.26132,-0.51196 4.75732,-0.76796 7.488,-0.768 0.51198,4e-5 1.10932,0.0427 1.792,0.128 0.68265,0.0427 1.36531,0.12804 2.048,0.256 0.68265,0.0854 1.34398,0.21337 1.984,0.384 0.63998,0.12804 1.15198,0.25604 1.536,0.384 l -1.344,6.528"
         style="font-variant:normal;font-weight:500;font-stretch:normal;font-size:64px;font-family:Ubuntu;-inkscape-font-specification:'Ubuntu Medium';fill:#ffffff;stroke:#000000;stroke-width:2;stroke-miterlimit:4;stroke-dasharray:none"
         id="path3271"
         inkscape:connector-curvature="0" />
      <path
         d="m 214.83838,857.90428 c -2.30401,-0.0427 -4.22401,-0.29866 -5.76,-0.768 -1.49334,-0.46933 -2.68801,-1.13066 -3.584,-1.984 -0.896,-0.89599 -1.536,-1.98399 -1.92,-3.264 -0.34134,-1.32266 -0.512,-2.81599 -0.512,-4.48 l 0,-38.528 7.744,-1.28 0,38.336 c -1e-5,0.93868 0.064,1.72801 0.192,2.368 0.17066,0.64001 0.44799,1.19468 0.832,1.664 0.38399,0.42668 0.89599,0.76801 1.536,1.024 0.68265,0.21334 1.53599,0.38401 2.56,0.512 l -1.088,6.4"
         style="font-variant:normal;font-weight:500;font-stretch:normal;font-size:64px;font-family:Ubuntu;-inkscape-font-specification:'Ubuntu Medium';fill:#ffffff;stroke:#000000;stroke-width:2;stroke-miterlimit:4;stroke-dasharray:none"
         id="path3273"
         inkscape:connector-curvature="0" />
      <path
         d="m 229.99838,857.26428 -7.744,0 0,-33.472 7.744,0 0,33.472 m 0.832,-43.264 c -1e-5,1.45071 -0.46934,2.60271 -1.408,3.456 -0.93868,0.85337 -2.04801,1.28004 -3.328,1.28 -1.32267,4e-5 -2.45334,-0.42663 -3.392,-1.28 -0.93867,-0.85329 -1.408,-2.00529 -1.408,-3.456 0,-1.49329 0.46933,-2.66662 1.408,-3.52 0.93866,-0.85328 2.06933,-1.27995 3.392,-1.28 1.27999,5e-5 2.38932,0.42672 3.328,1.28 0.93866,0.85338 1.40799,2.02671 1.408,3.52"
         style="font-variant:normal;font-weight:500;font-stretch:normal;font-size:64px;font-family:Ubuntu;-inkscape-font-specification:'Ubuntu Medium';fill:#ffffff;stroke:#000000;stroke-width:2;stroke-miterlimit:4;stroke-dasharray:none"
         id="path3275"
         inkscape:connector-curvature="0" />
      <path
         d="m 239.43138,814.96028 7.744,-1.28 0,10.112 11.904,0 0,6.464 -11.904,0 0,13.632 c -1e-5,2.68801 0.42666,4.60801 1.28,5.76 0.85332,1.15201 2.30399,1.72801 4.352,1.728 1.40798,1e-5 2.64532,-0.14933 3.712,-0.448 1.10931,-0.29866 1.98398,-0.57599 2.624,-0.832 l 1.28,6.144 c -0.89602,0.384 -2.06935,0.768 -3.52,1.152 -1.45068,0.42667 -3.15735,0.64 -5.12,0.64 -2.38935,0 -4.39468,-0.32 -6.016,-0.96 -1.57867,-0.64 -2.83734,-1.55733 -3.776,-2.752 -0.93867,-1.23733 -1.6,-2.70933 -1.984,-4.416 -0.384,-1.74932 -0.576,-3.73332 -0.576,-5.952 l 0,-28.992"
         style="font-variant:normal;font-weight:500;font-stretch:normal;font-size:64px;font-family:Ubuntu;-inkscape-font-specification:'Ubuntu Medium';fill:#ffffff;stroke:#000000;stroke-width:2;stroke-miterlimit:4;stroke-dasharray:none"
         id="path3277"
         inkscape:connector-curvature="0" />
      <path
         d="m 289.98938,829.23228 c -0.85336,0.89603 -1.98402,2.15469 -3.392,3.776 -1.36535,1.62136 -2.83735,3.43469 -4.416,5.44 -1.57868,1.96269 -3.17868,4.03202 -4.8,6.208 -1.57868,2.13335 -3.00801,4.18134 -4.288,6.144 l 17.28,0 0,6.464 -26.624,0 0,-4.8 c 0.93867,-1.70666 2.112,-3.56266 3.52,-5.568 1.408,-2.00532 2.85866,-4.01065 4.352,-6.016 1.49332,-2.04798 2.96532,-3.98931 4.416,-5.824 1.49332,-1.83464 2.81599,-3.43464 3.968,-4.8 l -15.424,0 0,-6.464 25.408,0 0,5.44"
         style="font-variant:normal;font-weight:500;font-stretch:normal;font-size:64px;font-family:Ubuntu;-inkscape-font-specification:'Ubuntu Medium';fill:#ffffff;stroke:#000000;stroke-width:2;stroke-miterlimit:4;stroke-dasharray:none"
         id="path3279"
         inkscape:connector-curvature="0" />
    </g>
    <path
       style="fill:#f58219;fill-rule:nonzero;stroke:#000000;stroke-opacity:1;stroke-width:2;stroke-miterlimit:4;stroke-dasharray:none"
       d="m 391.15841,609.88342 c 9.69498,9.92608 -4.55716,20.525 -4.55716,20.525 0,0 15.09705,-4.86241 12.18077,-21.14993 -2.37125,-6.38393 -23.50027,-29.62707 1.54799,-53.21517 0.38387,0.16864 -35.51416,16.75971 -9.1716,53.84018 z"
       id="path10"
       inkscape:connector-curvature="0"
       sodipodi:nodetypes="cccccc" />
    <path
       style="fill:#4e7896;fill-opacity:1;fill-rule:nonzero;stroke:#000000;stroke-opacity:1;stroke-width:2;stroke-miterlimit:4;stroke-dasharray:none"
       d="m 375.44802,510.48169 c 0,0 18.85478,37.79355 8.12483,49.15887 -16.99242,26.7939 -22.22467,26.63619 3.37563,65.46768 -20.61719,-17.01776 -31.51488,-37.34506 -25.44779,-47.59871 18.72349,-22.4342 24.05119,-32.7998 13.9418,-67.02725 z"
       id="path10-7"
       inkscape:connector-curvature="0"
       sodipodi:nodetypes="cccccc" />
  </g>
</svg>
