<?xml version="1.0" encoding="utf-8"?>
<!-- Generator: Adobe Illustrator 21.0.2, SVG Export Plug-In . SVG Version: 6.00 Build 0)  -->
<svg version="1.1"
	 id="svg2" inkscape:export-filename="C:\Users\Marlene\Pictures\jugplakate\jug-butler.png" inkscape:export-xdpi="90" inkscape:export-ydpi="90" inkscape:version="0.91 r13725" sodipodi:docname="jug-buttler.svg" xmlns:cc="http://creativecommons.org/ns#" xmlns:dc="http://purl.org/dc/elements/1.1/" xmlns:inkscape="http://www.inkscape.org/namespaces/inkscape" xmlns:rdf="http://www.w3.org/1999/02/22-rdf-syntax-ns#" xmlns:sodipodi="http://sodipodi.sourceforge.net/DTD/sodipodi-0.dtd" xmlns:svg="http://www.w3.org/2000/svg"
	 xmlns="http://www.w3.org/2000/svg" xmlns:xlink="http://www.w3.org/1999/xlink" x="0px" y="0px" viewBox="0 0 2160 3840"
	 style="enable-background:new 0 0 2160 3840;" xml:space="preserve">
<style type="text/css">
	.st0{fill:#57888D;stroke:#000000;stroke-width:9;}
	.st1{fill:#FFFFFF;stroke:#000000;stroke-width:8;}
	.st2{fill:#D3623A;stroke:#000000;stroke-width:13;}
	.st3{fill:#FFFFFF;stroke:#000000;stroke-width:6;stroke-linecap:round;}
	.st4{fill:#D3623A;stroke:#000000;stroke-width:8;}
	.st5{fill:#D3623A;stroke:#000000;stroke-width:8.416;}
	.st6{stroke:#000000;}
	.st7{fill:#FFFFFF;stroke:#000000;stroke-width:10;}
	.st8{fill:#E1D2B1;stroke:#000000;stroke-width:10;}
	.st9{fill:#FFFFFF;stroke:#000000;stroke-width:0.3098;}
	.st10{stroke:#000000;stroke-width:10;}
	.st11{fill:none;stroke:#000000;stroke-width:7;}
	.st12{fill:none;stroke:#000000;stroke-width:13;}
	.st13{fill:none;stroke:#000000;stroke-width:16;}
	.st14{fill:none;stroke:#000000;stroke-width:12.9411;}
	.st15{fill:none;stroke:#000000;stroke-width:10.6039;}
	.st16{fill:none;stroke:#000000;stroke-width:10;}
	.st17{fill:none;stroke:#000000;stroke-width:14.4869;}
	.st18{fill:none;stroke:#000000;stroke-width:15.5058;}
	.st19{fill:#E1D2B1;stroke:#000000;stroke-width:10;stroke-linecap:round;}
	.st20{fill:none;stroke:#000000;stroke-width:10;stroke-linecap:round;}
	.st21{fill:none;stroke:#000000;stroke-width:6;stroke-linecap:round;}
	.st22{stroke:#000000;stroke-width:9;}
	.st23{fill:none;stroke:#000000;stroke-width:7;stroke-linecap:round;}
	.st24{fill:#57888D;stroke:#000000;stroke-width:6;stroke-linecap:round;}
	.st25{stroke:#000000;stroke-width:4;stroke-linecap:round;}
	.st26{fill:none;stroke:#000000;stroke-width:8;}
	.st27{fill:none;stroke:#000000;stroke-width:7.901;}
	.st28{fill:#57888D;stroke:#000000;}
	.st29{stroke:#000000;stroke-width:0.8964;}
	.st30{fill:none;stroke:#000000;stroke-width:9;stroke-linecap:round;}
	.st31{fill:none;stroke:#000000;stroke-width:6.4704;}
	.st32{fill:#57888D;stroke:#000000;stroke-width:1.0821;}
	.st33{fill:#57888D;stroke:#000000;stroke-width:2.2524;}
	.st34{fill:#57888D;stroke:#000000;stroke-width:1.4805;}
	.st35{fill:#57888D;stroke:#000000;stroke-width:0.8634;}
	.st36{fill:none;stroke:#000000;stroke-width:6;}
	.st37{stroke:#000000;stroke-width:1.0555;}
	.st38{stroke:#000000;stroke-width:6;stroke-linecap:round;}
	.st39{fill:none;}
	.st40{fill:#A8A8A7;stroke:#000000;stroke-width:10;}
	.st41{fill:#C00000;}
	.st42{fill:#1D1D1B;}
	.st43{fill:#B3B3B3;}
	.st44{fill:#AF2B2D;}
	.st45{fill:#DF2E31;}
	.st46{fill:#F2F2F2;}
	.st47{fill:#A8A8A7;stroke:#000000;stroke-width:5;}
</style>
<defs>
	
	<inkscape:path-effect  effect="spiro" id="path-effect4253" is_visible="true"></inkscape:path-effect>
	<inkscape:path-effect  effect="spiro" id="path-effect4205" is_visible="true"></inkscape:path-effect>
	<inkscape:path-effect  effect="spiro" id="path-effect4205-7" is_visible="true"></inkscape:path-effect>
	<inkscape:path-effect  effect="spiro" id="path-effect4205-2" is_visible="true"></inkscape:path-effect>
	<inkscape:path-effect  effect="spiro" id="path-effect4253-1" is_visible="true"></inkscape:path-effect>
</defs>
<sodipodi:namedview  bordercolor="#666666" borderopacity="1.0" fit-margin-bottom="0" fit-margin-left="0" fit-margin-right="0" fit-margin-top="0" id="base" inkscape:current-layer="layer2" inkscape:cx="238.7493" inkscape:cy="2828.7259" inkscape:document-units="px" inkscape:pageopacity="0.0" inkscape:pageshadow="2" inkscape:window-height="1002" inkscape:window-maximized="0" inkscape:window-width="1095" inkscape:window-x="0" inkscape:window-y="0" inkscape:zoom="0.25" pagecolor="#ffffff" showgrid="false">
	</sodipodi:namedview>
<path class="st0" d="M757.7,1305.8c-27.2,15.7-125.6,155.8-152.7,235.2c-0.1,0.2-11.4,20.8-11.5,21l-107.3,203.5
	c-0.4,0.8-1.6,0.7-1.9-0.1l0,0c-0.4-1.2,1.4-1.9,1.9-0.7l13.2,55.8c5.7,3.4,43.5,80.4,86.5,60.7c47.2-21.6,96.6-94,96.6-94
	l111.7-176.3c0.1-0.2,6.8-55.2,6.8-55.5l-13.5-251.7C787.5,1303.7,766,1301.1,757.7,1305.8z"/>
<path id="path4595" inkscape:connector-curvature="0" class="st0" d="M749,2161l56.6,726.3l495.5,4.5l36.2-706L749,2161z"/>
<path id="path4508" inkscape:connector-curvature="0" class="st1" d="M807.8,2170.1c0,0,31.7,52,108.6,61.1s190.1-13.6,255.7-45.3
	s76.9-436.7,76.9-436.7l-411.8-4.5L807.8,2170.1z"/>
<path id="path4322" inkscape:connector-curvature="0" sodipodi:nodetypes="ccssssssc" class="st2" d="M809.7,874.7l13.5-73.1
	c0,0-74.7-46.2-96.2-69c-21.5-22.7-43.9-64.7-24.1-75.9c19.8-11.2,111.8-53,157.1-54c45.3-1.1,296.4-30.2,347.7-0.9
	c51.3,29.2,129.2,24.3,108.6,138.6c-20.5,114.3-49.3,269.7-65.7,304.5C1234.1,1079.6,809.7,874.7,809.7,874.7L809.7,874.7z"/>
<rect id="rect4479" x="868.9" y="1344.2" class="st3" width="368.8" height="183.3"/>
<path id="path4398" inkscape:connector-curvature="0" class="st4" d="M1000,1374.4c24,57.6,35.2,60.8,35.2,60.8l20.8,3.2l49.6-54.4
	l8-81.6l-104-6.4L1000,1374.4z"/>
<path id="path4400" inkscape:connector-curvature="0" class="st5" d="M1024.9,1432.2l-67.3,61.5l-28.1,460.9l90.4,11.2l111.4-447.3
	l-71.8-82.3L1024.9,1432.2z"/>
<path id="path4433" inkscape:connector-curvature="0" class="st0" d="M929.5,1284.6C797.1,1298,797.1,1298,797.1,1298l-2.9,538.8
	c0,0-60.1,219.8-84.1,240.6s21.1,233,21.1,233l54.4-9.6l161.6-241.6l23.9-782.1L929.5,1284.6z"/>
<path id="path4402" inkscape:connector-curvature="0" class="st0" d="M1136,1424l-152,635.2l180.8,238.4l99.2,12.8l112-124.8
	l-89.6-313.6l16-313.6l131.2-240l-240-54.4L1136,1424z"/>
<path id="path4652" inkscape:connector-curvature="0" sodipodi:nodetypes="csssccc" class="st6" d="M1123.8,1437.7
	c0,0,14.1-18.7,37.3-26.6c23.2-7.9,100.2-57.2,106.9-62.2c5.7-4.2,34.5-29.4,32.8-49.2c-1.7-19.8-20.9-35.6-20.9-35.6l-149.3,122.2
	L1123.8,1437.7z"/>
<path id="path4394" inkscape:connector-curvature="0" sodipodi:nodetypes="czzzsccc" class="st7" d="M1195.9,1207.2
	c0,0,11.6-3.1,25.8,3.6c14.2,6.6,41.5,27.8,50.3,45.6c8.8,17.8,16.4,19.5,4.1,51.1c-12.4,31.6-75.7,91.8-112,103.1
	c-36.3,11.4-45.4,21.4-45.4,21.4l-46.3-95.5L1195.9,1207.2z"/>
<path id="path4396" inkscape:connector-curvature="0" class="st7" d="M994.3,1244.2l-65.9,28.8c0,0-22,9.1-15.8,37.6
	s56.6,111,56.6,111l46.9-90.4l13.3-88.7L994.3,1244.2z"/>
<path id="path4310" inkscape:connector-curvature="0" sodipodi:nodetypes="ccssssssssssccccsscc" class="st8" d="M860.6,779.4
	l-29.1,112.4c0,0-1.8,80.5-2.7,119.1c-1,38.6-1.7,104.9,11.4,129.7c13.1,24.9,31,55.7,74.5,77.4c43.5,21.7,112.4,39.9,145.7,27.5
	c33.4-12.4,64.2-30.3,82.9-53.3c18.7-23,68.2-98.6,67.9-103.1c-0.2-4.5,3.9,7.9,14.6-4.5s31.5-40.6,27.1-60.2
	c-4.3-19.6,5.9-42.8-17.8-39.4c-23.6,3.4-32.1,3.3-44.9,32.2c-12.8,28.9-4.9-19-4.9-19l14.3-9.8l-13.1-12.4l16-56.3
	c0,0-44.1,1-45.7-8s13.8-66.4-8.8-134.9c-22.6-68.6-200.5-11.3-200.5-11.3S873.1,792.4,860.6,779.4L860.6,779.4z"/>
<ellipse id="path3350" transform="matrix(0.9988 -4.828069e-02 4.828069e-02 0.9988 -43.833 51.6364)" class="st6" cx="1047" cy="933.2" rx="28.3" ry="44.9"/>
<ellipse id="path3350-4" transform="matrix(0.9988 -4.828069e-02 4.828069e-02 0.9988 -44.1759 43.4422)" class="st6" cx="877.2" cy="936.2" rx="28.3" ry="44.9"/>
<ellipse id="path3350-47" transform="matrix(0.9988 -4.828069e-02 4.828069e-02 0.9988 -44.4661 51.2265)" class="st9" cx="1038.2" cy="946.1" rx="8.8" ry="13.9"/>
<ellipse id="path3350-47-1" transform="matrix(0.9988 -4.828069e-02 4.828069e-02 0.9988 -44.6629 43.077)" class="st9" cx="869.4" cy="946.1" rx="8.8" ry="13.9"/>
<path id="path4251" inkscape:connector-curvature="0" inkscape:original-d="m 606.14282,-430.8521 2.5,-8 c 0,0 -0.5,-18.5 -14,-22 -13.5,-3.5 -44.5,8 -44.5,8 l -3.5,9.5 c 0,0 12.5,-2 25.5,-3 13,-1 29,3.5 34,15.5 z" inkscape:path-effect="#path-effect4253" class="st6" d="
	M903.7,880.2l1.7-6.5c-1.4-7-5.9-13.3-12-17c-5.7-3.4-12.8-4.6-19.3-3.1s-12.4,5.6-16,11.2l-2.4,7.7c6.4-2.6,13.4-3.8,20.3-3.4
	C886.1,869.7,896,873.6,903.7,880.2z"/>
<path id="path4251-3" inkscape:connector-curvature="0" inkscape:original-d="m 756.00536,-422.5189 -1.13576,-8.4564 c 0,0 3.50596,-18.13948 17.25702,-18.54941 13.75105,-0.40992 42.14058,17.92413 42.14058,17.92413 l 1.86738,10.16172 c 0,0 -11.87756,-4.79099 -24.4064,-8.70808 -12.52885,-3.91708 -28.88379,-3.08411 -35.72282,7.62804 z" inkscape:path-effect="#path-effect4253-1" class="st6" d="
	M1013.2,885.8l-2.8-6.2c0.3-6.9,3.7-13.7,9-18.2c5.2-4.4,12.3-6.5,19.1-5.8c6.8,0.8,13.2,4.4,17.3,9.9l3.8,7.4
	c-6.7-1.9-13.8-2.3-20.7-1.1C1029.1,873.6,1020,878.6,1013.2,885.8z"/>
<path id="path4304" inkscape:connector-curvature="0" class="st6" d="M913.6,900.1l7.7,1.2l-36.4,159.1c0,0-0.1,5.6,4.7,6.2
	s36.9,0.2,36.9,0.2s11.3,1.9,7.9,6.8c-3.4,5-50,1.2-50,1.2s-15.2-7.3-15-11.7c0.2-4.4,5.6-17.5,11.6-41
	C887.1,998.7,913.6,900.1,913.6,900.1z"/>
<path inkscape:connector-curvature="0" class="st10" d="M1033.3,1135.7c2.1-0.6,3-1.1,4.3-2.5c0.5-0.5,5.7-5.8,6.1-6.6
	c0,0-10,4.3-54.8,6.5c-44.9,2.2-95.4,3-95.4,3c3.2,0.5,6.5,1,9.9,1.5c9.7,1.4,12.9,2,17.9,2.7c2.8,0.4,4.3,0.6,4.6,0.6
	c18.8,1.9,87.4-1.5,102.1-4.1C1031.1,1136.3,1033.3,1135.7,1033.3,1135.7z"/>
<path id="path4318" inkscape:connector-curvature="0" class="st11" d="M1205.6,1042.5c0,0-7.9-14,2.9-23.4s30.2-3.9,30.6,3.3
	c0.3,7.2,4.3,22.2-13,30.3c-17.2,8-17.2,8-17.2,8l1,4.8"/>
<path id="path4324" inkscape:connector-curvature="0" class="st12" d="M810.6,613c0,0,59.2-17.6,100,7.6
	c40.9,25.2,61.3,50.3,55.9,78.9c-5.4,28.6-45.4,45.2-88.7,40.5s-76.9-21.2-76.8-42.7c0.1-21.5,17.3-40.5,36.5-41.4
	s48.9,28.2,48.9,28.2l0,0"/>
<path id="path4326" inkscape:connector-curvature="0" class="st13" d="M1015.2,626.9c0,0,36.7,8.4,43.7,37.5s0.6,36.2,0.6,36.2l0,0"
	/>
<path id="path4326-3" inkscape:connector-curvature="0" class="st14" d="M1083.6,629.4c0,0,26.8,14.4,26,38.6
	c-0.7,24.2-7.3,28.4-7.3,28.4l0,0"/>
<path id="path4326-3-5" inkscape:connector-curvature="0" class="st15" d="M1133.5,641.2c0,0,17.7,17.5,11.6,36.4
	c-6.2,18.9-12.3,20.6-12.3,20.6l0,0"/>
<path id="path4358" inkscape:connector-curvature="0" class="st16" d="M1212.3,956.1c60.3,5,60.3,5,60.3,5"/>
<path id="path4358-6" inkscape:connector-curvature="0" class="st17" d="M1214.4,902.8c63.9,12.7,63.9,12.7,63.9,12.7"/>
<path id="path4358-6-9" inkscape:connector-curvature="0" inkscape:transform-center-x="1.091775" inkscape:transform-center-y="70.218503" class="st18" d="
	M1219.3,854.5c66.4,24.1,66.4,24.1,66.4,24.1"/>
<path id="path4390" inkscape:connector-curvature="0" sodipodi:nodetypes="cccssscscc" class="st19" d="M1210.7,1087.3l-20.3,141.7
	l16.5,13.9c0,0,25.7,16.9,6.4,39.3c-19.3,22.5-82.5,51.6-139,53.2c-56.6,1.6-107.2-15.2-108-31S995,1283,995,1283s4,1.2,7.6-18.3
	l3.8-14.5l-0.8-2.8"/>
<path id="path4392" inkscape:connector-curvature="0" sodipodi:nodetypes="cssc" class="st20" d="M1007.5,1247.2c0,0,5,2.6,26.1,0.1
	c21.1-2.4,111.5-27.1,118-31.6s12.9-21.2,12.9-21.2"/>
<circle id="path4789" class="st21" cx="978" cy="2047.6" r="8.4"/>
<path id="path4609" inkscape:connector-curvature="0" class="st22" d="M950.9,2041.4l-22.6-29.7l72.4-7.1L950.9,2041.4z"/>
<path id="path4414" inkscape:connector-curvature="0" class="st23" d="M1470.4,1336.8c0,0-6.4-10.4-36,24.8s-69.6,110.4-69.6,110.4
	l0,0"/>
<circle id="path4462" class="st24" cx="1090.6" cy="1826.2" r="31.7"/>
<circle id="path4462-9" class="st24" cx="1095.2" cy="2111.3" r="31.7"/>
<path id="path4462-9-8" inkscape:connector-curvature="0" class="st25" d="M1093.3,1793.9c17.5,0,31.7,14.2,31.7,31.7
	s-14.2,31.7-31.7,31.7c-2.3,0-4.5-0.3-6.8-0.8c14.5-3.2,24.8-16.1,24.8-30.9c0-14.9-10.4-27.7-24.9-30.9
	C1088.7,1794.2,1091,1793.9,1093.3,1793.9L1093.3,1793.9z"/>
<path id="path4654-9" inkscape:connector-curvature="0" sodipodi:nodetypes="ccccc" class="st26" d="M950.4,1889.8l-81.6-447.9
	l51.6-51.3l-40.8-35.4l33-44.5"/>
<path id="path4599" inkscape:connector-curvature="0" class="st27" d="M968,2302.4c14.4,510,16,589.6,16,589.6"/>
<path id="path4607_3_" inkscape:connector-curvature="0" sodipodi:nodetypes="cssscc" class="st28" d="M862.4,1702.8"/>
<path id="path4607_4_" inkscape:connector-curvature="0" sodipodi:nodetypes="cssscc" class="st28" d="M890.4,1672.3L890.4,1672.3"
	/>
<path id="path4607_1_" inkscape:connector-curvature="0" sodipodi:nodetypes="cssscc" class="st28" d="M920.9,1678.5"/>
<path id="path4462-9-8-6" inkscape:connector-curvature="0" class="st25" d="M1093.8,2080.3c17.5,0,31.7,14.2,31.7,31.7
	s-14.2,31.7-31.7,31.7c-2.3,0-4.5-0.3-6.8-0.8c14.5-3.2,24.8-16.1,24.8-30.9c0-14.9-10.4-27.7-24.9-30.9
	C1089.2,2080.6,1091.5,2080.3,1093.8,2080.3L1093.8,2080.3z"/>
<path id="path4654" inkscape:connector-curvature="0" class="st26" d="M1032.3,1857.3l226.9-391.7l-30.4-49.6l72-38.4l-3.2-68.8l0,0
	"/>
<path id="path4690" inkscape:connector-curvature="0" class="st6" d="M1239.4,1430.2c4.5-2.8,62.8-50.9,62.8-50.9l-73.5,36.2
	L1239.4,1430.2z"/>
<path id="path4692" inkscape:connector-curvature="0" sodipodi:nodetypes="cccc" class="st6" d="M1032.3,1857.3l235.4-383.5
	l-5.9-9.3L1032.3,1857.3z"/>
<path id="path4694" inkscape:connector-curvature="0" class="st6" d="M1037.6,1332.2c-31.2,58.4-37.6,48.8-37.6,48.8l30.4-51.2
	L1037.6,1332.2z"/>
<path id="path4696" inkscape:connector-curvature="0" class="st6" d="M967.4,1415.7c-1.2,84-7,77.1-7,77.1v-88.1L967.4,1415.7z"/>
<path id="path4698" inkscape:connector-curvature="0" class="st6" d="M1103.2,1396.4l-42.8,41.6l50,64.4l-57.6-64l48.4-52.8
	L1103.2,1396.4z"/>
<path id="path4700" inkscape:connector-curvature="0" class="st6" d="M1007.2,1386.8l41.6-55.6l10,0.8l-50.8,59.2L1007.2,1386.8z"/>
<path id="path4702" inkscape:connector-curvature="0" class="st6" d="M1067.6,1333.2l-56.4,65.2l1.6,4.8l68.8-69.2L1067.6,1333.2z"
	/>
<path id="path4704" inkscape:connector-curvature="0" class="st6" d="M1045.4,1438.1l-83.7,64.5l-3.4-12.4l67.9-58.8L1045.4,1438.1z
	"/>
<path id="path4706" inkscape:connector-curvature="0" class="st6" d="M961.7,1553.5l113.1-98.4l14.7,13.6L957.1,1566l4.5-7.9"/>
<path id="path4706-2" inkscape:connector-curvature="0" class="st29" d="M962,1522.9l100.2-89.3l10.1,14.5L958,1534.2l4-7.2"/>
<path id="path4723" inkscape:connector-curvature="0" class="st6" d="M1003.4,1274.2c0,0,68.4,9.2,109.2-14.3
	c40.8-23.5,53.6-63.8,53.6-63.8l-31.7,24.2l-109.6,29.1l-13.7-1.6L1003.4,1274.2z"/>
<g>
	<g>
		<path id="path4439_1_" inkscape:connector-curvature="0" class="st30" d="M797.2,1262.7"/>
	</g>
	<path id="path4767_2_" inkscape:connector-curvature="0" class="st6" d="M789.5,1378.6"/>
</g>
<path id="path4771" inkscape:connector-curvature="0" class="st6" d="M962.8,2042.3l-4.5,21.5l-108.6,147.1l98.4-150.5L947,2040
	L962.8,2042.3z"/>
<path id="path4775" inkscape:connector-curvature="0" sodipodi:nodetypes="cssczsc" class="st6" d="M863.2,2315.2
	c0,0,77.5-17,99-19.2c22.3-2.3,58.7-5.5,79.2,1.1c20.6,6.7,32.2,23.8,32.2,23.8s-13-9.7-31.1-14s-43.8-7.3-77.5-3.6
	C933.2,2306.9,863.2,2315.2,863.2,2315.2L863.2,2315.2z"/>
<path id="path4777" inkscape:connector-curvature="0" sodipodi:nodetypes="csccsc" class="st6" d="M853.6,2209.6
	c0,0,62.4,52,136,37.6s100.8-31.2,100.8-31.2l-76,13.6c0,0-86.4,7.2-103.2,1.6C894.4,2225.6,853.6,2209.6,853.6,2209.6z"/>
<path id="path4779" inkscape:connector-curvature="0" class="st6" d="M1334.4,2254.4l-67.2,57.6l65.6-83.2L1334.4,2254.4z"/>
<path id="path4781" inkscape:connector-curvature="0" class="st6" d="M859.2,2214.4l-70.4,86.4l62.4-94.4L859.2,2214.4z"/>
<path id="path4785" inkscape:connector-curvature="0" class="st31" d="M964.7,2040.4c0,0-14.4,106.7-17,148.7s-1.3,54.5-1.3,54.5"/>
<ellipse id="path4787" class="st21" cx="967.6" cy="2142.8" rx="8.4" ry="9.2"/>
<path id="path4791" inkscape:connector-curvature="0" sodipodi:nodetypes="cccc" class="st6" d="M1299.5,1577.9l-45.9,268.6
	l33.9-6.8L1299.5,1577.9z"/>
<path id="path4793" inkscape:connector-curvature="0" class="st6" d="M1243.2,2016l131.2,169.6l-48-177.6L1243.2,2016z"/>
<path id="path4795" inkscape:connector-curvature="0" sodipodi:nodetypes="cccccc" class="st6" d="M1244.8,2308.5l28.8,581.1
	l26.3,1.2l38.5-659.6l-72.4,80.3L1244.8,2308.5z"/>
<path id="path4797" inkscape:connector-curvature="0" sodipodi:nodetypes="cccc" class="st32" d="M1254.7,2019.6l14.2-0.7
	l102.3,156.8L1254.7,2019.6z"/>
<path id="path4799" inkscape:connector-curvature="0" class="st6" d="M1320.8,1639.2l-30.4,195.2l-28,4.8l40.8-260L1320.8,1639.2z"
	/>
<path id="path4801" inkscape:connector-curvature="0" sodipodi:nodetypes="cccc" class="st33" d="M1258.8,1839.7l53-217l-10.4-35.6
	L1258.8,1839.7z"/>
<path id="path4801-9" inkscape:connector-curvature="0" sodipodi:nodetypes="cccc" class="st34" d="M1284,1789.6l34.9-142.7
	l-6.8-23.4L1284,1789.6z"/>
<path id="path4797-8" inkscape:connector-curvature="0" sodipodi:nodetypes="cccc" class="st35" d="M1276.3,2018.7l21.8-1.7
	l63.2,137.8L1276.3,2018.7z"/>
<path id="path4833" inkscape:connector-curvature="0" sodipodi:nodetypes="cccc" class="st28" d="M1266.6,2319.4l-13.9-0.9
	l30.3,581.3L1266.6,2319.4z"/>
<path id="path4833-2" inkscape:connector-curvature="0" sodipodi:nodetypes="cccc" class="st28" d="M1289.7,2290.9l-11.1,12
	l14,487.1L1289.7,2290.9z"/>
<path id="path4850" inkscape:connector-curvature="0" class="st6" d="M923.2,2307.2c0,0,24-12.8,32,27.2s28.8,556.8,28.8,556.8
	L969.6,2296L923.2,2307.2z"/>
<path id="path4852" inkscape:connector-curvature="0" sodipodi:nodetypes="csccscc" class="st6" d="M907.5,601.5
	c0,0,65.3,23.6,70.8,57.6c7.8,47.9-22.8,65.3-22.8,65.3l12.5-23.8c0,0-5.5-45.6-19.5-54s-80.4-42-80.4-42L907.5,601.5z"/>
<path id="path4854" inkscape:connector-curvature="0" class="st36" d="M815.7,858.6c20.3,9.8,20.9,9.8,20.9,9.8"/>
<path id="path4854-3" inkscape:connector-curvature="0" inkscape:transform-center-x="12.519088" inkscape:transform-center-y="-22.80928" class="st36" d="
	M818.1,846.7c20.3,9.8,20.9,9.8,20.9,9.8"/>
<path id="path4854-6" inkscape:connector-curvature="0" inkscape:transform-center-x="-0.20883427" inkscape:transform-center-y="-19.980852" class="st36" d="
	M820.4,835.8c20.3,9.8,20.9,9.8,20.9,9.8"/>
<path id="path4889" inkscape:connector-curvature="0" class="st6" d="M838.9,659.2c0,0-15-4.9-18.3,20.1c-3.3,25.1,16,50.2,33.2,55
	s-41.4-13.9-41.4-13.9l-12.7-27.7l14.6-26.8l28-7l0,0"/>
<path id="path4893" inkscape:connector-curvature="0" sodipodi:nodetypes="cccc" class="st6" d="M890,681l11.9,23.5l-18.5-16.7
	L890,681z"/>
<path class="st8" d="M978,1898.7c-74.8-24.1-92.1-46.4-140.2-43.5c-73.9,4.5-88.7-10.6-108.8,6.9c-16.2,14.2,0.5,29.4,0.5,29.4
	s-12.5,8.9-12.6,17.4c-0.1,14.3,8.4,17.6,8.4,17.6s-9.1,10.4-9.2,16.2c-0.2,14.7,8,17.3,8,17.3s-4.3,4.8-7,15.1
	c-5.8,22.5,124.7,42.2,124.7,42.2s45.7,10.8,61.7,13.2c22.1,3.4,89.6,1.3,89.6,1.3v-144.3L978,1898.7z"/>
<path class="st0" d="M773.3,1394.7"/>
<path class="st0" d="M778.9,1481.9c0,0-12.8-141.6-17.4-163.4c-4.7-21.8-3.2-26.6-3.2-26.6l34.9-1l3,190.9"/>
<path id="path4412_2_" inkscape:connector-curvature="0" sodipodi:nodetypes="cccssscsccscc" class="st0" d="M1460.2,1311.4
	l19.2,6.4l-6.4,20.8c0,0,99.2,430.4,96,524.8s11.8,119.4-9.6,124.8c-29.2,7.4-51.2,12.4-87.6,12.4c-34.2,0-515.6,43.6-515.6,43.6
	s30.9-53,23.4-96.1c-5.2-29.9-25.9-64.2-25.9-64.2l391.4-52.4l16.8-13.6c5.6-4.5-60-248-60-248
	C1302.4,1536,1351.6,1352.2,1460.2,1311.4L1460.2,1311.4z"/>
<path id="path4673-6_2_" inkscape:connector-curvature="0" sodipodi:nodetypes="csczc" class="st37" d="M1419.4,1828.8"/>
<path id="path4673_2_" inkscape:connector-curvature="0" sodipodi:nodetypes="csczc" class="st6" d="M1466.5,1856.9"/>
<path id="path4650" inkscape:connector-curvature="0" class="st6" d="M1365.6,1472c0,0,65.6-97.3,82.6-103s28.3-10.2,28.3-10.2
	l-4.5-23.8c0,0-8.8-2.3-18.1,6.5c-9.3,8.8-60.8,79.2-64.8,87.7C1385.1,1437.8,1365.6,1472,1365.6,1472z"/>
<path id="path4673" inkscape:connector-curvature="0" sodipodi:nodetypes="csczc" class="st6" d="M1358.3,1815.9
	c0,0,30.2-6.4,58.9,3.7c28.7,10.2,43.5,40.2,43.5,40.2s-14.4-17-48.7-30.4C1377.7,1815.9,1358.3,1815.9,1358.3,1815.9z"/>
<path id="path4755" inkscape:connector-curvature="0" class="st36" d="M1036,1873.3c0,0,20.5,10.7,26.3,53.8
	c5.8,43.1-22,108.3-22,108.3"/>
<path id="path4759_3_" class="st38" d="M995.2,2005.2c0-8.2,6.4-14.8,14.4-14.8s14.4,6.6,14.4,14.8s-6.4,14.8-14.4,14.8"/>
<path id="path4765" inkscape:connector-curvature="0" class="st6" d="M960.8,1883.8c0,0,63.1-10.7,75.5-5.1
	c12.4,5.7,18.1,17,20.6,26c2.5,9.1,2.3-7.9,2.3-7.9s-5.7-25.5-11-27.4S960,1881,960,1881L960.8,1883.8z"/>
<path id="path4673-6" inkscape:connector-curvature="0" sodipodi:nodetypes="csczc" class="st37" d="M1355.4,1816
	c0,0,30.1-0.1,58.2,15.7c28.1,15.7,38.1,49.5,38.1,49.5s-9.5-21.5-42.8-41.6C1375.6,1819.6,1355.4,1816,1355.4,1816L1355.4,1816z"/>
<path id="path4759_2_" class="st38" d="M1007.9,2020c-8,0-14.4-6.6-14.4-14.8s6.4-14.8,14.4-14.8"/>
<g>
	<polygon points="728.9,1888.5 810.8,1895.5 728.6,1894.5 	"/>
</g>
<g>
	<path class="st39" d="M755.2,1934.4"/>
</g>
<g>
	<path class="st39" d="M828,1937.5"/>
</g>
<g>
	<path class="st39" d="M755.9,1974.7"/>
</g>
<g>
	<path class="st39" d="M827.3,1974.7"/>
</g>
<g>
	<polygon points="729.4,1922.8 804.4,1929.5 729.1,1928.8 	"/>
</g>
<g>
	<polygon points="725.9,1955.7 800.9,1967.3 725.2,1961.6 	"/>
</g>
<path class="st0" d="M486.2,1765.5L285,1689.9V1925l268,58c0,0,54.8,8,70.9-21.5c16.1-29.5,87.7-220.3,87.7-220.3L486.2,1765.5z"/>
<ellipse class="st0" cx="285" cy="1807.4" rx="98.6" ry="117.5"/>
<path class="st40" d="M304.5,1952.1l-49.9,4.2c-9.4,0.8-17.6-6.2-18.4-15.5l-17-203.1c-0.8-9.4,6.2-17.6,15.5-18.4l49.9-4.2
	c9.4-0.8,17.6,6.2,18.4,15.5l17,203.1C320.8,1943.1,313.8,1951.4,304.5,1952.1z"/>
<g>
	<path class="st41" d="M1269.4,789.4c0.2-0.6,0.5-1.3,0.8-1.8c-0.1-0.7-0.1-1.3,0-2c-0.9,1.5-1.7,3-2.4,4.5
		C1268.3,789.9,1268.8,789.7,1269.4,789.4z"/>
	<g>
		<path class="st42" d="M1270.8,789.2c0.2-0.6,0.5-1.1,0.7-1.7c0.2-0.6,0-1.5,0.1-2.1c0.1-1.1-2.5-0.3-2.8,0.2
			c-0.9,1.5-1.7,3.1-2.6,4.7c-0.4,0.8,1.8,0.4,2,0.3c0.6-0.2,1.1-0.4,1.7-0.6c0.3-0.1,1.2-0.6,0.8-1c-0.4-0.4-1.5-0.1-1.9,0
			c-0.5,0.2-1.1,0.4-1.7,0.6c0.7,0.1,1.3,0.2,2,0.3c0.7-1.5,1.5-2.9,2.3-4.3c-0.9,0.1-1.9,0.2-2.8,0.2c0,0.7,0.1,1.4-0.1,2
			c-0.1,0.6-0.5,1.2-0.7,1.8C1267.7,790.5,1270.5,790.1,1270.8,789.2z"/>
	</g>
</g>
<g>
	<path class="st8" d="M193,1773c-2.1-3.5-3.2-7.8-1.9-12.7l1.2-3.4c2.6-7.9,6.1-15.2,22.2-15.9l2.7-0.1c20.8-0.9,22.8,0.5,40,0.8
		l5.3,0.2c17.3,0.3,20.5,2,25,8.9l1.7,3c2.4,3.7,3,6.7,3.2,7.7l1.2,5.3c-0.1,1.6-1.6,10.8-11.8,11.3l-4.4,0.2
		c-11.4,0.8-72.2,1.8-72.8,1.7C199.7,1779.3,195.8,1777.7,193,1773z"/>
	<path class="st8" d="M307.4,1795.6c-0.4,11-113,42.2-113,42.2l-6.8,0.4c-14.9,1.4-21.5-48.2-5.8-52l9.6-0.6l100.4-8.4l9.2-0.6
		c1.4,0.3,9.3,2.6,8.8,12.4L307.4,1795.6z"/>
	<path class="st8" d="M304.8,1808.2c36.4,15.3-79.2,73.3-103.2,74l-3.5,0c-22.3-4.4-13.1-39.7,2.8-45.8l2-0.6
		c15.9-5.5,90.8-32.5,101.5-27.7L304.8,1808.2z"/>
	<path class="st8" d="M215.1,1891.1c-2.8,7.9-9.1,28.6,11.1,35.2c4.5,1.5,15,1.4,18.1-0.3c35.3-18.6,73.9-55.3,74.8-69.5l-5.5-15.6
		l-6.2,0.5c0-1.4-44.1,12.4-90.3,43.6L215.1,1891.1z"/>
	<path class="st8" d="M334.7,1741.4c3.9,2.3,7.4,5.9,8.8,11.2l0.7,3.9c2,9,2.7,17.8-12.2,26.7l-2.5,1.4
		c-19.1,11.5-21.8,11.2-38.2,19.7l-5.1,2.5c-16.4,8.6-20.5,8.5-28.5,4.3l-3.3-2.1c-4.3-2.3-6.6-5-7.3-5.8l-4.1-4.5
		c-0.8-1.6-4.4-11.3,4.9-16.9l4-2.5c10.3-6.7,67.1-38.8,67.8-39C325,1738.7,329.6,1738.2,334.7,1741.4z"/>
</g>
<g>
	
		<sodipodi:namedview  bordercolor="#666666" borderopacity="1" fit-margin-bottom="0" fit-margin-left="0" fit-margin-right="0" fit-margin-top="0" gridtolerance="10" guidetolerance="10" id="namedview4" inkscape:current-layer="g10" inkscape:cx="171.15375" inkscape:cy="177.21499" inkscape:pageopacity="0" inkscape:pageshadow="2" inkscape:window-height="697" inkscape:window-maximized="0" inkscape:window-width="1393" inkscape:window-x="2290" inkscape:window-y="312" inkscape:zoom="0.25757162" objecttolerance="10" pagecolor="#ffffff" showgrid="false">
		</sodipodi:namedview>
	
		<g id="g10_1_" transform="matrix(1.25,0,0,-1.25,-188.84625,636.71875)" inkscape:groupmode="layer" inkscape:label="ink_ext_XXXXXX">
		<g id="g12_1_" transform="scale(0.1,0.1)">
			<path id="path14_1_" inkscape:connector-curvature="0" class="st43" d="M7482.8-7619.1L4707.3-8864.5l765.1-3708.9l2521.6-1123.5
				l2311,1545.6l138.5,3784.3L7482.8-7619.1z"/>
			<path id="path16_1_" inkscape:connector-curvature="0" class="st44" d="M10176.3-8607.4l-2673.6,669.1l455-5442.8l2077.7,1387.7
				L10176.3-8607.4z"/>
			<path id="path18_1_" inkscape:connector-curvature="0" class="st45" d="M5046.1-9052.4l667.3-3318.4l2244.3-1010.3l-455,5442.9
				L5046.1-9052.4L5046.1-9052.4z"/>
			<path id="path20_1_" inkscape:connector-curvature="0" class="st46" d="M8331.6-10595.1l-702.2,1198.4L7207.5-10689
				L8331.6-10595.1L8331.6-10595.1z M8603.4-11100.9l-1584.6-132.5l-280.4-916.3l-658.4-67.3l1439.3,4081.1l2158.5-3780.4
				l-611.2-51.1L8603.4-11100.9L8603.4-11100.9z"/>
			<path id="path22_1_" inkscape:connector-curvature="0" class="st43" d="M7519.3-8135.9l110.1-1260.8l701.6-1199.4l-600.6-50.2
				l42.4-523.3l830.5,68.6l463.3-866.6l631.9,41L7519.3-8135.9z"/>
		</g>
	</g>
</g>
<path class="st40" d="M294.3,1682.1c-18.2-225.9-36.3-451.8-54.5-677.7l-51.5-97.2l-27.2,97.2c18.2,225.9,36.3,451.8,54.5,677.7
	H294.3z"/>
<line class="st47" x1="253.9" y1="1682.1" x2="186.3" y2="897.3"/>
<polygon class="st40" points="143.5,1684.9 362.3,1671.9 364.3,1728.3 145.6,1741.2 "/>
</svg>
