<?xml version="1.0" encoding="utf-8"?>
<!-- Generator: Adobe Illustrator 21.0.2, SVG Export Plug-In . SVG Version: 6.00 Build 0)  -->
<svg version="1.1"
	 id="svg4632" inkscape:export-filename="D:\JUGGR\grafiken\Plakate\Plakat_05_2016\plakat_05_2016_v2.png" inkscape:export-xdpi="90" inkscape:export-ydpi="90" inkscape:version="0.91 r13725" sodipodi:docname="plakat_05_2016_v2.svg" xmlns:cc="http://creativecommons.org/ns#" xmlns:dc="http://purl.org/dc/elements/1.1/" xmlns:inkscape="http://www.inkscape.org/namespaces/inkscape" xmlns:rdf="http://www.w3.org/1999/02/22-rdf-syntax-ns#" xmlns:sodipodi="http://sodipodi.sourceforge.net/DTD/sodipodi-0.dtd" xmlns:svg="http://www.w3.org/2000/svg"
	 xmlns="http://www.w3.org/2000/svg" xmlns:xlink="http://www.w3.org/1999/xlink" x="0px" y="0px" viewBox="0 0 595.3 841.9"
	 style="enable-background:new 0 0 595.3 841.9;" xml:space="preserve">
<style type="text/css">
	.st0{fill:#FFFFFF;}
	.st1{fill:#004C5C;}
	.st2{font-family:'OpenSans';}
	.st3{font-size:24px;}
	.st4{font-size:36px;}
	.st5{fill:#57888D;stroke:#000000;}
	.st6{fill:#FFFFFF;stroke:#000000;}
	.st7{fill:#D3623A;stroke:#000000;}
	.st8{stroke:#000000;}
	.st9{fill:#E1D2B1;stroke:#000000;}
	.st10{stroke:#000000;stroke-width:0.75;}
	.st11{stroke:#000000;stroke-width:0.25;}
	.st12{fill:none;stroke:#000000;}
	.st13{fill:#A8A8A7;stroke:#000000;}
	.st14{fill:#B3B3B3;}
	.st15{fill:#AF2B2D;}
	.st16{fill:#DF2E31;}
	.st17{fill:#F2F2F2;}
	.st18{fill:#FFFFFF;stroke:#FFFFFF;stroke-width:2;}
	.st19{fill:#F58219;stroke:#FFFFFF;stroke-width:2;}
	.st20{fill:#4E7896;stroke:#FFFFFF;stroke-width:2;}
	.st21{font-size:20px;}
	.st22{fill:none;}
	.st23{fill:none;stroke:#004C5C;stroke-width:3;stroke-miterlimit:10;}
	.st24{enable-background:new    ;}
	.st25{font-size:16px;}
	.st26{font-size:18px;}
</style>
<defs>
	
	<inkscape:path-effect  effect="spiro" id="path-effect4253" is_visible="true"></inkscape:path-effect>
	<inkscape:path-effect  effect="spiro" id="path-effect4253-1" is_visible="true"></inkscape:path-effect>
	<inkscape:path-effect  effect="spiro" id="path-effect4253-7" is_visible="true"></inkscape:path-effect>
	<inkscape:path-effect  effect="spiro" id="path-effect4253-1-1" is_visible="true"></inkscape:path-effect>
	<inkscape:path-effect  effect="spiro" id="path-effect4253-6" is_visible="true"></inkscape:path-effect>
	<inkscape:path-effect  effect="spiro" id="path-effect4253-1-6" is_visible="true"></inkscape:path-effect>
</defs>
<sodipodi:namedview  bordercolor="#666666" borderopacity="1.0" fit-margin-bottom="0" fit-margin-left="0" fit-margin-right="0" fit-margin-top="0" id="base" inkscape:current-layer="layer1" inkscape:cx="226.64962" inkscape:cy="585.35062" inkscape:document-units="px" inkscape:pageopacity="0.0" inkscape:pageshadow="2" inkscape:window-height="1147" inkscape:window-maximized="1" inkscape:window-width="1920" inkscape:window-x="-8" inkscape:window-y="-8" inkscape:zoom="0.70710678" pagecolor="#ffffff" showgrid="false">
	</sodipodi:namedview>
<rect id="rect4799-6-8-3-1" y="137.1" class="st0" width="594.9" height="568.6"/>
<rect id="rect4799-6-8" class="st1" width="595.3" height="218.1"/>
<text transform="matrix(1 0 0 1 33.5 60.1094)" class="st0 st2 st3">Vortrag bei der Java User Group Görlitz</text>
<text transform="matrix(1 0 0 1 35.562 135.7973)" class="st0 st2 st4">Angular 2 für Java Entwickler</text>
<g>
	<g>
		<text transform="matrix(1 0 0 1 33.5 180.7975)" class="st0 st2 st3">Sven Hoffmann, Saxonia Systems AG</text>
	</g>
</g>
<g id="flowRoot5521" transform="translate(-2.2268386,3.3339304)">
</g>
<g id="flowRoot5689" transform="translate(13.793466,-6.686375)">
</g>
<g id="flowRoot5763" transform="translate(-2.2268386,3.3339304)">
</g>
<g id="flowRoot5773" transform="translate(-3.0349635,9.3725)">
</g>
<g>
	<path class="st5" d="M446.2,362.9c-4.7,2.7-21.9,27.1-26.6,41c0,0-2,3.6-2,3.7L398.9,443c-0.1,0.1-0.3,0.1-0.3,0l0,0
		c-0.1-0.2,0.2-0.3,0.3-0.1l2.3,9.7c1,0.6,7.6,14,15.1,10.6c8.2-3.8,16.8-16.4,16.8-16.4l19.4-30.7c0,0,1.2-9.6,1.2-9.7l-2.4-43.8
		C451.3,362.6,447.6,362.1,446.2,362.9z"/>
	<path id="path4595" inkscape:connector-curvature="0" class="st5" d="M444.6,511.8l9.9,126.5l86.3,0.8l6.3-122.9L444.6,511.8z"/>
	<path id="path4508" inkscape:connector-curvature="0" class="st6" d="M454.9,513.4c0,0,5.5,9.1,18.9,10.6
		c13.4,1.6,33.1-2.4,44.5-7.9c11.4-5.5,13.4-76,13.4-76l-71.7-0.8L454.9,513.4z"/>
	<path id="path4322" inkscape:connector-curvature="0" sodipodi:nodetypes="ccssssssc" class="st7" d="M455.2,287.9l2.4-12.7
		c0,0-13-8-16.8-12c-3.7-4-7.6-11.3-4.2-13.2c3.4-2,19.5-9.2,27.4-9.4c7.9-0.2,51.6-5.3,60.5-0.2c8.9,5.1,22.5,4.2,18.9,24.1
		c-3.6,19.9-8.6,47-11.4,53C529.1,323.5,455.2,287.9,455.2,287.9L455.2,287.9z"/>
	<rect id="rect4479" x="465.5" y="369.6" class="st6" width="64.2" height="31.9"/>
	<path id="path4398" inkscape:connector-curvature="0" class="st7" d="M488.3,374.9c4.2,10,6.1,10.6,6.1,10.6l3.6,0.6l8.6-9.5
		l1.4-14.2l-18.1-1.1L488.3,374.9z"/>
	<path id="path4400" inkscape:connector-curvature="0" class="st7" d="M492.7,384.9L481,395.6l-4.9,80.3l15.7,2l19.4-77.9
		l-12.5-14.3L492.7,384.9z"/>
	<path id="path4433" inkscape:connector-curvature="0" class="st5" d="M476.1,359.2c-23.1,2.3-23.1,2.3-23.1,2.3l-0.5,93.8
		c0,0-10.5,38.3-14.6,41.9c-4.2,3.6,3.7,40.6,3.7,40.6l9.5-1.7l28.1-42.1l4.2-136.2L476.1,359.2z"/>
	<path id="path4402" inkscape:connector-curvature="0" class="st5" d="M512,383.5l-26.5,110.6l31.5,41.5l17.3,2.2l19.5-21.7
		l-15.6-54.6l2.8-54.6l22.8-41.8l-41.8-9.5L512,383.5z"/>
	<path id="path4652" inkscape:connector-curvature="0" sodipodi:nodetypes="csssccc" class="st8" d="M509.9,385.9
		c0,0,2.5-3.3,6.5-4.6c4-1.4,17.4-10,18.6-10.8c1-0.7,6-5.1,5.7-8.6c-0.3-3.4-3.6-6.2-3.6-6.2l-26,21.3L509.9,385.9z"/>
	<path id="path4394" inkscape:connector-curvature="0" sodipodi:nodetypes="czzzsccc" class="st6" d="M522.5,345.8
		c0,0,2-0.5,4.5,0.6c2.5,1.1,7.2,4.8,8.8,7.9c1.5,3.1,2.9,3.4,0.7,8.9c-2.2,5.5-13.2,16-19.5,18c-6.3,2-7.9,3.7-7.9,3.7l-8.1-16.6
		L522.5,345.8z"/>
	<path id="path4396" inkscape:connector-curvature="0" class="st6" d="M487.4,352.2l-11.5,5c0,0-3.8,1.6-2.8,6.5
		c1.1,5,9.9,19.3,9.9,19.3l8.2-15.7l2.3-15.4L487.4,352.2z"/>
	<path id="path4310" inkscape:connector-curvature="0" sodipodi:nodetypes="ccssssssssssccccsscc" class="st9" d="M464.1,271.3
		l-5.1,19.6c0,0-0.3,14-0.5,20.7c-0.2,6.7-0.3,18.3,2,22.6c2.3,4.3,5.4,9.7,13,13.5c7.6,3.8,19.6,6.9,25.4,4.8
		c5.8-2.2,11.2-5.3,14.4-9.3c3.3-4,11.9-17.2,11.8-18c0-0.8,0.7,1.4,2.5-0.8c1.9-2.2,5.5-7.1,4.7-10.5c-0.7-3.4,1-7.5-3.1-6.9
		c-4.1,0.6-5.6,0.6-7.8,5.6s-0.9-3.3-0.9-3.3l2.5-1.7l-2.3-2.2l2.8-9.8c0,0-7.7,0.2-8-1.4c-0.3-1.6,2.4-11.6-1.5-23.5
		c-3.9-11.9-34.9-2-34.9-2S466.3,273.5,464.1,271.3L464.1,271.3z"/>
	
		<ellipse id="path3350" transform="matrix(0.9988 -4.828069e-02 4.828069e-02 0.9988 -13.8107 24.3203)" class="st8" cx="496.5" cy="298" rx="4.9" ry="7.8"/>
	
		<ellipse id="path3350-4" transform="matrix(0.9988 -4.828069e-02 4.828069e-02 0.9988 -13.8704 22.8935)" class="st10" cx="467" cy="298.6" rx="4.9" ry="7.8"/>
	
		<ellipse id="path3350-47" transform="matrix(0.9988 -4.828069e-02 4.828069e-02 0.9988 -13.9209 24.2489)" class="st6" cx="495" cy="300.3" rx="1.5" ry="2.4"/>
	
		<ellipse id="path3350-47-1" transform="matrix(0.9988 -4.828069e-02 4.828069e-02 0.9988 -13.9552 22.8299)" class="st6" cx="465.6" cy="300.3" rx="1.5" ry="2.4"/>
	
		<path id="path4251" inkscape:connector-curvature="0" inkscape:original-d="m 606.14282,-430.8521 2.5,-8 c 0,0 -0.5,-18.5 -14,-22 -13.5,-3.5 -44.5,8 -44.5,8 l -3.5,9.5 c 0,0 12.5,-2 25.5,-3 13,-1 29,3.5 34,15.5 z" inkscape:path-effect="#path-effect4253" class="st8" d="
		M471.6,288.8l0.3-1.1c-0.2-1.2-1-2.3-2.1-3c-1-0.6-2.2-0.8-3.4-0.5c-1.1,0.3-2.2,1-2.8,2l-0.4,1.3c1.1-0.5,2.3-0.7,3.5-0.6
		C468.5,287,470.2,287.7,471.6,288.8z"/>
	
		<path id="path4251-3" inkscape:connector-curvature="0" inkscape:original-d="m 756.00536,-422.5189 -1.13576,-8.4564 c 0,0 3.50596,-18.13948 17.25702,-18.54941 13.75105,-0.40992 42.14058,17.92413 42.14058,17.92413 l 1.86738,10.16172 c 0,0 -11.87756,-4.79099 -24.4064,-8.70808 -12.52885,-3.91708 -28.88379,-3.08411 -35.72282,7.62804 z" inkscape:path-effect="#path-effect4253-1" class="st8" d="
		M490.6,289.8l-0.5-1.1c0.1-1.2,0.6-2.4,1.6-3.2c0.9-0.8,2.1-1.1,3.3-1c1.2,0.1,2.3,0.8,3,1.7l0.7,1.3c-1.2-0.3-2.4-0.4-3.6-0.2
		C493.4,287.7,491.8,288.5,490.6,289.8z"/>
	<path id="path4304" inkscape:connector-curvature="0" class="st11" d="M473.3,292.3l1.3,0.2l-6.3,27.7c0,0,0,1,0.8,1.1
		c0.8,0.1,6.4,0,6.4,0s2,0.3,1.4,1.2c-0.6,0.9-8.7,0.2-8.7,0.2s-2.6-1.3-2.6-2c0-0.8,1-3,2-7.1C468.7,309.5,473.3,292.3,473.3,292.3
		z"/>
	<path inkscape:connector-curvature="0" class="st8" d="M494.1,333.3c0.4-0.1,0.5-0.2,0.7-0.4c0.1-0.1,1-1,1.1-1.1
		c0,0-1.7,0.8-9.5,1.1c-7.8,0.4-16.6,0.5-16.6,0.5c0.6,0.1,1.1,0.2,1.7,0.3c1.7,0.2,2.2,0.3,3.1,0.5c0.5,0.1,0.7,0.1,0.8,0.1
		c3.3,0.3,15.2-0.3,17.8-0.7C493.8,333.4,494.1,333.3,494.1,333.3z"/>
	<path id="path4318" inkscape:connector-curvature="0" class="st12" d="M524.2,317.1c0,0-1.4-2.4,0.5-4.1c1.9-1.6,5.3-0.7,5.3,0.6
		c0.1,1.3,0.7,3.9-2.3,5.3c-3,1.4-3,1.4-3,1.4l0.2,0.8"/>
	<path id="path4324" inkscape:connector-curvature="0" class="st12" d="M455.4,242.3c0,0,10.3-3.1,17.4,1.3
		c7.1,4.4,10.7,8.8,9.7,13.7s-7.9,7.9-15.4,7.1c-7.5-0.8-13.4-3.7-13.4-7.4c0-3.7,3-7.2,6.4-7.2c4.8,0,8.6,4.9,8.5,4.9"/>
	<path id="path4326" inkscape:connector-curvature="0" class="st12" d="M491,244.7c0,0,6.4,1.5,7.6,6.5c1.2,5.1,0.1,6.3,0.1,6.3l0,0
		"/>
	<path id="path4326-3" inkscape:connector-curvature="0" class="st12" d="M502.9,245.1c0,0,4.7,2.5,4.5,6.7
		c-0.1,4.2-1.3,4.9-1.3,4.9l0,0"/>
	<path id="path4326-3-5" inkscape:connector-curvature="0" class="st12" d="M511.6,247.2c0,0,3.1,3,2,6.3c-1.1,3.3-2.1,3.6-2.1,3.6
		l0,0"/>
	<path id="path4358" inkscape:connector-curvature="0" class="st12" d="M525.3,302c10.5,0.9,10.5,0.9,10.5,0.9"/>
	<path id="path4358-6" inkscape:connector-curvature="0" class="st12" d="M525.7,292.8c11.1,2.2,11.1,2.2,11.1,2.2"/>
	
		<path id="path4358-6-9" inkscape:connector-curvature="0" inkscape:transform-center-x="1.091775" inkscape:transform-center-y="70.218503" class="st12" d="
		M526.5,284.3c11.6,4.2,11.6,4.2,11.6,4.2"/>
	<path id="path4390" inkscape:connector-curvature="0" sodipodi:nodetypes="cccssscscc" class="st9" d="M525,324.9l-3.5,24.7
		l2.9,2.4c0,0,4.5,2.9,1.1,6.8c-3.4,3.9-14.4,9-24.2,9.3c-9.9,0.3-18.7-2.6-18.8-5.4c-0.1-2.8,5-3.7,5-3.7s0.7,0.2,1.3-3.2l0.7-2.5
		l-0.1-0.5"/>
	<path id="path4392" inkscape:connector-curvature="0" sodipodi:nodetypes="cssc" class="st12" d="M489.7,352.7c0,0,0.9,0.5,4.5,0
		c3.7-0.4,19.4-4.7,20.5-5.5c1.1-0.8,2.2-3.7,2.2-3.7"/>
	<circle id="path4789" class="st12" cx="484.5" cy="492.1" r="1.5"/>
	<path id="path4609" inkscape:connector-curvature="0" class="st8" d="M479.8,491l-3.9-5.2l12.6-1.2L479.8,491z"/>
	<path id="path4414" inkscape:connector-curvature="0" class="st12" d="M570.3,368.3c0,0-1.1-1.8-6.3,4.3
		c-5.2,6.1-12.1,19.2-12.1,19.2l0,0"/>
	<circle id="path4462" class="st5" cx="504.1" cy="453.5" r="5.5"/>
	<circle id="path4462-9" class="st5" cx="504.9" cy="503.2" r="5.5"/>
	<path id="path4462-9-8" inkscape:connector-curvature="0" class="st8" d="M504.6,447.9c3,0,5.5,2.5,5.5,5.5c0,3-2.5,5.5-5.5,5.5
		c-0.4,0-0.8-0.1-1.2-0.1c2.5-0.6,4.3-2.8,4.3-5.4c0-2.6-1.8-4.8-4.3-5.4C503.8,448,504.2,447.9,504.6,447.9L504.6,447.9z"/>
	<path id="path4654-9" inkscape:connector-curvature="0" sodipodi:nodetypes="ccccc" class="st12" d="M479.7,464.6l-14.2-78l9-8.9
		l-7.1-6.2l5.7-7.7"/>
	<path id="path4599" inkscape:connector-curvature="0" class="st12" d="M482.8,536.5c2.5,88.8,2.8,102.7,2.8,102.7"/>
	<path id="path4607_3_" inkscape:connector-curvature="0" sodipodi:nodetypes="cssscc" class="st5" d="M464.4,432.1"/>
	<path id="path4607_4_" inkscape:connector-curvature="0" sodipodi:nodetypes="cssscc" class="st5" d="M469.3,426.7L469.3,426.7"/>
	<path id="path4607_1_" inkscape:connector-curvature="0" sodipodi:nodetypes="cssscc" class="st5" d="M474.6,427.8"/>
	<path id="path4462-9-8-6" inkscape:connector-curvature="0" class="st8" d="M504.7,497.8c3,0,5.5,2.5,5.5,5.5s-2.5,5.5-5.5,5.5
		c-0.4,0-0.8-0.1-1.2-0.1c2.5-0.6,4.3-2.8,4.3-5.4c0-2.6-1.8-4.8-4.3-5.4C503.9,497.8,504.3,497.8,504.7,497.8L504.7,497.8z"/>
	<path id="path4654" inkscape:connector-curvature="0" class="st12" d="M494,459l39.5-68.2l-5.3-8.6l12.5-6.7l-0.6-12l0,0"/>
	<path id="path4690" inkscape:connector-curvature="0" class="st8" d="M530,384.6c0.8-0.5,10.9-8.9,10.9-8.9l-12.8,6.3L530,384.6z"
		/>
	<path id="path4692" inkscape:connector-curvature="0" sodipodi:nodetypes="cccc" class="st8" d="M494,459l41-66.8l-1-1.6L494,459z"
		/>
	<path id="path4694" inkscape:connector-curvature="0" class="st11" d="M494.9,367.5c-5.4,10.2-6.5,8.5-6.5,8.5l5.3-8.9L494.9,367.5
		z"/>
	<path id="path4696" inkscape:connector-curvature="0" class="st8" d="M482.7,382.1c-0.2,14.6-1.2,13.4-1.2,13.4v-15.3L482.7,382.1z
		"/>
	<path id="path4698" inkscape:connector-curvature="0" class="st11" d="M506.2,378.8l-6.8,6.8l8.4,11.3l-10-11.1l7.6-8.6
		L506.2,378.8z"/>
	<path id="path4700" inkscape:connector-curvature="0" class="st11" d="M489.6,377l7.2-9.7l1.7,0.1l-8.8,10.3L489.6,377z"/>
	<path id="path4702" inkscape:connector-curvature="0" class="st11" d="M500.1,367.7l-9.8,11.4l0.3,0.8l12-12L500.1,367.7z"/>
	<path id="path4704" inkscape:connector-curvature="0" class="st11" d="M496.3,386l-14.6,11.2l-0.6-2.2l11.8-10.2L496.3,386z"/>
	<path id="path4706" inkscape:connector-curvature="0" class="st11" d="M481.7,406.1l19.7-17.1l2.6,2.4l-23.1,16.9l0.8-1.4"/>
	<path id="path4706-2" inkscape:connector-curvature="0" class="st11" d="M481.7,400.7l17.4-15.5l1.8,2.5l-19.9,15l0.7-1.3"/>
	<path id="path4723" inkscape:connector-curvature="0" class="st8" d="M488.9,357.4c0,0,11.9,1.6,19-2.5c7.1-4.1,9.3-11.1,9.3-11.1
		l-5.5,4.2l-19.1,5.1l-2.4-0.3L488.9,357.4z"/>
	<g>
		<g>
			<path id="path4439_1_" inkscape:connector-curvature="0" class="st12" d="M453,355.4"/>
		</g>
		<path id="path4767_2_" inkscape:connector-curvature="0" class="st8" d="M451.7,375.6"/>
	</g>
	<path id="path4771" inkscape:connector-curvature="0" class="st8" d="M481.9,491.2l-0.8,3.7l-18.9,25.6l17.1-26.2l-0.2-3.6
		L481.9,491.2z"/>
	<path id="path4775" inkscape:connector-curvature="0" sodipodi:nodetypes="cssczsc" class="st8" d="M464.5,538.7
		c0,0,13.5-3,17.2-3.3c3.9-0.4,10.2-1,13.8,0.2c3.6,1.2,5.6,4.1,5.6,4.1s-2.3-1.7-5.4-2.4c-3.2-0.7-7.6-1.3-13.5-0.6
		C476.7,537.2,464.5,538.7,464.5,538.7L464.5,538.7z"/>
	<path id="path4777" inkscape:connector-curvature="0" sodipodi:nodetypes="csccsc" class="st8" d="M462.9,520.3
		c0,0,10.9,9.1,23.7,6.5s17.6-5.4,17.6-5.4l-13.2,2.4c0,0-15,1.3-18,0.3C470,523.1,462.9,520.3,462.9,520.3z"/>
	<path id="path4779" inkscape:connector-curvature="0" class="st8" d="M546.6,528.1l-11.7,10l11.4-14.5L546.6,528.1z"/>
	<path id="path4781" inkscape:connector-curvature="0" class="st8" d="M463.8,521.1l-12.3,15l10.9-16.4L463.8,521.1z"/>
	<path id="path4785" inkscape:connector-curvature="0" class="st12" d="M482.2,490.8c0,0-2.5,18.6-3,25.9c-0.5,7.3-0.2,9.5-0.2,9.5"
		/>
	<ellipse id="path4787" class="st12" cx="482.7" cy="508.7" rx="1.5" ry="1.6"/>
	<path id="path4791" inkscape:connector-curvature="0" sodipodi:nodetypes="cccc" class="st8" d="M540.5,410.3l-8,46.8l5.9-1.2
		L540.5,410.3z"/>
	<path id="path4793" inkscape:connector-curvature="0" class="st8" d="M530.7,486.6l22.8,29.5l-8.4-30.9L530.7,486.6z"/>
	<path id="path4795" inkscape:connector-curvature="0" sodipodi:nodetypes="cccccc" class="st8" d="M531,537.5l5,101.2l4.6,0.2
		l6.7-114.9l-12.6,14L531,537.5z"/>
	<path id="path4797" inkscape:connector-curvature="0" sodipodi:nodetypes="cccc" class="st5" d="M532.7,487.2l2.5-0.1l17.8,27.3
		L532.7,487.2z"/>
	<path id="path4799" inkscape:connector-curvature="0" class="st8" d="M544.2,421l-5.3,34l-4.9,0.8l7.1-45.3L544.2,421z"/>
	<path id="path4801" inkscape:connector-curvature="0" sodipodi:nodetypes="cccc" class="st5" d="M533.4,455.9l9.2-37.8l-1.8-6.2
		L533.4,455.9z"/>
	<path id="path4801-9" inkscape:connector-curvature="0" sodipodi:nodetypes="cccc" class="st5" d="M537.8,447.2l6.1-24.8l-1.2-4.1
		L537.8,447.2z"/>
	<path id="path4797-8" inkscape:connector-curvature="0" sodipodi:nodetypes="cccc" class="st5" d="M536.5,487.1l3.8-0.3l11,24
		L536.5,487.1z"/>
	<path id="path4833" inkscape:connector-curvature="0" sodipodi:nodetypes="cccc" class="st5" d="M534.8,539.4l-2.4-0.2l5.3,101.2
		L534.8,539.4z"/>
	<path id="path4833-2" inkscape:connector-curvature="0" sodipodi:nodetypes="cccc" class="st5" d="M538.8,534.5l-1.9,2.1l2.4,84.8
		L538.8,534.5z"/>
	<path id="path4850" inkscape:connector-curvature="0" class="st8" d="M475,537.3c0,0,4.2-2.2,5.6,4.7c1.4,7,5,97,5,97l-2.5-103.6
		L475,537.3z"/>
	<path id="path4852" inkscape:connector-curvature="0" sodipodi:nodetypes="csccscc" class="st8" d="M472.2,240.3
		c0,0,11.4,4.1,12.3,10c1.4,8.3-5,11.4-5,11.4l3.2-4.1c0,0-1-7.9-3.4-9.4c-2.4-1.5-14-7.3-14-7.3L472.2,240.3z"/>
	<path id="path4854" inkscape:connector-curvature="0" class="st12" d="M456.3,285.1c3.5,1.7,3.6,1.7,3.6,1.7"/>
	
		<path id="path4854-3" inkscape:connector-curvature="0" inkscape:transform-center-x="12.519088" inkscape:transform-center-y="-22.80928" class="st12" d="
		M456.7,283c3.5,1.7,3.6,1.7,3.6,1.7"/>
	
		<path id="path4854-6" inkscape:connector-curvature="0" inkscape:transform-center-x="-0.20883427" inkscape:transform-center-y="-19.980852" class="st12" d="
		M457.1,281.1c3.5,1.7,3.6,1.7,3.6,1.7"/>
	<path id="path4893" inkscape:connector-curvature="0" sodipodi:nodetypes="cccc" class="st10" d="M467,253c1.3,1.1,4.7,4.9,4.7,4.9
		l-9.1-7.6C462.6,250.3,465.9,252.2,467,253z"/>
	<path class="st9" d="M484.5,466.2c-13-4.2-16-8.1-24.4-7.6c-12.9,0.8-15.4-1.8-18.9,1.2c-2.8,2.5,0.1,5.1,0.1,5.1s-2.2,1.5-2.2,3
		c0,2.5,1.5,3.1,1.5,3.1s-1.6,1.8-1.6,2.8c0,2.6,1.4,3,1.4,3s-0.7,0.8-1.2,2.6c-1,3.9,21.7,7.3,21.7,7.3s8,1.9,10.7,2.3
		c3.8,0.6,15.6,0.2,15.6,0.2v-25.1L484.5,466.2z"/>
	<path class="st5" d="M448.9,378.4"/>
	<path class="st5" d="M449.9,393.6c0,0-2.2-24.7-3-28.5c-0.8-3.8-0.6-4.6-0.6-4.6l6.1-0.2l0.5,33.2"/>
	<path id="path4412_2_" inkscape:connector-curvature="0" sodipodi:nodetypes="cccssscsccscc" class="st5" d="M568.5,363.9l3.3,1.1
		l-1.1,3.6c0,0,17.3,74.9,16.7,91.4c-0.6,16.4,2.1,20.8-1.7,21.7c-5.1,1.3-8.9,2.2-15.3,2.2c-6,0-89.8,7.6-89.8,7.6
		s5.4-9.2,4.1-16.7c-0.9-5.2-4.5-11.2-4.5-11.2l68.2-9.1l2.9-2.4c1-0.8-10.4-43.2-10.4-43.2C541,403,549.6,371,568.5,363.9
		L568.5,363.9z"/>
	<path id="path4673-6_2_" inkscape:connector-curvature="0" sodipodi:nodetypes="csczc" class="st8" d="M561.4,454"/>
	<path id="path4673_2_" inkscape:connector-curvature="0" sodipodi:nodetypes="csczc" class="st8" d="M569.6,458.9"/>
	<path id="path4650" inkscape:connector-curvature="0" class="st8" d="M552,391.9c0,0,11.4-16.9,14.4-17.9c3-1,4.9-1.8,4.9-1.8
		l-0.8-4.1c0,0-1.5-0.4-3.2,1.1c-1.6,1.5-10.6,13.8-11.3,15.3C555.4,385.9,552,391.9,552,391.9z"/>
	<path id="path4673" inkscape:connector-curvature="0" sodipodi:nodetypes="csczc" class="st8" d="M550.7,451.7
		c0,0,5.3-1.1,10.3,0.6c5,1.8,7.6,7,7.6,7s-2.5-3-8.5-5.3C554.1,451.7,550.7,451.7,550.7,451.7z"/>
	<path id="path4755" inkscape:connector-curvature="0" class="st12" d="M494.6,461.7c0,0,3.6,1.9,4.6,9.4c1,7.5-3.8,18.9-3.8,18.9"
		/>
	<path id="path4759_3_" class="st8" d="M487.5,484.7c0-1.4,1.1-2.6,2.5-2.6s2.5,1.1,2.5,2.6c0,1.4-1.1,2.6-2.5,2.6"/>
	<path id="path4765" inkscape:connector-curvature="0" class="st8" d="M481.5,463.6c0,0,11-1.9,13.1-0.9c2.2,1,3.2,3,3.6,4.5
		c0.4,1.6,0.4-1.4,0.4-1.4s-1-4.4-1.9-4.8c-0.9-0.3-15.4,2-15.4,2L481.5,463.6z"/>
	<path id="path4673-6" inkscape:connector-curvature="0" sodipodi:nodetypes="csczc" class="st8" d="M550.2,451.8
		c0,0,5.2,0,10.1,2.7c4.9,2.7,6.6,8.6,6.6,8.6s-1.7-3.7-7.5-7.2C553.8,452.4,550.2,451.8,550.2,451.8L550.2,451.8z"/>
	<path id="path4759_2_" class="st8" d="M489.7,487.3c-1.4,0-2.5-1.1-2.5-2.6c0-1.4,1.1-2.6,2.5-2.6"/>
	<g>
		<polygon class="st8" points="441.1,464.4 455.4,465.6 441.1,465.4 		"/>
	</g>
	<g>
		<path class="st12" d="M445.7,472.4"/>
	</g>
	<g>
		<path class="st12" d="M458.4,472.9"/>
	</g>
	<g>
		<path class="st12" d="M445.8,479.4"/>
	</g>
	<g>
		<path class="st12" d="M458.3,479.4"/>
	</g>
	<g>
		<polygon class="st8" points="441.2,470.4 454.3,471.5 441.2,471.4 		"/>
	</g>
	<g>
		<polygon class="st8" points="440.6,476.1 453.7,478.1 440.5,477.1 		"/>
	</g>
	<path class="st5" d="M398.9,443l-35-13.2v40.9l46.7,10.1c0,0,9.5,1.4,12.3-3.7s15.3-38.4,15.3-38.4L398.9,443z"/>
	<ellipse class="st5" cx="363.8" cy="450.3" rx="17.2" ry="20.5"/>
	<path class="st13" d="M363.3,475.8l-0.9,0.1c-3.8,0.3-7.1-2.5-7.4-6.3l-2.3-27.5c-0.3-3.8,2.5-7.1,6.3-7.4l0.9-0.1
		c3.8-0.3,7.1,2.5,7.4,6.3l2.3,27.5C369.9,472.2,367.1,475.5,363.3,475.8z"/>
	<g>
		<path class="st9" d="M347.8,444.3c-0.4-0.6-0.6-1.4-0.3-2.2l0.2-0.6c0.4-1.4,1.1-2.6,3.9-2.8l0.5,0c3.6-0.1,4,0.1,7,0.1l0.9,0
			c3,0,3.6,0.4,4.3,1.5l0.3,0.5c0.4,0.6,0.5,1.2,0.6,1.3l0.2,0.9c0,0.3-0.3,1.9-2.1,2l-0.8,0c-2,0.1-12.6,0.3-12.7,0.3
			C349,445.4,348.3,445.1,347.8,444.3z"/>
		<path class="st9" d="M367.7,448.2c-0.1,1.9-19.7,7.4-19.7,7.4l-1.2,0.1c-2.6,0.2-3.7-8.4-1-9l1.7-0.1L365,445l1.6-0.1
			c0.3,0.1,1.6,0.5,1.5,2.2L367.7,448.2z"/>
		<path class="st9" d="M367.3,450.4c6.3,2.7-13.8,12.8-18,12.9l-0.6,0c-3.9-0.8-2.3-6.9,0.5-8l0.4-0.1
			C352.3,454.3,365.4,449.5,367.3,450.4L367.3,450.4z"/>
		<path class="st9" d="M351.7,464.8c-0.5,1.4-1.6,5,1.9,6.1c0.8,0.3,2.6,0.2,3.2-0.1c6.1-3.2,12.9-9.6,13-12.1l-1-2.7l-1.1,0.1
			c0-0.2-7.7,2.2-15.7,7.6L351.7,464.8z"/>
		<path class="st9" d="M372.5,438.8c0.7,0.4,1.3,1,1.5,2l0.1,0.7c0.3,1.6,0.5,3.1-2.1,4.7l-0.4,0.2c-3.3,2-3.8,1.9-6.7,3.4l-0.9,0.4
			c-2.9,1.5-3.6,1.5-5,0.7l-0.6-0.4c-0.8-0.4-1.1-0.9-1.3-1l-0.7-0.8c-0.1-0.3-0.8-2,0.9-2.9l0.7-0.4c1.8-1.2,11.7-6.7,11.8-6.8
			C370.8,438.3,371.6,438.2,372.5,438.8z"/>
	</g>
	<g>
		
			<sodipodi:namedview  bordercolor="#666666" borderopacity="1" fit-margin-bottom="0" fit-margin-left="0" fit-margin-right="0" fit-margin-top="0" gridtolerance="10" guidetolerance="10" id="namedview4" inkscape:current-layer="g10" inkscape:cx="171.15375" inkscape:cy="177.21499" inkscape:pageopacity="0" inkscape:pageshadow="2" inkscape:window-height="697" inkscape:window-maximized="0" inkscape:window-width="1393" inkscape:window-x="2290" inkscape:window-y="312" inkscape:zoom="0.25757162" objecttolerance="10" pagecolor="#ffffff" showgrid="false">
			</sodipodi:namedview>
		
			<g id="g10_1_" transform="matrix(1.25,0,0,-1.25,-188.84625,636.71875)" inkscape:groupmode="layer" inkscape:label="ink_ext_XXXXXX">
			<g id="g12_1_" transform="scale(0.1,0.1)">
				<path id="path14_1_" inkscape:connector-curvature="0" class="st14" d="M5107.3,1843.8L4624,1627l133.2-645.8l439.1-195.6
					l402.4,269.1l24.1,658.9L5107.3,1843.8z"/>
				<path id="path16_1_" inkscape:connector-curvature="0" class="st15" d="M5576.3,1671.7l-465.5,116.5l79.2-947.7l361.8,241.6
					L5576.3,1671.7z"/>
				<path id="path18_1_" inkscape:connector-curvature="0" class="st16" d="M4683,1594.3l116.2-577.8l390.8-175.9l-79.2,947.8
					L4683,1594.3L4683,1594.3z"/>
				<path id="path20_1_" inkscape:connector-curvature="0" class="st17" d="M5255,1325.6l-122.3,208.7l-73.5-225L5255,1325.6
					L5255,1325.6z M5302.4,1237.6l-275.9-23.1l-48.8-159.6l-114.6-11.7l250.6,710.6l375.9-658.3l-106.4-8.9L5302.4,1237.6
					L5302.4,1237.6z"/>
				<path id="path22_1_" inkscape:connector-curvature="0" class="st14" d="M5113.6,1753.8l19.2-219.5l122.2-208.8l-104.6-8.7
					l7.4-91.1l144.6,11.9l80.7-150.9l110,7.1L5113.6,1753.8z"/>
			</g>
		</g>
	</g>
	<path class="st13" d="M365.5,428.5c-3.2-39.3-6.3-78.7-9.5-118l-9-16.9l-4.7,16.9c3.2,39.3,6.3,78.7,9.5,118H365.5z"/>
	<line class="st13" x1="358.4" y1="428.5" x2="347" y2="293.5"/>
	<polygon class="st13" points="339.2,428.9 377.3,426.7 377.7,436.5 339.6,438.7 	"/>
	<path class="st11" d="M460.6,250c-0.1-0.1-4.2,0.5-5.9,3.6c-2.1,4,0.6,6.9,0.8,6.9c0.1,0-1.4-3-0.3-5.2c0.3-0.6,0.7-1.7,1.6-2.8
		C458.4,250.4,460.7,250,460.6,250z"/>
</g>
<rect id="rect4799-6-8-3" y="633.6" class="st1" width="595.3" height="208.2"/>
<g id="g5902" transform="matrix(1.2833263,0,0,1.2833263,1487.7059,1035.0505)">
	<g id="flowRoot3915-1" transform="translate(-649.1227,-316.58845)">
		<path id="path3282-6" inkscape:connector-curvature="0" class="st18" d="M-152.8,55.9c0,1.3-0.2,2.5-0.5,3.6
			c-0.3,1.1-0.7,2.1-1.5,2.9c-0.7,0.8-1.6,1.5-2.8,2c-1.2,0.5-2.7,0.7-4.5,0.7c-1.7,0-3.1-0.2-4.4-0.7c-1.2-0.5-2.2-0.9-2.8-1.5
			l1.7-3.8c0.7,0.5,1.4,0.8,2.3,1.3c0.9,0.4,1.9,0.6,2.8,0.6c1.6,0,2.8-0.4,3.6-1.2c0.8-0.8,1.1-2.2,1.1-4.2V38.2h4.9L-152.8,55.9"
			/>
		<path id="path3284-1" inkscape:connector-curvature="0" class="st18" d="M-136.4,65.2c-1.8,0-3.4-0.2-4.6-0.7
			c-1.3-0.5-2.4-1.3-3.3-2.2c-0.8-0.9-1.5-2-1.9-3.4c-0.4-1.3-0.6-2.7-0.6-4.2V38.3h4.9v16.1c0,1.2,0.2,2.2,0.4,3.1
			c0.3,0.8,0.7,1.5,1.1,2.1c0.5,0.5,1.1,0.9,1.8,1.2c0.7,0.2,1.4,0.4,2.3,0.4c0.8,0,1.6-0.2,2.3-0.4c0.7-0.2,1.3-0.7,1.8-1.2
			c0.5-0.5,0.9-1.2,1.1-2.1c0.3-0.9,0.5-1.9,0.5-3.1V38.2h4.9v16.5c0,1.5-0.2,2.9-0.7,4.2c-0.4,1.3-1,2.4-2,3.4
			c-0.8,0.9-2,1.7-3.3,2.2C-133,64.9-134.6,65.2-136.4,65.2"/>
		<path id="path3286-0" inkscape:connector-curvature="0" class="st18" d="M-107.5,41.8c-2.7,0-4.9,0.8-6.3,2.5
			c-1.4,1.7-2.2,4-2.2,7c0,1.4,0.2,2.7,0.5,3.9c0.4,1.2,0.9,2.2,1.5,3c0.7,0.8,1.5,1.5,2.5,2c1,0.5,2.2,0.7,3.6,0.7
			c0.8,0,1.6,0,2.2-0.1c0.6-0.1,1.1-0.2,1.4-0.3v-9.4h4.9v12.6c-0.7,0.2-1.8,0.5-3.4,0.8c-1.6,0.2-3.4,0.5-5.4,0.5s-3.6-0.3-5.2-0.9
			c-1.6-0.6-2.9-1.5-4-2.7c-1.1-1.2-2-2.6-2.5-4.3c-0.6-1.7-0.9-3.6-0.9-5.9s0.3-4.2,0.9-5.9c0.7-1.7,1.6-3.1,2.7-4.3
			c1.2-1.2,2.5-2.1,4.1-2.7c1.6-0.6,3.3-0.9,5.1-0.9c1.2,0,2.3,0.1,3.3,0.3c0.9,0.2,1.8,0.3,2.4,0.5c0.7,0.2,1.3,0.5,1.7,0.7
			c0.5,0.2,0.7,0.4,0.9,0.5l-1.4,3.9c-0.7-0.5-1.7-0.8-2.8-1.1C-105.1,42.1-106.2,41.8-107.5,41.8"/>
	</g>
	<g id="text3927-1" transform="translate(-952.12858,-907.87941)">
		<path id="path3267-8" inkscape:connector-curvature="0" class="st18" d="M100.3,670.6c-2.7,0-4.9,0.8-6.3,2.5
			c-1.4,1.7-2.2,4-2.2,7c0,1.4,0.2,2.7,0.5,3.9s0.9,2.2,1.5,3c0.7,0.8,1.5,1.5,2.5,2c1,0.5,2.2,0.7,3.6,0.7c0.8,0,1.6,0,2.2-0.1
			c0.6-0.1,1.1-0.2,1.4-0.3v-9.4h4.9v12.6c-0.7,0.2-1.8,0.5-3.4,0.8c-1.6,0.2-3.4,0.5-5.4,0.5c-2,0-3.6-0.3-5.2-0.9
			c-1.6-0.6-2.9-1.5-4-2.7c-1.1-1.2-2-2.6-2.5-4.3c-0.6-1.7-0.9-3.6-0.9-5.9c0-2.2,0.3-4.2,0.9-5.9c0.7-1.7,1.6-3.1,2.7-4.3
			c1.2-1.2,2.5-2.1,4.1-2.7c1.6-0.6,3.3-0.9,5.1-0.9c1.2,0,2.3,0.1,3.3,0.3c0.9,0.2,1.8,0.3,2.4,0.5c0.7,0.2,1.3,0.5,1.7,0.7
			c0.5,0.2,0.7,0.4,0.9,0.5l-1.4,3.9c-0.7-0.5-1.7-0.8-2.8-1.1C102.6,670.8,101.4,670.6,100.3,670.6"/>
		<path id="path3269-1" inkscape:connector-curvature="0" class="st18" d="M131.7,683.4c0,1.6-0.2,3-0.7,4.3c-0.5,1.3-1.1,2.4-2,3.4
			c-0.8,0.9-1.9,1.6-3.1,2.2c-1.2,0.5-2.4,0.7-3.8,0.7c-1.4,0-2.7-0.2-3.8-0.7c-1.2-0.5-2.2-1.2-3-2.2c-0.8-0.9-1.5-2-2-3.4
			c-0.5-1.3-0.7-2.7-0.7-4.3c0-1.6,0.2-3,0.7-4.2c0.5-1.3,1.1-2.4,2-3.4c0.9-0.9,1.9-1.6,3.1-2.1c1.2-0.5,2.4-0.7,3.8-0.7
			c1.4,0,2.7,0.2,3.8,0.7c1.2,0.5,2.2,1.2,3.1,2.1s1.5,2,2,3.4C131.5,680.4,131.7,681.8,131.7,683.4 M126.9,683.4
			c0-2-0.5-3.6-1.3-4.7c-0.8-1.2-2-1.8-3.6-1.8c-1.5,0-2.7,0.6-3.6,1.8c-0.8,1.1-1.3,2.7-1.3,4.7s0.5,3.6,1.3,4.8
			c0.9,1.2,2.1,1.8,3.6,1.8c1.5,0,2.7-0.6,3.6-1.8C126.6,687,126.9,685.4,126.9,683.4 M118.1,670.2c-0.7,0-1.3-0.2-1.8-0.7
			c-0.5-0.5-0.7-1.1-0.7-1.9s0.2-1.4,0.7-1.9c0.5-0.5,1.1-0.7,1.8-0.7s1.3,0.2,1.8,0.7s0.8,1.1,0.8,1.9s-0.3,1.4-0.8,1.9
			C119.4,670,118.8,670.2,118.1,670.2 M126.1,670.2c-0.7,0-1.3-0.2-1.9-0.7c-0.5-0.5-0.7-1.1-0.7-1.9s0.2-1.4,0.7-1.9
			c0.5-0.5,1.1-0.7,1.9-0.7c0.7,0,1.3,0.2,1.8,0.7s0.7,1.1,0.7,1.9s-0.2,1.4-0.7,1.9C127.3,670,126.7,670.2,126.1,670.2"/>
		<path id="path3271-8" inkscape:connector-curvature="0" class="st18" d="M147.8,677.6c-0.4-0.2-0.9-0.2-1.6-0.4
			c-0.7-0.2-1.4-0.2-2.3-0.2c-0.5,0-1,0.1-1.6,0.2c-0.6,0.1-0.9,0.2-1.2,0.3v16h-4.6v-19c0.9-0.3,2-0.7,3.4-0.9
			c1.3-0.3,2.8-0.5,4.5-0.5c0.3,0,0.7,0,1,0.1c0.4,0,0.8,0.1,1.2,0.2c0.4,0.1,0.8,0.2,1.2,0.2c0.4,0.1,0.7,0.2,0.9,0.2L147.8,677.6"
			/>
		<path id="path3273-5" inkscape:connector-curvature="0" class="st18" d="M158.7,693.8c-1.3,0-2.5-0.2-3.4-0.5
			c-0.9-0.3-1.6-0.7-2.2-1.2c-0.5-0.5-0.9-1.2-1.1-2c-0.2-0.8-0.3-1.7-0.3-2.7v-22.9l4.6-0.7v22.8c0,0.6,0.1,1,0.2,1.4
			c0.1,0.4,0.3,0.7,0.5,0.9c0.2,0.2,0.5,0.5,0.9,0.6s0.9,0.2,1.5,0.3L158.7,693.8"/>
		<path id="path3275-0" inkscape:connector-curvature="0" class="st18" d="M167.7,693.4h-4.6v-19.9h4.6V693.4 M168.2,667.6
			c0,0.9-0.3,1.6-0.8,2.1c-0.6,0.5-1.2,0.7-2,0.7s-1.5-0.2-2-0.7c-0.6-0.5-0.8-1.2-0.8-2.1c0-0.9,0.3-1.6,0.8-2.1
			c0.6-0.5,1.3-0.7,2-0.7s1.4,0.2,2,0.7C167.9,666,168.2,666.8,168.2,667.6"/>
		<path id="path3277-1" inkscape:connector-curvature="0" class="st18" d="M173.3,668.2l4.6-0.7v6h7.1v3.8H178v8.1
			c0,1.6,0.2,2.7,0.7,3.4c0.5,0.7,1.3,1,2.6,1c0.8,0,1.6-0.1,2.2-0.3c0.7-0.2,1.2-0.4,1.6-0.5l0.7,3.6c-0.5,0.2-1.3,0.5-2.1,0.7
			c-0.9,0.2-1.9,0.4-3.1,0.4c-1.4,0-2.6-0.2-3.6-0.6c-0.9-0.4-1.7-0.9-2.2-1.6c-0.6-0.7-0.9-1.6-1.2-2.6c-0.2-1-0.4-2.2-0.4-3.6
			L173.3,668.2"/>
		<path id="path3279-5" inkscape:connector-curvature="0" class="st18" d="M203.4,676.7c-0.5,0.5-1.2,1.3-2,2.2
			c-0.8,0.9-1.7,2-2.6,3.3c-0.9,1.2-1.9,2.4-2.8,3.7c-0.9,1.3-1.8,2.4-2.5,3.6h10.2v3.8h-15.8v-2.7c0.6-1,1.3-2.2,2.1-3.4
			c0.8-1.2,1.7-2.4,2.6-3.6s1.8-2.4,2.6-3.5c0.9-1.1,1.7-2,2.4-2.8h-9.2v-3.8h15.1V676.7"/>
	</g>
	<path id="path10-5" inkscape:connector-curvature="0" sodipodi:nodetypes="cccccc" class="st19" d="M-726.4-221.3
		c5.8,5.9-2.7,12.2-2.7,12.2s9-2.9,7.2-12.5c-1.4-3.8-14-17.6,0.9-31.7C-720.8-253.3-742.1-243.4-726.4-221.3L-726.4-221.3z"/>
	<path id="path10-7-2" inkscape:connector-curvature="0" sodipodi:nodetypes="cccccc" class="st20" d="M-735.7-280.5
		c0,0,11.2,22.4,4.9,29.2c-10.1,15.9-13.2,15.8,2,39c-12.3-10.1-18.7-22.3-15.2-28.3C-732.9-254-729.8-260.1-735.7-280.5
		L-735.7-280.5z"/>
</g>
<text transform="matrix(1 0 0 1 33.4998 694.603)" class="st0 st2 st3">Mittwoch, 22.03.2017</text>
<text transform="matrix(1 0 0 1 33.4998 718.603)" class="st0 st2 st3">19:00 Uhr</text>
<text transform="matrix(1 0 0 1 33.4998 742.603)" class="st0 st2 st21">Hochschule Zittau/Görlitz</text>
<g>
	<text transform="matrix(1 0 0 1 33.4998 766.603)" class="st0 st2 st21">Brückenstraße 1 </text>
	<text transform="matrix(1 0 0 1 33.4998 790.603)" class="st0 st2 st21">Haus GII, Raum 0.10</text>
	<text transform="matrix(1 0 0 1 33.4998 814.603)" class="st0 st2 st21">02826 Görlitz</text>
</g>
<text transform="matrix(1 0 0 1 36.2049 814.6033)" class="st2 st3"> </text>
<rect id="rect4799-6_1_" x="41.2" y="286" class="st22" width="315.3" height="176.6"/>
<g>
	<rect x="36" y="292" class="st23" width="295.5" height="301"/>
	<rect id="rect5741_1_" x="34.5" y="253.8" class="st1" width="298.4" height="36.8"/>
	<text transform="matrix(0.982 0 0 1 41.1998 314.9835)" class="st24"><tspan x="0" y="0" class="st2 st25">Mit Angular bietet Google ein </tspan><tspan x="0" y="19.2" class="st2 st25">komponenten-basiertes </tspan><tspan x="0" y="38.4" class="st2 st25">Webframework an, welches den </tspan><tspan x="0" y="57.6" class="st2 st25">Anspruch erhebt, die Anforderungen </tspan><tspan x="0" y="76.8" class="st2 st25">an zeitgemäße Softwareentwicklung </tspan><tspan x="0" y="96" class="st2 st25">ganzheitlich zu unterstützen. </tspan><tspan x="0" y="115.2" class="st2 st25">Seit dem Release von Angular 2 </tspan><tspan x="0" y="134.4" class="st2 st25">war es für gestandene Java Entwickler </tspan><tspan x="0" y="153.6" class="st2 st25">noch nie so einfach in die </tspan><tspan x="0" y="172.8" class="st2 st25">Webentwicklung einzusteigen. </tspan><tspan x="0" y="192" class="st2 st25">Mit Klassen, Dependency Injection,</tspan><tspan x="0" y="211.2" class="st2 st25">Annotations und Data-Binding bietet</tspan><tspan x="0" y="230.4" class="st2 st25">Angular dem versierten Desktop </tspan><tspan x="0" y="249.6" class="st2 st25">Entwickler ein vertrautes Umfeld, </tspan><tspan x="0" y="268.8" class="st2 st25">in dem man sich schnell zurecht findet. </tspan></text>
	<text transform="matrix(0.982 0 0 1 45.0352 339.7236)" class="st2 st26"> </text>
	<text transform="matrix(0.982 0 0 1 45.0352 361.3232)" class="st2 st26"> </text>
	<text transform="matrix(0.982 0 0 1 45.0352 426.124)" class="st2 st26"> </text>
	<text transform="matrix(0.982 0 0 1 45.0352 490.9238)" class="st2 st26"> </text>
	<text transform="matrix(0.982 0 0 1 45.0352 512.5234)" class="st2 st26"> </text>
	<text transform="matrix(0.982 0 0 1 45.0352 534.124)" class="st2 st26"> </text>
	<text transform="matrix(0.982 0 0 1 45.0352 555.7236)" class="st2 st26"> </text>
	<text transform="matrix(0.982 0 0 1 45.0352 577.3232)" class="st2 st26"> </text>
	<text transform="matrix(1 0 0 1 46.3285 281.5823)" class="st0 st2 st21">Thema</text>
</g>
<image style="overflow:visible;" width="169" height="77" xlink:href="Logo_transp.png"  transform="matrix(0.4234 0 0 0.4234 490.873 782)">
</image>
</svg>
