<?xml version="1.0" encoding="UTF-8" standalone="no"?>
<!-- Created with Inkscape (http://www.inkscape.org/) -->

<svg
   xmlns:dc="http://purl.org/dc/elements/1.1/"
   xmlns:cc="http://creativecommons.org/ns#"
   xmlns:rdf="http://www.w3.org/1999/02/22-rdf-syntax-ns#"
   xmlns:svg="http://www.w3.org/2000/svg"
   xmlns="http://www.w3.org/2000/svg"
   xmlns:sodipodi="http://sodipodi.sourceforge.net/DTD/sodipodi-0.dtd"
   xmlns:inkscape="http://www.inkscape.org/namespaces/inkscape"
   width="140.98015mm"
   height="64.72541mm"
   viewBox="0 0 499.53597 229.34201"
   id="svg2"
   version="1.1"
   inkscape:version="0.92.2 (5c3e80d, 2017-08-06)"
   sodipodi:docname="ijugmember-white-t.svg"
   inkscape:export-filename="C:\Users\Marlene\JUG\grafiken\Rollup\ijugmember-white-rollup.png"
   inkscape:export-xdpi="300"
   inkscape:export-ydpi="300">
  <defs
     id="defs4">
    <clipPath
       id="clipPath4152"
       clipPathUnits="userSpaceOnUse">
      <path
         inkscape:connector-curvature="0"
         id="path4154"
         d="M 0,2008.91 0,0 l 4010.75,0 0,2008.91 -4010.75,0 z" />
    </clipPath>
  </defs>
  <sodipodi:namedview
     id="base"
     pagecolor="#ffffff"
     bordercolor="#666666"
     borderopacity="1.0"
     inkscape:pageopacity="0.0"
     inkscape:pageshadow="2"
     inkscape:zoom="0.7"
     inkscape:cx="1088.9677"
     inkscape:cy="-340.43683"
     inkscape:document-units="px"
     inkscape:current-layer="g4150"
     showgrid="false"
     inkscape:window-width="2560"
     inkscape:window-height="1346"
     inkscape:window-x="-11"
     inkscape:window-y="-11"
     inkscape:window-maximized="1"
     fit-margin-top="0"
     fit-margin-left="0"
     fit-margin-right="0"
     fit-margin-bottom="0" />
  <metadata
     id="metadata7">
    <rdf:RDF>
      <cc:Work
         rdf:about="">
        <dc:format>image/svg+xml</dc:format>
        <dc:type
           rdf:resource="http://purl.org/dc/dcmitype/StillImage" />
        <dc:title></dc:title>
      </cc:Work>
    </rdf:RDF>
  </metadata>
  <g
     inkscape:label="Ebene 1"
     inkscape:groupmode="layer"
     id="layer1"
     transform="translate(-87.374995,-234.83378)">
    <g
       transform="matrix(1.25,0,0,-1.25,87.374731,466.10253)"
       inkscape:label="ink_ext_XXXXXX"
       id="g4144">
      <g
         transform="scale(0.1,0.1)"
         id="g4146">
        <g
           id="g4148">
          <g
             clip-path="url(#clipPath4152)"
             id="g4150">
            <path
               style="fill:#ffffff;fill-opacity:1;fill-rule:nonzero;stroke:none"
               d="m 201.7168,235.49023 c -1.27968,0 -2.55953,0.48665 -3.53516,1.46289 L 88.839844,346.29688 c -1.953131,1.95262 -1.953131,5.11573 0,7.06835 L 198.18164,462.71094 c 0.9375,0.9375 2.21003,1.46484 3.53516,1.46484 1.32625,0 2.59765,-0.52734 3.53515,-1.46484 L 314.5957,353.36523 c 0.9375,-0.9375 1.46485,-2.20853 1.46485,-3.53515 0,-1.32613 -0.52735,-2.5957 -1.46485,-3.5332 L 205.25195,236.95312 c -0.97656,-0.97624 -2.25548,-1.46289 -3.53515,-1.46289 z m 0.53125,18.89844 8.11133,8.11133 -31.85352,31.85352 -8.11133,-8.11133 31.85352,-31.85352 z m 16.74414,16.74414 8.11133,8.10938 -31.85352,31.85351 -8.11133,-8.10937 31.85352,-31.85352 z m 16.74414,16.74414 8.10937,8.10938 -31.85351,31.85351 -8.10938,-8.10937 31.85352,-31.85352 z m -70.39453,4.97071 c 1.56978,0.0163 3.18943,0.68748 4.5957,2.09375 2.68171,2.68171 2.55094,6.34554 0.13086,8.76562 -2.48549,2.48549 -6.21477,2.55086 -8.89648,-0.13086 -2.74713,-2.74712 -2.55095,-6.34558 -0.13086,-8.89648 1.21004,-1.21004 2.73099,-1.84839 4.30078,-1.83203 z m 88.5039,14.25781 31.85352,31.85351 -8.10938,8.11133 -31.85351,-31.85351 8.10937,-8.11133 z m -106.44531,1.49219 c 1.56161,0.008 3.09955,0.663 4.375,1.87304 2.42008,2.42009 2.55081,6.082 -0.26172,8.89453 -2.68171,2.68172 -6.34554,2.55095 -8.76562,0.13086 -2.48549,-2.48549 -2.55086,-6.21281 0.13086,-8.89453 1.37356,-1.37356 2.95987,-2.01208 4.52148,-2.0039 z m 34.68555,0.99414 c 1.56978,0.0164 3.18944,0.68748 4.5957,2.09375 2.68172,2.68171 2.55094,6.34358 0.13086,8.76367 -2.48549,2.48549 -6.21477,2.55085 -8.89648,-0.13086 -2.74713,-2.74712 -2.55095,-6.34363 -0.13086,-8.89453 1.21004,-1.21004 2.73099,-1.84839 4.30078,-1.83203 z m -21.87305,10.23242 31.85352,31.85351 -8.11133,8.10938 -31.85352,-31.85352 8.11133,-8.10937 z m 76.88867,4.02539 31.85352,31.85351 -8.10938,8.11133 -31.85351,-31.85351 8.10937,-8.11133 z M 130.6582,325.3418 c 1.56161,0.008 3.0976,0.66105 4.37305,1.87109 2.42008,2.42008 2.55081,6.08395 -0.26172,8.89649 -2.68171,2.68171 -6.34359,2.55094 -8.76367,0.13085 -2.48549,-2.48549 -2.55086,-6.21477 0.13086,-8.89648 1.37356,-1.37356 2.95987,-2.01013 4.52148,-2.00195 z m 68.17188,0.99414 c 1.56978,0.0163 3.18748,0.68748 4.59375,2.09375 2.68171,2.68171 2.55094,6.34359 0.13086,8.76367 -2.48549,2.48549 -6.21282,2.55085 -8.89453,-0.13086 -2.74713,-2.74712 -2.55095,-6.34363 -0.13086,-8.89453 1.21004,-1.21004 2.73099,-1.84838 4.30078,-1.83203 z m -55.36133,10.23047 31.85352,31.85351 -8.10938,8.11133 -31.85351,-31.85352 8.10937,-8.11132 z m 76.88867,4.02734 31.85352,31.85352 -8.10938,8.11132 -31.85351,-31.85351 8.10937,-8.11133 z m -106.44336,1.49219 c 1.56161,0.008 3.0976,0.66105 4.37305,1.87109 2.42008,2.42009 2.55081,6.08396 -0.26172,8.89649 -2.68171,2.68171 -6.34359,2.55094 -8.76367,0.13086 -2.48549,-2.4855 -2.55086,-6.21477 0.13086,-8.89649 1.37356,-1.37356 2.95987,-2.01013 4.52148,-2.00195 z m 176.85547,3.46289 c 1.55343,0 3.07316,0.63761 4.2832,1.84765 2.4855,2.4855 2.55086,6.21477 -0.13085,8.89649 -2.74713,2.74712 -6.34364,2.55094 -8.89454,0.13086 -2.42008,-2.42009 -2.55081,-6.08396 0.26172,-8.89649 1.34086,-1.34085 2.92704,-1.97851 4.48047,-1.97851 z m -164.04492,7.76172 31.85351,31.85351 -8.10937,8.11133 -31.85352,-31.85351 8.10938,-8.11133 z m 78.18164,7.44336 c 1.57796,0.008 3.18063,0.66305 4.52148,2.0039 2.74713,2.74713 2.55095,6.34363 0.13086,8.89453 -2.42008,2.42009 -6.082,2.55082 -8.89453,-0.26172 -2.68171,-2.68171 -2.55094,-6.34358 -0.13086,-8.76367 1.24275,-1.24274 2.79509,-1.88122 4.37305,-1.87304 z m 69.11914,1.53906 c 1.55343,0 3.07316,0.63761 4.2832,1.84765 2.4855,2.4855 2.55086,6.21477 -0.13086,8.89649 -2.74712,2.74712 -6.34363,2.55094 -8.89453,0.13086 -2.42008,-2.42009 -2.55081,-6.08396 0.26172,-8.89649 1.34086,-1.34085 2.92704,-1.97851 4.48047,-1.97851 z m -81.92969,9.6875 8.10938,8.10937 -31.85352,31.85352 -8.10937,-8.10938 31.85351,-31.85351 z m 29.55664,5.51758 c 1.57796,0.008 3.17868,0.66305 4.51954,2.0039 2.74712,2.74713 2.55094,6.34363 0.13085,8.89453 -2.42008,2.42009 -6.082,2.55082 -8.89453,-0.26171 -2.68171,-2.68172 -2.55094,-6.34359 -0.13086,-8.76368 1.24275,-1.24274 2.79704,-1.88122 4.375,-1.87304 z m 35.62891,1.53906 c 1.55343,0 3.07316,0.63761 4.2832,1.84766 2.48549,2.48549 2.55086,6.21477 -0.13086,8.89648 -2.74712,2.74712 -6.34363,2.55094 -8.89453,0.13086 -2.42008,-2.42008 -2.55081,-6.08395 0.26172,-8.89649 1.34086,-1.34085 2.92704,-1.97851 4.48047,-1.97851 z m -48.44141,9.6875 8.11133,8.10937 -31.85351,31.85352 -8.11133,-8.10938 31.85351,-31.85351 z m 29.55469,5.51758 c 1.57796,0.008 3.18063,0.66109 4.52149,2.00195 2.74712,2.74712 2.55094,6.34559 0.13086,8.89648 -2.42009,2.42009 -6.08201,2.55082 -8.89454,-0.26171 -2.68171,-2.68172 -2.55094,-6.34554 -0.13086,-8.76563 1.24275,-1.24274 2.79509,-1.87927 4.37305,-1.87109 z m -12.81055,11.22461 8.10938,8.11132 -31.85352,31.85352 -8.10937,-8.11133 31.85351,-31.85351 z"
               transform="matrix(8,0,0,-8,-698.99785,3728.8202)"
               id="path4156"
               inkscape:connector-curvature="0" />
            <path
               inkscape:connector-curvature="0"
               id="path4158"
               style="fill:none;stroke:#231f20;stroke-width:30;stroke-linecap:butt;stroke-linejoin:miter;stroke-miterlimit:4;stroke-dasharray:none;stroke-opacity:1"
               d="m 1968.1,929.609 2028.19,0" />
            <g
               transform="scale(10,10)"
               id="g4160">
              <text
                 id="text4162"
                 style="font-variant:normal;font-weight:normal;line-height:0%;font-family:MyriadPro;-inkscape-font-specification:MyriadPro-Regular;writing-mode:lr-tb;fill:#231f20;fill-opacity:1;fill-rule:nonzero;stroke:none"
                 transform="matrix(1,0,0,-1,193.978,23.5488)">
                <tspan
                   id="tspan4164"
                   sodipodi:role="line"
                   y="0"
                   x="0 46.630901 75.688904 124.0609 157.0619 186.1199"
                   style="font-size:58px;line-height:1.25">Member</tspan>
              </text>
            </g>
            <g
               transform="scale(10,10)"
               id="g4166" />
            <g
               transform="scale(10,10)"
               id="g4184"
               style="fill:#ffffff;fill-opacity:1">
              <text
                 id="text4186"
                 style="font-variant:normal;font-weight:600;line-height:0%;font-family:MyriadPro;-inkscape-font-specification:MyriadPro-Semibold;writing-mode:lr-tb;fill:#ffffff;fill-opacity:1;fill-rule:nonzero;stroke:none"
                 transform="matrix(1,0,0,-1,191.559,110.495)">
                <tspan
                   id="tspan4188"
                   sodipodi:role="line"
                   y="0"
                   x="0 26.567406 67.823273 138.66998"
                   style="font-size:108px;line-height:1.25">iJUG</tspan>
              </text>
            </g>
          </g>
        </g>
      </g>
    </g>
  </g>
</svg>
