<?xml version="1.0" encoding="utf-8"?>
<!-- Generator: Adobe Illustrator 21.0.2, SVG Export Plug-In . SVG Version: 6.00 Build 0)  -->
<svg version="1.1" id="Ebene_1" xmlns="http://www.w3.org/2000/svg" xmlns:xlink="http://www.w3.org/1999/xlink" x="0px" y="0px"
	 viewBox="0 0 2834.6 6236.2" style="enable-background:new 0 0 2834.6 6236.2;" xml:space="preserve">
<style type="text/css">
	.st0{fill:#59888E;stroke:#020203;stroke-width:9;}
	.st1{fill:#FFFFFF;stroke:#020203;stroke-width:8;}
	.st2{fill:#E2D2B1;stroke:#020203;stroke-width:8;}
	.st3{fill:#D3633A;stroke:#020203;stroke-width:13;}
	.st4{fill:#FFFFFF;stroke:#020203;stroke-width:6;stroke-linecap:round;}
	.st5{fill:#D3633A;stroke:#020203;stroke-width:8;}
	.st6{fill:#D3633A;stroke:#020203;stroke-width:8.416;}
	.st7{fill:#020203;stroke:#020203;stroke-width:2.9733;stroke-linecap:round;}
	.st8{fill:#020203;stroke:#020203;}
	.st9{fill:#FFFFFF;stroke:#020203;stroke-width:10;}
	.st10{fill:#E2D2B1;stroke:#020203;stroke-width:10;}
	.st11{fill:#FFFFFF;stroke:#020203;stroke-width:0.3098;}
	.st12{fill:#020203;stroke:#020203;stroke-width:1.0157;}
	.st13{fill:none;stroke:#020203;stroke-width:7;}
	.st14{fill:none;stroke:#020203;stroke-width:13;}
	.st15{fill:none;stroke:#020203;stroke-width:16;}
	.st16{fill:none;stroke:#020203;stroke-width:12.9411;}
	.st17{fill:none;stroke:#020203;stroke-width:10.6039;}
	.st18{fill:none;stroke:#020203;stroke-width:10;}
	.st19{fill:none;stroke:#020203;stroke-width:14.4869;}
	.st20{fill:none;stroke:#020203;stroke-width:15.5058;}
	.st21{fill:#E2D2B1;stroke:#020203;stroke-width:10;stroke-linecap:round;}
	.st22{fill:none;stroke:#020203;stroke-width:10;stroke-linecap:round;}
	.st23{fill:none;stroke:#020203;stroke-width:6;stroke-linecap:round;}
	.st24{fill:#020203;stroke:#020203;stroke-width:9;}
	.st25{fill:#E2D2B1;stroke:#020203;stroke-width:9;}
	.st26{fill:none;stroke:#020203;stroke-width:7;stroke-linecap:round;}
	.st27{fill:none;stroke:#020203;stroke-width:9;stroke-linecap:round;}
	.st28{fill:#59888E;stroke:#020203;stroke-width:6;stroke-linecap:round;}
	.st29{fill:#020203;stroke:#020203;stroke-width:4;stroke-linecap:round;}
	.st30{fill:#FFFFFF;stroke:#020203;stroke-width:8;stroke-linecap:round;}
	.st31{fill:none;stroke:#020203;stroke-width:8;}
	.st32{fill:#59888E;stroke:#020203;stroke-width:9.6104;stroke-linecap:round;}
	.st33{fill:#020203;stroke:#020203;stroke-width:7.3183;stroke-linecap:round;}
	.st34{fill:#020203;stroke:#020203;stroke-width:1.0981;}
	.st35{fill:#020203;stroke:#020203;stroke-width:0.7126;}
	.st36{fill:#C35C34;stroke:#020203;stroke-width:5;}
	.st37{fill:#C35C34;stroke:#020203;stroke-width:3.3177;}
	.st38{fill:none;stroke:#020203;stroke-width:7.901;}
	.st39{fill:#59888E;stroke:#020203;}
	.st40{fill:#020203;stroke:#020203;stroke-width:1.0555;}
	.st41{fill:#020203;stroke:#020203;stroke-width:0.8964;}
	.st42{fill:#020203;stroke:#020203;stroke-width:1.2444;}
	.st43{fill:#020203;stroke:#020203;stroke-width:1.2998;}
	.st44{fill:none;stroke:#020203;stroke-width:6;}
	.st45{fill:#020203;stroke:#020203;stroke-width:6;stroke-linecap:round;}
	.st46{fill:none;stroke:#020203;stroke-width:6.4704;}
	.st47{fill:#59888E;stroke:#020203;stroke-width:1.0821;}
	.st48{fill:#59888E;stroke:#020203;stroke-width:2.2524;}
	.st49{fill:#59888E;stroke:#020203;stroke-width:1.4805;}
	.st50{fill:#59888E;stroke:#020203;stroke-width:0.8634;}
	.st51{fill:#020203;stroke:#020203;stroke-width:0.7648;}
	.st52{fill:#010202;stroke:#020203;stroke-width:9;}
</style>
<g>
	<defs>
		
		<inkscape:path-effect  effect="spiro" id="path-effect4253" is_visible="true"></inkscape:path-effect>
		<inkscape:path-effect  effect="spiro" id="path-effect4205" is_visible="true"></inkscape:path-effect>
		<inkscape:path-effect  effect="spiro" id="path-effect4205-7" is_visible="true"></inkscape:path-effect>
		<inkscape:path-effect  effect="spiro" id="path-effect4205-2" is_visible="true"></inkscape:path-effect>
		<inkscape:path-effect  effect="spiro" id="path-effect4253-1" is_visible="true"></inkscape:path-effect>
	</defs>
	
		<sodipodi:namedview  bordercolor="#666666" borderopacity="1.0" fit-margin-bottom="0" fit-margin-left="0" fit-margin-right="0" fit-margin-top="0" id="base" inkscape:current-layer="layer2" inkscape:cx="1843.8166" inkscape:cy="2446.6679" inkscape:document-units="px" inkscape:pageopacity="0.0" inkscape:pageshadow="2" inkscape:window-height="1147" inkscape:window-maximized="1" inkscape:window-width="1920" inkscape:window-x="-8" inkscape:window-y="-8" inkscape:zoom="0.25" pagecolor="#ffffff" showgrid="false">
		</sodipodi:namedview>
	<g id="layer2_1_" transform="translate(572.85718,1493.3521)" inkscape:groupmode="layer" inkscape:label="Vektoren">
		<g id="g4805_1_">
			<path inkscape:connector-curvature="0" class="st0" d="M1341.2,3514.7l59.2-1154.9L438,2319l92.5,1188.2"/>
			<path inkscape:connector-curvature="0" class="st0" d="M557.9,3507.3"/>
			<path id="path4508_1_" inkscape:connector-curvature="0" class="st1" d="M561.6,2333.8c0,0,51.8,85.1,177.7,99.9
				s310.9-22.2,418.3-74c107.3-51.8,125.9-714.4,125.9-714.4l-673.7-7.4L561.6,2333.8z"/>
			<path id="path4489-5_1_" inkscape:connector-curvature="0" class="st2" d="M338.3,2240.1c0,0-1.9-27.2-47.2-34.1
				c-45.3-7-55,1.2-55,1.2l-5,3.8c0,0,6.5,8.8,11.6,12.7c5.1,4,31,23.9,31,23.9l56.6,23.9L338.3,2240.1z"/>
			<path id="path4322_1_" inkscape:connector-curvature="0" sodipodi:nodetypes="ccssssssc" class="st3" d="M624.6,188.7l27.8-118.5
				c0,0-118.5-81.4-151.8-120.3s-66.6-109.2-33.3-125.9s186.9-77.7,261-75.9c74,1.9,486.8-25.9,568.2,25.9
				c81.4,51.8,209.1,50,166.6,235.1c-42.6,185.1-101.8,436.8-131.4,492.3C1302,557,624.6,188.7,624.6,188.7L624.6,188.7z"/>
			<rect id="rect4479_1_" x="661.6" y="982.7" class="st4" width="603.4" height="299.8"/>
			<path id="path4398_1_" inkscape:connector-curvature="0" class="st5" d="M876.1,1032.1c39.3,94.2,57.6,99.5,57.6,99.5l34,5.2
				l81.1-89l13.1-133.5l-170.1-10.5L876.1,1032.1z"/>
			<path id="path4400_1_" inkscape:connector-curvature="0" class="st6" d="M916.8,1126.7l-110.2,100.7l-14.5,517.8l147.9,18.3
				l150.8-495.6l-117.4-134.7L916.8,1126.7z"/>
			<path id="path4489_1_" inkscape:connector-curvature="0" class="st2" d="M285,2245.9c0,0-9.7-25.4-55.1-19
				c-45.3,6.5-52.3,17.1-52.3,17.1l-3.7,5.1c0,0,8.8,6.5,14.8,8.8c6,2.3,36.6,13.9,36.6,13.9l61.1,6.5L285,2245.9z"/>
			<path id="path4485_1_" inkscape:connector-curvature="0" sodipodi:nodetypes="czcscscccccccc" class="st2" d="M363.6,2078.4
				c0,0,10.8,18.1,0,53.7c-10.8,35.6-94.4,140.7-94.4,140.7s-50-7.4-87,13s-35.2,40.7-35.2,40.7s-16.7,7.4,29.6,18.5
				s164.7-9.3,164.7-9.3l37-11.1L545,2052.5l-46.3-220.2l-172.1,7.4l-20.4,155.5l41.9,71.7L363.6,2078.4z"/>
			<path id="path4433_1_" inkscape:connector-curvature="0" class="st0" d="M755.7,901.3c-256.5,15.7-261.7,20.9-261.7,20.9
				l47.1,575.8c0,0-120.4,683.2-159.7,717.2c-39.3,34,55,348.1,55,348.1l89-15.7l264.4-395.2l28.8-1259L755.7,901.3z"/>
			<path id="path4402_1_" inkscape:connector-curvature="0" class="st0" d="M1098.6,1113.3L849.9,2152.4l295.8,390l162.3,20.9
				l183.2-204.2l-146.6-513l26.2-513l214.6-392.6l-392.6-89L1098.6,1113.3z"/>
			<rect id="rect4524_1_" x="385.7" y="1902.5" class="st7" width="330.6" height="49.3"/>
			<path id="path4652_1_" inkscape:connector-curvature="0" sodipodi:nodetypes="csssccc" class="st8" d="M1095.6,1153.9
				c0,0,23.1-30.5,61.1-43.5c37.9-13,164-93.6,174.9-101.8c9.3-6.9,56.5-48.1,53.7-80.5c-2.8-32.4-34.2-58.3-34.2-58.3l-244.3,199.9
				L1095.6,1153.9z"/>
			<path id="path4394_1_" inkscape:connector-curvature="0" sodipodi:nodetypes="czzzsccc" class="st9" d="M1229.4,762.5
				c0,0,19.2-4.1,41.9,7.9s65.6,48.7,78.5,78.5c12.9,29.8,25.3,33.2,2.6,83.8c-22.7,50.6-130.9,144-191.1,159.7
				c-60.2,15.7-75.9,31.4-75.9,31.4l-68.1-159.7L1229.4,762.5z"/>
			<path id="path4396_1_" inkscape:connector-curvature="0" class="st9" d="M897,807l-109.9,41.9c0,0-36.6,13.1-28.8,60.2
				C766.1,956.2,842,1095,842,1095l83.8-144l28.8-144H897z"/>
			<path id="path4310_1_" inkscape:connector-curvature="0" sodipodi:nodetypes="ccssssssssssccccsscc" class="st10" d="M715.3,37
				l-56.5,181.4c0,0-9.3,131.4-13.9,194.3s-11.1,171.2,8.3,212.8c19.4,41.6,46.3,93.5,115.7,132.3c69.4,38.9,180.5,74,236,56.5
				c55.5-17.6,107.3-44.4,139.7-80.5c32.4-36.1,119.1-155.7,119.1-163.1c0-7.4,5.8,13.2,24.3-6.2c18.5-19.4,54.6-63.9,49-96.2
				c-5.6-32.4,13-69.4-25.9-65.7c-38.9,3.7-52.7,2.8-75.9,49c-23.1,46.3-6.5-31.5-6.5-31.5l24.1-14.8l-20.4-21.3l30.5-90.7
				c0,0-72.2-1.9-74-16.7c-1.9-14.8,27.8-107.3-3.7-221.2c-31.5-113.8-326.7-34.2-326.7-34.2S734.7,59.2,715.3,37L715.3,37z"/>
			<ellipse id="path3350_1_" class="st8" cx="1007.7" cy="303.1" rx="46.3" ry="73.4"/>
			<ellipse id="path3350-4_1_" class="st8" cx="730.1" cy="294.5" rx="46.3" ry="73.4"/>
			<ellipse id="path3350-47_1_" class="st11" cx="1022.9" cy="279.5" rx="14.3" ry="22.7"/>
			<ellipse id="path3350-47-1_1_" class="st11" cx="744.6" cy="270.7" rx="14.3" ry="22.7"/>
			
				<path id="path4251_1_" inkscape:connector-curvature="0" inkscape:original-d="m 606.14282,-430.8521 2.5,-8 c 0,0 -0.5,-18.5 -14,-22 -13.5,-3.5 -44.5,8 -44.5,8 l -3.5,9.5 c 0,0 12.5,-2 25.5,-3 13,-1 29,3.5 34,15.5 z" inkscape:path-effect="#path-effect4253" class="st8" d="
				M783.2,174.3l3.3-10.5c-1.8-11.6-8.6-22.3-18.3-28.8c-9.1-6.1-20.5-8.5-31.2-6.6c-10.7,1.9-20.6,8.2-27,17l-4.6,12.4
				c10.7-3.7,22.1-5.1,33.4-3.9C755.2,155.7,771,162.9,783.2,174.3z"/>
			
				<path id="path4251-3_1_" inkscape:connector-curvature="0" inkscape:original-d="m 756.00536,-422.5189 -1.13576,-8.4564 c 0,0 3.50596,-18.13948 17.25702,-18.54941 13.75105,-0.40992 42.14058,17.92413 42.14058,17.92413 l 1.86738,10.16172 c 0,0 -11.87756,-4.79099 -24.4064,-8.70808 -12.52885,-3.91708 -28.88379,-3.08411 -35.72282,7.62804 z" inkscape:path-effect="#path-effect4253-1" class="st8" d="
				M979.3,185.2l-1.5-11.1c3.8-10.7,12.1-19.8,22.6-24.3c10.3-4.4,22.3-4.5,32.6-0.1c10.3,4.4,18.6,13.1,22.5,23.6l2.4,13.3
				c-9.6-6.2-20.6-10.1-31.9-11.4C1009.9,173.3,993.2,176.9,979.3,185.2z"/>
			<path id="path4304_1_" inkscape:connector-curvature="0" class="st8" d="M792.3,238.4l12.4,2.6l-72,257.2c0,0-0.7,9.2,7.2,10.5
				c7.9,1.3,60.2,3.3,60.2,3.3s18.3,3.9,12.4,11.8c-5.9,7.9-81.8-2-81.8-2s-24.2-13.1-23.6-20.3c0.7-7.2,10.5-28.1,22.2-66.1
				C741.3,397.4,792.3,238.4,792.3,238.4z"/>
			<path id="path4306_1_" inkscape:connector-curvature="0" class="st9" d="M726.4,588.5l45.3,98.1c0,0,47.2,32.4,111,30.5
				c63.9-1.9,145.3-18.5,151.8-27.8c6.5-9.3,50-96.2,50-96.2l-15.7-8.3c0,0-81.4,25.9-161,28.7C828.2,616.3,726.4,588.5,726.4,588.5
				L726.4,588.5z"/>
			<path id="path4308_1_" inkscape:connector-curvature="0" class="st12" d="M745,626.4l91.9,15.6c0,0,108.1,12.1,137.9,9.2
				c29.8-2.8-62.1,11.4-129.2,3.6c-67.1-7.8-93.2-14.9-93.2-14.9L745,626.4z"/>
			<path id="path4318_1_" inkscape:connector-curvature="0" class="st13" d="M1258.2,494.3c0,0-11.8-23.6,6.5-38
				c18.3-14.4,49.7-3.9,49.7,7.9c0,11.8,5.2,36.6-23.6,48.4c-28.8,11.8-28.8,11.8-28.8,11.8l1.3,7.9"/>
			<path id="path4324_1_" inkscape:connector-curvature="0" class="st14" d="M646.8-238.8c0,0,98.1-24.1,162.9,20.4
				s96.2,87,85.1,133.3C883.7-38.9,817.1-14.9,746.7-26s-124-40.7-122.2-75.9c1.9-35.2,31.5-64.8,62.9-64.8s77.7,50,77.7,50l0,0"/>
			<path id="path4326_1_" inkscape:connector-curvature="0" class="st15" d="M979.9-199.9c0,0,59.2,16.7,68.5,64.8
				s-1.9,59.2-1.9,59.2l0,0"/>
			<path id="path4326-3_1_" inkscape:connector-curvature="0" class="st16" d="M1091.5-190.4c0,0,42.6,25.7,39.5,65.2
				c-3.1,39.5-14.1,45.8-14.1,45.8l0,0"/>
			<path id="path4326-3-5_1_" inkscape:connector-curvature="0" class="st17" d="M1172.1-167.2c0,0,27.6,30,16.1,60.4
				c-11.5,30.4-21.7,32.8-21.7,32.8l0,0"/>
			<path id="path4358_1_" inkscape:connector-curvature="0" class="st18" d="M1276.1,353.5c98.1,13,98.1,13,98.1,13"/>
			<path id="path4358-6_1_" inkscape:connector-curvature="0" class="st19" d="M1283.6,266.5c103.4,25.8,103.4,25.8,103.4,25.8"/>
			
				<path id="path4358-6-9_1_" inkscape:connector-curvature="0" inkscape:transform-center-x="1.091775" inkscape:transform-center-y="70.218503" class="st20" d="
				M1295.6,188.1c106.6,44.6,106.6,44.6,106.6,44.6"/>
			<path id="path4390_1_" inkscape:connector-curvature="0" sodipodi:nodetypes="cccssscscc" class="st21" d="M1263.1,567.7
				l-44.4,229.9l25.9,24.1c0,0,40.7,29.6,7.4,64.8c-33.3,35.2-138.8,77.7-231.4,75.9c-92.5-1.9-174-33.3-174-59.2
				s48.6-32.8,48.6-32.8s6.5,2.2,13.9-29.2l7.4-23.4l-1.1-4.7"/>
			<path id="path4392_1_" inkscape:connector-curvature="0" sodipodi:nodetypes="cssc" class="st22" d="M918.4,813
				c0,0,8,4.6,42.7,2.3c34.7-2.3,184.4-35.5,195.3-42.4s22.7-33.7,22.7-33.7"/>
			<path id="path4437_1_" inkscape:connector-curvature="0" sodipodi:nodetypes="ccccazccsscccc" class="st0" d="M491.3,924.8
				l-20.9-20.9l-23.6,20.9L452,951c0,0-418.9,377.8-552.3,620.3c-18.4,33.4-31.8,73.1-31.4,109.9c0.4,36.9,31.4,102.1,31.4,102.1
				L365,2081.7c0,0-17.7-5.2-4.6-70.7c13.1-65.4,31.4-138.7,68.1-157c36.6-18.3,38.8-23.9,38.8-23.9l-248.2-180.3L528,1359.3
				C528,1359.3,582.9,1267.7,491.3,924.8L491.3,924.8z"/>
			<circle id="path4789_1_" class="st23" cx="840.1" cy="2133.4" r="13.7"/>
			<path id="path4609_1_" inkscape:connector-curvature="0" class="st24" d="M795.8,2123.3l-37-48.6l118.5-11.6L795.8,2123.3z"/>
			<path id="path4516_1_" inkscape:connector-curvature="0" sodipodi:nodetypes="csscsscsccsccscsccccc" class="st25" d="
				M820.8,2096.9c0,0-155.5,3.7-236.9-3.7s-211-155.5-225.8-155.5c-14.8,0-99.9-3.7-99.9-3.7s-14.8-29.6,3.7-37s55.5-22.2,70.3-22.2
				c14.8,0,99.9-3.7,99.9-3.7s7.4,7.4,37,37c29.6,29.6,88.8,59.2,88.8,59.2l-31.3-33.5c0,0-14.4-17-6.5-24.9
				c7.9-7.9,35.3-27.5,35.3-27.5l43.2,19.6c0,0,20.9,10.5,24.9,23.6c3.9,13.1,31.4,22.2,31.4,22.2s31.4-13.1,44.5-24.9
				c13.1-11.8,52.3-18.3,52.3-18.3l100.8-13.1l57.6,138.7l-32.7,62.8L820.8,2096.9z"/>
			<path id="path4412_1_" inkscape:connector-curvature="0" sodipodi:nodetypes="cccssscsccscc" class="st0" d="M1627.3,924.8
				l31.4,10.5l-10.5,34c0,0,162.3,704.1,157,858.5c-5.2,154.4,19.3,195.3-15.7,204.2c-47.8,12.1-83.8,20.3-143.3,20.3
				c-56,0-843.5,71.3-843.5,71.3s50.5-86.7,38.3-157.3c-8.5-49-40.9-80.9-40.9-80.9l638.7-109.9l27.5-22.2
				c9.1-7.4-98.2-405.7-98.2-405.7C1369.2,1292.3,1449.6,991.5,1627.3,924.8L1627.3,924.8z"/>
			<path id="path4414_1_" inkscape:connector-curvature="0" class="st26" d="M1645.6,970.6c0,0-10.5-17-58.9,40.6
				c-48.4,57.6-113.9,180.6-113.9,180.6l0,0"/>
			<path id="path4439_1_" inkscape:connector-curvature="0" class="st27" d="M452,951c0,0,44.5,117.8,44.5,204.2s2.6,86.4,2.6,86.4
				l0,0"/>
			<circle id="path4462_1_" class="st28" cx="1024.4" cy="1771.2" r="51.8"/>
			<circle id="path4462-9_1_" class="st28" cx="1031.8" cy="2237.6" r="51.8"/>
			<path id="path4462-9-8_1_" inkscape:connector-curvature="0" class="st29" d="M1028.7,1718.4c28.6,0,51.8,23.2,51.8,51.8
				c0,28.6-23.2,51.8-51.8,51.8c-3.7,0-7.4-0.4-11.1-1.3c23.7-5.2,40.6-26.3,40.6-50.6c0-24.3-17-45.4-40.8-50.6
				C1021.2,1718.9,1024.9,1718.5,1028.7,1718.4L1028.7,1718.4z"/>
			<ellipse id="path4514_1_" class="st30" cx="644.9" cy="1808.2" rx="472" ry="96.2"/>
			<path id="path4520_1_" inkscape:connector-curvature="0" class="st27" d="M551.5,1964c0,0,15.7,7.9,28.8,20.9
				c13.1,13.1,24.9,32.7,24.9,32.7"/>
			<path id="path4522_1_" inkscape:connector-curvature="0" class="st23" d="M546.3,1936.5c20.9,3.9,35.3,3.9,41.9-1.3
				c6.5-5.2,6.5-5.2,6.5-5.2"/>
			<path id="path4654-9_1_" inkscape:connector-curvature="0" sodipodi:nodetypes="ccccc" class="st31" d="M804.5,1831.8
				l-143.2-689.3l84.4-83.9l-66.7-58l79.9-96.9"/>
			<ellipse id="path4532_1_" class="st30" cx="650.2" cy="1528" rx="212.8" ry="59.2"/>
			<ellipse id="path4601_1_" class="st32" cx="648.6" cy="1544.9" rx="186.8" ry="38.3"/>
			<ellipse id="path4605_1_" class="st33" cx="639.6" cy="1541.7" rx="142.3" ry="36.5"/>
			<path id="path4603_1_" inkscape:connector-curvature="0" class="st34" d="M612,1864.8c0,0,125,11.5,161.6,1
				c36.6-10.5,100.2-24.9,98-47.9c-2.2-23-58.2-36.4-58.2-36.4L612,1864.8z"/>
			<path id="path4530_1_" inkscape:connector-curvature="0" sodipodi:nodetypes="cscsscsc" class="st1" d="M437.6,1532.4
				c0,0,22.2,48.1,161,53.7c138.8,5.6,261.9-50,261.9-50s-9.5,101.2-17.6,170.3c-14.8,125.9-122.2,155.5-148.1,157.3
				c-25.9,1.9-137-5.6-137-5.6s-70.3-7.4-94.4-72.2C439.5,1721.2,437.6,1532.4,437.6,1532.4z"/>
			<path id="path4895-4_1_" inkscape:connector-curvature="0" class="st35" d="M852.1,1703.9c0,0-2.6,20.4-29.7,30.3
				c-27,9.9-45.5,11.9-45.5,11.9s8.6,1.3,22.4,0c13.8-1.3,37.6-8.6,37.6-8.6L852.1,1703.9z"/>
			<path id="path4534_1_" class="st30" d="M881.4,1594.4c-43.7,0-79.1,36.5-79.1,81.4c0,0,0,0,0,0c0,45,35.4,81.4,79.1,81.4
				c0,0,0,0,0,0c43.7,0,79.1-36.5,79.1-81.4c0,0,0,0,0,0C960.5,1630.9,925.1,1594.4,881.4,1594.4z M877.8,1636.5
				c20.1,0,36.4,16.8,36.4,37.5c0,20.7-16.3,37.5-36.4,37.5c0,0,0,0,0,0c-20.1,0-36.4-16.8-36.4-37.5c0,0,0,0,0,0
				C841.4,1653.3,857.7,1636.5,877.8,1636.5z"/>
			<path id="path4578_1_" inkscape:connector-curvature="0" sodipodi:nodetypes="cssscssc" class="st36" d="M564.6,1227.1
				c26.2,22.2,46.8,34.3,52.3,53.7c6.5,22.6-1.8,51.9-14.3,85.2c-20.6,55-29.8,82.9-21,104.4c9.6,23.6,35.2,54.8,35.2,54.8
				s-38-15.3-48.8-29.5c-10.3-13.6-37.5-29-3.4-103.6C598.6,1317.4,620.6,1293.9,564.6,1227.1z"/>
			<path id="path4578-3_1_" inkscape:connector-curvature="0" sodipodi:nodetypes="cssscssc" class="st37" d="M663.6,1351.9
				c-17.4,14.8-31.1,22.7-34.7,35.6c-4.3,15,1.2,34.5,9.5,56.5c13.7,36.5,19.8,55,14,69.2c-6.4,15.6-23.4,36.4-23.4,36.4
				s25.2-10.1,32.4-19.6c6.8-9,24.9-19.2,2.3-68.7C641,1411.8,626.5,1396.2,663.6,1351.9L663.6,1351.9z"/>
			<path id="path4599_1_" inkscape:connector-curvature="0" class="st38" d="M823.7,2550.3c23.6,834.4,26.2,964.5,26.2,964.5"/>
			<path id="path4607_1_" inkscape:connector-curvature="0" sodipodi:nodetypes="cssscc" class="st39" d="M696.8,1519.5
				c0,0,34.2,7.2,25.9,21.1c-8.3,13.9-56.9,27-71.7,28.9c-14.8,1.9,65.5-8.6,80.8-13.7c16.2-5.4,24.2-18.7,14.9-26.1
				C737.5,1522.2,696.8,1519.5,696.8,1519.5L696.8,1519.5z"/>
			<path id="path4462-9-8-6_1_" inkscape:connector-curvature="0" class="st29" d="M1029.6,2187c28.6,0,51.8,23.2,51.8,51.8
				c0,28.6-23.2,51.8-51.8,51.8c-3.7,0-7.4-0.4-11.1-1.3c23.7-5.2,40.6-26.3,40.6-50.6c0-24.3-17-45.4-40.8-50.6
				C1022.1,2187.4,1025.8,2187,1029.6,2187L1029.6,2187z"/>
			<path id="path4650_1_" inkscape:connector-curvature="0" class="st8" d="M1474.1,1191.9c0,0,107.3-159.2,135.1-168.4
				c27.8-9.3,46.3-16.7,46.3-16.7l-7.4-38.9c0,0-14.3-3.7-29.6,10.6c-15.3,14.3-99.5,129.6-106,143.4
				C1506,1135.9,1474.1,1191.9,1474.1,1191.9z"/>
			<path id="path4654_1_" inkscape:connector-curvature="0" class="st31" d="M954.6,1738.9l345.5-557.5l-49.7-81.1l117.8-62.8
				l-5.2-112.6l0,0"/>
			<path id="path4671_1_" inkscape:connector-curvature="0" class="st8" d="M510.9,923.5c0,0,10.5-2.6,19.6,74.6
				s10.5,166.2,10.5,166.2l-45.8-236.9l22.2-7.9"/>
			<path id="path4673_1_" inkscape:connector-curvature="0" sodipodi:nodetypes="csczc" class="st8" d="M1462.2,1754.4
				c0,0,49.4-10.5,96.3,6.1c47,16.6,71.2,65.7,71.2,65.7s-23.6-27.8-79.7-49.8C1494,1754.5,1462.2,1754.4,1462.2,1754.4z"/>
			<path id="path4673-6_1_" inkscape:connector-curvature="0" sodipodi:nodetypes="csczc" class="st40" d="M1457.5,1754.6
				c0,0,49.2-0.1,95.1,25.6c45.9,25.7,62.3,81,62.3,81s-15.5-35.1-69.9-68C1490.6,1760.4,1457.5,1754.6,1457.5,1754.6L1457.5,1754.6
				z"/>
			<path id="path4690_1_" inkscape:connector-curvature="0" class="st8" d="M1267.7,1123.4c7.4-4.6,102.7-83.3,102.7-83.3
				l-120.3,59.2L1267.7,1123.4z"/>
			<path id="path4692_1_" inkscape:connector-curvature="0" sodipodi:nodetypes="cccc" class="st8" d="M959.6,1738.3l354.4-543.7
				l-9.7-15.3L959.6,1738.3z"/>
			<path id="path4694_1_" inkscape:connector-curvature="0" class="st8" d="M936.9,955.6c-51,95.5-61.5,79.8-61.5,79.8l49.7-83.8
				L936.9,955.6z"/>
			<path id="path4696_1_" inkscape:connector-curvature="0" class="st8" d="M825,1075.3c-2,137.4-13.7,150.5-13.7,150.5l7.2-175.4
				L825,1075.3z"/>
			<path id="path4698_1_" inkscape:connector-curvature="0" class="st8" d="M1054.7,1063.6l-70,68.1l81.8,105.4l-94.2-104.7
				l79.2-86.4L1054.7,1063.6z"/>
			<path id="path4700_1_" inkscape:connector-curvature="0" class="st8" d="M887.9,1052.4l68.1-91l16.4,1.3l-83.1,96.8L887.9,1052.4
				z"/>
			<path id="path4702_1_" inkscape:connector-curvature="0" class="st8" d="M986.7,964.7l-92.3,106.7l2.6,7.9l112.6-113.2
				L986.7,964.7z"/>
			<path id="path4704_1_" inkscape:connector-curvature="0" class="st8" d="M950.3,1136.4l-137,105.5l-5.6-20.4l111-96.2
				L950.3,1136.4z"/>
			<path id="path4706_1_" inkscape:connector-curvature="0" class="st8" d="M813.4,1325.1l185.1-161l24.1,22.2L806,1345.5l7.4-13"/>
			<path id="path4706-2_1_" inkscape:connector-curvature="0" class="st41" d="M814,1275.1l164-146l21.3,20.1l-191.8,144.4l6.6-11.8
				"/>
			<path id="path4723_1_" inkscape:connector-curvature="0" class="st8" d="M909.6,856.9c0,0,111,20.4,179.5-14.8
				c68.5-35.2,92.5-99.9,92.5-99.9l-53.7,37L946.6,818l-22.2-3.7L909.6,856.9z"/>
			<path id="path4673-6-2_1_" inkscape:connector-curvature="0" sodipodi:nodetypes="csczc" class="st42" d="M31.9,1545.3
				c0,0,56.4-5.6,112.1,20.2c55.6,25.8,74.9,86.7,74.9,86.7c-5,7.7-43.4-47.7-82.2-70.2C98,1559.5,31.9,1545.3,31.9,1545.3z"/>
			<path id="path4673-6-2-0_1_" inkscape:connector-curvature="0" sodipodi:nodetypes="csczc" class="st43" d="M-17,1631
				c0,0,54.7-26.5,121.6-23.6c66.9,2.8,111.9,47.5,111.9,47.5s-31.6-23.6-112.4-29.5C23.4,1619.5-17,1631-17,1631z"/>
			<path id="path4755_1_" inkscape:connector-curvature="0" class="st44" d="M947.7,1882.2c0,0,20.9-16.3,30.3,54.2
				c9.5,70.5-36,177.1-36,177.1"/>
			<path id="path4757_1_" inkscape:connector-curvature="0" class="st44" d="M272.7,2022.9c0,0-14.4-23.6-7.9-53.7
				c6.5-30.1,10.5-35.3,10.5-35.3"/>
			<ellipse id="path4759_1_" class="st45" cx="891.8" cy="2064.1" rx="23.6" ry="24.2"/>
			<ellipse id="path4761_1_" class="st45" cx="312" cy="1991.4" rx="18.3" ry="20.9"/>
			<path id="path4765_1_" inkscape:connector-curvature="0" class="st8" d="M816.6,1904c0,0,103.2-17.6,123.5-8.3
				c20.4,9.3,29.6,27.8,33.8,42.6c4.2,14.8,3.7-13,3.7-13s-9.3-41.6-18-44.9c-8.8-3.2-144.4,19-144.4,19L816.6,1904z"/>
			<path id="path4767_1_" inkscape:connector-curvature="0" class="st8" d="M543.1,1241.8c0,0,9.3,57.4-22.2,94.4
				c-31.5,37-307.2,310.9-307.2,310.9l318.3-285L543.1,1241.8z"/>
			<path id="path4769_1_" inkscape:connector-curvature="0" class="st8" d="M302.5,2037.7c0,0,1.9,0,16.7,1.9
				c14.8,1.9,37-18.5,40.7-33.3c3.7-14.8-14.8,57.4-7.4,64.8C359.9,2078.4,302.5,2037.7,302.5,2037.7z"/>
			<path id="path4771_1_" inkscape:connector-curvature="0" class="st8" d="M815.2,2124.7l-7.4,35.2l-177.7,240.6l161-246.2
				l-1.9-33.3L815.2,2124.7z"/>
			<path id="path4775_1_" inkscape:connector-curvature="0" sodipodi:nodetypes="cssczsc" class="st8" d="M652.3,2571.2
				c0,0,126.8-27.8,161.9-31.5c36.4-3.8,96-9,129.6,1.9c33.7,10.9,52.7,38.9,52.7,38.9s-21.3-15.8-51-22.9
				c-29.6-7.1-71.6-11.9-126.7-5.8C766.8,2557.6,652.3,2571.2,652.3,2571.2L652.3,2571.2z"/>
			<path id="path4777_1_" inkscape:connector-curvature="0" sodipodi:nodetypes="csccsc" class="st8" d="M636.6,2398.5
				c0,0,102.1,85.1,222.5,61.5s164.9-51,164.9-51l-124.3,22.2c0,0-141.3,11.8-168.8,2.6S636.6,2398.5,636.6,2398.5z"/>
			<path id="path4779_1_" inkscape:connector-curvature="0" class="st8" d="M1423.1,2471.7l-109.9,94.2l107.3-136.1L1423.1,2471.7z"
				/>
			<path id="path4781_1_" inkscape:connector-curvature="0" class="st8" d="M645.7,2406.3l-115.2,141.3l102.1-154.4L645.7,2406.3z"
				/>
			<path id="path4785_1_" inkscape:connector-curvature="0" class="st46" d="M818.4,2121.6c0,0-23.6,174.6-27.9,243.3
				s-2.1,89.1-2.1,89.1"/>
			<ellipse id="path4787_1_" class="st23" cx="823.1" cy="2289.2" rx="13.7" ry="15.1"/>
			<path id="path4791_1_" inkscape:connector-curvature="0" sodipodi:nodetypes="cccc" class="st8" d="M1366,1365.1l-75.1,439.4
				l55.5-11.1L1366,1365.1z"/>
			<path id="path4793_1_" inkscape:connector-curvature="0" class="st8" d="M1273.9,2081.7l214.6,277.5l-78.5-290.5L1273.9,2081.7z"
				/>
			<path id="path4795_1_" inkscape:connector-curvature="0" sodipodi:nodetypes="cccccc" class="st8" d="M1276.6,2560.3l47.1,950.6
				l43.1,1.9l62.9-1079l-118.5,131.4L1276.6,2560.3z"/>
			<path id="path4797_1_" inkscape:connector-curvature="0" sodipodi:nodetypes="cccc" class="st47" d="M1292.7,2087.7l23.2-1.2
				l167.3,256.6L1292.7,2087.7z"/>
			<path id="path4799_1_" inkscape:connector-curvature="0" class="st8" d="M1400.9,1465.3l-49.7,319.3l-45.8,7.9l66.7-425.3
				L1400.9,1465.3z"/>
			<path id="path4801_1_" inkscape:connector-curvature="0" sodipodi:nodetypes="cccc" class="st48" d="M1299.4,1793.4l86.8-355.1
				l-16.9-58.2L1299.4,1793.4z"/>
			<path id="path4801-9_1_" inkscape:connector-curvature="0" sodipodi:nodetypes="cccc" class="st49" d="M1340.6,1711.4l57-233.4
				l-11.1-38.3L1340.6,1711.4z"/>
			<path id="path4797-8_1_" inkscape:connector-curvature="0" sodipodi:nodetypes="cccc" class="st50" d="M1328,2086.2l35.7-2.8
				l103.4,225.4L1328,2086.2z"/>
			<path id="path4833_1_" inkscape:connector-curvature="0" sodipodi:nodetypes="cccc" class="st39" d="M1312.2,2578.1l-22.7-1.5
				l49.5,951L1312.2,2578.1z"/>
			<path id="path4833-2_1_" inkscape:connector-curvature="0" sodipodi:nodetypes="cccc" class="st39" d="M1350,2531.4l-18.2,19.6
				l22.9,796.9L1350,2531.4z"/>
			<path id="path4850_1_" inkscape:connector-curvature="0" class="st8" d="M750.4,2558.1c0,0,39.3-20.9,52.3,44.5
				c13.1,65.4,47.1,910.9,47.1,910.9l-23.6-973.7L750.4,2558.1z"/>
			<path id="path4852_1_" inkscape:connector-curvature="0" sodipodi:nodetypes="csccscc" class="st8" d="M806-249.9
				c0,0,104.8,43.7,111.2,99.6c9,78.9-42.5,104.9-42.5,104.9L897-83.3c0,0-5.4-75-27.7-89.8c-22.2-14.8-128.1-74.9-128.1-74.9
				L806-249.9z"/>
			<path id="path4854_1_" inkscape:connector-curvature="0" class="st44" d="M635.7,162.8c32.4,17.6,33.3,17.6,33.3,17.6"/>
			
				<path id="path4854-3_1_" inkscape:connector-curvature="0" inkscape:transform-center-x="12.519088" inkscape:transform-center-y="-22.80928" class="st44" d="
				M640.6,143.6c32.4,17.6,33.3,17.6,33.3,17.6"/>
			
				<path id="path4854-6_1_" inkscape:connector-curvature="0" inkscape:transform-center-x="-0.20883427" inkscape:transform-center-y="-19.980852" class="st44" d="
				M645.2,126c32.4,17.6,33.3,17.6,33.3,17.6"/>
			<path id="path4889_1_" inkscape:connector-curvature="0" class="st8" d="M689.4-161.1c0,0-24.1-9.3-31.5,31.5
				c-7.4,40.7,22.2,83.3,50,92.5c27.8,9.3-66.6-25.9-66.6-25.9l-18.5-46.3l25.9-42.6l46.3-9.3l0,0"/>
			<path id="path4893_1_" inkscape:connector-curvature="0" sodipodi:nodetypes="cccc" class="st8" d="M771.2-121.5l17.5,39.3
				L759.8-111L771.2-121.5z"/>
			<path id="path4895_1_" inkscape:connector-curvature="0" class="st8" d="M827.2,1761c0,0-3.7,28.7-41.6,42.6
				c-37.9,13.9-63.9,16.7-63.9,16.7s12,1.9,31.5,0c19.4-1.9,52.7-12,52.7-12L827.2,1761z"/>
			<path id="path4895-9_1_" inkscape:connector-curvature="0" class="st51" d="M833.6,1738.1c0,0-2.8,21.9-31.9,32.6
				c-29,10.6-48.8,12.7-48.8,12.7s9.2,1.4,24.1,0c14.9-1.4,40.3-9.2,40.3-9.2L833.6,1738.1z"/>
		</g>
	</g>
</g>
<path class="st0" d="M1936,5000.5l-3.8,52.8l60.1,1253.7h-504.8l-38.1-628.3c0,0-18-337.5-16.5-346.5c1.5-9-13.8-331.1-13.8-331.1"
	/>
<polyline class="st0" points="1103.4,5000.6 1184.8,6291 1491.2,6307.2 1422.8,5006.9 1422.4,4994.1 "/>
<polygon class="st52" points="1930.4,5051.8 1973.3,6307.1 1887.1,5053.5 "/>
<polygon class="st52" points="1933.3,4986 1770.9,5032.2 1930.7,5029.8 "/>
<polygon class="st52" points="1933.3,5018.3 1732.7,5069.3 1930.7,5062.2 "/>
<line class="st52" x1="1948.5" y1="6314.6" x2="1887.1" y2="5053.5"/>
<polygon class="st52" points="1473.2,6307.2 1384.3,4043.6 1349.8,4050.7 "/>
</svg>
