<?xml version="1.0" encoding="utf-8"?>
<!-- Generator: Adobe Illustrator 20.1.0, SVG Export Plug-In . SVG Version: 6.00 Build 0)  -->
<svg version="1.1"
	 id="svg4632" inkscape:export-filename="D:\JUGGR\grafiken\Plakate\Plakat_05_2016\plakat_05_2016_v2.png" inkscape:export-xdpi="90" inkscape:export-ydpi="90" inkscape:version="0.91 r13725" sodipodi:docname="plakat_05_2016_v2.svg" xmlns:cc="http://creativecommons.org/ns#" xmlns:dc="http://purl.org/dc/elements/1.1/" xmlns:inkscape="http://www.inkscape.org/namespaces/inkscape" xmlns:rdf="http://www.w3.org/1999/02/22-rdf-syntax-ns#" xmlns:sodipodi="http://sodipodi.sourceforge.net/DTD/sodipodi-0.dtd" xmlns:svg="http://www.w3.org/2000/svg"
	 xmlns="http://www.w3.org/2000/svg" xmlns:xlink="http://www.w3.org/1999/xlink" x="0px" y="0px" viewBox="0 0 595.3 841.9"
	 style="enable-background:new 0 0 595.3 841.9;" xml:space="preserve">
<style type="text/css">
	.st0{fill:#E1D2B1;}
	.st1{fill:#778618;}
	.st2{fill:#CCE053;}
	.st3{font-family:'OpenSans';}
	.st4{font-size:24px;}
	.st5{fill:#FFFFFF;}
	.st6{font-size:36px;}
	.st7{fill:none;stroke:#778618;stroke-width:5;stroke-miterlimit:10;}
	.st8{fill:none;}
	.st9{font-size:17px;}
	.st10{font-size:20px;}
	.st11{fill:#57888D;stroke:#000000;}
	.st12{fill:#FFFFFF;stroke:#000000;}
	.st13{fill:#D3623A;stroke:#000000;}
	.st14{fill:#FFFFFF;stroke:#000000;stroke-linecap:round;}
	.st15{stroke:#000000;}
	.st16{fill:#E1D2B1;stroke:#000000;}
	.st17{stroke:#000000;stroke-width:0.75;}
	.st18{stroke:#000000;stroke-width:0.5;}
	.st19{fill:#FFFFFF;stroke:#FFFFFF;}
	.st20{fill:none;stroke:#000000;}
	.st21{fill:#E1D2B1;stroke:#000000;stroke-linecap:round;}
	.st22{fill:none;stroke:#000000;stroke-linecap:round;}
	.st23{fill:#57888D;stroke:#000000;stroke-linecap:round;}
	.st24{stroke:#000000;stroke-linecap:round;}
	.st25{fill:#352714;stroke:#000000;stroke-linecap:round;}
	.st26{fill:#634811;stroke:#000000;stroke-linecap:round;}
	.st27{fill:#EFBC04;stroke:#000000;stroke-linecap:round;}
	.st28{fill:#1D1D1B;stroke:#000000;}
	.st29{fill:#FFFFFF;stroke:#000000;stroke-width:2;}
	.st30{fill:#F58219;stroke:#000000;stroke-width:2;}
	.st31{fill:#4E7896;stroke:#000000;stroke-width:2;}
</style>
<defs>
	
	<inkscape:path-effect  effect="spiro" id="path-effect4253" is_visible="true"></inkscape:path-effect>
	<inkscape:path-effect  effect="spiro" id="path-effect4253-1" is_visible="true"></inkscape:path-effect>
	<inkscape:path-effect  effect="spiro" id="path-effect4253-7" is_visible="true"></inkscape:path-effect>
	<inkscape:path-effect  effect="spiro" id="path-effect4253-1-1" is_visible="true"></inkscape:path-effect>
	<inkscape:path-effect  effect="spiro" id="path-effect4253-6" is_visible="true"></inkscape:path-effect>
	<inkscape:path-effect  effect="spiro" id="path-effect4253-1-6" is_visible="true"></inkscape:path-effect>
</defs>
<sodipodi:namedview  bordercolor="#666666" borderopacity="1.0" fit-margin-bottom="0" fit-margin-left="0" fit-margin-right="0" fit-margin-top="0" id="base" inkscape:current-layer="layer1" inkscape:cx="226.64962" inkscape:cy="585.35062" inkscape:document-units="px" inkscape:pageopacity="0.0" inkscape:pageshadow="2" inkscape:window-height="1147" inkscape:window-maximized="1" inkscape:window-width="1920" inkscape:window-x="-8" inkscape:window-y="-8" inkscape:zoom="0.70710678" pagecolor="#ffffff" showgrid="false">
	</sodipodi:namedview>
<rect id="rect4799-6-8-3-1" y="137.3" class="st0" width="595.3" height="568.6"/>
<rect id="rect4799-6-8" x="0" class="st1" width="595.3" height="265.4"/>
<text transform="matrix(1 0 0 1 37.9248 60.1094)" class="st2 st3 st4">Vortrag bei der Java User Group Görlitz</text>
<text transform="matrix(1 0 0 1 35.562 135.7974)" class="st5 st3 st6">Kommunikationskultur im</text>
<text transform="matrix(1 0 0 1 35.562 180.7974)" class="st5 st3 st6">Softwareentwicklungsprozess</text>
<rect x="36" y="326.2" class="st7" width="325.7" height="227.4"/>
<g>
	<text transform="matrix(1 0 0 1 35.5742 237.1968)" class="st2 st3 st4">Daniel Sernow</text>
</g>
<g id="flowRoot5521" transform="translate(-2.2268386,3.3339304)">
</g>
<rect id="rect5741" x="33.5" y="289.1" class="st1" width="330.7" height="36.8"/>
<rect id="rect4799-6" x="41.2" y="334.3" class="st8" width="315.3" height="220.2"/>
<text transform="matrix(1 0 0 1 41.1959 347.2694)"><tspan x="0" y="0" class="st3 st9">Im Vortrag von Daniel Sernow wird die </tspan><tspan x="0" y="21" class="st3 st9">Kommunikation in Software-Projekten </tspan><tspan x="0" y="42" class="st3 st9">und mit den Projekt-Partnern themati</tspan><tspan x="297.4" y="42" class="st3 st9">-</tspan><tspan x="0" y="63" class="st3 st9">siert. Er wird uns an seinen Erfahrun</tspan><tspan x="287" y="63" class="st3 st9">-</tspan><tspan x="0" y="84" class="st3 st9">gen und Erkenntnissen aus langjähriger </tspan><tspan x="0" y="105" class="st3 st9">Praxis im Projektgeschäft teilhaben </tspan><tspan x="0" y="126" class="st3 st9">lassen. Für Entwickler dürfte dabei vor </tspan><tspan x="0" y="147" class="st3 st9">allem auch die Perspektive der Quali</tspan><tspan x="287.6" y="147" class="st3 st9">-</tspan><tspan x="0" y="168" class="st3 st9">tätssicherung interessante neue Einbli</tspan><tspan x="300.7" y="168" class="st3 st9">-</tspan><tspan x="0" y="189" class="st3 st9">cke bereithalten.</tspan></text>
<g id="flowRoot5689" transform="translate(13.793466,-6.686375)">
</g>
<text transform="matrix(1 0 0 1 46.9287 316.9897)" class="st5 st3 st10">Thema</text>
<g id="flowRoot5763" transform="translate(-2.2268386,3.3339304)">
</g>
<g id="flowRoot5773" transform="translate(-3.0349635,9.3725)">
</g>
<g>
	<path class="st11" d="M448.5,348.2c-4.5,2.6-27.7,31.4-25,39.1c0,0,4-6.4,4-6.4l-24.1,43.7c-0.1,0.1-0.3,0.1-0.3,0l0,0
		c-0.1-0.2,0.2-0.3,0.3-0.1l2.2,9.3c0.9,0.6,7.2,13.4,14.4,10.1c7.9-3.6,16.1-15.6,16.1-15.6l18.6-29.3c0,0,1.1-9.2,1.1-9.2
		l-2.3-41.9C453.4,347.9,449.8,347.4,448.5,348.2z"/>
	<path id="path4595" inkscape:connector-curvature="0" class="st11" d="M447,490.5l9.4,120.8l82.4,0.8l6-117.4L447,490.5z"/>
	<path id="path4508" inkscape:connector-curvature="0" class="st12" d="M456.8,492c0,0,5.3,8.7,18.1,10.2
		c12.8,1.5,31.6-2.3,42.5-7.5s12.8-72.7,12.8-72.7l-68.5-0.8L456.8,492z"/>
	<path id="path4322" inkscape:connector-curvature="0" sodipodi:nodetypes="ccssssssc" class="st13" d="M457.1,276.5l2.2-12.2
		c0,0-12.4-7.7-16-11.5s-7.3-10.8-4-12.6c3.3-1.9,18.6-8.8,26.1-9s49.3-5,57.8-0.2c8.5,4.9,21.5,4,18.1,23.1s-8.2,44.9-10.9,50.7
		C527.7,310.6,457.1,276.5,457.1,276.5L457.1,276.5z"/>
	<rect id="rect4479" x="466.9" y="354.6" class="st14" width="61.4" height="30.5"/>
	<path id="path4398" inkscape:connector-curvature="0" class="st13" d="M488.8,359.6c4,9.6,5.9,10.1,5.9,10.1l3.5,0.5l8.3-9
		l1.3-13.6l-17.3-1.1L488.8,359.6z"/>
	<path id="path4400" inkscape:connector-curvature="0" class="st13" d="M492.9,369.2l-11.2,10.2l-4.7,76.7l15,1.9l18.5-74.4
		l-11.9-13.7L492.9,369.2z"/>
	<path id="path4433" inkscape:connector-curvature="0" class="st11" d="M477,344.7c-22,2.2-22,2.2-22,2.2l-0.5,89.6
		c0,0-10,36.6-14,40c-4,3.5,3.5,38.8,3.5,38.8l9-1.6l26.9-40.2l4-130.1L477,344.7z"/>
	<path id="path4402" inkscape:connector-curvature="0" class="st11" d="M511.4,367.9l-25.3,105.7l30.1,39.7l16.5,2.1l18.6-20.8
		l-14.9-52.2l2.7-52.2l21.8-39.9l-39.9-9L511.4,367.9z"/>
	<path id="path4652" inkscape:connector-curvature="0" sodipodi:nodetypes="csssccc" class="st15" d="M509.3,370.1
		c0,0,2.4-3.1,6.2-4.4s16.7-9.5,17.8-10.4c0.9-0.7,5.7-4.9,5.5-8.2c-0.3-3.3-3.5-5.9-3.5-5.9l-24.8,20.3L509.3,370.1z"/>
	<path id="path4394" inkscape:connector-curvature="0" sodipodi:nodetypes="czzzsccc" class="st12" d="M521.3,331.8
		c0,0,1.9-0.5,4.3,0.6s6.9,4.6,8.4,7.6c1.5,3,2.7,3.2,0.7,8.5s-12.6,15.3-18.6,17.2c-6,1.9-7.6,3.6-7.6,3.6l-7.7-15.9L521.3,331.8z"
		/>
	<path id="path4396" inkscape:connector-curvature="0" class="st12" d="M487.8,338l-11,4.8c0,0-3.7,1.5-2.6,6.3s9.4,18.5,9.4,18.5
		l7.8-15l2.2-14.8L487.8,338z"/>
	<path id="path4310" inkscape:connector-curvature="0" sodipodi:nodetypes="ccssssssssssccccsscc" class="st16" d="M465.6,260.6
		l-4.8,18.7c0,0-0.3,13.4-0.5,19.8c-0.2,6.4-0.3,17.4,1.9,21.6c2.2,4.1,5.2,9.3,12.4,12.9s18.7,6.6,24.2,4.6s10.7-5,13.8-8.9
		c3.1-3.8,11.3-16.4,11.3-17.2c0-0.8,0.7,1.3,2.4-0.8s5.2-6.8,4.5-10c-0.7-3.3,1-7.1-3-6.5c-3.9,0.6-5.3,0.5-7.5,5.4
		c-2.1,4.8-0.8-3.2-0.8-3.2l2.4-1.6l-2.2-2.1l2.7-9.4c0,0-7.3,0.2-7.6-1.3s2.3-11-1.5-22.4c-3.8-11.4-33.3-1.9-33.3-1.9
		S467.6,262.8,465.6,260.6L465.6,260.6z"/>
	
		<ellipse id="path3350" transform="matrix(0.9988 -4.827905e-02 4.827905e-02 0.9988 -13.2397 24.3076)" class="st17" cx="496.6" cy="286.2" rx="4.7" ry="7.5"/>
	
		<ellipse id="path3350-4" transform="matrix(0.9988 -4.827905e-02 4.827905e-02 0.9988 -13.2963 22.9447)" class="st18" cx="468.3" cy="286.7" rx="4.7" ry="7.5"/>
	
		<ellipse id="path3350-47" transform="matrix(0.9988 -4.827905e-02 4.827905e-02 0.9988 -13.3451 24.2397)" class="st19" cx="495.1" cy="288.4" rx="1.5" ry="2.3"/>
	
		<ellipse id="path3350-47-1" transform="matrix(0.9988 -4.827905e-02 4.827905e-02 0.9988 -13.3778 22.8838)" class="st19" cx="467" cy="288.4" rx="1.5" ry="2.3"/>
	
		<path id="path4251" inkscape:connector-curvature="0" inkscape:original-d="m 606.14282,-430.8521 2.5,-8 c 0,0 -0.5,-18.5 -14,-22 -13.5,-3.5 -44.5,8 -44.5,8 l -3.5,9.5 c 0,0 12.5,-2 25.5,-3 13,-1 29,3.5 34,15.5 z" inkscape:path-effect="#path-effect4253" class="st15" d="
		M472.7,277.4l0.3-1.1c-0.2-1.2-1-2.2-2-2.8c-0.9-0.6-2.1-0.8-3.2-0.5s-2.1,0.9-2.7,1.9l-0.4,1.3c1.1-0.4,2.2-0.6,3.4-0.6
		C469.8,275.7,471.5,276.3,472.7,277.4z"/>
	
		<path id="path4251-3" inkscape:connector-curvature="0" inkscape:original-d="m 756.00536,-422.5189 -1.13576,-8.4564 c 0,0 3.50596,-18.13948 17.25702,-18.54941 13.75105,-0.40992 42.14058,17.92413 42.14058,17.92413 l 1.86738,10.16172 c 0,0 -11.87756,-4.79099 -24.4064,-8.70808 -12.52885,-3.91708 -28.88379,-3.08411 -35.72282,7.62804 z" inkscape:path-effect="#path-effect4253-1" class="st15" d="
		M491,278.3l-0.5-1c0.1-1.2,0.6-2.3,1.5-3c0.9-0.7,2-1.1,3.2-1s2.2,0.7,2.9,1.6l0.6,1.2c-1.1-0.3-2.3-0.4-3.4-0.2
		C493.6,276.3,492.1,277.1,491,278.3z"/>
	<path id="path4304" inkscape:connector-curvature="0" class="st18" d="M474.4,280.7l1.3,0.2l-6,26.5c0,0,0,0.9,0.8,1s6.1,0,6.1,0
		s1.9,0.3,1.3,1.1c-0.6,0.8-8.3,0.2-8.3,0.2s-2.5-1.2-2.5-1.9s0.9-2.9,1.9-6.8C470,297.1,474.4,280.7,474.4,280.7z"/>
	<path inkscape:connector-curvature="0" class="st15" d="M494.5,323.6c0.4-0.8,0.5-1.5,0.8-3.7c0.1-0.8,0.2-1.7,0.3-2.8
		c0,0-0.9-0.8-8.6,0.4c-7.7,1.2-16.4,0.1-16.4,0.1c0.5,1,1.1,1.9,1.7,2.8c1.6,2.6,2.2,3.7,3.1,5c0.5,0.8,0.7,1.1,0.8,1.2
		c3.2,3.8,15,2,17.5-1.4C494.1,324.4,494.5,323.6,494.5,323.6z"/>
	<path id="path4318" inkscape:connector-curvature="0" class="st20" d="M523,304.4c0,0-1.3-2.3,0.5-3.9c1.8-1.6,5-0.6,5.1,0.6
		c0.1,1.2,0.7,3.7-2.2,5c-2.9,1.3-2.9,1.3-2.9,1.3l0.2,0.8"/>
	<path id="path4324" inkscape:connector-curvature="0" class="st20" d="M457.2,233c0,0,9.8-2.9,16.6,1.3s10.2,8.4,9.3,13.1
		c-0.9,4.8-7.6,7.5-14.7,6.7c-7.2-0.8-12.8-3.5-12.8-7.1s2.9-6.7,6.1-6.9s8.1,4.7,8.1,4.7l0,0"/>
	<path id="path4326" inkscape:connector-curvature="0" class="st20" d="M491.3,235.3c0,0,6.1,1.4,7.3,6.2s0.1,6,0.1,6l0,0"/>
	<path id="path4326-3" inkscape:connector-curvature="0" class="st20" d="M502.7,235.7c0,0,4.5,2.4,4.3,6.4s-1.2,4.7-1.2,4.7l0,0"/>
	<path id="path4326-3-5" inkscape:connector-curvature="0" class="st20" d="M511,237.6c0,0,3,2.9,1.9,6.1c-1,3.1-2,3.4-2,3.4l0,0"/>
	<path id="path4358" inkscape:connector-curvature="0" class="st20" d="M524.1,290c10,0.8,10,0.8,10,0.8"/>
	<path id="path4358-6" inkscape:connector-curvature="0" class="st20" d="M524.4,281.2c10.6,2.1,10.6,2.1,10.6,2.1"/>
	
		<path id="path4358-6-9" inkscape:connector-curvature="0" inkscape:transform-center-x="1.091775" inkscape:transform-center-y="70.218503" class="st20" d="
		M525.2,273.1c11,4,11,4,11,4"/>
	<path id="path4390" inkscape:connector-curvature="0" sodipodi:nodetypes="cccssscscc" class="st21" d="M523.8,311.9l-3.4,23.6
		l2.8,2.3c0,0,4.3,2.8,1.1,6.5c-3.2,3.7-13.7,8.6-23.1,8.8c-9.4,0.3-17.8-2.5-18-5.2c-0.1-2.6,4.8-3.6,4.8-3.6s0.7,0.2,1.3-3
		l0.6-2.4l-0.1-0.5"/>
	<path id="path4392" inkscape:connector-curvature="0" sodipodi:nodetypes="cssc" class="st22" d="M490,338.5c0,0,0.8,0.4,4.3,0
		c3.5-0.4,18.6-4.5,19.6-5.3c1.1-0.7,2.1-3.5,2.1-3.5"/>
	<circle id="path4789" class="st22" cx="485.1" cy="471.6" r="1.4"/>
	<path id="path4609" inkscape:connector-curvature="0" class="st15" d="M480.6,470.6l-3.8-4.9l12-1.2L480.6,470.6z"/>
	<path id="path4414" inkscape:connector-curvature="0" class="st22" d="M567,353.4c0,0-1.1-1.7-6,4.1c-4.9,5.9-11.6,18.4-11.6,18.4
		l0,0"/>
	<circle id="path4462" class="st23" cx="503.8" cy="434.8" r="5.3"/>
	<circle id="path4462-9" class="st23" cx="504.6" cy="482.2" r="5.3"/>
	<path id="path4462-9-8" inkscape:connector-curvature="0" class="st24" d="M504.3,429.4c2.9,0,5.3,2.4,5.3,5.3
		c0,2.9-2.4,5.3-5.3,5.3c-0.4,0-0.8,0-1.1-0.1c2.4-0.5,4.1-2.7,4.1-5.1c0-2.5-1.7-4.6-4.1-5.1C503.5,429.5,503.9,429.4,504.3,429.4
		L504.3,429.4z"/>
	<path id="path4654-9" inkscape:connector-curvature="0" sodipodi:nodetypes="ccccc" class="st20" d="M480.5,445.4l-13.6-74.5
		l8.6-8.5l-6.8-5.9l5.5-7.4"/>
	<path id="path4599" inkscape:connector-curvature="0" class="st20" d="M483.4,514c2.4,84.9,2.7,98.1,2.7,98.1"/>
	<path id="path4607_3_" inkscape:connector-curvature="0" sodipodi:nodetypes="cssscc" class="st11" d="M465.9,414.3"/>
	<path id="path4607_4_" inkscape:connector-curvature="0" sodipodi:nodetypes="cssscc" class="st11" d="M470.5,409.2L470.5,409.2"/>
	<path id="path4607_1_" inkscape:connector-curvature="0" sodipodi:nodetypes="cssscc" class="st11" d="M475.6,410.2"/>
	<path id="path4462-9-8-6" inkscape:connector-curvature="0" class="st24" d="M504.4,477.1c2.9,0,5.3,2.4,5.3,5.3s-2.4,5.3-5.3,5.3
		c-0.4,0-0.8,0-1.1-0.1c2.4-0.5,4.1-2.7,4.1-5.1c0-2.5-1.7-4.6-4.1-5.1C503.6,477.1,504,477.1,504.4,477.1L504.4,477.1z"/>
	<path id="path4654" inkscape:connector-curvature="0" class="st20" d="M494.1,440l37.7-65.2l-5.1-8.3l12-6.4l-0.5-11.4l0,0"/>
	<path id="path4690" inkscape:connector-curvature="0" class="st15" d="M528.6,368.9c0.8-0.5,10.4-8.5,10.4-8.5l-12.2,6L528.6,368.9
		z"/>
	<path id="path4692" inkscape:connector-curvature="0" sodipodi:nodetypes="cccc" class="st15" d="M494.1,440l39.2-63.8l-1-1.6
		L494.1,440z"/>
	<path id="path4694" inkscape:connector-curvature="0" class="st15" d="M495,352.6c-5.2,9.7-6.3,8.1-6.3,8.1l5.1-8.5L495,352.6z"/>
	<path id="path4696" inkscape:connector-curvature="0" class="st15" d="M483.3,366.5c-0.2,14-1.2,12.8-1.2,12.8v-14.7L483.3,366.5z"
		/>
	<path id="path4698" inkscape:connector-curvature="0" class="st15" d="M505.9,363.3l-7.1,6.9l8.3,10.7l-9.6-10.6l8.1-8.8
		L505.9,363.3z"/>
	<path id="path4700" inkscape:connector-curvature="0" class="st15" d="M490,361.7l6.9-9.2l1.7,0.1l-8.5,9.8L490,361.7z"/>
	<path id="path4702" inkscape:connector-curvature="0" class="st15" d="M500,352.8l-9.4,10.8l0.3,0.8l11.4-11.5L500,352.8z"/>
	<path id="path4704" inkscape:connector-curvature="0" class="st15" d="M496.3,370.2l-13.9,10.7l-0.6-2.1l11.3-9.8L496.3,370.2z"/>
	<path id="path4706" inkscape:connector-curvature="0" class="st15" d="M482.4,389.4l18.8-16.4l2.4,2.3l-22,16.2l0.8-1.3"/>
	<path id="path4706-2" inkscape:connector-curvature="0" class="st15" d="M482.4,384.3l16.7-14.9l1.7,2.4l-19,14.3l0.7-1.2"/>
	<path id="path4723" inkscape:connector-curvature="0" class="st15" d="M489.3,343c0,0,11.4,1.5,18.2-2.4c6.8-3.9,8.9-10.6,8.9-10.6
		l-5.3,4l-18.2,4.8l-2.3-0.3L489.3,343z"/>
	<g>
		<g>
			<path id="path4439_1_" inkscape:connector-curvature="0" class="st22" d="M455,341"/>
		</g>
		<path id="path4767_2_" inkscape:connector-curvature="0" class="st15" d="M453.7,360.3"/>
	</g>
	<path id="path4771" inkscape:connector-curvature="0" class="st15" d="M482.6,470.7l-0.8,3.6l-18.1,24.5l16.4-25l-0.2-3.4
		L482.6,470.7z"/>
	<path id="path4775" inkscape:connector-curvature="0" sodipodi:nodetypes="cssczsc" class="st15" d="M466,516.1
		c0,0,12.9-2.8,16.5-3.2c3.7-0.4,9.8-0.9,13.2,0.2c3.4,1.1,5.4,4,5.4,4s-2.2-1.6-5.2-2.3c-3-0.7-7.3-1.2-12.9-0.6
		C477.6,514.7,466,516.1,466,516.1L466,516.1z"/>
	<path id="path4777" inkscape:connector-curvature="0" sodipodi:nodetypes="csccsc" class="st15" d="M464.4,498.6
		c0,0,10.4,8.7,22.6,6.3c12.2-2.4,16.8-5.2,16.8-5.2l-12.6,2.3c0,0-14.4,1.2-17.2,0.3C471.2,501.2,464.4,498.6,464.4,498.6z"/>
	<path id="path4779" inkscape:connector-curvature="0" class="st15" d="M544.4,506l-11.2,9.6l10.9-13.8L544.4,506z"/>
	<path id="path4781" inkscape:connector-curvature="0" class="st15" d="M465.3,499.4l-11.7,14.4L464,498L465.3,499.4z"/>
	<path id="path4785" inkscape:connector-curvature="0" class="st20" d="M482.9,470.4c0,0-2.4,17.8-2.8,24.7s-0.2,9.1-0.2,9.1"/>
	<ellipse id="path4787" class="st22" cx="483.4" cy="487.5" rx="1.4" ry="1.5"/>
	<path id="path4791" inkscape:connector-curvature="0" sodipodi:nodetypes="cccc" class="st15" d="M538.6,393.5l-7.6,44.7l5.6-1.1
		L538.6,393.5z"/>
	<path id="path4793" inkscape:connector-curvature="0" class="st15" d="M529.2,466.4l21.8,28.2l-8-29.5L529.2,466.4z"/>
	<path id="path4795" inkscape:connector-curvature="0" sodipodi:nodetypes="cccccc" class="st15" d="M529.5,515l4.8,96.7l4.4,0.2
		l6.4-109.7l-12,13.4L529.5,515z"/>
	<path id="path4797" inkscape:connector-curvature="0" sodipodi:nodetypes="cccc" class="st11" d="M531.1,467l2.4-0.1l17,26.1
		L531.1,467z"/>
	<path id="path4799" inkscape:connector-curvature="0" class="st15" d="M542.1,403.7l-5.1,32.5l-4.7,0.8l6.8-43.3L542.1,403.7z"/>
	<path id="path4801" inkscape:connector-curvature="0" sodipodi:nodetypes="cccc" class="st11" d="M531.8,437l8.8-36.1l-1.7-5.9
		L531.8,437z"/>
	<path id="path4801-9" inkscape:connector-curvature="0" sodipodi:nodetypes="cccc" class="st11" d="M536,428.7l5.8-23.7l-1.1-3.9
		L536,428.7z"/>
	<path id="path4797-8" inkscape:connector-curvature="0" sodipodi:nodetypes="cccc" class="st11" d="M534.7,466.8l3.6-0.3l10.5,22.9
		L534.7,466.8z"/>
	<path id="path4833" inkscape:connector-curvature="0" sodipodi:nodetypes="cccc" class="st11" d="M533.1,516.8l-2.3-0.2l5,96.7
		L533.1,516.8z"/>
	<path id="path4833-2" inkscape:connector-curvature="0" sodipodi:nodetypes="cccc" class="st11" d="M537,512.1l-1.9,2l2.3,81
		L537,512.1z"/>
	<path id="path4850" inkscape:connector-curvature="0" class="st15" d="M476,514.8c0,0,4-2.1,5.3,4.5c1.3,6.7,4.8,92.6,4.8,92.6
		l-2.4-99L476,514.8z"/>
	<path id="path4852" inkscape:connector-curvature="0" sodipodi:nodetypes="csccscc" class="st18" d="M473.4,231
		c0,0,10.9,3.9,11.8,9.6c1.3,8-3.8,10.9-3.8,10.9l2.1-4c0,0-0.9-7.6-3.2-9c-2.3-1.4-13.4-7-13.4-7L473.4,231z"/>
	<path id="path4854" inkscape:connector-curvature="0" class="st20" d="M458.1,273.8c3.4,1.6,3.5,1.6,3.5,1.6"/>
	
		<path id="path4854-3" inkscape:connector-curvature="0" inkscape:transform-center-x="12.519088" inkscape:transform-center-y="-22.80928" class="st20" d="
		M458.5,271.8c3.4,1.6,3.5,1.6,3.5,1.6"/>
	
		<path id="path4854-6" inkscape:connector-curvature="0" inkscape:transform-center-x="-0.20883427" inkscape:transform-center-y="-19.980852" class="st20" d="
		M458.9,270c3.4,1.6,3.5,1.6,3.5,1.6"/>
	<path id="path4889" inkscape:connector-curvature="0" class="st15" d="M462,240.6c0,0-2.5-0.8-3,3.4s2.7,8.4,5.5,9.2
		s-6.9-2.3-6.9-2.3l-2.1-4.6l2.4-4.5l4.7-1.2l0,0"/>
	<ellipse class="st25" cx="458.1" cy="475.9" rx="20.6" ry="9.1"/>
	<path id="path4893" inkscape:connector-curvature="0" sodipodi:nodetypes="cccc" class="st15" d="M470.5,244.3l2,3.9l-3.1-2.8
		L470.5,244.3z"/>
	<path class="st26" d="M458.6,475.9l-0.9,0.1c-3.1,0.2-5.8-2.2-6-5.3l-2.4-35c-0.2-3.1,2.2-5.8,5.3-6l0.9-0.1c3.1-0.2,5.8,2.2,6,5.3
		l2.4,35C464,473,461.7,475.7,458.6,475.9z"/>
	<path class="st16" d="M485.1,446.8c-12.5-4-15.3-7.7-23.3-7.2c-12.3,0.8-14.8-1.8-18.1,1.1c-2.7,2.4,0.1,4.9,0.1,4.9
		s-2.1,1.5-2.1,2.9c0,2.4,1.4,2.9,1.4,2.9s-1.5,1.7-1.5,2.7c0,2.4,1.3,2.9,1.3,2.9s-0.7,0.8-1.2,2.5c-1,3.8,20.7,7,20.7,7
		s7.6,1.8,10.3,2.2c3.7,0.6,14.9,0.2,14.9,0.2l0-24L485.1,446.8z"/>
	<g>
		<path class="st27" d="M423.7,289.5c15.8-2.4,30.4-3.7,31.6-4.6c1.7-1.3,2.4-2.2,2.4,0.4c0,1.8,2.8,24.8,1.7,23.9
			c-1.5-1.1-4-1.3-4.5-1.7c-0.5-0.4-24.9,1.7-24.9,1.7h-3c0,0-2.5-0.5-4.1-5.1c-1.6-4.6-1.8-7.6-1.5-10.4
			C421.6,290.9,423.7,289.5,423.7,289.5z"/>
		<polygon class="st26" points="454.5,307.5 452.6,285.9 455.1,285.3 457,308.1 		"/>
	</g>
	<path class="st28" d="M400.9,312.2c2.1-1.2,7.8-2.7,13.6-0.7c5.9,2,10.8,2.7,12.3,4.2s1.2,3.3,1.2,3.3s-3.7,1.4-8.3,1.6
		s-19-3.5-19.3-5C400,314.1,398.8,313.4,400.9,312.2z"/>
	<path class="st16" d="M416.1,285.3c-4.3,1.8-6,11.8-6.2,12.1c0,0,0,0,0,0.1c-0.4,0.7-7.3,14.8-6.9,18.5c0.3,3.5,18.3,5.6,21,5.9
		c0.2,0,0.4-0.1,0.5-0.3l2.3-4.6c0.1-0.2,6.9,0.3,9.4-0.1s13-5.3,14.1-6.1c1.4-0.9,2.3-3.2,1.1-6.8c-0.8-2.4-4.4-2.6-6.8,0.2
		c-2.4,2.7-3.1,3.6-6.6,4.7c-3.7,1.2-8.5,2.6-10.9,1.4c-2.6-1.3-6.2-6.5-5.9-9.9c0.1-1.1-0.9-4.4-0.9-4.4L416.1,285.3z"/>
	<path class="st16" d="M442.8,279.8c0.6-0.3,1.3-0.5,2.1-0.2l0.5,0.2c1.3,0.5,2.5,1.2,2.4,3.9l0,0.4c-0.1,3.5-0.3,3.8-0.5,6.6
		l-0.1,0.9c-0.2,2.9-0.5,3.4-1.7,4.1L445,296c-0.6,0.4-1.2,0.4-1.3,0.5l-0.9,0.1c-0.3,0-1.8-0.4-1.7-2.1l0-0.7
		c0-1.9,0.4-12,0.5-12.1C441.6,280.9,441.9,280.3,442.8,279.8z"/>
	<path class="st11" d="M451,363"/>
	<path class="st11" d="M424.5,416c6.6-21.3,3.3-95.8,3.3-95.8l-3.3,0.1c0,0-14.8-0.5-18.9-2.8c-4-2.3-5.8-3.2-5.8-3.2
		s-4.4,59.4-2.9,79.5c2.6,35.4,5.2,34.5,8.5,40"/>
	<path class="st11" d="M428,327.6c-12.3,4.9-26.7-1.2-28.8-3.6"/>
	<path class="st11" d="M452,377.5c0,0-2.1-23.6-2.9-27.2c-0.8-3.6-0.5-4.4-0.5-4.4l5.8-0.2l0.5,31.8"/>
	<ellipse id="path4759_1_" class="st24" cx="402.5" cy="321.3" rx="2.4" ry="2.5"/>
	<path id="path4412_2_" inkscape:connector-curvature="0" sodipodi:nodetypes="cccssscsccscc" class="st11" d="M565.3,349.1l3.2,1.1
		l-1.1,3.5c0,0,16.5,71.6,16,87.3c-0.5,15.7,2,19.9-1.6,20.8c-4.9,1.2-8.5,2.1-14.6,2.1c-5.7,0-85.8,7.3-85.8,7.3s5.1-8.8,3.9-16
		c-0.9-5-4.3-10.7-4.3-10.7l65.1-8.7l2.8-2.3c0.9-0.7-10-41.3-10-41.3C539.1,386.5,547.2,355.9,565.3,349.1L565.3,349.1z"/>
	<path id="path4673-6_2_" inkscape:connector-curvature="0" sodipodi:nodetypes="csczc" class="st15" d="M558.5,435.2"/>
	<path id="path4673_2_" inkscape:connector-curvature="0" sodipodi:nodetypes="csczc" class="st15" d="M566.4,439.9"/>
	<path id="path4650" inkscape:connector-curvature="0" class="st15" d="M549.6,375.9c0,0,10.9-16.2,13.7-17.1s4.7-1.7,4.7-1.7
		l-0.8-4c0,0-1.5-0.4-3,1.1c-1.6,1.5-10.1,13.2-10.8,14.6C552.8,370.2,549.6,375.9,549.6,375.9z"/>
	<path id="path4673" inkscape:connector-curvature="0" sodipodi:nodetypes="csczc" class="st15" d="M548.4,433.1c0,0,5-1.1,9.8,0.6
		c4.8,1.7,7.2,6.7,7.2,6.7s-2.4-2.8-8.1-5.1C551.6,433.1,548.4,433.1,548.4,433.1z"/>
	<path id="path4755" inkscape:connector-curvature="0" class="st20" d="M494.7,442.6c0,0,3.4,1.8,4.4,9c1,7.2-3.7,18-3.7,18"/>
	<path id="path4759_3_" class="st24" d="M488,464.6c0-1.4,1.1-2.5,2.4-2.5c1.3,0,2.4,1.1,2.4,2.5c0,1.4-1.1,2.5-2.4,2.5"/>
	<path id="path4765" inkscape:connector-curvature="0" class="st15" d="M482.2,444.4c0,0,10.5-1.8,12.6-0.8s3,2.8,3.4,4.3
		c0.4,1.5,0.4-1.3,0.4-1.3s-0.9-4.2-1.8-4.6s-14.7,1.9-14.7,1.9L482.2,444.4z"/>
	<path id="path4673-6" inkscape:connector-curvature="0" sodipodi:nodetypes="csczc" class="st15" d="M547.9,433.1c0,0,5,0,9.7,2.6
		c4.7,2.6,6.3,8.2,6.3,8.2s-1.6-3.6-7.1-6.9C551.2,433.7,547.9,433.1,547.9,433.1L547.9,433.1z"/>
	<path id="path4759_2_" class="st24" d="M490.1,467c-1.3,0-2.4-1.1-2.4-2.5c0-1.4,1.1-2.5,2.4-2.5"/>
	<g>
		<polygon points="443.7,445.1 457.3,446.3 443.6,446.1 		"/>
	</g>
	<g>
		<path class="st8" d="M448,452.8"/>
	</g>
	<g>
		<path class="st8" d="M460.1,453.3"/>
	</g>
	<g>
		<path class="st8" d="M448.1,459.5"/>
	</g>
	<g>
		<path class="st8" d="M460,459.5"/>
	</g>
	<g>
		<polygon points="443.7,450.9 456.2,452 443.7,451.9 		"/>
	</g>
	<g>
		<polygon points="443.1,456.3 455.6,458.3 443,457.3 		"/>
	</g>
	<circle class="st27" cx="462.2" cy="417.4" r="7.2"/>
	<circle class="st25" cx="455" cy="421.1" r="10.9"/>
	<path class="st25" d="M406.8,302c-10.4,14.2-24.3,36.8-31.9,67.2c-11.6,46.1-10.4,116.8,26.6,139.1c10.6,6.4,30.1,12.3,41.3,4
		c6.4-4.8,11.4-15.3,12.6-24c0.5-3.5,0.4-11,0.9-14.5c0.1-0.9-0.7-1.7-1.6-1.5c0,0,0,0,0,0c-1.7,0.3-1.2,8.1-2.3,15.1
		c-1.3,7.6-5.2,17.8-11,22.3c-9.9,7.7-31.9,0.3-38.4-3.8c-34.6-22-35.8-90.4-25.3-136.1c1-4.4,8.8-36.3,31.3-65.8"/>
	<path class="st27" d="M436.8,308.6c-0.5,0.3-21.5,3-21.5,3l-3,0c0,0-2.5-0.5-4.1-5.1c-1.6-4.6-1.8-7.6-1.5-10.4
		c0.3-2.8,2.4-4.2,2.4-4.2c15.8-2.3,29.4-4.4,31.6-4.5"/>
	<path class="st16" d="M437.8,298.6c-1.8-0.2-5.9-19.2-5.9-19.2l0-1.1c-0.1-2.5,8.2-3.1,8.7-0.4v1.6l0.4,16.8v1.5
		c-0.1,0.2-0.5,1.5-2.2,1.3L437.8,298.6z"/>
	<path class="st16" d="M435.8,298c-2.9,5.9-11.4-13.9-11.2-17.9l0-0.6c1-3.7,6.7-1.8,7.6,0.9l0.1,0.3
		C433,283.5,436.7,296.2,435.8,298L435.8,298z"/>
	<path class="st16" d="M422.9,282.3c-1.3-0.5-4.6-1.8-6,1.5c-0.3,0.7-0.4,2.5-0.1,3c2.7,6.1,8.4,12.8,10.8,13.1l2.6-0.7l0-1
		c0.2,0-1.6-7.5-6.3-15.4L422.9,282.3z"/>
	<path class="st13" d="M494,322.9c-2-0.5-6.8,0.3-7.9,0.6c-1.3,0.4-4.4,2.9-5.3,3.2c-0.1,0-0.3-2.6-0.3-2.5c0,0,0.3,3.1,0.5,3.2
		c1.6,1,3.8,0.2,6.9,0c1.8-0.1,5.2-2.2,6.2-3.9C494.4,323.2,494.1,323,494,322.9z"/>
	<path class="st12" d="M473.2,321.7c0,0,7.2-0.1,21.9-1.4l0,0c0.1-1,0.9-3.2-0.1-3.2c-5.9-0.2-7.2,0.8-12,1.1
		c-5.3,0.3-11.8-0.6-11.8-0.6L473.2,321.7z"/>
</g>
<rect id="rect4799-6-8-3" x="0" y="591" class="st1" width="595.3" height="250.8"/>
<g id="g5902" transform="matrix(1.2833263,0,0,1.2833263,1487.7059,1035.0505)">
	<g id="flowRoot3915-1" transform="translate(-649.1227,-316.58845)">
		<path id="path3282-6" inkscape:connector-curvature="0" class="st29" d="M-183.8,51.9c0,1.7-0.2,3.4-0.6,4.9c-0.4,1.5-1,2.8-2,3.9
			c-0.9,1.1-2.2,2-3.8,2.7c-1.6,0.6-3.6,1-6,1c-2.3,0-4.2-0.3-5.9-0.9c-1.6-0.6-2.9-1.3-3.8-2l2.3-5.1c0.9,0.6,1.9,1.1,3.1,1.7
			c1.3,0.5,2.5,0.8,3.8,0.8c2.2,0,3.8-0.5,4.8-1.6c1-1.1,1.5-3,1.5-5.6V28.1h6.5V51.9"/>
		<path id="path3284-1" inkscape:connector-curvature="0" class="st29" d="M-161.8,64.3c-2.4,0-4.5-0.3-6.2-1
			c-1.7-0.7-3.2-1.7-4.4-3c-1.1-1.3-2-2.7-2.5-4.5c-0.5-1.7-0.8-3.6-0.8-5.6V28.1h6.5v21.6c0,1.6,0.2,3,0.5,4.1
			c0.4,1.1,0.9,2,1.5,2.8c0.7,0.7,1.5,1.2,2.4,1.6c0.9,0.3,1.9,0.5,3.1,0.5c1.1,0,2.2-0.2,3.1-0.5c0.9-0.3,1.7-0.9,2.4-1.6
			c0.7-0.7,1.2-1.6,1.5-2.8c0.4-1.2,0.6-2.5,0.6-4.1V28.1h6.5v22.2c0,2-0.3,3.9-0.9,5.6c-0.5,1.7-1.4,3.2-2.6,4.5
			c-1.1,1.3-2.6,2.3-4.4,3C-157.3,64-159.4,64.3-161.8,64.3"/>
		<path id="path3286-0" inkscape:connector-curvature="0" class="st29" d="M-122.9,32.9c-3.7,0-6.5,1.1-8.4,3.4
			c-1.9,2.3-2.9,5.4-2.9,9.4c0,1.9,0.2,3.7,0.7,5.3c0.5,1.6,1.2,2.9,2,4c0.9,1.1,2,2,3.4,2.7c1.4,0.6,3,0.9,4.8,0.9
			c1.1,0,2.1,0,2.9-0.1c0.8-0.1,1.5-0.2,1.9-0.4V45.5h6.5v17c-0.9,0.3-2.4,0.7-4.5,1.1c-2.1,0.4-4.6,0.6-7.3,0.6
			c-2.6,0-4.9-0.4-7-1.2c-2.1-0.8-3.9-2-5.4-3.6c-1.5-1.6-2.6-3.5-3.4-5.8c-0.8-2.3-1.2-4.9-1.2-7.9c0-3,0.4-5.6,1.3-7.9
			c0.9-2.3,2.2-4.2,3.7-5.8c1.6-1.6,3.4-2.8,5.5-3.6c2.1-0.8,4.4-1.2,6.8-1.2c1.6,0,3.1,0.1,4.4,0.4c1.3,0.2,2.4,0.4,3.3,0.7
			c0.9,0.3,1.7,0.6,2.3,0.9c0.6,0.3,1,0.5,1.3,0.7l-1.9,5.3c-1-0.6-2.3-1.1-3.8-1.5C-119.6,33.2-121.2,32.9-122.9,32.9"/>
	</g>
	<g id="text3927-1" transform="translate(-952.12858,-907.87941)">
		<path id="path3267-8" inkscape:connector-curvature="0" class="st29" d="M52,674.6c-3.7,0-6.5,1.1-8.4,3.4
			c-1.9,2.3-2.9,5.4-2.9,9.4c0,1.9,0.2,3.7,0.7,5.3c0.5,1.6,1.2,2.9,2,4c0.9,1.1,2,2,3.4,2.7c1.4,0.6,3,0.9,4.8,0.9
			c1.1,0,2.1,0,2.9-0.1c0.8-0.1,1.5-0.2,1.9-0.4v-12.7h6.5v17c-0.9,0.3-2.4,0.7-4.5,1.1c-2.1,0.4-4.6,0.6-7.3,0.6
			c-2.6,0-4.9-0.4-7-1.2c-2.1-0.8-3.9-2-5.4-3.6c-1.5-1.6-2.6-3.5-3.4-5.8c-0.8-2.3-1.2-4.9-1.2-7.9c0-3,0.4-5.6,1.3-7.9
			c0.9-2.3,2.2-4.2,3.7-5.8c1.6-1.6,3.4-2.8,5.5-3.6c2.1-0.8,4.4-1.2,6.8-1.2c1.6,0,3.1,0.1,4.4,0.4c1.3,0.2,2.4,0.4,3.3,0.7
			c0.9,0.3,1.7,0.6,2.3,0.9c0.6,0.3,1,0.5,1.3,0.7l-1.9,5.3c-1-0.6-2.3-1.1-3.8-1.5C55.2,674.9,53.6,674.6,52,674.6"/>
		<path id="path3269-1" inkscape:connector-curvature="0" class="st29" d="M94.3,691.8c0,2.1-0.3,4-0.9,5.8
			c-0.6,1.7-1.5,3.2-2.6,4.5c-1.1,1.2-2.5,2.2-4.1,2.9c-1.6,0.7-3.3,1-5.2,1c-1.9,0-3.7-0.3-5.2-1c-1.6-0.7-2.9-1.6-4-2.9
			c-1.1-1.2-2-2.7-2.7-4.5c-0.6-1.7-0.9-3.7-0.9-5.8s0.3-4,0.9-5.7c0.6-1.7,1.5-3.2,2.7-4.5c1.2-1.2,2.5-2.2,4.1-2.8
			c1.6-0.7,3.3-1,5.2-1c1.9,0,3.6,0.3,5.2,1c1.6,0.6,3,1.6,4.1,2.8c1.1,1.2,2,2.7,2.6,4.5C94,687.8,94.3,689.7,94.3,691.8
			 M87.9,691.8c0-2.7-0.6-4.8-1.7-6.3c-1.1-1.6-2.7-2.4-4.8-2.4c-2,0-3.7,0.8-4.8,2.4c-1.1,1.5-1.7,3.6-1.7,6.3
			c0,2.7,0.6,4.8,1.7,6.4c1.2,1.6,2.8,2.4,4.8,2.4c2,0,3.6-0.8,4.8-2.4C87.4,696.7,87.9,694.5,87.9,691.8 M76.1,674.1
			c-0.9,0-1.7-0.3-2.4-0.9c-0.7-0.6-1-1.5-1-2.5c0-1.1,0.3-1.9,1-2.5c0.7-0.6,1.5-1,2.4-1c0.9,0,1.7,0.3,2.4,1
			c0.7,0.6,1.1,1.5,1.1,2.5c0,1.1-0.4,1.9-1.1,2.5C77.8,673.8,77,674.1,76.1,674.1 M86.7,674.1c-0.9,0-1.7-0.3-2.5-0.9
			c-0.7-0.6-1-1.5-1-2.5c0-1.1,0.3-1.9,1-2.5c0.7-0.6,1.5-1,2.5-1c0.9,0,1.7,0.3,2.4,1c0.7,0.6,1,1.5,1,2.5c0,1.1-0.3,1.9-1,2.5
			C88.4,673.8,87.6,674.1,86.7,674.1"/>
		<path id="path3271-8" inkscape:connector-curvature="0" class="st29" d="M115.9,684.1c-0.5-0.2-1.2-0.3-2.2-0.5
			c-0.9-0.2-1.9-0.3-3.1-0.3c-0.7,0-1.4,0.1-2.2,0.2c-0.8,0.1-1.3,0.3-1.6,0.4v21.5h-6.2v-25.5c1.2-0.4,2.7-0.9,4.5-1.2
			c1.8-0.4,3.8-0.6,6-0.6c0.4,0,0.9,0,1.4,0.1c0.5,0,1.1,0.1,1.6,0.2c0.5,0.1,1.1,0.2,1.6,0.3c0.5,0.1,0.9,0.2,1.2,0.3L115.9,684.1"
			/>
		<path id="path3273-5" inkscape:connector-curvature="0" class="st29" d="M130.6,705.8c-1.8,0-3.4-0.2-4.6-0.6
			c-1.2-0.4-2.2-0.9-2.9-1.6c-0.7-0.7-1.2-1.6-1.5-2.6c-0.3-1.1-0.4-2.3-0.4-3.6v-30.8l6.2-1v30.7c0,0.8,0.1,1.4,0.2,1.9
			c0.1,0.5,0.4,1,0.7,1.3c0.3,0.3,0.7,0.6,1.2,0.8c0.5,0.2,1.2,0.3,2,0.4L130.6,705.8"/>
		<path id="path3275-0" inkscape:connector-curvature="0" class="st29" d="M142.7,705.3h-6.2v-26.8h6.2V705.3 M143.4,670.6
			c0,1.2-0.4,2.1-1.1,2.8c-0.8,0.7-1.6,1-2.7,1c-1.1,0-2-0.3-2.7-1c-0.8-0.7-1.1-1.6-1.1-2.8c0-1.2,0.4-2.1,1.1-2.8
			c0.8-0.7,1.7-1,2.7-1c1,0,1.9,0.3,2.7,1C143,668.5,143.4,669.5,143.4,670.6"/>
		<path id="path3277-1" inkscape:connector-curvature="0" class="st29" d="M150.3,671.4l6.2-1v8.1h9.5v5.2h-9.5v10.9
			c0,2.2,0.3,3.7,1,4.6c0.7,0.9,1.8,1.4,3.5,1.4c1.1,0,2.1-0.1,3-0.4c0.9-0.2,1.6-0.5,2.1-0.7l1,4.9c-0.7,0.3-1.7,0.6-2.8,0.9
			c-1.2,0.3-2.5,0.5-4.1,0.5c-1.9,0-3.5-0.3-4.8-0.8c-1.3-0.5-2.3-1.2-3-2.2c-0.8-1-1.3-2.2-1.6-3.5c-0.3-1.4-0.5-3-0.5-4.8V671.4"
			/>
		<path id="path3279-5" inkscape:connector-curvature="0" class="st29" d="M190.7,682.8c-0.7,0.7-1.6,1.7-2.7,3
			c-1.1,1.3-2.3,2.7-3.5,4.4c-1.3,1.6-2.5,3.2-3.8,5c-1.3,1.7-2.4,3.3-3.4,4.9H191v5.2h-21.3v-3.8c0.8-1.4,1.7-2.9,2.8-4.5
			c1.1-1.6,2.3-3.2,3.5-4.8c1.2-1.6,2.4-3.2,3.5-4.7c1.2-1.5,2.3-2.7,3.2-3.8h-12.3v-5.2h20.3L190.7,682.8"/>
	</g>
	<path id="path10-5" inkscape:connector-curvature="0" sodipodi:nodetypes="cccccc" class="st30" d="M-731.4-211.8
		c7.8,7.9-3.6,16.4-3.6,16.4s12.1-3.9,9.7-16.9c-1.9-5.1-18.8-23.7,1.2-42.6C-723.8-254.8-752.5-241.5-731.4-211.8L-731.4-211.8z"/>
	<path id="path10-7-2" inkscape:connector-curvature="0" sodipodi:nodetypes="cccccc" class="st31" d="M-744-291.4
		c0,0,15.1,30.2,6.5,39.3c-13.6,21.4-17.8,21.3,2.7,52.4c-16.5-13.6-25.2-29.9-20.4-38.1C-740.2-255.7-735.9-264-744-291.4
		L-744-291.4z"/>
</g>
<text transform="matrix(1 0 0 1 35.5621 678.0771)"><tspan x="0" y="0" class="st5 st3 st4">Mittwoch, 21.09.2016</tspan><tspan x="0" y="24" class="st5 st3 st4">19:00 Uhr</tspan><tspan x="0" y="48" class="st2 st3 st10">SQS TestCenter Görlitz</tspan><tspan x="0" y="72" class="st2 st3 st10">Brückenstraße 10</tspan><tspan x="0" y="96" class="st2 st3 st10">02826 Görlitz</tspan><tspan x="0" y="120" class="st3 st4"> </tspan></text>
</svg>
