<?xml version="1.0" encoding="UTF-8" standalone="no"?>
<!DOCTYPE svg PUBLIC "-//W3C//DTD SVG 1.1//EN" "http://www.w3.org/Graphics/SVG/1.1/DTD/svg11.dtd">
<svg width="100%" height="100%" viewBox="0 0 2237 2275" version="1.1" xmlns="http://www.w3.org/2000/svg" xmlns:xlink="http://www.w3.org/1999/xlink" xml:space="preserve" xmlns:serif="http://www.serif.com/" style="fill-rule:evenodd;clip-rule:evenodd;">
    <g id="ArtBoard1" transform="matrix(1,0,0,1,-464.137,-283.913)">
        <rect x="464.137" y="283.913" width="2236.52" height="2274.88" style="fill:none;"/>
        <g id="Ebene1" transform="matrix(1,0,0,1,0.136837,0.913183)">
            <g id="juergen_klemmbrett" transform="matrix(7.46212,0,0,7.46212,579.189,1574.64)">
                <g id="Ebene11" serif:id="Ebene1">
                    <g id="juergen_klemmbrett1" serif:id="juergen_klemmbrett" transform="matrix(1,0,0,1,-297.638,-420.945)">
                        <g id="Ebene-6" serif:id="Ebene 6">
                            <g transform="matrix(1,0,0,1,427.02,464.037)">
                                <path d="M0,-88.68C-4.086,-86.322 -18.866,-65.279 -22.937,-53.352C-22.951,-53.323 -24.648,-50.228 -24.664,-50.198L-37.734,-19.462C-33.169,-16.936 -37.69,-19.342 -37.734,-19.462C-37.795,-19.642 -33.553,-19.272 -37.734,-19.462L-38.798,-11.37C-37.941,-10.86 -33.189,-3.365 -26.731,-6.324C-19.641,-9.568 -11.296,-16.372 -11.296,-16.372L5.482,-42.853C5.497,-42.883 6.504,-51.144 6.504,-51.189L4.476,-88.995C4.476,-88.995 1.246,-89.386 0,-88.68" style="fill:rgb(87,136,141);fill-rule:nonzero;"/>
                            </g>
                            <g transform="matrix(1,0,0,1,427.02,464.037)">
                                <path d="M0,-88.68C-4.086,-86.322 -18.866,-65.279 -22.937,-53.352C-22.951,-53.323 -24.648,-50.228 -24.664,-50.198L-37.449,-21.298C-37.51,-21.178 -37.947,-18.463 -37.819,-18.457C-33.994,-18.266 -37.894,-18.637 -37.819,-18.457L-38.798,-11.37C-37.941,-10.86 -33.559,-3.18 -27.101,-6.139C-20.011,-9.383 -11.296,-16.372 -11.296,-16.372L5.482,-42.853C5.497,-42.883 6.504,-51.144 6.504,-51.189L4.476,-88.995C4.476,-88.995 1.246,-89.386 0,-88.68Z" style="fill:none;fill-rule:nonzero;stroke:black;stroke-width:0.75px;"/>
                            </g>
                            <g transform="matrix(1,0,0,1,434.545,451.826)">
                                <path d="M0,53.351C0,53.351 4.762,61.162 16.312,62.529C27.863,63.896 44.866,60.486 54.72,55.724C64.573,50.963 66.271,-9.87 66.271,-9.87L4.416,-10.545L0,53.351Z" style="fill:white;fill-rule:nonzero;stroke:black;stroke-width:0.75px;"/>
                            </g>
                            <g transform="matrix(1,0,0,1,434.831,295.954)">
                                <path d="M0,14.616L2.027,3.636C2.027,3.636 -9.192,-3.303 -12.422,-6.728C-15.651,-10.138 -19.016,-16.446 -16.042,-18.129C-13.068,-19.811 0.751,-26.09 7.555,-26.239C14.359,-26.405 52.075,-30.776 59.78,-26.375C67.486,-21.989 79.187,-22.725 76.093,-5.556C73.014,11.612 68.688,34.953 66.225,40.18C63.746,45.392 0,14.616 0,14.616Z" style="fill:rgb(211,98,58);fill-rule:nonzero;stroke:black;stroke-width:0.75px;"/>
                            </g>
                            <g transform="matrix(1,0,0,1,0,-52.11)">
                                <rect x="443.723" y="433.234" width="55.396" height="27.532" style="fill:white;stroke:black;stroke-width:0.75px;stroke-linecap:round;"/>
                            </g>
                            <g transform="matrix(1,0,0,1,463.414,383.498)">
                                <path d="M0,2.163C3.605,10.815 5.287,11.295 5.287,11.295L8.412,11.776L15.862,3.605L17.063,-8.651L1.442,-9.613L0,2.163Z" style="fill:rgb(211,98,58);fill-rule:nonzero;stroke:black;stroke-width:0.75px;"/>
                            </g>
                            <g transform="matrix(1,0,0,1,467.154,474.49)">
                                <path d="M0.757,-80.148L-10.108,-70.91L-14.329,-1.681L-0.751,0L15.981,-67.185L5.197,-79.547L0.757,-80.148Z" style="fill:rgb(211,98,58);fill-rule:nonzero;stroke:black;stroke-width:0.75px;"/>
                            </g>
                            <g transform="matrix(1,0,0,1,452.825,525.125)">
                                <path d="M0,-152.953L-19.887,-150.94L-20.322,-70.011C-20.322,-70.011 -29.35,-36.996 -32.955,-33.872C-36.56,-30.748 -29.785,1.126 -29.785,1.126L-21.614,-0.316L2.658,-36.605L6.248,-154.079L0,-152.953Z" style="fill:rgb(87,136,141);fill-rule:nonzero;stroke:black;stroke-width:0.75px;"/>
                            </g>
                            <g transform="matrix(1,0,0,1,483.842,502.218)">
                                <path d="M0,-109.107L-22.831,-13.698L4.326,22.111L19.227,24.033L36.049,5.288L22.591,-41.816L24.994,-88.92L44.701,-124.969L8.652,-133.14L0,-109.107Z" style="fill:rgb(87,136,141);fill-rule:nonzero;stroke:black;stroke-width:0.75px;"/>
                            </g>
                            <g transform="matrix(1,0,0,1,482.01,369.093)">
                                <path d="M0,26.075C0,26.075 2.118,23.266 5.603,22.08C9.087,20.893 20.653,13.488 21.659,12.737C22.516,12.106 26.841,8.321 26.586,5.347C26.33,2.373 21.446,-1.333 21.446,-1.333L1.021,18.355L0,26.075Z" style="fill-rule:nonzero;stroke:black;stroke-width:0.75px;"/>
                            </g>
                            <g transform="matrix(1,0,0,1,492.839,393.847)">
                                <path d="M0,-33.3C0,-33.3 1.743,-33.766 3.876,-32.759C6.009,-31.768 10.109,-28.584 11.431,-25.91C12.753,-23.237 13.895,-22.981 12.047,-18.235C10.185,-13.488 0.677,-4.446 -4.776,-2.749C-10.229,-1.036 -11.596,0.466 -11.596,0.466L-18.55,-13.879L0,-33.3Z" style="fill:white;fill-rule:nonzero;stroke:black;stroke-width:0.75px;"/>
                            </g>
                            <g transform="matrix(1,0,0,1,462.559,392.495)">
                                <path d="M0,-26.391L-9.898,-22.065C-9.898,-22.065 -13.203,-20.698 -12.271,-16.417C-11.341,-12.137 -3.771,0.255 -3.771,0.255L3.274,-13.323L5.271,-26.646L0,-26.391Z" style="fill:white;fill-rule:nonzero;stroke:black;stroke-width:0.75px;"/>
                            </g>
                            <path d="M434.551,367.602L434.921,359.274C434.921,359.274 432.7,356.683 431.405,352.982C430.11,349.281 432.33,339.103 432.33,339.103C432.33,339.103 432.515,329.018 433.255,326.889C433.645,325.769 436.468,325.187 436.772,326.334C437.728,329.943 438.992,348.541 438.992,348.541L445.654,358.534L459.163,365.196C459.163,365.196 455.873,370.218 455.658,370.546C455.651,370.557 455.643,370.568 455.636,370.579C455.403,370.929 451.576,376.669 451.576,376.669L434.551,367.602Z" style="fill:rgb(225,210,177);stroke:black;stroke-width:1px;stroke-linecap:round;stroke-linejoin:round;stroke-miterlimit:1.5;"/>
                            <g transform="matrix(1,0,0,1,442.477,357.468)">
                                <path d="M0,-61.179L-4.371,-44.296C-4.371,-44.296 -4.642,-32.205 -4.777,-26.407C-4.927,-20.609 -5.032,-10.651 -3.064,-6.926C-1.097,-3.185 1.592,1.441 8.126,4.7C14.659,7.96 25.009,10.694 30.01,8.831C35.027,6.968 39.653,4.279 42.462,0.825C45.271,-2.63 52.706,-13.985 52.661,-14.661C52.631,-15.337 53.247,-13.474 54.854,-15.337C56.461,-17.2 59.585,-21.435 58.925,-24.379C58.278,-27.323 59.811,-30.808 56.251,-30.297C52.706,-29.786 51.429,-29.802 49.507,-25.461C47.584,-21.119 48.771,-28.314 48.771,-28.314L50.919,-29.786L48.951,-31.649L51.354,-40.105C51.354,-40.105 44.73,-39.955 44.49,-41.307C44.249,-42.659 46.563,-51.281 43.168,-61.57C39.773,-71.873 13.052,-63.267 13.052,-63.267C13.052,-63.267 1.877,-59.226 0,-61.179Z" style="fill:rgb(225,210,177);fill-rule:nonzero;stroke:black;stroke-width:0.75px;"/>
                            </g>
                            <g transform="matrix(-0.998835,0.0482661,0.0482661,0.998835,471.118,326.098)">
                                <path d="M0.325,-13.48C-2.023,-13.48 -3.927,-10.46 -3.926,-6.736C-3.926,-3.011 -2.023,0.008 0.325,0.008C2.671,0.008 4.575,-3.011 4.575,-6.736C4.576,-10.461 2.672,-13.48 0.325,-13.48" style="fill-rule:nonzero;"/>
                            </g>
                            <g transform="matrix(-0.998835,0.0482661,0.0482661,0.998835,471.118,326.098)">
                                <ellipse cx="0.325" cy="-6.736" rx="4.251" ry="6.744" style="fill:none;stroke:black;stroke-width:0.5px;"/>
                            </g>
                            <g transform="matrix(-0.998835,0.0482661,0.0482661,0.998835,445.615,326.549)">
                                <path d="M0.325,-13.48C-2.022,-13.48 -3.926,-10.46 -3.925,-6.736C-3.925,-3.011 -2.022,0.008 0.325,0.008C2.672,0.008 4.576,-3.011 4.576,-6.736C4.576,-10.461 2.673,-13.48 0.325,-13.48" style="fill-rule:nonzero;"/>
                            </g>
                            <g transform="matrix(-0.998829,0.0483845,0.0483845,0.998829,469.043,318.691)">
                                <path d="M0.103,-4.173C-0.627,-4.173 -1.219,-3.238 -1.22,-2.086C-1.22,-0.933 -0.628,0.002 0.103,0.001C0.833,0.002 1.424,-0.933 1.425,-2.086C1.424,-3.239 0.833,-4.174 0.103,-4.173" style="fill:white;fill-rule:nonzero;"/>
                            </g>
                            <g transform="matrix(-0.998829,0.0483845,0.0483845,0.998829,469.043,318.623)">
                                <ellipse cx="0.102" cy="-2.086" rx="1.322" ry="2.088" style="fill:none;stroke:black;stroke-width:0.75px;"/>
                            </g>
                            <g transform="matrix(-0.99884,0.0481455,0.0481455,0.99884,443.62,319.579)">
                                <path d="M0.101,-4.173C-0.628,-4.173 -1.22,-3.239 -1.221,-2.086C-1.221,-0.933 -0.629,0.002 0.101,0.001C0.831,0.002 1.423,-0.932 1.424,-2.086C1.423,-3.238 0.831,-4.174 0.101,-4.173" style="fill:white;fill-rule:nonzero;"/>
                            </g>
                            <g transform="matrix(-0.99884,0.0481455,0.0481455,0.99884,443.552,319.511)">
                                <ellipse cx="0.101" cy="-2.086" rx="1.322" ry="2.088" style="fill:none;stroke:black;stroke-width:0.75px;"/>
                            </g>
                            <g transform="matrix(1,0,0,1,448.95,307.209)">
                                <path d="M0,4.221L0.255,3.244C0.045,2.193 -0.631,1.247 -1.548,0.691C-2.403,0.18 -3.47,0 -4.446,0.225C-5.423,0.451 -6.309,1.067 -6.85,1.908L-7.21,3.064C-6.249,2.674 -5.197,2.493 -4.161,2.554C-2.644,2.644 -1.157,3.23 0,4.221Z" style="fill-rule:nonzero;stroke:black;stroke-width:0.75px;"/>
                            </g>
                            <g transform="matrix(1,0,0,1,465.397,307.629)">
                                <path d="M0,4.642L-0.421,3.71C-0.376,2.674 0.135,1.653 0.931,0.977C1.712,0.316 2.778,0 3.8,0.106C4.821,0.226 5.782,0.767 6.398,1.593L6.969,2.704C5.963,2.419 4.896,2.359 3.86,2.539C2.388,2.809 1.021,3.56 0,4.642Z" style="fill-rule:nonzero;stroke:black;stroke-width:0.75px;"/>
                            </g>
                            <g transform="matrix(1,0,0,1,450.436,341.23)">
                                <path d="M0,-26.811L1.157,-26.631L-4.311,-2.734C-4.311,-2.734 -4.325,-1.893 -3.604,-1.802C-2.884,-1.712 1.938,-1.772 1.938,-1.772C1.938,-1.772 3.636,-1.487 3.125,-0.751C2.614,0 -4.386,-0.571 -4.386,-0.571C-4.386,-0.571 -6.669,-1.667 -6.639,-2.328C-6.608,-2.989 -5.798,-4.957 -4.896,-8.486C-3.98,-12.001 0,-26.811 0,-26.811" style="fill-rule:nonzero;"/>
                            </g>
                            <g transform="matrix(1,0,0,1,494.296,334.336)">
                                <path d="M0,1.472C0,1.472 -1.187,-0.631 0.436,-2.043C2.059,-3.455 4.972,-2.629 5.032,-1.547C5.077,-0.465 5.678,1.787 3.079,3.004L0.496,4.206L0.646,4.927" style="fill:none;fill-rule:nonzero;stroke:black;stroke-width:0.75px;"/>
                            </g>
                            <g transform="matrix(1,0,0,1,434.966,288.434)">
                                <path d="M0,-17.138C0,-17.138 8.893,-19.782 15.021,-15.996C21.164,-12.211 24.228,-8.441 23.417,-4.145C22.605,0.15 16.598,2.644 10.094,1.938C3.59,1.232 -1.457,-1.246 -1.441,-4.476C-1.427,-7.705 1.156,-10.559 4.041,-10.694C6.925,-10.829 11.386,-6.459 11.386,-6.459" style="fill:none;fill-rule:nonzero;stroke:black;stroke-width:0.75px;"/>
                            </g>
                            <g transform="matrix(1,0,0,1,465.697,284.454)">
                                <path d="M0,-11.07C0,-11.07 5.513,-9.808 6.564,-5.438C7.615,-1.067 6.654,0 6.654,0" style="fill:none;fill-rule:nonzero;stroke:black;stroke-width:0.75px;"/>
                            </g>
                            <g transform="matrix(1,0,0,1,475.972,283.822)">
                                <path d="M0,-10.063C0,-10.063 4.025,-7.9 3.905,-4.265C3.8,-0.63 2.809,0 2.809,0" style="fill:none;fill-rule:nonzero;stroke:black;stroke-width:0.75px;"/>
                            </g>
                            <g transform="matrix(1,0,0,1,483.467,284.094)">
                                <path d="M0,-8.562C0,-8.562 2.658,-5.934 1.742,-3.095C0.811,-0.256 -0.105,0 -0.105,0" style="fill:none;fill-rule:nonzero;stroke:black;stroke-width:0.75px;"/>
                            </g>
                            <g transform="matrix(0.996581,0.0826266,0.0826266,-0.996581,495.349,322.457)">
                                <path d="M-0.016,-0.376L9.074,-0.376" style="fill:none;fill-rule:nonzero;stroke:black;stroke-width:0.75px;"/>
                            </g>
                            <g transform="matrix(0.980808,0.194976,0.194976,-0.980808,495.896,313.907)">
                                <path d="M-0.094,-0.954L9.692,-0.954" style="fill:none;fill-rule:nonzero;stroke:black;stroke-width:0.75px;"/>
                            </g>
                            <g transform="matrix(0.939991,0.341198,0.341198,-0.939991,497.271,305.977)">
                                <path d="M-0.318,-1.81L10.291,-1.81" style="fill:none;fill-rule:nonzero;stroke:black;stroke-width:0.75px;"/>
                            </g>
                            <g transform="matrix(1,0,0,1,495.063,380.043)">
                                <path d="M0,-37.506L-3.05,-16.222L-0.571,-14.134C-0.571,-14.134 3.289,-11.596 0.391,-8.231C-2.509,-4.852 -12.001,-0.481 -20.488,-0.24C-28.989,0 -36.59,-2.524 -36.71,-4.897C-36.83,-7.27 -32.399,-8.111 -32.399,-8.111C-32.399,-8.111 -31.798,-7.931 -31.258,-10.86L-30.687,-13.038" style="fill:rgb(225,210,177);fill-rule:nonzero;stroke:black;stroke-width:0.75px;stroke-linecap:round;"/>
                            </g>
                            <g transform="matrix(1,0,0,1,464.541,359.03)">
                                <path d="M0,7.525C0,7.525 0.751,7.916 3.92,7.54C7.09,7.18 20.668,3.47 21.645,2.794C22.62,2.118 23.582,-0.391 23.582,-0.391" style="fill:none;fill-rule:nonzero;stroke:black;stroke-width:0.75px;stroke-linecap:round;"/>
                            </g>
                            <g transform="matrix(-1,0,0,1,460.11,488.039)">
                                <ellipse cx="0" cy="-1.262" rx="1.262" ry="1.262" style="fill:none;stroke:black;stroke-width:0.75px;stroke-linecap:round;"/>
                            </g>
                            <g transform="matrix(1,0,0,1,456.039,480.319)">
                                <path d="M0,5.527L-3.395,1.066L7.48,0L0,5.527Z" style="fill-rule:nonzero;stroke:black;stroke-width:0.75px;"/>
                            </g>
                            <g transform="matrix(1,0,0,1,534.07,398.758)">
                                <path d="M0,-18.745C0,-18.745 -0.962,-20.307 -5.407,-15.02C-9.854,-9.733 -15.861,1.562 -15.861,1.562" style="fill:none;fill-rule:nonzero;stroke:black;stroke-width:0.75px;stroke-linecap:round;"/>
                            </g>
                            <g transform="matrix(-1,0,0,1,477.023,458.283)">
                                <path d="M0.001,-9.522C-2.629,-9.522 -4.761,-7.39 -4.761,-4.76C-4.761,-2.131 -2.629,0 0.001,0C2.63,0 4.762,-2.131 4.762,-4.76C4.762,-7.39 2.63,-9.522 0.001,-9.522" style="fill:rgb(87,136,141);fill-rule:nonzero;"/>
                            </g>
                            <g transform="matrix(-1,0,0,1,477.023,458.283)">
                                <ellipse cx="0" cy="-4.761" rx="4.762" ry="4.761" style="fill:none;stroke:black;stroke-width:0.75px;stroke-linecap:round;"/>
                            </g>
                            <g transform="matrix(-1,0,0,1,477.714,501.106)">
                                <path d="M0,-9.522C-2.63,-9.522 -4.762,-7.39 -4.762,-4.761C-4.762,-2.131 -2.63,0 0,0C2.63,0 4.762,-2.131 4.762,-4.761C4.762,-7.39 2.63,-9.522 0,-9.522" style="fill:rgb(87,136,141);fill-rule:nonzero;"/>
                            </g>
                            <g transform="matrix(-1,0,0,1,477.714,501.106)">
                                <ellipse cx="0" cy="-4.761" rx="4.762" ry="4.761" style="fill:none;stroke:black;stroke-width:0.75px;stroke-linecap:round;"/>
                            </g>
                            <g transform="matrix(1,0,0,1,477.429,458.193)">
                                <path d="M0,-9.522C2.628,-9.522 4.761,-7.389 4.761,-4.761C4.761,-2.132 2.628,0 0,0C-0.346,0 -0.676,-0.044 -1.021,-0.12C1.156,-0.6 2.703,-2.538 2.703,-4.761C2.703,-6.999 1.142,-8.921 -1.037,-9.402C-0.691,-9.477 -0.346,-9.522 0,-9.522" style="fill-rule:nonzero;"/>
                            </g>
                            <g transform="matrix(1,0,0,1,477.429,458.193)">
                                <path d="M0,-9.522C2.628,-9.522 4.761,-7.389 4.761,-4.761C4.761,-2.132 2.628,0 0,0C-0.346,0 -0.676,-0.044 -1.021,-0.12C1.156,-0.6 2.703,-2.538 2.703,-4.761C2.703,-6.999 1.142,-8.921 -1.037,-9.402C-0.691,-9.477 -0.346,-9.522 0,-9.522Z" style="fill:none;fill-rule:nonzero;stroke:black;stroke-width:0.75px;stroke-linecap:round;"/>
                            </g>
                            <g transform="matrix(-0.179239,-0.983806,-0.983806,0.179239,491.525,405.759)">
                                <path d="M-50.014,45.258L18.369,45.258L24.561,36.252L30.891,41.328L36.578,35.253" style="fill:none;fill-rule:nonzero;stroke:black;stroke-width:0.75px;"/>
                            </g>
                            <g transform="matrix(1,0,0,1,446.952,430.405)">
                                <path d="M0.001,0L0,0L0.001,0.001L0.001,0Z" style="fill:rgb(87,136,141);"/>
                            </g>
                            <g transform="matrix(1,0,0,1,477.504,501.212)">
                                <path d="M0,-9.523C2.628,-9.523 4.761,-7.39 4.761,-4.761C4.761,-2.132 2.628,0 0,0C-0.346,0 -0.677,-0.044 -1.021,-0.12C1.156,-0.601 2.703,-2.539 2.703,-4.761C2.703,-7 1.142,-8.922 -1.037,-9.403C-0.691,-9.478 -0.346,-9.523 0,-9.523" style="fill-rule:nonzero;"/>
                            </g>
                            <g transform="matrix(1,0,0,1,477.504,501.212)">
                                <path d="M0,-9.523C2.628,-9.523 4.761,-7.39 4.761,-4.761C4.761,-2.132 2.628,0 0,0C-0.346,0 -0.677,-0.044 -1.021,-0.12C1.156,-0.601 2.703,-2.539 2.703,-4.761C2.703,-7 1.142,-8.922 -1.037,-9.403C-0.691,-9.478 -0.346,-9.523 0,-9.523Z" style="fill:none;fill-rule:nonzero;stroke:black;stroke-width:0.75px;stroke-linecap:round;"/>
                            </g>
                            <g transform="matrix(0.501259,-0.865297,-0.865297,-0.501259,513.967,455.098)">
                                <path d="M-25.588,37.994L42.405,37.994L46.564,45.679L56.976,39.213L65.677,44.809" style="fill:none;fill-rule:nonzero;stroke:black;stroke-width:0.75px;"/>
                            </g>
                            <g transform="matrix(1,0,0,1,499.373,386.396)">
                                <path d="M0,7.646C0.676,7.226 9.321,-0.392 9.321,-0.392L-1.607,5.438L0,7.646Z" style="fill-rule:nonzero;stroke:black;stroke-width:0.75px;"/>
                            </g>
                            <g transform="matrix(1,0,0,1,468.266,399.194)">
                                <path d="M0,59L35.274,1.565L34.22,0.252L0,59Z" style="fill-rule:nonzero;stroke:black;stroke-width:0.75px;"/>
                            </g>
                            <g transform="matrix(1,0,0,1,469.063,387.732)">
                                <path d="M-0.224,-8.158C-4.911,0.613 -5.648,-1.08 -5.648,-1.08L-1.194,-8.379L-0.224,-8.158Z" style="fill-rule:nonzero;"/>
                            </g>
                            <g transform="matrix(1,0,0,1,458.518,402.829)">
                                <path d="M0.308,-9.872C0.128,2.745 -0.911,0.728 -0.911,0.728L-1.051,-12.617L0.308,-9.872Z" style="fill-rule:nonzero;"/>
                            </g>
                            <g transform="matrix(1,0,0,1,478.915,403.263)">
                                <path d="M-0.168,-14.298L-6.429,-8.05L1.895,1.595L-7.43,-8.466L-0.832,-15.529L-0.168,-14.298Z" style="fill-rule:nonzero;"/>
                            </g>
                            <g transform="matrix(0.599064,-0.800701,-0.800701,-0.599064,469.128,389.084)">
                                <path d="M-1.525,4.644L8.338,4.606L9.092,3.399L-1.982,4.152L-1.525,4.644Z" style="fill-rule:nonzero;"/>
                            </g>
                            <g transform="matrix(-0.654257,0.756272,0.756272,0.654257,472.276,390.577)">
                                <path d="M-9.244,-6.288L3.705,-6.288L4.093,-5.634L-10.529,-4.619L-9.244,-6.288Z" style="fill-rule:nonzero;"/>
                            </g>
                            <g transform="matrix(-0.792076,0.610423,0.610423,0.792076,461.161,407.001)">
                                <path d="M-14.929,-3.959L1.795,-3.449L0.458,-5.194L-13.673,-5.171L-14.929,-3.959Z" style="fill-rule:nonzero;"/>
                            </g>
                            <g transform="matrix(0.754414,-0.656399,-0.656399,-0.754414,464.169,417.051)">
                                <path d="M-1.963,7.657L20.554,7.657L20.879,4.667L-3.716,6.695L-2.428,7.147" style="fill-rule:nonzero;"/>
                            </g>
                            <g transform="matrix(0.746541,-0.665339,-0.665339,-0.746541,463.628,411.792)">
                                <path d="M-1.874,6.796L17.717,6.664L17.969,4.161L-2.452,5.789L-2.284,6.336" style="fill-rule:nonzero;"/>
                            </g>
                            <g transform="matrix(1,0,0,1,463.925,360.261)">
                                <path d="M0,10.349C0,10.349 10.274,11.731 16.402,8.201C22.531,4.671 23.456,-0.362 24.005,-1.353C24.553,-2.345 21.574,1.536 19.692,2.253C16.155,3.601 3.229,6.624 3.229,6.624L1.004,6.58L0,10.349Z" style="fill-rule:nonzero;stroke:black;stroke-width:0.75px;"/>
                            </g>
                            <g transform="matrix(1,0,0,1,457.827,510.96)">
                                <path d="M0,-24.978L-0.676,-21.749L-16.988,0.346L-2.208,-22.26L-2.373,-25.324L0,-24.978Z" style="fill-rule:nonzero;stroke:black;stroke-width:0.75px;"/>
                            </g>
                            <g transform="matrix(1,0,0,1,441.425,518.922)">
                                <path d="M0,-7.811C0,-7.811 9.373,0 20.428,-2.164C31.482,-4.327 35.568,-6.85 35.568,-6.85L24.152,-4.807C24.152,-4.807 11.175,-3.726 8.651,-4.567C6.128,-5.408 0,-7.811 0,-7.811Z" style="fill-rule:nonzero;stroke:black;stroke-width:0.75px;"/>
                            </g>
                            <g transform="matrix(1,0,0,1,513.643,522.646)">
                                <path d="M0,-4.807L-10.094,3.845L-0.24,-8.652L0,-4.807Z" style="fill-rule:nonzero;stroke:black;stroke-width:0.75px;"/>
                            </g>
                            <g transform="matrix(1,0,0,1,442.266,523.607)">
                                <path d="M0,-11.776L-10.574,1.202L-1.201,-12.978L0,-11.776Z" style="fill-rule:nonzero;stroke:black;stroke-width:0.75px;"/>
                            </g>
                            <g transform="matrix(1,0,0,1,458.112,516.217)">
                                <path d="M0,-30.521C0,-30.521 -2.163,-14.494 -2.554,-8.185C-2.944,-1.876 -2.749,0 -2.749,0" style="fill:none;fill-rule:nonzero;stroke:black;stroke-width:0.75px;"/>
                            </g>
                            <g transform="matrix(-1,0,0,1,458.548,502.459)">
                                <ellipse cx="0" cy="-1.382" rx="1.262" ry="1.382" style="fill:none;stroke:black;stroke-width:0.75px;stroke-linecap:round;"/>
                            </g>
                            <g transform="matrix(1,0,0,1,508.4,456.572)">
                                <path d="M0,-40.345L-6.895,0L-1.803,-1.022L0,-40.345Z" style="fill-rule:nonzero;stroke:black;stroke-width:0.75px;"/>
                            </g>
                            <g transform="matrix(1,0,0,1,499.944,506.305)">
                                <path d="M0,-24.274L19.706,1.201L12.496,-25.475L0,-24.274Z" style="fill-rule:nonzero;stroke:black;stroke-width:0.75px;"/>
                            </g>
                            <g transform="matrix(1,0,0,1,501.671,505.914)">
                                <path d="M0,-23.342L2.133,-23.447L17.499,0.105L0,-23.342Z" style="fill:rgb(87,136,141);fill-rule:nonzero;stroke:black;stroke-width:0.75px;"/>
                            </g>
                            <g transform="matrix(-0.153875,0.98809,0.98809,0.153875,516.929,441.9)">
                                <path d="M-15.45,-7.799L14.224,-7.799L15.583,-11.843L-23.947,-11.798L-15.45,-7.799Z" style="fill-rule:nonzero;stroke:black;stroke-width:0.75px;"/>
                            </g>
                            <g transform="matrix(1,0,0,1,502.287,417.609)">
                                <path d="M0,37.941L7.961,5.347L6.398,0L0,37.941Z" style="fill:rgb(87,136,141);fill-rule:nonzero;stroke:black;stroke-width:0.75px;"/>
                            </g>
                            <g transform="matrix(1,0,0,1,506.072,423.077)">
                                <path d="M0,24.948L5.242,3.514L4.221,0L0,24.948Z" style="fill:rgb(87,136,141);fill-rule:nonzero;stroke:black;stroke-width:0.75px;"/>
                            </g>
                            <g transform="matrix(1,0,0,1,504.916,502.623)">
                                <path d="M0,-20.186L3.274,-20.442L12.767,0.256L0,-20.186Z" style="fill:rgb(87,136,141);fill-rule:nonzero;stroke:black;stroke-width:0.75px;"/>
                            </g>
                            <g transform="matrix(1,0,0,1,449.487,287.701)">
                                <path d="M0,-18.352C0,-18.352 9.808,-14.807 10.634,-9.7C11.806,-2.505 6.938,0 6.938,0L9.087,-3.467C9.087,-3.467 8.261,-10.316 6.158,-11.578C4.056,-12.839 -5.918,-17.886 -5.918,-17.886L0,-18.352Z" style="fill-rule:nonzero;stroke:black;stroke-width:0.75px;"/>
                            </g>
                            <g transform="matrix(0.905393,0.424574,0.424574,-0.905393,436.193,307.589)">
                                <path d="M-0.164,-0.736C3.222,-0.774 3.303,-0.736 3.303,-0.736" style="fill:none;fill-rule:nonzero;stroke:black;stroke-width:0.75px;"/>
                            </g>
                            <g transform="matrix(0.905393,0.424574,0.424574,-0.905393,436.554,305.802)">
                                <path d="M-0.164,-0.736C3.222,-0.774 3.303,-0.736 3.303,-0.736" style="fill:none;fill-rule:nonzero;stroke:black;stroke-width:0.75px;"/>
                            </g>
                            <g transform="matrix(0.905445,0.424463,0.424463,-0.905445,436.898,304.164)">
                                <path d="M-0.164,-0.736C3.222,-0.774 3.304,-0.736 3.304,-0.736" style="fill:none;fill-rule:nonzero;stroke:black;stroke-width:0.75px;"/>
                            </g>
                            <g transform="matrix(1,0,0,1,439.622,289.976)">
                                <path d="M0,-12.294C0,-12.294 -2.688,-12.589 -3.184,-8.834C-3.68,-5.064 -0.633,-1.045 1.95,-0.325C4.172,0.295 -2.173,-1.943 -3.953,-2.513C-4.248,-2.607 -4.489,-2.821 -4.618,-3.104L-6.102,-6.337C-6.24,-6.642 -6.229,-6.994 -6.068,-7.288L-4.13,-10.847L-1.66,-12.216L0.102,-12.247" style="fill-rule:nonzero;stroke:black;stroke-width:0.5px;"/>
                            </g>
                            <g transform="matrix(0.994175,-0.107782,-0.107782,-0.994175,431.748,401.685)">
                                <path d="M-1.548,0.045C-1.548,0.045 -1.167,21.397 -1.501,24.726C-1.85,28.058 -1.548,28.751 -1.548,28.751L3.679,28.335L1.037,-0.22" style="fill:rgb(87,136,141);fill-rule:nonzero;stroke:black;stroke-width:0.75px;"/>
                            </g>
                            <g transform="matrix(0.978622,0.205665,0.205665,-0.978622,503.83,297.799)">
                                <path d="M0.047,0.017C0.057,0.112 0.08,0.224 0.109,0.306C0.072,0.406 0.054,0.494 0.047,0.601C-0.039,0.352 -0.11,0.107 -0.167,-0.135C-0.099,-0.09 -0.032,-0.045 0.047,0.017" style="fill:rgb(192,0,0);fill-rule:nonzero;"/>
                            </g>
                            <g id="svg-cloud-icon-1" transform="matrix(2.64442,0,0,2.63812,432.084,459.75)">
                                <g transform="matrix(1,0,0,1,-50,-50)">
                                    <path d="M95.4,61.5C95.4,68.7 89.6,75 82.4,75L17.6,75C10.4,75 4.6,68.6 4.6,61.5C4.6,54.3 10.4,48.3 17.6,48.3C18.4,48.3 19.1,48.2 19.9,48.4C20.3,39.6 27,32.6 35.1,32.6C39.8,32.6 43.9,34.8 46.7,38.4C49.2,30.7 56,25.2 64,25.2C74.1,25.2 82.3,34.1 82.3,45.1C82.3,46.1 82.2,47.2 82.1,48.1C82.2,48.1 82.2,48.4 82.3,48.4C89.5,48.2 95.4,54.3 95.4,61.5Z" style="fill:white;fill-rule:nonzero;stroke:black;stroke-width:1px;stroke-linejoin:round;stroke-miterlimit:10;"/>
                                </g>
                            </g>
                            <g transform="matrix(1.30231,0.201388,-0.211417,1.36716,-30.1258,-278.293)">
                                <path d="M451.927,497.227C451.927,497.227 441.11,484.435 428.42,490.921C423.208,493.585 420.311,501.369 420.311,501.369" style="fill:none;stroke:black;stroke-width:1.48px;stroke-linecap:round;stroke-linejoin:round;stroke-miterlimit:1.5;"/>
                            </g>
                            <g transform="matrix(1,0,0,1,532.538,486.267)">
                                <path d="M0,-110.069L2.884,-109.108L1.923,-105.984C1.923,-105.984 16.822,-41.336 16.342,-27.157C15.861,-12.977 18.114,-9.222 14.9,-8.411C10.515,-7.299 7.21,-6.548 1.742,-6.548C-3.395,-6.548 -75.702,0 -75.702,0C-75.702,0 -71.062,-7.961 -72.188,-14.434C-72.969,-18.925 -76.078,-24.078 -76.078,-24.078L-17.288,-31.948L-14.765,-33.991C-14.323,-34.346 -13.924,-45.699 -16.406,-55.361C-18.649,-64.091 -23.777,-71.241 -23.777,-71.241C-23.702,-76.333 -16.312,-103.941 0,-110.069Z" style="fill:rgb(87,136,141);fill-rule:nonzero;stroke:black;stroke-width:0.75px;"/>
                            </g>
                            <g transform="matrix(1,0,0,1,518.329,379.397)">
                                <path d="M0,20.923C0,20.923 9.854,6.308 12.406,5.452C14.96,4.596 16.657,3.92 16.657,3.92L15.981,0.345C15.981,0.345 14.659,0 13.263,1.321C11.866,2.643 4.13,13.218 3.529,14.494C2.929,15.786 0,20.923 0,20.923Z" style="fill-rule:nonzero;stroke:black;stroke-width:0.75px;"/>
                            </g>
                            <g transform="matrix(-0.394078,0.919077,0.919077,0.394078,531.378,449.138)">
                                <path d="M8.132,-10.995C8.132,-10.995 5.461,-7.205 5.157,-2.645C4.866,1.921 8.132,5.74 8.132,5.74C8.132,5.74 6.637,2.746 6.818,-2.784C6.984,-8.317 8.132,-10.995 8.132,-10.995Z" style="fill-rule:nonzero;stroke:black;stroke-width:0.75px;"/>
                            </g>
                            <g transform="matrix(1,0,0,1,468.822,484.945)">
                                <path d="M0,-24.348C0,-24.348 3.079,-22.741 3.95,-16.267C4.821,-9.793 0.646,0 0.646,0" style="fill:none;fill-rule:nonzero;stroke:black;stroke-width:0.75px;"/>
                            </g>
                            <g transform="matrix(1,0,0,1,462.693,480.41)">
                                <path d="M0,-0.001C0,-1.232 0.962,-2.224 2.163,-2.224C3.364,-2.224 4.326,-1.232 4.326,-0.001C4.326,1.23 3.364,2.223 2.163,2.223" style="fill-rule:nonzero;stroke:black;stroke-width:0.75px;stroke-linecap:round;"/>
                            </g>
                            <g transform="matrix(1,0,0,1,457.526,464.232)">
                                <path d="M0,-2.058C0,-2.058 9.478,-3.665 11.341,-2.824C13.203,-1.968 14.06,-0.271 14.435,1.082C14.811,2.448 14.78,-0.106 14.78,-0.106C14.78,-0.106 13.924,-3.936 13.128,-4.221C12.332,-4.506 -0.12,-2.479 -0.12,-2.479L0,-2.058Z" style="fill-rule:nonzero;stroke:black;stroke-width:0.75px;"/>
                            </g>
                            <g transform="matrix(-0.560618,0.828075,0.828075,0.560618,532.74,454.314)">
                                <path d="M7.239,-13.618C7.239,-13.618 4.691,-9.883 4.291,-5.058C3.878,-0.241 7.239,3.85 7.239,3.85C7.239,3.85 5.365,0.857 5.67,-4.976C5.985,-10.803 7.239,-13.618 7.239,-13.618Z" style="fill-rule:nonzero;stroke:black;stroke-width:0.75px;"/>
                            </g>
                            <g transform="matrix(1,0,0,1,464.601,478.186)">
                                <path d="M0,4.446C-1.201,4.446 -2.162,3.454 -2.162,2.222C-2.162,0.991 -1.201,0 0,0" style="fill-rule:nonzero;stroke:black;stroke-width:0.75px;stroke-linecap:round;"/>
                            </g>
                            <g transform="matrix(0.999779,-0.0210449,0.0210449,0.999779,-7.22345,6.87047)">
                                <path d="M432.509,366.97C432.509,366.97 450.903,378.753 453.791,376.948C456.679,375.142 423.399,438.435 413.636,452.243C409.805,457.662 400.209,461.181 395.215,459.797C390.221,458.413 384.991,448.909 387.002,443.014C390.115,433.893 406.673,407.089 415.412,393.241C418.658,388.098 420.826,384.741 420.826,384.741L432.509,366.97Z" style="fill:rgb(87,136,141);stroke:black;stroke-width:1px;stroke-linecap:round;stroke-linejoin:round;stroke-miterlimit:1.5;"/>
                            </g>
                            <g transform="matrix(1.19027,0,0,1,-84.37,0)">
                                <ellipse cx="445.469" cy="383.156" rx="2.036" ry="2.406"/>
                            </g>
                            <g transform="matrix(1,0,0,1,-1.48814,0.478233)">
                                <path d="M425.113,378.344C425.113,378.344 430.11,383.896 433.441,385.747C436.772,387.597 447.69,390.928 447.69,390.928" style="fill:none;stroke:black;stroke-width:1px;stroke-linecap:round;stroke-linejoin:round;stroke-miterlimit:1.5;"/>
                            </g>
                            <g transform="matrix(1,0,0,1,-1.11033,-0.185053)">
                                <path d="M438.437,350.021C438.437,350.021 443.063,352.242 445.284,354.463C447.505,356.683 451.021,363.345 451.021,363.345L450.651,366.491" style="fill:rgb(225,210,177);stroke:black;stroke-width:1px;stroke-linecap:round;stroke-linejoin:round;stroke-miterlimit:1.5;"/>
                            </g>
                            <g transform="matrix(0.687915,0.00533836,-0.00543028,0.699759,120.102,132.029)">
                                <path d="M378.73,451.464C378.73,451.464 390.071,453.5 403.448,460.188C416.825,466.876 417.697,474.146 417.697,474.146" style="fill:none;stroke:black;stroke-width:3.41px;stroke-linecap:round;stroke-linejoin:round;stroke-miterlimit:1.5;"/>
                            </g>
                            <path d="M400.831,458.734C400.831,458.734 402.286,458.776 409.082,455.715C417.019,452.139 424.559,455.362 424.386,455.535" style="fill:none;stroke:black;stroke-width:2.36px;stroke-linecap:round;stroke-linejoin:round;stroke-miterlimit:1.5;"/>
                            <g transform="matrix(1,0,0,1,-0.761152,0.217473)">
                                <path d="M457.234,485.184C457.234,485.184 453.645,474.528 453.971,471.483C454.298,468.439 457.668,462.458 457.668,462.458C460.596,465.127 461.176,469.363 461.204,476.091L457.234,485.184Z" style="stroke:black;stroke-width:2.36px;stroke-linecap:round;stroke-linejoin:round;stroke-miterlimit:1.5;"/>
                            </g>
                            <g transform="matrix(1.48435,0,0,1.5817,-209.719,-273.447)">
                                <path d="M435.172,467.951C435.172,467.951 430.307,469.183 429.145,470.293C428.259,471.139 424.809,474.107 426.542,475.048C428.159,475.925 431.274,471.997 431.274,471.997L435.172,467.951Z" style="fill:rgb(225,210,177);stroke:black;stroke-width:0.63px;stroke-linecap:round;stroke-linejoin:round;stroke-miterlimit:1.5;"/>
                            </g>
                            <g transform="matrix(1.48435,0,0,1.5817,-210.736,-273.053)">
                                <path d="M450.345,465.708C446.626,465.105 441.299,465.915 436.158,467.409C436.157,467.409 436.155,467.41 436.153,467.41C435.336,467.661 434.191,467.634 430.474,472.524C427.844,475.985 423.783,481.641 423.405,482.538C422.855,483.846 423.399,484.648 424.509,484.461C424.197,486.205 425.265,486.626 426.282,486.378C426.51,486.469 426.462,485.969 426.282,486.378C425.662,487.778 428.033,488.624 428.833,487.622C429.08,487.313 428.484,487.399 428.833,487.622C429.838,488.267 430.702,488.115 431.626,487.21C433.187,485.681 433.856,483.9 435.097,483.196C436.94,482.151 437.558,481.647 438.522,480.593C439.003,480.066 439.573,479.398 440.561,479.272C441.803,479.113 440.122,479.325 440.561,479.272C442.837,478.997 443.833,479.502 445.118,479.397C446.255,479.305 450.21,478.452 450.21,478.452C452.174,471.878 453.42,470.907 450.345,465.708Z" style="fill:rgb(225,210,177);stroke:black;stroke-width:0.65px;stroke-linecap:round;stroke-linejoin:round;stroke-miterlimit:1.5;"/>
                            </g>
                            <g transform="matrix(1.55072,0,0,1.62767,-239.286,-295.332)">
                                <path d="M424.612,484.635C425.811,482.313 426.873,480.775 429.867,476.805C429.867,476.805 432.021,473.854 433.639,472.671C435.258,471.488 435.487,470.735 435.487,470.735" style="fill:none;stroke:black;stroke-width:0.6px;stroke-linecap:round;stroke-linejoin:round;stroke-miterlimit:1.5;"/>
                            </g>
                            <g transform="matrix(1.48435,0,0,1.5817,-210.551,-273.25)">
                                <path d="M426.293,486.378C426.293,486.378 428.534,482.581 429.281,481.336C430.029,480.09 431.958,478.036 433.017,477.04C434.075,476.044 435.569,474.363 435.569,474.363L437.126,473.055" style="fill:none;stroke:black;stroke-width:0.63px;stroke-linecap:round;stroke-linejoin:round;stroke-miterlimit:1.5;"/>
                            </g>
                            <g transform="matrix(1.48435,0,0,1.5817,-210.736,-273.053)">
                                <path d="M428.861,487.185C430.059,484.961 431.405,482.885 432.968,481.026C435.539,477.966 437.165,476.639 439.179,475.987" style="fill:none;stroke:black;stroke-width:0.63px;stroke-linecap:round;stroke-linejoin:round;stroke-miterlimit:1.5;"/>
                            </g>
                            <g transform="matrix(1,0,0,1,-5.30457,-3.26141)">
                                <path d="M459.096,354.317C459.096,354.317 470.939,353.984 472.438,353.784C476.719,353.212 480.076,351.964 480.502,349.752" style="fill:none;stroke:black;stroke-width:1.2px;stroke-linecap:round;stroke-linejoin:round;stroke-miterlimit:1.5;"/>
                            </g>
                        </g>
                    </g>
                </g>
            </g>
        </g>
    </g>
</svg>
