<?xml version="1.0" encoding="utf-8"?>
<!-- Generator: Adobe Illustrator 21.0.0, SVG Export Plug-In . SVG Version: 6.00 Build 0)  -->
<svg version="1.1" id="Ebene_1" xmlns="http://www.w3.org/2000/svg" xmlns:xlink="http://www.w3.org/1999/xlink" x="0px" y="0px"
	 viewBox="0 0 640 480" style="enable-background:new 0 0 640 480;" xml:space="preserve">
<style type="text/css">
	.st0{fill:#C00000;}
	.st1{fill:#1D1D1B;}
</style>
<g>
	<path class="st0" d="M445.1,249.4c0.1-0.4,0.3-0.7,0.5-1.1c0-0.4,0-0.8,0-1.1c-0.5,0.9-1,1.7-1.4,2.6
		C444.5,249.6,444.8,249.5,445.1,249.4z"/>
	<g>
		<path class="st1" d="M446.5,249.2c0.1-0.3,0.3-0.6,0.4-1c0.1-0.3,0-0.8,0-1.2c0.1-1.1-2.5-0.3-2.8,0.2c-0.5,0.9-1,1.8-1.5,2.7
			c-0.2,0.3,0.3,0.5,0.5,0.5c0.5,0.1,1,0,1.5-0.2c0.3-0.1,0.6-0.2,0.9-0.4c0.3-0.1,1.2-0.6,0.8-1c-0.4-0.4-1.5-0.1-1.9,0
			c-0.3,0.1-0.6,0.2-0.9,0.4c0.7,0.1,1.3,0.2,2,0.3c0.4-0.8,0.8-1.6,1.3-2.4c-0.9,0.1-1.9,0.2-2.8,0.2c0,0.4,0.1,0.8,0,1.2
			c-0.1,0.3-0.3,0.7-0.4,1c-0.2,0.6,0.9,0.5,1.2,0.5C445.4,250,446.3,249.7,446.5,249.2z"/>
	</g>
</g>
<g>
	<path class="st0" d="M470,236.7c-1-11-3-21-5-32c-3.1-14.7-6.8-28.3-12-41.5c0,0.5,0,1,0,1.5c0-0.5,0-1,0-1.5
		c-1.2-3.1-2.5-6.1-3.9-9.2c-6.5-4.9-11.3-11.4-17.1-14.3c-16-7-35-10-49-1c-31,20-39,58-37,93c-2-35,6-73,37-93c14-9,33-6,49,1
		c5.7,2.9,10.5,9.4,17.1,14.3c-0.3-0.8-0.7-1.5-1.1-2.3c-15-32-39-60-73-71c-16.6-5.3-33.6-7.7-50.6-7.5
		c-39.1,0.3-77.8,14.3-109.2,38.4c-24.5,29.8-43.1,69.2-44.2,108.6c7,2.7,14.7,3.8,22,4.5c79,12,155,10,233,2c15-1,29-5,39-18
		c-10,13-24,17-39,18c-78,8-154,10-233-2c-7.3-0.7-15-1.8-22-4.5c0,0.2,0,0.3,0,0.5c0-0.2,0-0.3,0-0.5c-3.6-1.4-7-3.2-10-5.5
		c3,2.4,6.4,4.2,10,5.5c1.1-39.4,19.7-78.8,44.2-108.6c-6.8,5.2-13.2,10.9-19.3,17.1c-21.8,22.8-34.8,52.5-36.9,84.2
		c0,0.3,0,0.5-0.1,0.8c-1.6,0.5-3.3,0.9-5,1c-0.9,0.5-1.8,1-2.7,1.5c-0.2,0.4-0.5,0.7-0.8,1c-0.9,0.8-1.8,1.5-2.7,2.3
		c-0.2,2.7-0.6,5.3-1,8c-0.4,2.5-3.4,4-5.7,3.6c-0.7,0.3-1.4,0.4-2.1,0.4c-2.8,2-6.3,3.3-9.4,4.5c-3.5,1.4-6.2,3.1-8.6,5.4
		c0.3,0.7,0.6,1.5,1.1,2.2c2,3,4,5,7,7c10,5,20,7,31,9c42,7,81,15,122,19c24,2,48,3,72,2c26.1-1.7,51.4-5.8,75.1-15.3
		c0.4-0.8,0.9-1.7,1.4-2.6c0.1-1.6,0.9-3,2.3-3.9c3.7-6.2,7.4-12.7,5.2-19.3c2.2,6.6-1.5,13.1-5.2,19.3c0.7-0.4,1.5-0.6,2.5-0.6
		c2.1,0,3.5,1.1,4.2,2.5c0,0,0.1,0,0.1-0.1c0,0.1,0,0.2,0,0.3c0.5,1.1,0.6,2.4,0.3,3.5c0.5,4.9,1.6,10.3,4,15c3,3,7,1,10,1
		c6-2,11,0,16-1.8l1-1.1C471,263.7,471,250.7,470,236.7z M303,90.7c-30,18-51,45-61,77c-6,20-4,41-8,62c4-21,2-42,8-62
		C252,135.7,273,108.7,303,90.7c21-13,45-7,68-11C348,83.7,324,77.7,303,90.7z M453,234.7c-39,13-80,18-121,16c-62-4-126-2-186-21
		c60,19,124,17,186,21C373,252.7,414,247.7,453,234.7c5-2,11-5,15-11C464,229.7,458,232.7,453,234.7z"/>
	<g>
		<path class="st1" d="M471.4,236.3c-2.4-24.9-7.9-50.2-17-73.5c-0.4-1-2.9-0.3-2.9,0.8c0,0.5,0,1,0,1.5c0,0.9,2.9,0.3,2.9-0.8
			c-0.1-3-2-7.3-3.6-9.9c-1.7-2.8-5.1-4.9-7.5-7.2c-5.1-4.9-9.6-8.3-16.3-10.6c-11.8-4.2-25.2-6.2-37.3-2
			c-22.5,7.8-36.5,32.8-41.8,54.6c-3.4,14-4.1,28.5-3.4,42.9c0,0.9,3,0.3,2.9-0.8c-1.4-26.1,2.3-54.3,18.6-75.6
			c9.6-12.6,22.8-22.4,39.3-21.7c8.1,0.4,16.5,2.5,23.9,5.8c7.3,3.2,12.2,10,18.4,14.8c0.5,0.4,3.3,0.1,2.8-1
			c-9.7-21.4-23.3-41.4-41.9-56.1c-20.6-16.3-46.3-23.3-72.3-24.9c-26.3-1.6-52.7,3.1-77.1,12.9c-12.8,5.2-25.1,11.7-36.5,19.6
			c-4.6,3.1-8.5,6-11.9,10.4c-4.5,5.8-8.7,11.7-12.6,17.9c-16.4,26.1-27.5,56-28.6,87c0,0.2,0.1,0.4,0.3,0.5
			c9.1,3.3,18.6,4.1,28.2,5.4c10.2,1.5,20.5,2.7,30.7,3.7c21.6,2.2,43.3,3.4,65.1,3.8c42.1,0.7,84.2-1.7,126.1-5.8
			c17.9-1.8,34.5-4.4,46.4-19.4c0.8-1-2.1-0.8-2.7-0.1c-12,15.1-29.3,16.5-47.2,18.2c-20.2,1.9-40.4,3.5-60.7,4.4
			c-39,1.8-78.2,1.5-117.1-2c-11.3-1-22.7-2.3-34-3.8c-10.9-1.5-22.2-2.1-32.6-5.9c-0.6-0.2-2.6-0.1-2.6,0.9c0,0.2,0,0.3,0,0.5
			c0,1.2,2.9,0.6,2.9-0.4c0-0.2,0-0.3,0-0.5c0-0.2-0.1-0.4-0.3-0.5c-3.5-1.4-6.8-3.1-9.8-5.4c-0.8-0.6-3.5,0.5-2.7,1.1
			c3.2,2.4,6.5,4.2,10.2,5.7c0.6,0.2,2.6,0,2.6-0.9c1.4-39.9,19.2-77.8,44.1-108.4c0.9-1.1-2.1-0.6-2.5-0.3
			c-16.5,12.9-30.8,28.1-40.7,46.7c-9.3,17.3-14.4,36.3-15.8,55.8c0.4-0.3,0.8-0.6,1.3-0.9c-4.8,1.4-7,1.7-10.8,5.2
			c-4,3.8,0.2,9.9-6.5,12.2c-7.4,2.5-15.8,5.6-21.7,11c-0.1,0.1-0.4,0.4-0.3,0.6c4,8.7,12.7,12,21.3,14.5
			c11.3,3.3,23.1,4.8,34.6,6.8c24.6,4.3,49.1,8.8,73.8,12.3c47.6,6.8,97.5,10.3,145,0.8c6.3-1.3,12.6-2.8,18.8-4.6
			c2.7-0.8,5.5-1.7,8.2-2.6c2.6-0.9,6.5-1.6,8.7-3.2c1-0.8,1.5-2.1,2.1-3.3c1.3-2.5,3-5,4.4-7.6c2.7-5,4.5-10.1,3-15.8
			c-0.3-1-3.2-0.2-2.9,0.8c1.8,7-1.6,13-5.1,18.9c-0.6,1.1,1.5,0.8,1.9,0.6c2.4-0.5,4,0.1,4.8,1.8c0.3,0.5,1.5,0.2,1.9,0
			c0,0,0.1,0,0.1-0.1c-0.7-0.1-1.3-0.1-2-0.2c0.4,5.4,0.6,18.5,7,20.6c2.5,0.8,5.5,0.1,8-0.3c4.6-0.8,9-0.6,13.6-1.1
			c1.8-0.2,4-0.5,5.1-2c1.5-2.2,0.5-6.8,0.5-9.5C472.4,258,472.2,247.1,471.4,236.3c-0.1-0.9-3-0.3-2.9,0.8
			c0.5,7.4,0.8,14.9,0.9,22.4c0.1,3.7,0.1,7.4,0.1,11.2c0,3.3,1.6,7.5-2.4,8.2c-3.1,0.5-6.4-0.1-9.5,0.3c-4.2,0.5-9.6,3.1-13-1.4
			c-3.1-4.1-3.2-12.4-3.6-17.3c0-0.7-1.7-0.3-2-0.2c0,0-0.1,0-0.1,0.1c0.6,0,1.3,0,1.9,0c-2.1-3.1-5.5-3.2-8.7-1.9
			c0.6,0.2,1.3,0.4,1.9,0.6c3.6-6.1,7.2-12.4,5.3-19.7c-0.3-1-3.2-0.2-2.9,0.8c1.9,7.4-1.9,13.6-5.9,19.5c-1.1,1.7-1.5,3.9-3,5.2
			c-2.7,2.5-8.2,3.4-11.6,4.5c-12.7,4-25.7,6.6-38.8,8.4c-27.5,3.7-55.4,3-83,1.1c-27-1.9-53.7-6.1-80.3-10.7
			c-13.2-2.3-26.4-4.6-39.5-6.9c-12.7-2.2-25.8-3.8-37.9-8.4c-3.7-1.4-18.5-8.7-11.3-13.5c3-2,6.5-3.1,9.8-4.6
			c2.4-1.1,4.3-2.2,6.8-2.7c3.1-0.6,5.4-1.5,6.5-4.6c1.3-3.8,0.2-6.7,3.4-9.9c2.2-2.2,4.7-2.2,7.5-3c0.4-0.1,1.2-0.4,1.3-0.9
			c1.4-19.4,6.4-38.2,15.6-55.4c9.8-18.4,24-33.5,40.4-46.3c-0.8-0.1-1.7-0.2-2.5-0.3c-25.1,30.7-42.9,68.8-44.3,108.8
			c0.9-0.3,1.7-0.6,2.6-0.9c-3.5-1.4-6.8-3.1-9.8-5.4c-0.8-0.6-3.5,0.5-2.7,1.1c1.1,0.8,9.9,5.4,9.9,5.6c0,1.2,2.9,0.6,2.9-0.4
			c0-0.2,0-0.3,0-0.5c-0.9,0.3-1.7,0.6-2.6,0.9c9.1,3.3,18.6,4.1,28.2,5.4c10.2,1.5,20.5,2.7,30.7,3.7c21.6,2.2,43.3,3.4,65.1,3.8
			c42.1,0.7,84.2-1.7,126.1-5.8c17.9-1.8,34.5-4.4,46.4-19.4c0.8-1-2.1-0.8-2.7-0.1c-14.9,18.7-40,17.7-61.8,19.5
			c-24.6,2.1-49.3,3.6-74.1,4c-47.9,0.9-96.9-1.2-144.2-9.6c-2.5-0.4-8-1-9.8-2.5c-2-1.6-1.1-4.6-1-6.8c0.4-5.6,1.2-11.3,2.3-16.8
			c2-10.4,5.1-20.5,9-30.4c4.1-10.3,9.1-20.3,14.9-29.7c5.5-9,11.7-20,20.1-26.6C254.8,82,303.5,69.2,348,75.5
			c23.7,3.3,45.5,11.7,63.4,27.8c15.7,14.1,27.4,32,36.1,51.1c0.9-0.3,1.9-0.6,2.8-1c-5.2-4.1-9.4-9.3-14.8-13
			c-5-3.4-11.7-5.1-17.5-6.5c-11-2.5-23.1-2.6-33.3,2.8c-20.6,10.8-32.8,33.4-37.5,55.3c-2.9,13.2-3.4,26.7-2.7,40.1
			c1-0.3,1.9-0.5,2.9-0.8c-1.5-27.4,2.8-57.4,21.2-78.9c5.1-6,11.7-12,19-15.3c8.2-3.7,17.5-3.7,26.2-2.1c8,1.5,16.5,4,22.7,9.5
			c6,5.3,14.7,11.9,15,20.6c0,0.9,2.9,0.3,2.9-0.8c0-0.5,0-1,0-1.5c-1,0.3-1.9,0.5-2.9,0.8c9.1,23.4,14.6,48.6,17,73.5
			C468.6,238,471.6,237.4,471.4,236.3z"/>
		<path class="st1" d="M302.1,90.2c-21.6,13.1-39.7,31.4-51.6,53.7c-6.1,11.5-10.8,23.8-12.9,36.7c-2.6,16.3-2.2,32.9-5.1,49.1
			c-0.2,1.1,2.7,0.6,2.9-0.4c3-16.3,2.5-32.9,5.1-49.1c2.3-14.2,7.7-27.8,14.8-40.2c6.7-11.7,15.2-22.3,25.1-31.5
			c11.1-10.2,24.4-20.5,39.3-23.9c16.7-3.8,34.1-1.4,50.9-4.2c1.4-0.2,2.4-1.9,0.4-1.6C347.9,82.7,323.4,77.6,302.1,90.2
			c-1.7,1,0.9,1.4,1.8,0.9c20.4-12.1,44.5-7,66.9-10.6c1.4-0.2,2.4-1.9,0.4-1.6c-15.9,2.6-32.2,0.7-48.1,3.6
			c-14,2.5-25.8,9.9-36.7,18.7c-21.6,17.2-38.4,41-46.1,67.6c-5.8,19.8-4.1,40.9-7.7,61.1c-0.2,1.1,2.7,0.6,2.9-0.4
			c2.7-15,2.6-30.3,4.6-45.4c1.8-13.6,6.2-26.5,12.5-38.7c11.7-22.6,29.7-41.1,51.4-54.3C305.6,90.1,303,89.7,302.1,90.2z"/>
		<path class="st1" d="M452.8,234c-38.9,12.8-80.3,18.2-121.2,15.8c-39.8-2.3-79.8-2.6-119.3-7.4c-22.2-2.7-44.1-6.9-65.4-13.5
			c-0.6,0.5-1.2,1.1-1.8,1.6c42.6,13.3,87.3,16.4,131.6,18.4c22.6,1,45.3,2.8,67.9,3c22.1,0.3,44.3-1.5,66.1-5.6
			c11.9-2.2,23.7-5.1,35.2-8.6c9.1-2.8,17.6-6,23.4-14c0.8-1.1-2.1-0.8-2.7-0.1c-3.6,5.1-8.5,8.1-14.2,10.4
			c-1.9,0.8-0.2,1.7,1.1,1.2c6.3-2.6,11.8-6,15.8-11.6c0.8-1.1-2.1-0.8-2.7-0.1c-6.7,9.3-17.9,11.8-28.3,14.7
			c-10.5,2.9-21.1,5.3-31.8,7.1c-21.3,3.6-42.9,5.1-64.5,4.7c-20.8-0.5-41.5-2-62.3-2.9c-21.3-0.9-42.6-2-63.7-4.4
			c-23.4-2.6-46.6-6.9-69.1-14c-0.9-0.3-3.4,1.1-1.8,1.6c38.7,12.1,79.2,15.8,119.5,17.8c20.4,1,40.9,1.7,61.3,2.9
			c20.2,1.2,40.4,0.9,60.6-1.3c22.7-2.5,45-7.3,66.7-14.5C454.9,234.8,454.5,233.4,452.8,234z"/>
	</g>
</g>
</svg>
