<?xml version="1.0" encoding="utf-8"?>
<!-- Generator: Adobe Illustrator 21.0.0, SVG Export Plug-In . SVG Version: 6.00 Build 0)  -->
<svg version="1.1"
	 id="svg2" inkscape:export-filename="C:\Users\Marlene\Pictures\jugplakate\jug-butler.png" inkscape:export-xdpi="90" inkscape:export-ydpi="90" inkscape:version="0.91 r13725" sodipodi:docname="jug-buttler.svg" xmlns:cc="http://creativecommons.org/ns#" xmlns:dc="http://purl.org/dc/elements/1.1/" xmlns:inkscape="http://www.inkscape.org/namespaces/inkscape" xmlns:rdf="http://www.w3.org/1999/02/22-rdf-syntax-ns#" xmlns:sodipodi="http://sodipodi.sourceforge.net/DTD/sodipodi-0.dtd" xmlns:svg="http://www.w3.org/2000/svg"
	 xmlns="http://www.w3.org/2000/svg" xmlns:xlink="http://www.w3.org/1999/xlink" x="0px" y="0px" viewBox="0 0 2160 3840"
	 style="enable-background:new 0 0 2160 3840;" xml:space="preserve">
<style type="text/css">
	.st0{fill:#57888D;stroke:#000000;stroke-width:9;}
	.st1{fill:#FFFFFF;stroke:#000000;stroke-width:8;}
	.st2{fill:#D3623A;stroke:#000000;stroke-width:13;}
	.st3{fill:#FFFFFF;stroke:#000000;stroke-width:6;stroke-linecap:round;}
	.st4{fill:#D3623A;stroke:#000000;stroke-width:8;}
	.st5{fill:#D3623A;stroke:#000000;stroke-width:8.416;}
	.st6{stroke:#000000;}
	.st7{fill:#FFFFFF;stroke:#000000;stroke-width:10;}
	.st8{fill:#E1D2B1;stroke:#000000;stroke-width:10;}
	.st9{fill:#FFFFFF;stroke:#000000;stroke-width:0.3098;}
	.st10{stroke:#000000;stroke-width:10;}
	.st11{fill:none;stroke:#000000;stroke-width:7;}
	.st12{fill:none;stroke:#000000;stroke-width:13;}
	.st13{fill:none;stroke:#000000;stroke-width:16;}
	.st14{fill:none;stroke:#000000;stroke-width:12.9411;}
	.st15{fill:none;stroke:#000000;stroke-width:10.6039;}
	.st16{fill:none;stroke:#000000;stroke-width:10;}
	.st17{fill:none;stroke:#000000;stroke-width:14.4869;}
	.st18{fill:none;stroke:#000000;stroke-width:15.5058;}
	.st19{fill:#E1D2B1;stroke:#000000;stroke-width:10;stroke-linecap:round;}
	.st20{fill:none;stroke:#000000;stroke-width:10;stroke-linecap:round;}
	.st21{fill:none;stroke:#000000;stroke-width:6;stroke-linecap:round;}
	.st22{stroke:#000000;stroke-width:9;}
	.st23{fill:none;stroke:#000000;stroke-width:7;stroke-linecap:round;}
	.st24{fill:#57888D;stroke:#000000;stroke-width:6;stroke-linecap:round;}
	.st25{stroke:#000000;stroke-width:4;stroke-linecap:round;}
	.st26{fill:none;stroke:#000000;stroke-width:8;}
	.st27{fill:none;stroke:#000000;stroke-width:7.901;}
	.st28{fill:#57888D;stroke:#000000;}
	.st29{stroke:#000000;stroke-width:0.8964;}
	.st30{fill:none;stroke:#000000;stroke-width:9;stroke-linecap:round;}
	.st31{fill:none;stroke:#000000;stroke-width:6.4704;}
	.st32{fill:#57888D;stroke:#000000;stroke-width:1.0821;}
	.st33{fill:#57888D;stroke:#000000;stroke-width:2.2524;}
	.st34{fill:#57888D;stroke:#000000;stroke-width:1.4805;}
	.st35{fill:#57888D;stroke:#000000;stroke-width:0.8634;}
	.st36{fill:none;stroke:#000000;stroke-width:6;}
	.st37{fill:#3333FF;stroke:#000000;stroke-width:10;}
	.st38{stroke:#000000;stroke-width:1.0555;}
	.st39{stroke:#000000;stroke-width:6;stroke-linecap:round;}
	.st40{fill:none;}
	.st41{fill:#C00000;}
	.st42{fill:#1D1D1B;}
	.st43{fill:#CC0000;}
</style>
<defs>
	
	<inkscape:path-effect  effect="spiro" id="path-effect4253" is_visible="true"></inkscape:path-effect>
	<inkscape:path-effect  effect="spiro" id="path-effect4205" is_visible="true"></inkscape:path-effect>
	<inkscape:path-effect  effect="spiro" id="path-effect4205-7" is_visible="true"></inkscape:path-effect>
	<inkscape:path-effect  effect="spiro" id="path-effect4205-2" is_visible="true"></inkscape:path-effect>
	<inkscape:path-effect  effect="spiro" id="path-effect4253-1" is_visible="true"></inkscape:path-effect>
</defs>
<sodipodi:namedview  bordercolor="#666666" borderopacity="1.0" fit-margin-bottom="0" fit-margin-left="0" fit-margin-right="0" fit-margin-top="0" id="base" inkscape:current-layer="layer2" inkscape:cx="238.7493" inkscape:cy="2828.7259" inkscape:document-units="px" inkscape:pageopacity="0.0" inkscape:pageshadow="2" inkscape:window-height="1002" inkscape:window-maximized="0" inkscape:window-width="1095" inkscape:window-x="0" inkscape:window-y="0" inkscape:zoom="0.25" pagecolor="#ffffff" showgrid="false">
	</sodipodi:namedview>
<path class="st0" d="M757.7,1305.8c-27.2,15.7-125.6,155.8-152.7,235.2c-0.1,0.2-11.4,20.8-11.5,21l-107.3,203.5
	c-0.4,0.8-1.6,0.7-1.9-0.1l0,0c-0.4-1.2,1.4-1.9,1.9-0.7l13.2,55.8c5.7,3.4,43.5,80.4,86.5,60.7c47.2-21.6,96.6-94,96.6-94
	l111.7-176.3c0.1-0.2,6.8-55.2,6.8-55.5l-13.5-251.7C787.5,1303.7,766,1301.1,757.7,1305.8z"/>
<path id="path4595" inkscape:connector-curvature="0" class="st0" d="M749,2161l56.6,726.3l495.5,4.5l36.2-706L749,2161z"/>
<path id="path4508" inkscape:connector-curvature="0" class="st1" d="M807.8,2170.1c0,0,31.7,52,108.6,61.1s190.1-13.6,255.7-45.3
	c65.6-31.7,76.9-436.7,76.9-436.7l-411.8-4.5L807.8,2170.1z"/>
<path id="path4322" inkscape:connector-curvature="0" sodipodi:nodetypes="ccssssssc" class="st2" d="M809.7,874.7l13.5-73.1
	c0,0-74.7-46.2-96.2-69c-21.5-22.7-43.9-64.7-24.1-75.9c19.8-11.2,111.8-53,157.1-54c45.3-1.1,296.4-30.2,347.7-0.9
	c51.3,29.2,129.2,24.3,108.6,138.6c-20.5,114.3-49.3,269.7-65.7,304.5C1234.1,1079.6,809.7,874.7,809.7,874.7L809.7,874.7z"/>
<rect id="rect4479" x="868.9" y="1344.2" class="st3" width="368.8" height="183.3"/>
<path id="path4398" inkscape:connector-curvature="0" class="st4" d="M1000,1374.4c24,57.6,35.2,60.8,35.2,60.8l20.8,3.2l49.6-54.4
	l8-81.6l-104-6.4L1000,1374.4z"/>
<path id="path4400" inkscape:connector-curvature="0" class="st5" d="M1024.9,1432.2l-67.3,61.5l-28.1,460.9l90.4,11.2l111.4-447.3
	l-71.8-82.3L1024.9,1432.2z"/>
<path id="path4433" inkscape:connector-curvature="0" class="st0" d="M929.5,1284.6C797.1,1298,797.1,1298,797.1,1298l-2.9,538.8
	c0,0-60.1,219.8-84.1,240.6s21.1,233,21.1,233l54.4-9.6l161.6-241.6l23.9-782.1L929.5,1284.6z"/>
<path id="path4402" inkscape:connector-curvature="0" class="st0" d="M1136,1424l-152,635.2l180.8,238.4l99.2,12.8l112-124.8
	l-89.6-313.6l16-313.6l131.2-240l-240-54.4L1136,1424z"/>
<path id="path4652" inkscape:connector-curvature="0" sodipodi:nodetypes="csssccc" class="st6" d="M1123.8,1437.7
	c0,0,14.1-18.7,37.3-26.6c23.2-7.9,100.2-57.2,106.9-62.2c5.7-4.2,34.5-29.4,32.8-49.2c-1.7-19.8-20.9-35.6-20.9-35.6l-149.3,122.2
	L1123.8,1437.7z"/>
<path id="path4394" inkscape:connector-curvature="0" sodipodi:nodetypes="czzzsccc" class="st7" d="M1195.9,1207.2
	c0,0,11.6-3.1,25.8,3.6c14.2,6.6,41.5,27.8,50.3,45.6c8.8,17.8,16.4,19.5,4.1,51.1c-12.4,31.6-75.7,91.8-112,103.1
	c-36.3,11.4-45.4,21.4-45.4,21.4l-46.3-95.5L1195.9,1207.2z"/>
<path id="path4396" inkscape:connector-curvature="0" class="st7" d="M994.3,1244.2l-65.9,28.8c0,0-22,9.1-15.8,37.6
	c6.2,28.5,56.6,111,56.6,111l46.9-90.4l13.3-88.7L994.3,1244.2z"/>
<path id="path4310" inkscape:connector-curvature="0" sodipodi:nodetypes="ccssssssssssccccsscc" class="st8" d="M860.6,779.4
	l-29.1,112.4c0,0-1.8,80.5-2.7,119.1c-1,38.6-1.7,104.9,11.4,129.7c13.1,24.9,31,55.7,74.5,77.4c43.5,21.7,112.4,39.9,145.7,27.5
	c33.4-12.4,64.2-30.3,82.9-53.3c18.7-23,68.2-98.6,67.9-103.1c-0.2-4.5,3.9,7.9,14.6-4.5c10.7-12.4,31.5-40.6,27.1-60.2
	c-4.3-19.6,5.9-42.8-17.8-39.4c-23.6,3.4-32.1,3.3-44.9,32.2c-12.8,28.9-4.9-19-4.9-19l14.3-9.8l-13.1-12.4l16-56.3
	c0,0-44.1,1-45.7-8c-1.6-9,13.8-66.4-8.8-134.9c-22.6-68.6-200.5-11.3-200.5-11.3S873.1,792.4,860.6,779.4L860.6,779.4z"/>
<ellipse id="path3350" transform="matrix(0.9988 -4.827905e-02 4.827905e-02 0.9988 -43.834 51.6351)" class="st6" cx="1047" cy="933.2" rx="28.3" ry="44.9"/>
<ellipse id="path3350-4" transform="matrix(0.9988 -4.827905e-02 4.827905e-02 0.9988 -44.1743 43.4426)" class="st6" cx="877.2" cy="936.2" rx="28.3" ry="44.9"/>
<ellipse id="path3350-47" transform="matrix(0.9988 -4.827905e-02 4.827905e-02 0.9988 -44.4676 51.2267)" class="st9" cx="1038.2" cy="946.1" rx="8.8" ry="13.9"/>
<ellipse id="path3350-47-1" transform="matrix(0.9988 -4.827905e-02 4.827905e-02 0.9988 -44.6644 43.0761)" class="st9" cx="869.4" cy="946.1" rx="8.8" ry="13.9"/>
<path id="path4251" inkscape:connector-curvature="0" inkscape:original-d="m 606.14282,-430.8521 2.5,-8 c 0,0 -0.5,-18.5 -14,-22 -13.5,-3.5 -44.5,8 -44.5,8 l -3.5,9.5 c 0,0 12.5,-2 25.5,-3 13,-1 29,3.5 34,15.5 z" inkscape:path-effect="#path-effect4253" class="st6" d="
	M903.7,880.2l1.7-6.5c-1.4-7-5.9-13.3-12-17c-5.7-3.4-12.8-4.6-19.3-3.1s-12.4,5.6-16,11.2l-2.4,7.7c6.4-2.6,13.4-3.8,20.3-3.4
	C886.1,869.7,896,873.6,903.7,880.2z"/>
<path id="path4251-3" inkscape:connector-curvature="0" inkscape:original-d="m 756.00536,-422.5189 -1.13576,-8.4564 c 0,0 3.50596,-18.13948 17.25702,-18.54941 13.75105,-0.40992 42.14058,17.92413 42.14058,17.92413 l 1.86738,10.16172 c 0,0 -11.87756,-4.79099 -24.4064,-8.70808 -12.52885,-3.91708 -28.88379,-3.08411 -35.72282,7.62804 z" inkscape:path-effect="#path-effect4253-1" class="st6" d="
	M1013.2,885.8l-2.8-6.2c0.3-6.9,3.7-13.7,9-18.2c5.2-4.4,12.3-6.5,19.1-5.8c6.8,0.8,13.2,4.4,17.3,9.9l3.8,7.4
	c-6.7-1.9-13.8-2.3-20.7-1.1C1029.1,873.6,1020,878.6,1013.2,885.8z"/>
<path id="path4304" inkscape:connector-curvature="0" class="st6" d="M913.6,900.1l7.7,1.2l-36.4,159.1c0,0-0.1,5.6,4.7,6.2
	c4.8,0.6,36.9,0.2,36.9,0.2s11.3,1.9,7.9,6.8c-3.4,5-50,1.2-50,1.2s-15.2-7.3-15-11.7c0.2-4.4,5.6-17.5,11.6-41
	C887.1,998.7,913.6,900.1,913.6,900.1z"/>
<path inkscape:connector-curvature="0" class="st10" d="M1034.5,1157.8c2.2-4.9,3.1-9.1,4.5-22.2c0.5-4.6,1.1-10.4,1.6-17.1
	c0,0-5.5-4.9-51.7,2.6c-46.3,7.5-98.4,0.4-98.4,0.4c3.3,5.9,6.7,11.5,10.1,17c9.9,15.7,13.2,22,18.4,30c2.9,4.6,4.4,6.8,4.7,7.2
	c19.3,23.1,90.1,11.8,105.3-8.6C1032.3,1162.7,1034.5,1157.8,1034.5,1157.8z"/>
<path id="path4318" inkscape:connector-curvature="0" class="st11" d="M1205.6,1042.5c0,0-7.9-14,2.9-23.4s30.2-3.9,30.6,3.3
	c0.3,7.2,4.3,22.2-13,30.3c-17.2,8-17.2,8-17.2,8l1,4.8"/>
<path id="path4324" inkscape:connector-curvature="0" class="st12" d="M810.6,613c0,0,59.2-17.6,100,7.6
	c40.9,25.2,61.3,50.3,55.9,78.9c-5.4,28.6-45.4,45.2-88.7,40.5c-43.3-4.7-76.9-21.2-76.8-42.7c0.1-21.5,17.3-40.5,36.5-41.4
	c19.2-0.9,48.9,28.2,48.9,28.2l0,0"/>
<path id="path4326" inkscape:connector-curvature="0" class="st13" d="M1015.2,626.9c0,0,36.7,8.4,43.7,37.5s0.6,36.2,0.6,36.2l0,0"
	/>
<path id="path4326-3" inkscape:connector-curvature="0" class="st14" d="M1083.6,629.4c0,0,26.8,14.4,26,38.6
	c-0.7,24.2-7.3,28.4-7.3,28.4l0,0"/>
<path id="path4326-3-5" inkscape:connector-curvature="0" class="st15" d="M1133.5,641.2c0,0,17.7,17.5,11.6,36.4
	c-6.2,18.9-12.3,20.6-12.3,20.6l0,0"/>
<path id="path4358" inkscape:connector-curvature="0" class="st16" d="M1212.3,956.1c60.3,5,60.3,5,60.3,5"/>
<path id="path4358-6" inkscape:connector-curvature="0" class="st17" d="M1214.4,902.8c63.9,12.7,63.9,12.7,63.9,12.7"/>
<path id="path4358-6-9" inkscape:connector-curvature="0" inkscape:transform-center-x="1.091775" inkscape:transform-center-y="70.218503" class="st18" d="
	M1219.3,854.5c66.4,24.1,66.4,24.1,66.4,24.1"/>
<path id="path4390" inkscape:connector-curvature="0" sodipodi:nodetypes="cccssscscc" class="st19" d="M1210.7,1087.3l-20.3,141.7
	l16.5,13.9c0,0,25.7,16.9,6.4,39.3c-19.3,22.5-82.5,51.6-139,53.2c-56.6,1.6-107.2-15.2-108-31c-0.8-15.8,28.7-21.4,28.7-21.4
	s4,1.2,7.6-18.3l3.8-14.5l-0.8-2.8"/>
<path id="path4392" inkscape:connector-curvature="0" sodipodi:nodetypes="cssc" class="st20" d="M1007.5,1247.2c0,0,5,2.6,26.1,0.1
	c21.1-2.4,111.5-27.1,118-31.6c6.5-4.5,12.9-21.2,12.9-21.2"/>
<circle id="path4789" class="st21" cx="978" cy="2047.6" r="8.4"/>
<path id="path4609" inkscape:connector-curvature="0" class="st22" d="M950.9,2041.4l-22.6-29.7l72.4-7.1L950.9,2041.4z"/>
<path id="path4414" inkscape:connector-curvature="0" class="st23" d="M1470.4,1336.8c0,0-6.4-10.4-36,24.8s-69.6,110.4-69.6,110.4
	l0,0"/>
<circle id="path4462" class="st24" cx="1090.6" cy="1826.2" r="31.7"/>
<circle id="path4462-9" class="st24" cx="1095.2" cy="2111.3" r="31.7"/>
<path id="path4462-9-8" inkscape:connector-curvature="0" class="st25" d="M1093.3,1793.9c17.5,0,31.7,14.2,31.7,31.7
	c0,17.5-14.2,31.7-31.7,31.7c-2.3,0-4.5-0.3-6.8-0.8c14.5-3.2,24.8-16.1,24.8-30.9c0-14.9-10.4-27.7-24.9-30.9
	C1088.7,1794.2,1091,1793.9,1093.3,1793.9L1093.3,1793.9z"/>
<path id="path4654-9" inkscape:connector-curvature="0" sodipodi:nodetypes="ccccc" class="st26" d="M950.4,1889.8l-81.6-447.9
	l51.6-51.3l-40.8-35.4l33-44.5"/>
<path id="path4599" inkscape:connector-curvature="0" class="st27" d="M968,2302.4c14.4,510,16,589.6,16,589.6"/>
<path id="path4607_3_" inkscape:connector-curvature="0" sodipodi:nodetypes="cssscc" class="st28" d="M862.4,1702.8"/>
<path id="path4607_4_" inkscape:connector-curvature="0" sodipodi:nodetypes="cssscc" class="st28" d="M890.4,1672.3L890.4,1672.3"
	/>
<path id="path4607_1_" inkscape:connector-curvature="0" sodipodi:nodetypes="cssscc" class="st28" d="M920.9,1678.5"/>
<path id="path4462-9-8-6" inkscape:connector-curvature="0" class="st25" d="M1093.8,2080.3c17.5,0,31.7,14.2,31.7,31.7
	c0,17.5-14.2,31.7-31.7,31.7c-2.3,0-4.5-0.3-6.8-0.8c14.5-3.2,24.8-16.1,24.8-30.9c0-14.9-10.4-27.7-24.9-30.9
	C1089.2,2080.6,1091.5,2080.3,1093.8,2080.3L1093.8,2080.3z"/>
<path id="path4654" inkscape:connector-curvature="0" class="st26" d="M1032.3,1857.3l226.9-391.7l-30.4-49.6l72-38.4l-3.2-68.8l0,0
	"/>
<path id="path4690" inkscape:connector-curvature="0" class="st6" d="M1239.4,1430.2c4.5-2.8,62.8-50.9,62.8-50.9l-73.5,36.2
	L1239.4,1430.2z"/>
<path id="path4692" inkscape:connector-curvature="0" sodipodi:nodetypes="cccc" class="st6" d="M1032.3,1857.3l235.4-383.5
	l-5.9-9.3L1032.3,1857.3z"/>
<path id="path4694" inkscape:connector-curvature="0" class="st6" d="M1037.6,1332.2c-31.2,58.4-37.6,48.8-37.6,48.8l30.4-51.2
	L1037.6,1332.2z"/>
<path id="path4696" inkscape:connector-curvature="0" class="st6" d="M967.4,1415.7c-1.2,84-7,77.1-7,77.1v-88.1L967.4,1415.7z"/>
<path id="path4698" inkscape:connector-curvature="0" class="st6" d="M1103.2,1396.4l-42.8,41.6l50,64.4l-57.6-64l48.4-52.8
	L1103.2,1396.4z"/>
<path id="path4700" inkscape:connector-curvature="0" class="st6" d="M1007.2,1386.8l41.6-55.6l10,0.8l-50.8,59.2L1007.2,1386.8z"/>
<path id="path4702" inkscape:connector-curvature="0" class="st6" d="M1067.6,1333.2l-56.4,65.2l1.6,4.8l68.8-69.2L1067.6,1333.2z"
	/>
<path id="path4704" inkscape:connector-curvature="0" class="st6" d="M1045.4,1438.1l-83.7,64.5l-3.4-12.4l67.9-58.8L1045.4,1438.1z
	"/>
<path id="path4706" inkscape:connector-curvature="0" class="st6" d="M961.7,1553.5l113.1-98.4l14.7,13.6l-132.4,97.3l4.5-7.9"/>
<path id="path4706-2" inkscape:connector-curvature="0" class="st29" d="M962,1522.9l100.2-89.3l10.1,14.5L958,1534.2l4-7.2"/>
<path id="path4723" inkscape:connector-curvature="0" class="st6" d="M1003.4,1274.2c0,0,68.4,9.2,109.2-14.3
	c40.8-23.5,53.6-63.8,53.6-63.8l-31.7,24.2l-109.6,29.1l-13.7-1.6L1003.4,1274.2z"/>
<g>
	<g>
		<path id="path4439_1_" inkscape:connector-curvature="0" class="st30" d="M797.2,1262.7"/>
	</g>
	<path id="path4767_2_" inkscape:connector-curvature="0" class="st6" d="M789.5,1378.6"/>
</g>
<path id="path4771" inkscape:connector-curvature="0" class="st6" d="M962.8,2042.3l-4.5,21.5l-108.6,147.1l98.4-150.5L947,2040
	L962.8,2042.3z"/>
<path id="path4775" inkscape:connector-curvature="0" sodipodi:nodetypes="cssczsc" class="st6" d="M863.2,2315.2
	c0,0,77.5-17,99-19.2c22.3-2.3,58.7-5.5,79.2,1.1c20.6,6.7,32.2,23.8,32.2,23.8s-13-9.7-31.1-14c-18.1-4.3-43.8-7.3-77.5-3.6
	C933.2,2306.9,863.2,2315.2,863.2,2315.2L863.2,2315.2z"/>
<path id="path4777" inkscape:connector-curvature="0" sodipodi:nodetypes="csccsc" class="st6" d="M853.6,2209.6
	c0,0,62.4,52,136,37.6c73.6-14.4,100.8-31.2,100.8-31.2l-76,13.6c0,0-86.4,7.2-103.2,1.6C894.4,2225.6,853.6,2209.6,853.6,2209.6z"
	/>
<path id="path4779" inkscape:connector-curvature="0" class="st6" d="M1334.4,2254.4l-67.2,57.6l65.6-83.2L1334.4,2254.4z"/>
<path id="path4781" inkscape:connector-curvature="0" class="st6" d="M859.2,2214.4l-70.4,86.4l62.4-94.4L859.2,2214.4z"/>
<path id="path4785" inkscape:connector-curvature="0" class="st31" d="M964.7,2040.4c0,0-14.4,106.7-17,148.7
	c-2.6,42-1.3,54.5-1.3,54.5"/>
<ellipse id="path4787" class="st21" cx="967.6" cy="2142.8" rx="8.4" ry="9.2"/>
<path id="path4791" inkscape:connector-curvature="0" sodipodi:nodetypes="cccc" class="st6" d="M1299.5,1577.9l-45.9,268.6
	l33.9-6.8L1299.5,1577.9z"/>
<path id="path4793" inkscape:connector-curvature="0" class="st6" d="M1243.2,2016l131.2,169.6l-48-177.6L1243.2,2016z"/>
<path id="path4795" inkscape:connector-curvature="0" sodipodi:nodetypes="cccccc" class="st6" d="M1244.8,2308.5l28.8,581.1
	l26.3,1.2l38.5-659.6l-72.4,80.3L1244.8,2308.5z"/>
<path id="path4797" inkscape:connector-curvature="0" sodipodi:nodetypes="cccc" class="st32" d="M1254.7,2019.6l14.2-0.7
	l102.3,156.8L1254.7,2019.6z"/>
<path id="path4799" inkscape:connector-curvature="0" class="st6" d="M1320.8,1639.2l-30.4,195.2l-28,4.8l40.8-260L1320.8,1639.2z"
	/>
<path id="path4801" inkscape:connector-curvature="0" sodipodi:nodetypes="cccc" class="st33" d="M1258.8,1839.7l53-217l-10.4-35.6
	L1258.8,1839.7z"/>
<path id="path4801-9" inkscape:connector-curvature="0" sodipodi:nodetypes="cccc" class="st34" d="M1284,1789.6l34.9-142.7
	l-6.8-23.4L1284,1789.6z"/>
<path id="path4797-8" inkscape:connector-curvature="0" sodipodi:nodetypes="cccc" class="st35" d="M1276.3,2018.7l21.8-1.7
	l63.2,137.8L1276.3,2018.7z"/>
<path id="path4833" inkscape:connector-curvature="0" sodipodi:nodetypes="cccc" class="st28" d="M1266.6,2319.4l-13.9-0.9
	l30.3,581.3L1266.6,2319.4z"/>
<path id="path4833-2" inkscape:connector-curvature="0" sodipodi:nodetypes="cccc" class="st28" d="M1289.7,2290.9l-11.1,12
	l14,487.1L1289.7,2290.9z"/>
<path id="path4850" inkscape:connector-curvature="0" class="st6" d="M923.2,2307.2c0,0,24-12.8,32,27.2s28.8,556.8,28.8,556.8
	L969.6,2296L923.2,2307.2z"/>
<path id="path4852" inkscape:connector-curvature="0" sodipodi:nodetypes="csccscc" class="st6" d="M907.5,601.5
	c0,0,65.3,23.6,70.8,57.6c7.8,47.9-22.8,65.3-22.8,65.3l12.5-23.8c0,0-5.5-45.6-19.5-54s-80.4-42-80.4-42L907.5,601.5z"/>
<path id="path4854" inkscape:connector-curvature="0" class="st36" d="M815.7,858.6c20.3,9.8,20.9,9.8,20.9,9.8"/>
<path id="path4854-3" inkscape:connector-curvature="0" inkscape:transform-center-x="12.519088" inkscape:transform-center-y="-22.80928" class="st36" d="
	M818.1,846.7c20.3,9.8,20.9,9.8,20.9,9.8"/>
<path id="path4854-6" inkscape:connector-curvature="0" inkscape:transform-center-x="-0.20883427" inkscape:transform-center-y="-19.980852" class="st36" d="
	M820.4,835.8c20.3,9.8,20.9,9.8,20.9,9.8"/>
<polygon class="st37" points="844.1,2229.7 202.3,2117.9 165,1527.5 787.2,1598 "/>
<path id="path4889" inkscape:connector-curvature="0" class="st6" d="M838.9,659.2c0,0-15-4.9-18.3,20.1c-3.3,25.1,16,50.2,33.2,55
	c17.2,4.8-41.4-13.9-41.4-13.9l-12.7-27.7l14.6-26.8l28-7l0,0"/>
<path id="path4893" inkscape:connector-curvature="0" sodipodi:nodetypes="cccc" class="st6" d="M890,681l11.9,23.5l-18.5-16.7
	L890,681z"/>
<path class="st8" d="M978,1898.7c-74.8-24.1-92.1-46.4-140.2-43.5c-73.9,4.5-88.7-10.6-108.8,6.9c-16.2,14.2,0.5,29.4,0.5,29.4
	s-12.5,8.9-12.6,17.4c-0.1,14.3,8.4,17.6,8.4,17.6s-9.1,10.4-9.2,16.2c-0.2,14.7,8,17.3,8,17.3s-4.3,4.8-7,15.1
	c-5.8,22.5,124.7,42.2,124.7,42.2s45.7,10.8,61.7,13.2c22.1,3.4,89.6,1.3,89.6,1.3l0-144.3L978,1898.7z"/>
<path class="st0" d="M773.3,1394.7"/>
<path class="st0" d="M778.9,1481.9c0,0-12.8-141.6-17.4-163.4c-4.7-21.8-3.2-26.6-3.2-26.6l34.9-1l3,190.9"/>
<path id="path4412_2_" inkscape:connector-curvature="0" sodipodi:nodetypes="cccssscsccscc" class="st0" d="M1460.2,1311.4
	l19.2,6.4l-6.4,20.8c0,0,99.2,430.4,96,524.8c-3.2,94.4,11.8,119.4-9.6,124.8c-29.2,7.4-51.2,12.4-87.6,12.4
	c-34.2,0-515.6,43.6-515.6,43.6s30.9-53,23.4-96.1c-5.2-29.9-25.9-64.2-25.9-64.2l391.4-52.4l16.8-13.6c5.6-4.5-60-248-60-248
	C1302.4,1536,1351.6,1352.2,1460.2,1311.4L1460.2,1311.4z"/>
<path id="path4673-6_2_" inkscape:connector-curvature="0" sodipodi:nodetypes="csczc" class="st38" d="M1419.4,1828.8"/>
<path id="path4673_2_" inkscape:connector-curvature="0" sodipodi:nodetypes="csczc" class="st6" d="M1466.5,1856.9"/>
<path id="path4650" inkscape:connector-curvature="0" class="st6" d="M1365.6,1472c0,0,65.6-97.3,82.6-103
	c17-5.7,28.3-10.2,28.3-10.2l-4.5-23.8c0,0-8.8-2.3-18.1,6.5c-9.3,8.8-60.8,79.2-64.8,87.7C1385.1,1437.8,1365.6,1472,1365.6,1472z"
	/>
<path id="path4673" inkscape:connector-curvature="0" sodipodi:nodetypes="csczc" class="st6" d="M1358.3,1815.9
	c0,0,30.2-6.4,58.9,3.7c28.7,10.2,43.5,40.2,43.5,40.2s-14.4-17-48.7-30.4C1377.7,1815.9,1358.3,1815.9,1358.3,1815.9z"/>
<path id="path4755" inkscape:connector-curvature="0" class="st36" d="M1036,1873.3c0,0,20.5,10.7,26.3,53.8
	c5.8,43.1-22,108.3-22,108.3"/>
<path id="path4759_3_" class="st39" d="M995.2,2005.2c0-8.2,6.4-14.8,14.4-14.8s14.4,6.6,14.4,14.8s-6.4,14.8-14.4,14.8"/>
<path id="path4765" inkscape:connector-curvature="0" class="st6" d="M960.8,1883.8c0,0,63.1-10.7,75.5-5.1
	c12.4,5.7,18.1,17,20.6,26c2.5,9.1,2.3-7.9,2.3-7.9s-5.7-25.5-11-27.4S960,1881,960,1881L960.8,1883.8z"/>
<path id="path4673-6" inkscape:connector-curvature="0" sodipodi:nodetypes="csczc" class="st38" d="M1355.4,1816
	c0,0,30.1-0.1,58.2,15.7c28.1,15.7,38.1,49.5,38.1,49.5s-9.5-21.5-42.8-41.6C1375.6,1819.6,1355.4,1816,1355.4,1816L1355.4,1816z"/>
<path id="path4759_2_" class="st39" d="M1007.9,2020c-8,0-14.4-6.6-14.4-14.8s6.4-14.8,14.4-14.8"/>
<g>
	<polygon points="728.9,1888.5 810.8,1895.5 728.6,1894.5 	"/>
</g>
<g>
	<path class="st40" d="M755.2,1934.4"/>
</g>
<g>
	<path class="st40" d="M828,1937.5"/>
</g>
<g>
	<path class="st40" d="M755.9,1974.7"/>
</g>
<g>
	<path class="st40" d="M827.3,1974.7"/>
</g>
<g>
	<polygon points="729.4,1922.8 804.4,1929.5 729.1,1928.8 	"/>
</g>
<g>
	<polygon points="725.9,1955.7 800.9,1967.3 725.2,1961.6 	"/>
</g>
<path class="st4" d="M1031.6,1153.8c-12-3.2-41,1.9-47.6,3.9c-7.8,2.3-26.7,17.2-31.6,19.5c-0.4,0.2-1.8-15.6-2.1-15.2
	c0,0,1.9,18.4,3.3,19.3c9.9,6.1,22.7,1,41.6-0.1c11.1-0.6,31.4-13.2,37.3-23.2C1034.2,1155.2,1032.3,1154,1031.6,1153.8z"/>
<path class="st7" d="M906.8,1146.7c0,0,43.5-0.4,131.5-8.2l0,0c0.9-6,5.4-19-0.6-19.2c-35.6-1.4-43.1,4.6-72,6.4
	c-32,2-70.7-3.3-70.7-3.3L906.8,1146.7z"/>
<g>
	<path class="st41" d="M1269.4,789.4c0.2-0.6,0.5-1.3,0.8-1.8c-0.1-0.7-0.1-1.3,0-2c-0.9,1.5-1.7,3-2.4,4.5
		C1268.3,789.9,1268.8,789.7,1269.4,789.4z"/>
	<g>
		<path class="st42" d="M1270.8,789.2c0.2-0.6,0.5-1.1,0.7-1.7c0.2-0.6,0-1.5,0.1-2.1c0.1-1.1-2.5-0.3-2.8,0.2
			c-0.9,1.5-1.7,3.1-2.6,4.7c-0.4,0.8,1.8,0.4,2,0.3c0.6-0.2,1.1-0.4,1.7-0.6c0.3-0.1,1.2-0.6,0.8-1c-0.4-0.4-1.5-0.1-1.9,0
			c-0.5,0.2-1.1,0.4-1.7,0.6c0.7,0.1,1.3,0.2,2,0.3c0.7-1.5,1.5-2.9,2.3-4.3c-0.9,0.1-1.9,0.2-2.8,0.2c0,0.7,0.1,1.4-0.1,2
			c-0.1,0.6-0.5,1.2-0.7,1.8C1267.7,790.5,1270.5,790.1,1270.8,789.2z"/>
	</g>
</g>
<g>
	<path class="st43" d="M1333.8,731.8c1.7-20.4,1.2-39.3,1.1-60c-0.9-27.9-3.4-53.7-8.7-79.6c-0.1,0.9-0.2,1.9-0.4,2.8
		c0.2-0.9,0.3-1.9,0.4-2.8c-1.2-6-2.6-12-4.2-18c-10.3-11.1-17-24.5-26.5-31.5c-27-17.9-60.7-29.4-89.1-17.5
		c-63,26.6-89.7,93.3-97.2,157.8c7.5-64.5,34.3-131.3,97.2-157.8c28.4-11.9,62.1-0.4,89.1,17.5c9.5,7.1,16.2,20.5,26.5,31.5
		c-0.4-1.5-0.8-3-1.2-4.5c-17.1-63.2-52-121.9-110.5-152.9c-28.5-14.9-58.9-24.8-89.9-29.9C1049,374.9,974,388,909,422.1
		c-54.3,46.5-100.8,112.4-115.4,184c11.9,7.2,25.6,11.6,38.7,15.2c140.3,47.2,279.6,67.8,424.4,78.1c27.7,3,54.5,0.2,76.9-20.4
		c-22.4,20.5-49.2,23.3-76.9,20.4c-144.9-10.3-284.2-31-424.4-78.1c-13.1-3.5-26.8-8-38.7-15.2c-0.1,0.3-0.1,0.6-0.2,0.8
		c0.1-0.3,0.1-0.6,0.2-0.8c-6.1-3.7-11.7-8-16.5-13.3c4.8,5.3,10.4,9.6,16.5,13.3c14.7-71.6,61.2-137.6,115.4-184
		c-14,7.4-27.6,15.7-40.6,25c-47.1,34.6-80.2,84.7-94.3,141.8c-0.1,0.5-0.2,0.9-0.4,1.4c-3.2,0.5-6.3,0.5-9.5,0.3
		c-1.8,0.5-3.6,1.2-5.3,1.9c-0.5,0.6-1.1,1.1-1.8,1.5c-1.9,1.1-3.8,2.2-5.7,3.4c-1.2,4.8-2.8,9.5-4.4,14.2
		c-1.6,4.5-7.4,6.2-11.6,4.7c-1.3,0.3-2.7,0.3-4.1,0.1c-5.8,2.8-12.5,4-18.6,5.3c-6.8,1.5-12.3,3.6-17.5,7.2
		c0.3,1.4,0.7,2.9,1.3,4.3c2.7,6.1,5.7,10.4,10.5,15c16.6,12.3,34.2,19.2,53.7,26.3c74.4,26.2,143,53.3,216.5,73.7
		c43.1,11.3,86.6,20.8,130.7,26.7c48.2,5.2,95.7,5.9,142-3.8c1.1-1.4,2.2-2.8,3.4-4.2c0.7-2.8,2.6-5.3,5.4-6.3
		c8.7-10.1,17.5-20.9,15.6-33.6c1.9,12.7-6.9,23.5-15.6,33.6c1.4-0.5,3-0.7,4.8-0.4c3.8,0.7,6.1,3.1,6.9,5.9c0.1,0,0.1,0,0.2-0.1
		c0,0.2,0,0.4-0.1,0.6c0.5,2.1,0.3,4.5-0.6,6.5c-0.6,9.2-0.3,19.3,2.5,28.7c4.5,6.4,12.5,4.1,17.9,5c11.6-1.7,20.1,3.5,29.7,1.9
		l2.2-1.7C1327,781.3,1331.1,757.6,1333.8,731.8z M1075.8,412c-60.5,23.2-107.4,65.8-135.9,121c-17.3,34.6-20.4,73.5-34.4,110.6
		c14-37,17.1-76,34.4-110.6C968.4,477.8,1015.3,435.3,1075.8,412c42.5-17,84.3,1.6,127.6,1.7C1160.1,413.6,1118.3,395,1075.8,412z
		 M1303.4,722.7c-75.3,11.2-151.7,7.3-225.9-9.5c-111.8-27.1-229.2-43.9-332.6-97.8c103.4,53.8,220.8,70.7,332.6,97.8
		C1151.7,729.9,1228.1,733.9,1303.4,722.7c9.8-2.1,21.7-5.6,30.9-15.3C1325.1,717.1,1313.2,720.6,1303.4,722.7z"/>
	<g>
		<path d="M1339.6,731c1.9-23.3,1.8-47.1,0.7-70.5c-1.1-23.5-3.6-46.9-8.3-70c-0.8-4-11.2-1.1-11.6,2.3c-0.1,0.9-0.2,1.9-0.4,2.8
			c-0.7,4.5,11,2.5,11.6-1.4c1-6.2-1.5-13.8-3.3-19.8c-1-3.2-3.3-5.2-5.4-7.8c-2.1-2.6-4.1-5.4-6.1-8.1c-3.7-5-7.3-10.2-11.7-14.5
			c-4.3-4.3-9.7-7.4-15-10.4c-22.2-12.6-48.5-20.5-73.9-14.8c-22,4.9-42.9,19.5-58.5,35.5c-15.4,15.8-27,34.8-35.6,55.1
			c-9.9,23.6-15.7,48.8-18.7,74.2c-0.5,4.6,11.1,2.5,11.6-1.4c4.6-38.7,15.5-78,38.6-109.9c11.2-15.6,25.4-28.9,42.1-38.4
			c9.3-5.3,19-9.6,29.8-10.3c11-0.7,22.2,1.5,32.6,5.1c11.7,4,24.8,9.8,34.3,17.9c9.7,8.3,15.8,20.4,24.4,29.8
			c2.2,2.5,12.2,0.2,11.2-3.8c-11-42.6-29.9-84.1-59.6-117c-33-36.6-78.9-57.7-126.4-68.5c-50.4-11.5-103.3-10.2-153.5,1.9
			c-25.4,6.1-50.2,15.1-73.6,26.6c-5.3,2.6-10,5.2-14.5,9.1c-4.6,4.1-9.1,8.3-13.6,12.5c-8.5,8.2-16.6,16.8-24.3,25.7
			c-35.6,41.1-63.4,90.3-74.5,143.8c-0.2,1,0.4,1.6,1.2,2.1c15.7,9.3,33.4,13.5,50.6,19.1c18.3,6,36.7,11.5,55.2,16.7
			c37,10.4,74.4,19.1,112.1,26.5c74.5,14.6,150,23.8,225.7,29.8c18.8,1.5,38.1,4.2,56.9,1.4c18.2-2.7,35-10.2,48.7-22.5
			c1.9-1.7,1.2-3.5-1.1-4.1c-2.6-0.7-6.2,0.4-8.2,2.2c-11.8,10.6-25.9,16.8-41.6,18.5c-16.3,1.8-33-0.7-49.2-2
			c-36.5-2.9-73-6.5-109.3-11.1c-72.4-9.3-144.4-22.6-214.9-41.7c-20-5.4-39.9-11.3-59.7-17.6c-18.9-6-38.8-10.7-56-20.9
			c-2.6-1.6-9.7,0.1-10.4,3.5c-0.1,0.3-0.1,0.6-0.2,0.8c-0.9,4.3,10.7,2.5,11.6-1.4c0.1-0.3,0.1-0.6,0.2-0.8c0.2-1-0.4-1.6-1.2-2.1
			c-5.8-3.6-11.1-7.8-15.7-12.8c-2.7-3-13.8,1.3-10.8,4.5c5.1,5.5,10.9,9.9,17.3,13.8c2.6,1.6,9.7-0.2,10.4-3.5
			c11.7-56,41.7-107.3,80.1-149.2c10.7-11.7,22.2-22.8,34.2-33.1c1.7-1.5,1.3-3.1-0.6-3.9c-2.3-1.1-5.6,0.2-7.7,1.3
			c-27.6,14.6-53.3,32.4-74.8,55.1c-19.3,20.4-35,43.8-46.7,69.3c-6.8,14.9-12,30.4-16,46.3c2.2-1.3,4.4-2.6,6.6-3.9
			c-5,0.6-9.5,0-14.4,1.7c-4.1,1.4-7.2,3.8-10.9,6.1c-4.1,2.6-4.2,5.9-5.7,10.5c-0.7,2.1-1.1,5.2-2.4,7.1c-1.4,2.1,0.1,0.6-1.7,1
			c-1.1,0.2-3.3-0.1-4.5,0c-2.2,0.1-3.8,0-5.9,0.8c-4.6,1.6-8.9,3-13.7,4.1c-8.5,1.8-16.4,4.3-23.7,9c-1,0.7-2.6,1.8-2.2,3.3
			c4.7,18.9,23.2,28.5,39.6,36c19.6,9,40.3,15.5,60.5,22.8c41.7,15.1,83.4,30.5,125.6,44.3c42.2,13.8,84.9,25.3,128.3,34.2
			c43.9,8.9,88.2,14.8,133,14.1c24.3-0.3,49.7-1.8,73.3-7.7c2.7-0.7,4.3-1.5,6.1-3.7c1.6-2,2.5-4.2,3.9-6.2c1.4-1.9,3.8-3.1,5.4-4.9
			c1.8-2.1,3.6-4.2,5.3-6.5c6.2-8.1,10.8-17.1,9.6-27.5c-0.4-3.9-12.1-1.3-11.6,3.1c1.5,12.7-7.5,22.9-15.2,31.9
			c-2.9,3.4,4.8,3.4,6.2,3c2.5-0.7,4.5,2.4,5.2,4.2c0.9,2.4,4.8,1.8,6.6,1.4c0.1,0,0.1,0,0.2-0.1c-2.2-0.7-4.4-1.5-6.6-2.2
			c-0.2,1.9,0.1,3.7-0.1,5.6c-0.2,2-0.7,3.9-0.8,5.9c-0.1,3.9-0.1,7.8,0.2,11.6c0.6,7.3,0.9,15.6,8.7,18.6
			c4.9,1.9,11.5,1.7,16.7,1.6c7.3-0.2,14,1.5,21.2,2.1c5.6,0.5,11.8,0.2,16-4c2.3-2.2,2.2-6.5,2.7-9.5c0.8-4.4,1.5-8.8,2.3-13.2
			C1334.9,767.4,1337.7,749.3,1339.6,731c0.5-4.6-11.2-2.5-11.6,1.4c-1.4,13.9-3.4,27.7-5.5,41.4c-1.1,6.9-2.2,13.7-3.4,20.6
			c-0.5,3.1-1.4,6.4-1.6,9.5c-0.2,2.6,0.3,2.3-1.8,3.8c1.8-0.8,3.6-1.5,5.4-2.3c-6.2,0.8-12.4-1.4-18.6-2c-5.6-0.6-11,0-16.6-0.3
			c-2.5-0.1-5.4-0.4-7-2.6c-2.3-3-2.5-9.4-2.9-13c-0.4-3.9-0.4-7.8-0.3-11.8c0.1-1.8,0.5-3.3,0.7-5.1c0.3-1.9-0.1-3.7,0.1-5.6
			c0.3-3.2-4.8-2.7-6.6-2.2c-0.1,0-0.1,0-0.2,0.1c2.2,0.5,4.4,0.9,6.6,1.4c-2.8-7.6-11.2-8.9-18.3-6.9c2.1,1,4.1,2,6.2,3
			c8.7-10,17.6-21.2,16-35.3c-0.4-3.9-12.1-1.3-11.6,3.1c1.5,12.7-7.5,22.9-15.2,31.9c1-0.8,2.1-1.5,3.1-2.3
			c-6.1,2.9-7.9,7.7-11.9,12.8c1.5-0.9,3.1-1.9,4.6-2.8c-76.2,15.8-155,3.9-229.8-13.5c-74.5-17.3-146-44-217.8-70
			c-19.6-7.1-39.5-13.5-58.6-21.7c-16.6-7.2-37-16.3-41.8-35.6c-0.7,1.1-1.5,2.2-2.2,3.3c10.5-6.8,23.5-6.7,34.8-11.8
			c-1.5,0.3-3,0.6-4.5,0.9c5.6,0.6,12.4,0.9,18.2-2.6c6.7-4.1,8-13.5,9.9-20.5c-0.7,0.8-1.5,1.6-2.2,2.5c2.4-1.4,5.2-3.9,7.8-4.9
			c2.7-1,7.2-0.4,10.1-0.7c2.2-0.3,6-1.4,6.6-3.9c13.6-53.9,43.4-102.3,87.3-136.8c14.2-11.1,29.8-20.6,45.8-29
			c-2.7-0.9-5.5-1.8-8.2-2.7c-43.7,37.6-80.3,84.7-102.1,138.2c-6.3,15.4-11.2,31.3-14.5,47.5c3.5-1.2,6.9-2.4,10.4-3.5
			c-5.8-3.6-11.1-7.8-15.7-12.8c-2.7-3-13.8,1.3-10.8,4.5c5.1,5.5,10.9,9.9,17.3,13.8c-0.4-0.7-0.8-1.4-1.2-2.1
			c-0.1,0.3-0.1,0.6-0.2,0.8c-0.9,4.3,10.7,2.5,11.6-1.4c0.1-0.3,0.1-0.6,0.2-0.8c-3.5,1.2-6.9,2.4-10.4,3.5
			c15.7,9.3,33.4,13.5,50.6,19.1c18.3,6,36.7,11.5,55.2,16.7c37,10.4,74.4,19.1,112.1,26.5c74.5,14.6,150,23.8,225.7,29.8
			c18.8,1.5,38.1,4.2,56.9,1.4c18.2-2.7,35-10.2,48.7-22.5c1.9-1.7,1.2-3.5-1.1-4.1c-2.6-0.7-6.2,0.4-8.2,2.2
			c-11.8,10.6-25.9,16.8-41.6,18.5c-16.3,1.8-33-0.7-49.2-2c-36.5-2.9-73-6.5-109.3-11.1c-72.4-9.3-144.4-22.6-214.9-41.7
			c-20-5.4-39.9-11.3-59.7-17.6c-18.9-6-38.8-10.7-56-20.9c0.4,0.7,0.8,1.4,1.2,2.1c9.6-46,31.5-88.5,60.2-125.5
			c14.1-18.2,29.8-35.1,46.9-50.5c4.5-4,8.9-7,14.3-9.7c5.8-2.8,11.8-5.5,17.8-8c11.5-4.8,23.2-9,35.1-12.5
			c47.8-14,98.7-17.3,147.7-8.4c46.7,8.5,93.7,27.1,127.9,60.9c34.1,33.6,55,78.2,66.9,124c3.7-1.3,7.5-2.5,11.2-3.8
			c-8.3-9.1-14.3-20.4-23.3-28.9c-8.5-8-20.7-13.5-31.4-17.8c-22.4-9-47.3-11.7-69.9-1.9c-39.3,17.1-66.7,50.9-82.3,90.1
			c-9,22.5-14.2,46.3-17.1,70.3c-0.5,4.6,11.1,2.5,11.6-1.4c4.8-40.4,16.5-81.7,41.9-114.3c12.4-15.9,28.2-29.3,46.5-38
			c22.1-10.5,45.5-6.2,67,3.9c6.1,2.9,12.1,6.1,17.7,9.8c5.3,3.4,9.3,8,13.1,13c4,5.3,7.8,10.8,12,15.9c3,3.6,4,6.8,5,11.3
			c0.9,3.8,2.4,8,1.8,11.9c-0.7,4.5,11,2.5,11.6-1.4c0.2-0.9,0.3-1.9,0.4-2.8c-3.9,0.8-7.7,1.5-11.6,2.3c4.6,22.4,7.1,45.2,8.2,68.1
			c1.2,23.5,1.3,47.3-0.6,70.7C1327.6,737.2,1339.3,735,1339.6,731z"/>
		<path d="M1073.5,409.6c-71.8,27.8-131.8,86.1-153.3,161c-7,24.5-11.6,49.7-20.6,73.6c-1.4,3.8,10.1,2.4,11.6-1.4
			c10.4-27.9,14.9-57.4,24.3-85.6c8.3-24.9,21.9-47.7,38.4-68c15.5-19.1,34.1-35.9,54.7-49.5c10.3-6.8,21-12.8,32.2-18
			c13.1-6.1,26.5-11.5,41.1-13c33.2-3.4,66.1,8,99.3,8.3c2.3,0,6.5-0.8,7.6-3.2c1.1-2.3-1-3.4-3.1-3.4c-22.5-0.2-44.5-5.1-66.8-7.5
			C1116.6,400.4,1094.6,401.4,1073.5,409.6c-1.6,0.6-4.6,2.6-3.1,4.7c1.5,2,5.9,0.8,7.7,0.1c39.7-15.4,82.3,2.3,123,2.6
			c2.3,0,6.5-0.8,7.6-3.2c1.1-2.3-1-3.4-3.1-3.4c-31.1-0.2-61.5-9.9-92.7-8.7c-28.9,1-55.9,13.3-80.5,27.8
			c-44,25.9-82.3,66-102.5,113.2c-13.9,32.6-17.9,68.4-30.3,101.5c-1.4,3.8,10.1,2.4,11.6-1.4c15-40,18.4-83.5,40.2-121
			c17.9-30.8,42.3-57.8,71.5-78.3c17.1-12,35.6-21.7,55.1-29.2c1.6-0.6,4.6-2.6,3.1-4.7C1079.6,407.7,1075.3,408.9,1073.5,409.6z"/>
		<path d="M1304.2,719.5c-77,11.4-155.3,6.7-230.9-11.3c-70-16.7-141.1-29.5-210.1-50.4c-39.1-11.8-77.4-26.4-113.7-45.2
			c-3.4-1.7-14,3.1-9.2,5.6c71.2,36.9,149.3,56.8,227.2,74.1c19.3,4.3,38.6,8.5,57.8,12.8c20,4.5,40,9.5,60,13.7
			c41.6,8.6,84,13.3,126.5,13.5c23.9,0.1,47.9-1.2,71.6-3.9c19.9-2.3,40.7-5.1,55.5-20.1c4.7-4.8-6.6-4.7-9.3-1.9
			c-7.5,7.6-16.7,11.1-27,13.3c-1.7,0.4-5.6,2.1-5,4.5c0.7,2.5,5,1.7,6.6,1.4c12.9-2.8,25.3-7.7,34.8-17.2c4.7-4.8-6.6-4.7-9.3-1.9
			c-12.9,13-31.2,14.1-48.4,16c-20.6,2.2-41.3,3.3-62,3.3c-41.6,0-83.2-4.4-124-12.7c-19-3.9-37.8-8.7-56.8-12.9
			c-18.7-4.2-37.4-8.2-56-12.4c-37.4-8.3-74.7-16.9-111.5-27.7c-41.8-12.2-82.7-27.4-121.4-47.5c-3.4-1.7-14,3.1-9.2,5.6
			c65.3,33.8,136.5,53.4,207.9,69.8c35.8,8.2,71.8,15.7,107.6,24c37.9,8.8,75.8,15.9,114.7,18.7c44,3.2,88.4,1.6,132.1-4.8
			c2-0.3,6.3-1.4,6.6-3.9C1309.5,719.4,1305.9,719.2,1304.2,719.5z"/>
	</g>
</g>
<g>
	<path class="st8" d="M144.7,1778.8c-1-3.9-0.9-8.4,1.7-12.7l2.1-2.9c4.7-6.9,10.1-12.9,25.8-9l2.6,0.7c20.2,5,21.7,6.9,38.2,12
		l5,1.7c16.5,5.1,19.1,7.7,21.5,15.5l0.8,3.4c1.3,4.2,1,7.3,0.9,8.3l-0.3,5.4c-0.5,1.5-4.6,9.9-14.5,7.5l-4.3-1
		c-11.2-2.4-69.8-18.5-70.4-18.8C149.3,1786.7,146,1784.1,144.7,1778.8z"/>
	<path class="st8" d="M248.1,1832.6c-3.5,10.4-120.3,8.9-120.3,8.9l-6.6-1.5c-14.7-2.8-7.1-52.3,9-51.5l9.4,2.1l98.7,20.1l9,2
		c1.3,0.7,8.2,5.1,5,14.4L248.1,1832.6z"/>
	<path class="st8" d="M242.1,1843.9c30.7,24.9-96.6,48.2-119.8,42.1l-3.4-1c-20.2-10.5-1.4-41.8,15.5-43.2l2.1,0
		c16.8-0.8,96.3-5.8,105.2,1.8L242.1,1843.9z"/>
	<path class="st8" d="M132.8,1898.4c-4.9,6.8-16.7,24.9,0.8,36.9c3.9,2.7,14,5.5,17.5,4.8c39.1-8,86.4-32.4,91.3-45.8l-0.9-16.5
		l-6.1-1.3c0.4-1.3-45.8-0.5-98.9,16.6L132.8,1898.4z"/>
</g>
<image style="overflow:visible;" width="512" height="512" xlink:href="junit5-logo.png"  transform="matrix(0.6337 0 0 0.6337 328.2777 1697.5392)">
</image>
</svg>
