<?xml version="1.0" encoding="utf-8"?>
<!-- Generator: Adobe Illustrator 21.0.0, SVG Export Plug-In . SVG Version: 6.00 Build 0)  -->
<svg version="1.1"
	 id="svg4632" inkscape:export-filename="D:\JUGGR\grafiken\Plakate\Plakat_05_2016\plakat_05_2016_v2.png" inkscape:export-xdpi="90" inkscape:export-ydpi="90" inkscape:version="0.91 r13725" sodipodi:docname="plakat_05_2016_v2.svg" xmlns:cc="http://creativecommons.org/ns#" xmlns:dc="http://purl.org/dc/elements/1.1/" xmlns:inkscape="http://www.inkscape.org/namespaces/inkscape" xmlns:rdf="http://www.w3.org/1999/02/22-rdf-syntax-ns#" xmlns:sodipodi="http://sodipodi.sourceforge.net/DTD/sodipodi-0.dtd" xmlns:svg="http://www.w3.org/2000/svg"
	 xmlns="http://www.w3.org/2000/svg" xmlns:xlink="http://www.w3.org/1999/xlink" x="0px" y="0px" viewBox="0 0 595.3 841.9"
	 style="enable-background:new 0 0 595.3 841.9;" xml:space="preserve">
<style type="text/css">
	.st0{fill:#FFFFFF;}
	.st1{fill:#3366CC;}
	.st2{font-family:'OpenSans';}
	.st3{font-size:24px;}
	.st4{font-size:36px;}
	.st5{fill:#57888D;stroke:#000000;}
	.st6{fill:#FFFFFF;stroke:#000000;}
	.st7{fill:#D3623A;stroke:#000000;}
	.st8{fill:#FFFFFF;stroke:#000000;stroke-linecap:round;}
	.st9{stroke:#000000;}
	.st10{fill:#E1D2B1;stroke:#000000;}
	.st11{stroke:#000000;stroke-width:0.5;}
	.st12{stroke:#000000;stroke-width:0.15;}
	.st13{fill:none;stroke:#000000;}
	.st14{fill:#E1D2B1;stroke:#000000;stroke-linecap:round;}
	.st15{fill:none;stroke:#000000;stroke-linecap:round;}
	.st16{fill:#57888D;stroke:#000000;stroke-linecap:round;}
	.st17{stroke:#000000;stroke-linecap:round;}
	.st18{stroke:#000000;stroke-width:0.25;}
	.st19{fill:#3366CC;stroke:#000000;}
	.st20{fill:none;}
	.st21{fill:#C00000;}
	.st22{fill:#1D1D1B;}
	.st23{fill:#CC3300;}
	.st24{fill:#FFFFFF;stroke:#FFFFFF;stroke-width:2;}
	.st25{fill:#F58219;stroke:#FFFFFF;stroke-width:2;}
	.st26{fill:#4E7896;stroke:#FFFFFF;stroke-width:2;}
	.st27{font-size:20px;}
	.st28{enable-background:new    ;}
	.st29{fill:none;stroke:#3366CC;stroke-width:3;stroke-miterlimit:10;}
	.st30{font-size:18px;}
	.st31{fill:none;stroke:#FFFFFF;stroke-miterlimit:10;}
	.st32{fill:none;stroke:#000000;stroke-miterlimit:10;}
</style>
<defs>
	
	<inkscape:path-effect  effect="spiro" id="path-effect4253" is_visible="true"></inkscape:path-effect>
	<inkscape:path-effect  effect="spiro" id="path-effect4253-1" is_visible="true"></inkscape:path-effect>
	<inkscape:path-effect  effect="spiro" id="path-effect4253-7" is_visible="true"></inkscape:path-effect>
	<inkscape:path-effect  effect="spiro" id="path-effect4253-1-1" is_visible="true"></inkscape:path-effect>
	<inkscape:path-effect  effect="spiro" id="path-effect4253-6" is_visible="true"></inkscape:path-effect>
	<inkscape:path-effect  effect="spiro" id="path-effect4253-1-6" is_visible="true"></inkscape:path-effect>
</defs>
<sodipodi:namedview  bordercolor="#666666" borderopacity="1.0" fit-margin-bottom="0" fit-margin-left="0" fit-margin-right="0" fit-margin-top="0" id="base" inkscape:current-layer="layer1" inkscape:cx="226.64962" inkscape:cy="585.35062" inkscape:document-units="px" inkscape:pageopacity="0.0" inkscape:pageshadow="2" inkscape:window-height="1147" inkscape:window-maximized="1" inkscape:window-width="1920" inkscape:window-x="-8" inkscape:window-y="-8" inkscape:zoom="0.70710678" pagecolor="#ffffff" showgrid="false">
	</sodipodi:namedview>
<rect id="rect4799-6-8-3-1" y="137.1" class="st0" width="594.9" height="568.6"/>
<rect id="rect4799-6-8" class="st1" width="595.3" height="218.1"/>
<text transform="matrix(1 0 0 1 33.5 60.1094)" class="st0 st2 st3">Vortrag bei der Java User Group Görlitz</text>
<text transform="matrix(1 0 0 1 35.562 135.7973)" class="st0 st2 st4">JUnit 5</text>
<g>
	<g>
		<text transform="matrix(1 0 0 1 33.5 180.7975)" class="st0 st2 st3">Stefan Bley, Saxonia Systems AG</text>
	</g>
</g>
<g id="flowRoot5521" transform="translate(-2.2268386,3.3339304)">
</g>
<g id="flowRoot5689" transform="translate(13.793466,-6.686375)">
</g>
<g>
	<path class="st5" d="M449.4,370.8c-4.7,2.7-21.6,26.8-26.2,40.4l-2,3.6l-18.4,35c-0.1,0.1-0.3,0.1-0.3,0l0,0
		c-0.1-0.2,0.2-0.3,0.3-0.1l2.3,9.6c1,0.6,7.5,13.8,14.9,10.4c8.1-3.7,16.6-16.2,16.6-16.2l19.2-30.3l1.2-9.5l-2.3-43.3
		C454.5,370.5,450.8,370,449.4,370.8z"/>
	<path id="path4595" inkscape:connector-curvature="0" class="st5" d="M447.9,517.8l9.7,124.8l85.2,0.8l6.2-121.3L447.9,517.8z"/>
	<path id="path4508" inkscape:connector-curvature="0" class="st6" d="M458,519.3c0,0,5.4,8.9,18.7,10.5c13.2,1.6,32.7-2.3,43.9-7.8
		c11.3-5.4,13.2-75,13.2-75l-70.8-0.8L458,519.3z"/>
	<path id="path4322" inkscape:connector-curvature="0" sodipodi:nodetypes="ccssssssc" class="st7" d="M458.4,296.7l2.3-12.6
		c0,0-12.8-7.9-16.5-11.9s2.8-7,6.2-8.9s8.9-13.3,16.6-13.5c7.8-0.2,50.9-5.2,59.7-0.2s22.2,4.2,18.7,23.8s-8.5,46.3-11.3,52.3
		C531.3,331.9,458.4,296.7,458.4,296.7L458.4,296.7z"/>
	<rect id="rect4479" x="468.5" y="377.4" class="st8" width="63.4" height="31.5"/>
	<path id="path4398" inkscape:connector-curvature="0" class="st7" d="M491.1,382.6c4.1,9.9,6,10.4,6,10.4l3.6,0.5l8.5-9.3l1.4-14
		l-17.9-1.1L491.1,382.6z"/>
	<path id="path4400" inkscape:connector-curvature="0" class="st7" d="M495.3,392.5l-11.6,10.6l-4.8,79.2l15.5,1.9l19.1-76.9
		l-12.3-14.1L495.3,392.5z"/>
	<path id="path4433" inkscape:connector-curvature="0" class="st5" d="M478.9,367.2c-22.7,2.3-22.7,2.3-22.7,2.3l-0.5,92.6
		c0,0-10.3,37.8-14.4,41.3c-4.1,3.6,3.6,40,3.6,40l9.3-1.6l27.8-41.5l4.1-134.4L478.9,367.2z"/>
	<path id="path4402" inkscape:connector-curvature="0" class="st5" d="M514.4,391.1l-26.1,109.2l31.1,41l17,2.2l19.2-21.4
		l-15.4-53.9l2.7-53.9l22.5-41.2l-41.2-9.3L514.4,391.1z"/>
	<path id="path4652" inkscape:connector-curvature="0" sodipodi:nodetypes="csssccc" class="st9" d="M512.3,393.5
		c0,0,2.4-3.2,6.4-4.6s17.2-9.8,18.4-10.7c1-0.7,5.9-5.1,5.6-8.5c-0.3-3.4-3.6-6.1-3.6-6.1l-25.7,21L512.3,393.5z"/>
	<path id="path4394" inkscape:connector-curvature="0" sodipodi:nodetypes="czzzsccc" class="st6" d="M524.7,353.9
		c0,0,2-0.5,4.4,0.6s7.1,4.8,8.6,7.8s2.8,3.3,0.7,8.8c-2.1,5.4-13,15.8-19.2,17.7c-6.2,2-7.8,3.7-7.8,3.7l-8-16.4L524.7,353.9z"/>
	<path id="path4396" inkscape:connector-curvature="0" class="st6" d="M490.1,360.2l-11.3,5c0,0-3.8,1.6-2.7,6.5
		c1.1,4.9,9.7,19.1,9.7,19.1l8.1-15.5l2.3-15.3L490.1,360.2z"/>
	<path id="path4310" inkscape:connector-curvature="0" sodipodi:nodetypes="ccssssssssssccccsscc" class="st10" d="M467.1,280.3
		l-5,19.3c0,0-0.3,13.8-0.5,20.5c-0.2,6.6-0.3,18,2,22.3s5.3,9.6,12.8,13.3s19.3,6.9,25,4.7c5.7-2.1,11-5.2,14.3-9.2
		c3.2-4,11.7-16.9,11.7-17.7c0-0.8,0.7,1.4,2.5-0.8c1.8-2.1,5.4-7,4.7-10.3c-0.7-3.4,1-7.3-3.1-6.8s-5.5,0.6-7.7,5.5
		c-2.2,5-0.8-3.3-0.8-3.3l2.4-1.7l-2.2-2.1l2.7-9.7c0,0-7.6,0.2-7.9-1.4c-0.3-1.5,2.4-11.4-1.5-23.2s-34.4-1.9-34.4-1.9
		S469.3,282.6,467.1,280.3L467.1,280.3z"/>
	<path id="path4706" inkscape:connector-curvature="0" class="st11" d="M485.1,412.5l18.6-16l2.4,2.2l-21.8,15.8l0.8-1.3"/>
	
		<ellipse id="path3350" transform="matrix(0.9988 -4.828395e-02 4.828395e-02 0.9988 -14.2309 24.4556)" class="st9" cx="499.1" cy="306.8" rx="4.9" ry="7.7"/>
	
		<ellipse id="path3350-4" transform="matrix(0.9988 -4.828395e-02 4.828395e-02 0.9988 -14.289 23.0511)" class="st9" cx="470" cy="307.3" rx="4.9" ry="7.7"/>
	
		<ellipse id="path3350-47" transform="matrix(0.9988 -4.828395e-02 4.828395e-02 0.9988 -14.3388 24.3857)" class="st6" cx="497.6" cy="309" rx="1.5" ry="2.4"/>
	
		<ellipse id="path3350-47-1" transform="matrix(0.9988 -4.828395e-02 4.828395e-02 0.9988 -14.3727 22.9855)" class="st6" cx="468.6" cy="309" rx="1.5" ry="2.4"/>
	
		<path id="path4251" inkscape:connector-curvature="0" inkscape:original-d="m 606.14282,-430.8521 2.5,-8 c 0,0 -0.5,-18.5 -14,-22 -13.5,-3.5 -44.5,8 -44.5,8 l -3.5,9.5 c 0,0 12.5,-2 25.5,-3 13,-1 29,3.5 34,15.5 z" inkscape:path-effect="#path-effect4253" class="st9" d="
		M474.5,297.7l0.3-1.1c-0.2-1.2-1-2.3-2.1-2.9c-1-0.6-2.2-0.8-3.3-0.5c-1.1,0.3-2.1,1-2.7,1.9l-0.4,1.3c1.1-0.4,2.3-0.6,3.5-0.6
		C471.5,295.9,473.2,296.5,474.5,297.7z"/>
	
		<path id="path4251-3" inkscape:connector-curvature="0" inkscape:original-d="m 756.00536,-422.5189 -1.13576,-8.4564 c 0,0 3.50596,-18.13948 17.25702,-18.54941 13.75105,-0.40992 42.14058,17.92413 42.14058,17.92413 l 1.86738,10.16172 c 0,0 -11.87756,-4.79099 -24.4064,-8.70808 -12.52885,-3.91708 -28.88379,-3.08411 -35.72282,7.62804 z" inkscape:path-effect="#path-effect4253-1" class="st9" d="
		M493.3,298.6l-0.5-1.1c0.1-1.2,0.6-2.4,1.5-3.1c0.9-0.8,2.1-1.1,3.3-1s2.3,0.8,3,1.7l0.6,1.3c-1.2-0.3-2.4-0.4-3.6-0.2
		C496.1,296.5,494.5,297.4,493.3,298.6z"/>
	<path id="path4304" inkscape:connector-curvature="0" class="st12" d="M476.2,301.1l1.3,0.2l-6.2,27.3c0,0,0,1,0.8,1.1s6.3,0,6.3,0
		s1.9,0.3,1.4,1.2c-0.6,0.9-8.6,0.2-8.6,0.2s-2.6-1.3-2.6-2c0-0.8,1-3,2-7C471.7,318,476.2,301.1,476.2,301.1z"/>
	<path inkscape:connector-curvature="0" class="st9" d="M497,345.4c0.4-0.8,0.5-1.6,0.8-3.8c0.1-0.8,0.2-1.8,0.3-2.9
		c0,0-0.9-0.8-8.9,0.4c-8,1.3-16.9,0.1-16.9,0.1c0.6,1,1.1,2,1.7,2.9c1.7,2.7,2.3,3.8,3.2,5.2c0.5,0.8,0.8,1.2,0.8,1.2
		c3.3,4,15.5,2,18.1-1.5C496.6,346.2,497,345.4,497,345.4z"/>
	<path id="path4318" inkscape:connector-curvature="0" class="st13" d="M526.4,325.6c0,0-1.4-2.4,0.5-4c1.8-1.6,5.2-0.7,5.3,0.6
		c0.1,1.2,0.7,3.8-2.2,5.2s-3,1.4-3,1.4l0.2,0.8"/>
	<path id="path4324" inkscape:connector-curvature="0" class="st13" d="M458.5,251.8c0,0,10.2-3,17.2,1.3c7,4.3,10.5,8.6,9.6,13.6
		c-0.9,4.9-7.8,7.8-15.2,7c-7.4-0.8-13.2-3.6-13.2-7.3c0-3.7,3-7,6.3-7.1c3.3-0.2,8.4,4.8,8.4,4.8l0,0"/>
	<path id="path4326" inkscape:connector-curvature="0" class="st13" d="M493.7,254.1c0,0,6.3,1.4,7.5,6.4s0.1,6.2,0.1,6.2l0,0"/>
	<path id="path4326-3" inkscape:connector-curvature="0" class="st13" d="M505.4,254.6c0,0,4.6,2.5,4.5,6.6
		c-0.1,4.2-1.3,4.9-1.3,4.9l0,0"/>
	<path id="path4326-3-5" inkscape:connector-curvature="0" class="st13" d="M514,256.6c0,0,3,3,2,6.3c-1.1,3.2-2.1,3.5-2.1,3.5l0,0"
		/>
	<path id="path4358" inkscape:connector-curvature="0" class="st13" d="M527.5,310.7c10.4,0.9,10.4,0.9,10.4,0.9"/>
	<path id="path4358-6" inkscape:connector-curvature="0" class="st13" d="M527.9,301.6c11,2.2,11,2.2,11,2.2"/>
	
		<path id="path4358-6-9" inkscape:connector-curvature="0" inkscape:transform-center-x="1.091775" inkscape:transform-center-y="70.218503" class="st13" d="
		M528.8,293.3c11.4,4.1,11.4,4.1,11.4,4.1"/>
	<path id="path4390" inkscape:connector-curvature="0" sodipodi:nodetypes="cccssscscc" class="st14" d="M527.3,333.3l-3.5,24.3
		l2.8,2.4c0,0,4.4,2.9,1.1,6.8c-3.3,3.9-14.2,8.9-23.9,9.1c-9.7,0.3-18.4-2.6-18.6-5.3c-0.1-2.7,4.9-3.7,4.9-3.7s0.7,0.2,1.3-3.1
		l0.7-2.5l-0.1-0.5"/>
	<path id="path4392" inkscape:connector-curvature="0" sodipodi:nodetypes="cssc" class="st15" d="M492.3,360.7c0,0,0.9,0.4,4.5,0
		s19.2-4.7,20.3-5.4c1.1-0.8,2.2-3.6,2.2-3.6"/>
	<circle id="path4789" class="st15" cx="487.3" cy="498.3" r="1.4"/>
	<path id="path4609" inkscape:connector-curvature="0" class="st9" d="M482.6,497.2l-3.9-5.1l12.4-1.2L482.6,497.2z"/>
	<path id="path4414" inkscape:connector-curvature="0" class="st15" d="M571.9,376.1c0,0-1.1-1.8-6.2,4.3c-5.1,6-12,19-12,19l0,0"/>
	<circle id="path4462" class="st16" cx="506.6" cy="460.2" r="5.4"/>
	<circle id="path4462-9" class="st16" cx="507.4" cy="509.2" r="5.4"/>
	<path id="path4462-9-8" inkscape:connector-curvature="0" class="st17" d="M507.1,454.7c3,0,5.4,2.4,5.4,5.4s-2.4,5.4-5.4,5.4
		c-0.4,0-0.8,0-1.2-0.1c2.5-0.6,4.3-2.8,4.3-5.3c0-2.6-1.8-4.8-4.3-5.3C506.3,454.7,506.7,454.7,507.1,454.7L507.1,454.7z"/>
	<path id="path4654-9" inkscape:connector-curvature="0" sodipodi:nodetypes="ccccc" class="st13" d="M482.5,471.2l-14-77l8.9-8.8
		l-7-6.1l5.7-7.6"/>
	<path id="path4599" inkscape:connector-curvature="0" class="st13" d="M485.6,542.1c2.5,87.6,2.8,101.3,2.8,101.3"/>
	<path id="path4607_3_" inkscape:connector-curvature="0" sodipodi:nodetypes="cssscc" class="st5" d="M467.4,439"/>
	<path id="path4607_4_" inkscape:connector-curvature="0" sodipodi:nodetypes="cssscc" class="st5" d="M472.2,433.8L472.2,433.8"/>
	<path id="path4607_1_" inkscape:connector-curvature="0" sodipodi:nodetypes="cssscc" class="st5" d="M477.5,434.9"/>
	<path id="path4462-9-8-6" inkscape:connector-curvature="0" class="st17" d="M507.2,503.9c3,0,5.4,2.4,5.4,5.4s-2.4,5.4-5.4,5.4
		c-0.4,0-0.8,0-1.2-0.1c2.5-0.6,4.3-2.8,4.3-5.3c0-2.6-1.8-4.8-4.3-5.3C506.4,504,506.8,503.9,507.2,503.9L507.2,503.9z"/>
	<path id="path4654" inkscape:connector-curvature="0" class="st13" d="M496.6,465.6l39-67.3l-5.2-8.5l12.4-6.6l-0.5-11.8l0,0"/>
	<path id="path4690" inkscape:connector-curvature="0" class="st9" d="M532.2,392.2c0.8-0.5,10.8-8.7,10.8-8.7l-12.6,6.2
		L532.2,392.2z"/>
	<path id="path4692" inkscape:connector-curvature="0" sodipodi:nodetypes="cccc" class="st9" d="M496.6,465.6l40.4-65.9l-1-1.6
		L496.6,465.6z"/>
	<path id="path4694" inkscape:connector-curvature="0" class="st18" d="M497.3,376c-5,8.5-6,7.1-6,7.1l4.8-7.5L497.3,376z"/>
	<path id="path4696" inkscape:connector-curvature="0" class="st9" d="M486.4,391.8c-0.2,11.8-1.2,10.8-1.2,10.8v-12.4L486.4,391.8z
		"/>
	<path id="path4698" inkscape:connector-curvature="0" class="st9" d="M508,386.2l-6.6,7.6l9.7,9.7l-10.9-9.4l7.2-9.6L508,386.2z"/>
	<path id="path4700" inkscape:connector-curvature="0" class="st9" d="M492.5,384.8l6.5-8.8l1.5,0.1l-7.9,9.4L492.5,384.8z"/>
	<path id="path4702" inkscape:connector-curvature="0" class="st18" d="M502.7,375.5l-9.7,11.2l0.3,0.8l11.8-11.9L502.7,375.5z"/>
	<path id="path4704" inkscape:connector-curvature="0" class="st11" d="M498.4,393.4l-13.1,10.1l-0.5-1.9l10.6-9.2L498.4,393.4z"/>
	<path id="path4706-2" inkscape:connector-curvature="0" class="st11" d="M485.3,406.7l15.6-13.9l1.5,2.3l-17.9,13.5l0.6-1.1"/>
	<path id="path4723" inkscape:connector-curvature="0" class="st9" d="M491.6,365.4c0,0,11.8,1.6,18.8-2.5c7-4,9.2-11,9.2-11
		l-5.4,4.2l-18.8,5l-2.3-0.3L491.6,365.4z"/>
	<g>
		<g>
			<path id="path4439_1_" inkscape:connector-curvature="0" class="st15" d="M456.2,363.4"/>
		</g>
		<path id="path4767_2_" inkscape:connector-curvature="0" class="st9" d="M454.9,383.3"/>
	</g>
	<path id="path4771" inkscape:connector-curvature="0" class="st9" d="M484.7,497.4l-0.8,3.7l-18.7,25.3l16.9-25.9l-0.2-3.5
		L484.7,497.4z"/>
	<path id="path4775" inkscape:connector-curvature="0" sodipodi:nodetypes="cssczsc" class="st9" d="M467.6,544.3
		c0,0,13.3-2.9,17-3.3c3.8-0.4,10.1-0.9,13.6,0.2c3.5,1.1,5.5,4.1,5.5,4.1s-2.2-1.7-5.4-2.4c-3.1-0.7-7.5-1.3-13.3-0.6
		C479.6,542.8,467.6,544.3,467.6,544.3L467.6,544.3z"/>
	<path id="path4777" inkscape:connector-curvature="0" sodipodi:nodetypes="csccsc" class="st9" d="M465.9,526.1
		c0,0,10.7,8.9,23.4,6.5c12.6-2.5,17.3-5.4,17.3-5.4l-13.1,2.3c0,0-14.8,1.2-17.7,0.3C472.9,528.9,465.9,526.1,465.9,526.1z"/>
	<path id="path4779" inkscape:connector-curvature="0" class="st9" d="M548.5,533.8l-11.5,9.9l11.3-14.3L548.5,533.8z"/>
	<path id="path4781" inkscape:connector-curvature="0" class="st9" d="M466.9,527l-12.1,14.8l10.7-16.2L466.9,527z"/>
	<path id="path4785" inkscape:connector-curvature="0" class="st13" d="M485,497c0,0-2.5,18.3-2.9,25.6c-0.5,7.2-0.2,9.4-0.2,9.4"/>
	<ellipse id="path4787" class="st15" cx="485.5" cy="514.6" rx="1.4" ry="1.6"/>
	<path id="path4791" inkscape:connector-curvature="0" sodipodi:nodetypes="cccc" class="st9" d="M542.5,417.6l-7.9,46.2l5.8-1.2
		L542.5,417.6z"/>
	<path id="path4793" inkscape:connector-curvature="0" class="st9" d="M532.9,492.9l22.5,29.1l-8.2-30.5L532.9,492.9z"/>
	<path id="path4795" inkscape:connector-curvature="0" sodipodi:nodetypes="cccccc" class="st9" d="M533.1,543.1L538,643l4.5,0.2
		l6.6-113.3l-12.4,13.8L533.1,543.1z"/>
	<path id="path4797" inkscape:connector-curvature="0" sodipodi:nodetypes="cccc" class="st5" d="M534.8,493.5l2.4-0.1l17.6,27
		L534.8,493.5z"/>
	<path id="path4799" inkscape:connector-curvature="0" class="st9" d="M546.2,428.1l-5.2,33.5l-4.8,0.8l7-44.7L546.2,428.1z"/>
	<path id="path4801" inkscape:connector-curvature="0" sodipodi:nodetypes="cccc" class="st5" d="M535.5,462.6l9.1-37.3l-1.8-6.1
		L535.5,462.6z"/>
	<path id="path4801-9" inkscape:connector-curvature="0" sodipodi:nodetypes="cccc" class="st5" d="M539.9,454l6-24.5l-1.2-4
		L539.9,454z"/>
	<path id="path4797-8" inkscape:connector-curvature="0" sodipodi:nodetypes="cccc" class="st5" d="M538.5,493.3l3.7-0.3l10.9,23.7
		L538.5,493.3z"/>
	<path id="path4833" inkscape:connector-curvature="0" sodipodi:nodetypes="cccc" class="st5" d="M536.9,545l-2.4-0.2l5.2,99.9
		L536.9,545z"/>
	<path id="path4833-2" inkscape:connector-curvature="0" sodipodi:nodetypes="cccc" class="st5" d="M540.9,540.1l-1.9,2.1l2.4,83.7
		L540.9,540.1z"/>
	<path id="path4850" inkscape:connector-curvature="0" class="st9" d="M477.9,542.9c0,0,4.1-2.2,5.5,4.7s4.9,95.7,4.9,95.7
		L485.8,541L477.9,542.9z"/>
	<path id="path4852" inkscape:connector-curvature="0" sodipodi:nodetypes="csccscc" class="st9" d="M475.2,249.8
		c0,0,11.2,4.1,12.2,9.9c1.3,8.2-3.9,11.2-3.9,11.2l2.1-4.1c0,0-1-7.8-3.4-9.3c-2.4-1.4-13.8-7.2-13.8-7.2L475.2,249.8z"/>
	<path id="path4854" inkscape:connector-curvature="0" class="st13" d="M459.4,294c3.5,1.7,3.6,1.7,3.6,1.7"/>
	
		<path id="path4854-3" inkscape:connector-curvature="0" inkscape:transform-center-x="12.519088" inkscape:transform-center-y="-22.80928" class="st13" d="
		M459.8,291.9c3.5,1.7,3.6,1.7,3.6,1.7"/>
	
		<path id="path4854-6" inkscape:connector-curvature="0" inkscape:transform-center-x="-0.20883427" inkscape:transform-center-y="-19.980852" class="st13" d="
		M460.2,290c3.5,1.7,3.6,1.7,3.6,1.7"/>
	<polygon class="st19" points="464.3,529.6 380.4,510.4 375.5,408.9 456.8,421 	"/>
	<path id="path4889" inkscape:connector-curvature="0" class="st9" d="M463.4,259.7c0,0-2.6-0.8-3.1,3.5c-0.6,4.3,2.8,8.6,5.7,9.5
		c3,0.8-7.1-2.4-7.1-2.4l-2.2-4.8l2.5-4.6l4.8-1.2l0,0"/>
	<path id="path4893" inkscape:connector-curvature="0" sodipodi:nodetypes="cccc" class="st9" d="M472.2,263.4l2,4l-3.2-2.9
		L472.2,263.4z"/>
	<path class="st10" d="M487.3,472.7c-12.9-4.1-15.8-8-24.1-7.5c-12.7,0.8-15.2-1.8-18.7,1.2c-2.8,2.4,0.1,5.1,0.1,5.1
		s-2.2,1.5-2.2,3c0,2.5,1.4,3,1.4,3s-1.6,1.8-1.6,2.8c0,2.5,1.4,3,1.4,3s-0.7,0.8-1.2,2.6c-1,3.9,21.4,7.3,21.4,7.3
		s7.9,1.9,10.6,2.3c3.8,0.6,15.4,0.2,15.4,0.2v-24.8L487.3,472.7z"/>
	<path class="st5" d="M452.1,386.1"/>
	<path class="st5" d="M453.1,401.1c0,0-2.2-24.3-3-28.1c-0.8-3.7-0.6-4.6-0.6-4.6l6-0.2L456,401"/>
	<path id="path4412_2_" inkscape:connector-curvature="0" sodipodi:nodetypes="cccssscsccscc" class="st5" d="M570.1,371.8l3.3,1.1
		l-1.1,3.6c0,0,17,74,16.5,90.2s2,20.5-1.6,21.4c-5,1.3-8.8,2.1-15.1,2.1c-5.9,0-88.6,7.5-88.6,7.5s5.3-9.1,4-16.5
		c-0.9-5.1-4.5-11-4.5-11l67.3-9l2.9-2.3c1-0.8-10.3-42.6-10.3-42.6C543,410.4,551.5,378.8,570.1,371.8L570.1,371.8z"/>
	<path id="path4673-6_2_" inkscape:connector-curvature="0" sodipodi:nodetypes="csczc" class="st9" d="M563.1,460.7"/>
	<path id="path4673_2_" inkscape:connector-curvature="0" sodipodi:nodetypes="csczc" class="st9" d="M571.2,465.5"/>
	<path id="path4650" inkscape:connector-curvature="0" class="st9" d="M553.9,399.4c0,0,11.3-16.7,14.2-17.7s4.9-1.7,4.9-1.7
		l-0.8-4.1c0,0-1.5-0.4-3.1,1.1s-10.5,13.6-11.1,15.1C557.2,393.5,553.9,399.4,553.9,399.4z"/>
	<path id="path4673" inkscape:connector-curvature="0" sodipodi:nodetypes="csczc" class="st9" d="M552.6,458.5
		c0,0,5.2-1.1,10.1,0.6c4.9,1.7,7.5,6.9,7.5,6.9s-2.5-2.9-8.4-5.2C556,458.5,552.6,458.5,552.6,458.5z"/>
	<path id="path4755" inkscape:connector-curvature="0" class="st13" d="M497.2,468.3c0,0,3.5,1.8,4.5,9.2s-3.8,18.6-3.8,18.6"/>
	<path id="path4759_3_" class="st17" d="M490.2,491c0-1.4,1.1-2.5,2.5-2.5s2.5,1.1,2.5,2.5s-1.1,2.5-2.5,2.5"/>
	<path id="path4765" inkscape:connector-curvature="0" class="st9" d="M484.3,470.1c0,0,10.8-1.8,13-0.9s3.1,2.9,3.5,4.5
		s0.4-1.4,0.4-1.4s-1-4.4-1.9-4.7c-0.9-0.3-15.2,2-15.2,2L484.3,470.1z"/>
	<path id="path4673-6" inkscape:connector-curvature="0" sodipodi:nodetypes="csczc" class="st9" d="M552.1,458.5c0,0,5.2,0,10,2.7
		s6.5,8.5,6.5,8.5s-1.6-3.7-7.3-7.1C555.6,459.1,552.1,458.5,552.1,458.5L552.1,458.5z"/>
	<path id="path4759_2_" class="st17" d="M492.4,493.5c-1.4,0-2.5-1.1-2.5-2.5s1.1-2.5,2.5-2.5"/>
	<g>
		<polygon points="444.5,471 458.6,472.2 444.4,472 		"/>
	</g>
	<g>
		<path class="st20" d="M449,478.8"/>
	</g>
	<g>
		<path class="st20" d="M461.5,479.4"/>
	</g>
	<g>
		<path class="st20" d="M449.1,485.8"/>
	</g>
	<g>
		<path class="st20" d="M461.4,485.8"/>
	</g>
	<g>
		<polygon points="444.6,476.9 457.4,478 444.5,477.9 		"/>
	</g>
	<g>
		<polygon points="444,482.5 456.8,484.5 443.8,483.5 		"/>
	</g>
	<path class="st7" d="M496.5,344.7c-2.1-0.5-7,0.3-8.2,0.7c-1.3,0.4-4.6,3-5.4,3.4c-0.1,0-0.3-2.7-0.4-2.6c0,0,0.3,3.2,0.6,3.3
		c1.7,1,3.9,0.2,7.2,0c1.9-0.1,5.4-2.3,6.4-4C496.9,344.9,496.6,344.7,496.5,344.7z"/>
	<path class="st6" d="M475,343.5c0,0,7.5-0.1,22.6-1.4l0,0c0.2-1,0.9-3.3-0.1-3.3c-6.1-0.2-7.4,0.8-12.4,1.1
		c-5.5,0.3-12.2-0.6-12.2-0.6L475,343.5z"/>
	<g>
		<path class="st21" d="M537.4,282.1c0-0.1,0.1-0.2,0.1-0.3c0-0.1,0-0.2,0-0.3c-0.1,0.3-0.3,0.5-0.4,0.8
			C537.2,282.2,537.3,282.1,537.4,282.1z"/>
		<g>
			<path class="st22" d="M538.8,281.9c0.1-0.3,0.1-0.5,0.1-0.8c0-0.4-1-0.3-1.2-0.3c-0.5,0.1-1.3,0.3-1.6,0.7
				c-0.2,0.3-0.4,0.6-0.5,1c-0.2,0.3,0.3,0.5,0.5,0.5c0.5,0.1,1,0,1.5-0.2c0.1,0,0.2-0.1,0.3-0.1c0.3-0.1,1.2-0.6,0.8-1
				s-1.5-0.1-1.9,0c-0.1,0-0.2,0.1-0.3,0.1c0.7,0.1,1.3,0.2,2,0.3c0.1-0.2,0.2-0.4,0.3-0.6c-0.9,0.1-1.9,0.3-2.8,0.4
				c0,0.2-0.1,0.3-0.1,0.5c-0.2,0.6,0.9,0.5,1.2,0.5C537.7,282.7,538.6,282.5,538.8,281.9z"/>
		</g>
	</g>
	<g>
		<path class="st23" d="M547.7,280.1c0-3.5-0.3-6.7-0.5-10.3c-0.5-4.8-1.2-9.2-2.5-13.5c0,0.2,0,0.3,0,0.5c0-0.2,0-0.3,0-0.5
			c-0.3-1-0.6-2-0.9-3c-1.9-1.8-3.2-4-4.9-5.1c-4.8-2.7-10.8-4.3-15.5-1.9c-10.5,5.3-14.2,17.1-14.7,28.2
			c0.5-11.1,4.3-22.9,14.7-28.2c4.7-2.4,10.6-0.8,15.5,1.9c1.7,1.1,3,3.3,4.9,5.1c-0.1-0.3-0.2-0.5-0.3-0.8
			c-3.7-10.6-10.4-20.3-20.8-24.9c-5.1-2.2-10.4-3.5-15.8-4c-12.4-1.2-25.1,2-35.8,8.6c-8.7,8.6-15.9,20.5-17.5,33
			c2.1,1.1,4.5,1.7,6.8,2.1c24.6,6.4,48.8,8.2,73.7,8.2c4.8,0.2,9.3-0.6,12.9-4.4c-3.6,3.8-8.2,4.6-12.9,4.4
			c-25,0-49.1-1.8-73.7-8.2c-2.3-0.4-4.7-1-6.8-2.1v0.1v-0.1c-1.1-0.6-2.1-1.2-3-2.1c0.9,0.8,1.9,1.5,3,2.1
			c1.6-12.5,8.8-24.3,17.5-33c-2.3,1.4-4.5,3-6.7,4.8c-7.6,6.5-12.7,15.5-14.4,25.5c0,0.1,0,0.2,0,0.2c-0.5,0.1-1.1,0.2-1.6,0.2
			c-0.3,0.1-0.6,0.2-0.9,0.4c-0.1,0.1-0.2,0.2-0.3,0.3c-0.3,0.2-0.6,0.4-0.9,0.6c-0.2,0.8-0.4,1.7-0.6,2.5s-1.2,1.1-1.9,1
			c-0.2,0.1-0.5,0.1-0.7,0.1c-1,0.5-2.1,0.8-3.1,1.1c-1.2,0.3-2.1,0.8-2.9,1.4c0.1,0.2,0.2,0.5,0.3,0.7c0.5,1,1.1,1.7,2,2.4
			c3,1.9,6.1,2.9,9.5,3.9c13.1,3.6,25.2,7.4,38,10c7.5,1.4,15.1,2.5,22.7,3c8.3,0.3,16.5-0.2,24.3-2.4c0.2-0.3,0.3-0.5,0.5-0.8
			c0.1-0.5,0.4-0.9,0.9-1.1c1.4-1.8,2.7-3.8,2.3-5.9c0.5,2.2-0.9,4.1-2.3,5.9c0.2-0.1,0.5-0.2,0.8-0.1c0.7,0.1,1.1,0.5,1.3,0.9l0,0
			v0.1c0.1,0.4,0.1,0.8,0,1.1c0,1.6,0.2,3.3,0.8,4.9c0.9,1,2.2,0.5,3.1,0.6c2-0.4,3.5,0.4,5.1,0l0.4-0.3
			C547.1,288.7,547.6,284.6,547.7,280.1z M499.5,228.5c-10.1,4.7-17.6,12.6-21.8,22.4c-2.5,6.1-2.6,12.9-4.5,19.4
			c1.9-6.5,2-13.2,4.5-19.4C481.9,241,489.5,233.2,499.5,228.5c7.1-3.4,14.5-0.8,21.9-1.3C514,227.7,506.6,225,499.5,228.5z
			 M542.4,278.9c-12.8,2.9-25.9,3.1-38.8,1.1c-19.5-3.3-39.8-4.7-58.2-12.7c18.4,8,38.7,9.4,58.2,12.7
			C516.5,282,529.6,281.8,542.4,278.9c1.6-0.5,3.6-1.2,5.1-3C546,277.7,544,278.4,542.4,278.9z"/>
		<g>
			<path d="M548.1,280c0-8-0.9-16.1-3-23.8c-0.1-0.2-0.7-0.1-0.7,0.1s0,0.3,0,0.5c0,0.3,0.7,0.2,0.7-0.1c0.4-5.2-6.3-9.4-10.5-10.8
				c-3.8-1.3-7.8-1.5-11.4,0.2c-10.6,5.1-14.3,17.6-14.9,28.4c0,0.3,0.7,0.2,0.7-0.1c0.4-7.1,1.9-14.4,6-20.4
				c3.8-5.5,9.4-9.6,16.7-8.4c5.4,0.9,8.2,4.1,11.8,7.7c0.1,0.1,0.8,0,0.7-0.2c-3-8.9-8.1-17.5-16-22.9c-9.1-6.2-21.3-7.9-32.1-6.8
				c-9.2,1-20.9,4-27.4,11c-7.9,8.6-13.6,19.1-15.3,30.7c0,0.1,0,0.1,0.1,0.1c7.9,3.5,17.3,4.7,25.7,6.2c8.7,1.5,17.6,2.5,26.4,3.2
				c9.5,0.7,19,1,28.5,1c5.2,0,9.5-0.9,13.4-4.6c0.3-0.3-0.4-0.3-0.6-0.1c-6.4,6-16.8,4.3-24.9,4.1c-7.3-0.2-14.5-0.6-21.7-1.3
				c-7.5-0.7-15-1.7-22.5-3c-7.8-1.4-16.5-2.6-23.7-5.8c-0.2-0.1-0.6,0-0.7,0.2v0.1c0,0.3,0.7,0.2,0.7-0.1V265c0-0.1,0-0.1-0.1-0.1
				c-1.1-0.5-2.1-1.2-2.9-2c-0.2-0.2-0.9,0.1-0.7,0.3c1,0.8,1.9,1.5,3,2.1c0.2,0.1,0.6,0,0.7-0.2c1.9-12.7,8.5-23.8,17.5-32.9
				c0.3-0.3-0.4-0.3-0.5-0.2c-9.4,6-16.6,14.2-19.9,25c-0.4,1.2-0.4,2.7-1,3.8c-2.2,4.2,1.3-0.6-1.6,1.7c-0.8,0.6-1.6,0.7-2.3,1.4
				c-0.3,0.3-0.2,1.2-0.3,1.4c-0.8,1.1-1.6,1.5-2.6,2c-2.1,1.1-4.2,1.4-6.2,2.6c-0.1,0-0.2,0.1-0.1,0.2c1.3,3.4,4.6,4.6,7.7,5.8
				c4.9,1.8,10.1,3,15.2,4.4c11.4,3.2,22.8,6.4,34.6,8.2c10.4,1.6,21,2.5,31.4,1c6.1-0.9,12.5-2.1,12.3-9.9c0-0.2-0.7-0.1-0.7,0.2
				c-0.1,2.3-0.8,4.2-2.2,5.8c-0.1,0.2,0.2,0.2,0.3,0.2c0.6,0.3,1.2,0.5,1.8,0.8c0.1,0.1,0.4,0,0.5,0c-1.1,0.4-0.5,5.3,0.4,6.1
				c1.3,1.3,5.8,0.9,7.2,0.7c0.8-0.1,1.5,0.1,2-0.6c0.6-0.8,0.4-3.7,0.5-4.8C547.8,285.6,547.9,282.9,548.1,280
				c0-0.2-0.7-0.1-0.7,0.1c-0.1,2.5-0.3,5-0.5,7.4c-0.1,1.2-0.2,2.5-0.4,3.7c0.4,1.7-0.1,2.3-1.4,2c-0.4,0.1-4.7,0.1-4.8,0.1
				c-3-0.9-2.7-4.3-2.6-6.6c0-0.2-0.4-0.1-0.5-0.1c0.8-0.3-1.2-1.3-1.1-1c-0.1-0.4,1.4-2.7,1.3-2.6c0.5-1.3,0.5-1.7,0.4-3.1
				c0-0.2-0.7-0.1-0.7,0.2c0.2,7.6-7.7,8.9-13.3,9.5c-5.9,0.7-12,0.7-17.9,0.2c-11.3-1-22.4-3.2-33.3-6.1c-4.8-1.3-9.6-2.6-14.4-4
				c-5.3-1.5-11.4-2.5-16.4-5.2c-0.8-0.4-3.7-1.7-3.7-2.7c0-0.1,3.4-3.2,3.5-3.3c0.9-0.5,2.6-0.3,3.4-0.8c2.4-1.7,0.9-4.4,4.9-4.8
				c0.1,0,0.4-0.1,0.4-0.2c1.1-6.3,3.4-12.3,7.1-17.5c1.9-2.8,4.2-5.3,6.7-7.6c1.4-1.3,3.3-3.4,5.1-3.9c0.8-0.2,1-1.2-0.7,0.8
				c-4,4.6-7.6,9.5-10.4,15c-1.2,2.5-2.3,5.1-3.2,7.7c-0.4,1.3-0.8,2.6-1.1,4c-0.6,2.6-0.2,4.2-3,1.8c-0.2-0.2-0.9,0.1-0.7,0.3
				c0.3,0.3,2.9,2.1,2.9,2.1c0,0.3,0.7,0.2,0.7-0.1c-0.3,2.1,22.3,5.8,25.1,6.3c8.7,1.5,17.6,2.5,26.4,3.2c9.5,0.7,19,1,28.5,1
				c5.2,0,9.5-0.9,13.4-4.6c0.3-0.3-0.4-0.3-0.6-0.1c-4.9,4.6-11,4.3-17.3,4.3c-5.1-0.1-10.1-0.2-15.2-0.4
				c-10.4-0.5-20.7-1.5-31-3.1c-5-0.8-10.1-1.7-15.1-2.8c-2.2-0.5-4.4-1.1-6.6-1.6c-3.7-0.9-7.4-1-7.1-5.4c0.7-8.6,6.8-17.8,12-24.2
				c13.4-16.4,43.8-18.7,60.9-7c6.8,4.6,11.6,11.6,14.6,19.2c0.7,1.8,2,3.8-0.1,1c-0.8-1.1-1.8-2.1-2.9-2.9
				c-2.6-1.8-6.4-2.9-9.5-3.1c-14.9-0.8-20.7,18-21.4,29.6c0,0.3,0.7,0.2,0.7-0.1c0.4-7.3,1.9-14.9,6.3-21c4-5.5,9.9-9.3,17.1-7.7
				c4.3,1,12.3,5.5,11.9,11c0,0.3,0.7,0.2,0.7-0.1c-0.3,3.7,1.1,7.7,1.6,11.4c0.5,4,0.7,8,0.7,12.1
				C547.3,280.4,548.1,280.3,548.1,280z"/>
			<path d="M499.4,228.3c-6.9,3.4-12.9,8.1-17.4,14.4c-6,8.5-6.5,17.8-9.2,27.6c-0.1,0.3,0.7,0.2,0.7-0.1c1.6-5.8,1.9-12,3.9-17.7
				c1.8-5,4.8-9.7,8.3-13.7c3.8-4.2,8.6-7.9,13.9-10.2c7-3,14.3-0.9,21.6-1.2c0.3,0,0.8-0.4,0.3-0.4
				C514,227.3,506.6,225.3,499.4,228.3c-0.5,0.2,0,0.4,0.3,0.3c7-3,14.3-0.9,21.6-1.2c0.3,0,0.8-0.4,0.3-0.4
				c-6.2,0.2-12.7-1.4-18.8,0.1c-5.2,1.3-10.1,4.7-14,8.1c-4.4,3.8-7.9,8.5-10.5,13.7c-3.3,6.7-3.5,14.3-5.5,21.4
				c-0.1,0.3,0.7,0.2,0.7-0.1c2.4-8.7,2.7-17.2,7.5-25.1c4.5-7.3,11-12.8,18.6-16.5C500.1,228.4,499.7,228.1,499.4,228.3z"/>
			<path d="M542.3,278.7c-17.4,3.7-33.7,1.7-51.1-0.8c-15.5-2.3-31.1-4.6-45.7-10.7c-0.2-0.1-0.9,0.2-0.6,0.4
				c18,7.6,37.4,9.4,56.5,12.4c8.6,1.4,17.3,1.9,26.1,1.3c6.3-0.5,15.4-0.4,20.2-5.3c0.3-0.3-0.4-0.3-0.6-0.1
				C545.9,277.3,544.3,278.3,542.3,278.7c-0.4,0.1-0.3,0.5,0.1,0.4c2.1-0.7,3.8-1.5,5.3-3.1c0.3-0.3-0.4-0.3-0.6-0.1
				c-3.8,3.8-10.6,4.1-15.8,4.7c-4.3,0.5-8.6,0.6-12.9,0.6c-8.6-0.1-17-1.7-25.4-2.9c-16.1-2.4-32.3-4.6-47.4-11
				c-0.2-0.1-0.9,0.2-0.6,0.4c15.7,6.6,32.6,8.8,49.4,11.3c16.3,2.4,31.7,3.7,48,0.2C542.9,279,542.8,278.6,542.3,278.7z"/>
		</g>
	</g>
	<g>
		<path class="st10" d="M371.4,453.3c-0.2-0.7-0.2-1.4,0.3-2.2l0.4-0.5c0.8-1.2,1.7-2.2,4.4-1.6l0.4,0.1c3.5,0.9,3.7,1.2,6.6,2.1
			l0.9,0.3c2.8,0.9,3.3,1.3,3.7,2.7l0.1,0.6c0.2,0.7,0.2,1.3,0.2,1.4l-0.1,0.9c-0.1,0.3-0.8,1.7-2.5,1.3l-0.7-0.2
			c-1.9-0.4-12-3.2-12.1-3.2C372.2,454.6,371.6,454.2,371.4,453.3z"/>
		<path class="st10" d="M389.1,462.5c-0.6,1.8-20.7,1.5-20.7,1.5l-1.1-0.3c-2.5-0.5-1.2-9,1.5-8.8l1.6,0.4l17,3.4l1.5,0.3
			c0.2,0.1,1.4,0.9,0.9,2.5L389.1,462.5z"/>
		<path class="st10" d="M388.1,464.5c5.3,4.3-16.6,8.3-20.6,7.2l-0.6-0.2c-3.5-1.8-0.2-7.2,2.7-7.4h0.4
			C372.9,464,386.5,463.1,388.1,464.5L388.1,464.5z"/>
		<path class="st10" d="M369.3,473.8c-0.8,1.2-2.9,4.3,0.1,6.3c0.7,0.5,2.4,0.9,3,0.8c6.7-1.4,14.8-5.6,15.7-7.9l-0.2-2.8l-1-0.2
			c0.1-0.2-7.9-0.1-17,2.8L369.3,473.8z"/>
	</g>
	
		<image style="overflow:visible;enable-background:new    ;" width="512" height="512" xlink:href="junit5-logo.png"  transform="matrix(9.874887e-02 0 0 9.874887e-02 391.6405 434.8203)">
	</image>
</g>
<g id="flowRoot5763" transform="translate(-2.2268386,3.3339304)">
</g>
<g id="flowRoot5773" transform="translate(-3.0349635,9.3725)">
</g>
<rect id="rect4799-6-8-3" y="633.6" class="st1" width="595.3" height="208.2"/>
<g id="g5902" transform="matrix(1.2833263,0,0,1.2833263,1487.7059,1035.0505)">
	<g id="flowRoot3915-1" transform="translate(-649.1227,-316.58845)">
		<path id="path3282-6" inkscape:connector-curvature="0" class="st24" d="M-175.1,61.4c0,1.6-0.2,3.2-0.6,4.6
			c-0.4,1.4-0.9,2.7-1.9,3.7c-0.9,1-2.1,1.9-3.6,2.6c-1.5,0.6-3.4,0.9-5.7,0.9c-2.2,0-4-0.3-5.6-0.9c-1.5-0.6-2.8-1.2-3.6-1.9
			l2.2-4.8c0.9,0.6,1.8,1,2.9,1.6c1.2,0.5,2.4,0.8,3.6,0.8c2.1,0,3.6-0.5,4.6-1.5s1.4-2.8,1.4-5.3V38.8h6.2L-175.1,61.4"/>
		<path id="path3284-1" inkscape:connector-curvature="0" class="st24" d="M-154.2,73.2c-2.3,0-4.3-0.3-5.9-0.9
			c-1.6-0.7-3-1.6-4.2-2.8c-1-1.2-1.9-2.6-2.4-4.3c-0.5-1.6-0.8-3.4-0.8-5.3v-21h6.2v20.5c0,1.5,0.2,2.8,0.5,3.9
			c0.4,1,0.9,1.9,1.4,2.7c0.7,0.7,1.4,1.1,2.3,1.5c0.9,0.3,1.8,0.5,2.9,0.5c1,0,2.1-0.2,2.9-0.5c0.9-0.3,1.6-0.9,2.3-1.5
			c0.7-0.7,1.1-1.5,1.4-2.7c0.4-1.1,0.6-2.4,0.6-3.9V38.8h6.2v21.1c0,1.9-0.3,3.7-0.9,5.3c-0.5,1.6-1.3,3-2.5,4.3
			c-1,1.2-2.5,2.2-4.2,2.8C-149.9,72.9-151.9,73.2-154.2,73.2"/>
		<path id="path3286-0" inkscape:connector-curvature="0" class="st24" d="M-117.3,43.4c-3.5,0-6.2,1-8,3.2s-2.8,5.1-2.8,8.9
			c0,1.8,0.2,3.5,0.7,5s1.1,2.8,1.9,3.8c0.9,1,1.9,1.9,3.2,2.6c1.3,0.6,2.8,0.9,4.6,0.9c1,0,2,0,2.8-0.1s1.4-0.2,1.8-0.4v-12h6.2
			v16.1c-0.9,0.3-2.3,0.7-4.3,1s-4.4,0.6-6.9,0.6s-4.6-0.4-6.6-1.1c-2-0.8-3.7-1.9-5.1-3.4c-1.4-1.5-2.5-3.3-3.2-5.5
			c-0.8-2.2-1.1-4.6-1.1-7.5s0.4-5.3,1.2-7.5c0.9-2.2,2.1-4,3.5-5.5c1.5-1.5,3.2-2.7,5.2-3.4c2-0.8,4.2-1.1,6.5-1.1
			c1.5,0,2.9,0.1,4.2,0.4c1.2,0.2,2.3,0.4,3.1,0.7c0.9,0.3,1.6,0.6,2.2,0.9c0.6,0.3,0.9,0.5,1.2,0.7l-1.8,5c-0.9-0.6-2.2-1-3.6-1.4
			C-114.2,43.7-115.7,43.4-117.3,43.4"/>
	</g>
	<g id="text3927-1" transform="translate(-952.12858,-907.87941)">
		<path id="path3267-8" inkscape:connector-curvature="0" class="st24" d="M64.2,682.5c-3.5,0-6.2,1-8,3.2s-2.8,5.1-2.8,8.9
			c0,1.8,0.2,3.5,0.7,5s1.1,2.8,1.9,3.8c0.9,1,1.9,1.9,3.2,2.6c1.3,0.6,2.8,0.9,4.6,0.9c1,0,2,0,2.8-0.1c0.8-0.1,1.4-0.2,1.8-0.4
			v-12h6.2v16.1c-0.9,0.3-2.3,0.7-4.3,1s-4.4,0.6-6.9,0.6c-2.5,0-4.6-0.4-6.6-1.1c-2-0.8-3.7-1.9-5.1-3.4c-1.4-1.5-2.5-3.3-3.2-5.5
			c-0.8-2.2-1.1-4.6-1.1-7.5c0-2.8,0.4-5.3,1.2-7.5c0.9-2.2,2.1-4,3.5-5.5c1.5-1.5,3.2-2.7,5.2-3.4c2-0.8,4.2-1.1,6.5-1.1
			c1.5,0,2.9,0.1,4.2,0.4c1.2,0.2,2.3,0.4,3.1,0.7c0.9,0.3,1.6,0.6,2.2,0.9c0.6,0.3,0.9,0.5,1.2,0.7l-1.8,5c-0.9-0.6-2.2-1-3.6-1.4
			C67.2,682.8,65.7,682.5,64.2,682.5"/>
		<path id="path3269-1" inkscape:connector-curvature="0" class="st24" d="M104.3,698.8c0,2-0.3,3.8-0.9,5.5c-0.6,1.6-1.4,3-2.5,4.3
			c-1,1.1-2.4,2.1-3.9,2.8c-1.5,0.7-3.1,0.9-4.9,0.9s-3.5-0.3-4.9-0.9c-1.5-0.7-2.8-1.5-3.8-2.8c-1-1.1-1.9-2.6-2.6-4.3
			c-0.6-1.6-0.9-3.5-0.9-5.5s0.3-3.8,0.9-5.4c0.6-1.6,1.4-3,2.6-4.3c1.1-1.1,2.4-2.1,3.9-2.7c1.5-0.7,3.1-0.9,4.9-0.9
			s3.4,0.3,4.9,0.9c1.5,0.6,2.8,1.5,3.9,2.7s1.9,2.6,2.5,4.3C104,695,104.3,696.8,104.3,698.8 M98.2,698.8c0-2.6-0.6-4.6-1.6-6
			c-1-1.5-2.6-2.3-4.6-2.3c-1.9,0-3.5,0.8-4.6,2.3c-1,1.4-1.6,3.4-1.6,6s0.6,4.6,1.6,6.1c1.1,1.5,2.7,2.3,4.6,2.3s3.4-0.8,4.6-2.3
			C97.8,703.4,98.2,701.4,98.2,698.8 M87,682c-0.9,0-1.6-0.3-2.3-0.9c-0.7-0.6-0.9-1.4-0.9-2.4s0.3-1.8,0.9-2.4
			c0.7-0.6,1.4-0.9,2.3-0.9s1.6,0.3,2.3,0.9c0.7,0.6,1,1.4,1,2.4s-0.4,1.8-1,2.4C88.6,681.7,87.9,682,87,682 M97.1,682
			c-0.9,0-1.6-0.3-2.4-0.9c-0.7-0.6-0.9-1.4-0.9-2.4s0.3-1.8,0.9-2.4c0.7-0.6,1.4-0.9,2.4-0.9c0.9,0,1.6,0.3,2.3,0.9
			c0.7,0.6,0.9,1.4,0.9,2.4s-0.3,1.8-0.9,2.4C98.7,681.7,97.9,682,97.1,682"/>
		<path id="path3271-8" inkscape:connector-curvature="0" class="st24" d="M124.8,691.5c-0.5-0.2-1.1-0.3-2.1-0.5
			c-0.9-0.2-1.8-0.3-2.9-0.3c-0.7,0-1.3,0.1-2.1,0.2c-0.8,0.1-1.2,0.3-1.5,0.4v20.4h-5.9v-24.2c1.1-0.4,2.6-0.9,4.3-1.1
			c1.7-0.4,3.6-0.6,5.7-0.6c0.4,0,0.9,0,1.3,0.1c0.5,0,1,0.1,1.5,0.2c0.5,0.1,1,0.2,1.5,0.3s0.9,0.2,1.1,0.3L124.8,691.5"/>
		<path id="path3273-5" inkscape:connector-curvature="0" class="st24" d="M138.7,712.1c-1.7,0-3.2-0.2-4.4-0.6
			c-1.1-0.4-2.1-0.9-2.8-1.5c-0.7-0.7-1.1-1.5-1.4-2.5c-0.3-1-0.4-2.2-0.4-3.4v-29.2l5.9-0.9v29.1c0,0.8,0.1,1.3,0.2,1.8
			c0.1,0.5,0.4,0.9,0.7,1.2s0.7,0.6,1.1,0.8s1.1,0.3,1.9,0.4L138.7,712.1"/>
		<path id="path3275-0" inkscape:connector-curvature="0" class="st24" d="M150.2,711.6h-5.9v-25.4h5.9V711.6 M150.9,678.7
			c0,1.1-0.4,2-1,2.7c-0.8,0.7-1.5,0.9-2.6,0.9s-1.9-0.3-2.6-0.9c-0.8-0.7-1-1.5-1-2.7c0-1.1,0.4-2,1-2.7c0.8-0.7,1.6-0.9,2.6-0.9
			s1.8,0.3,2.6,0.9C150.5,676.7,150.9,677.6,150.9,678.7"/>
		<path id="path3277-1" inkscape:connector-curvature="0" class="st24" d="M157.4,679.4l5.9-0.9v7.7h9v4.9h-9v10.3
			c0,2.1,0.3,3.5,0.9,4.4s1.7,1.3,3.3,1.3c1,0,2-0.1,2.8-0.4c0.9-0.2,1.5-0.5,2-0.7l0.9,4.6c-0.7,0.3-1.6,0.6-2.7,0.9
			c-1.1,0.3-2.4,0.5-3.9,0.5c-1.8,0-3.3-0.3-4.6-0.8c-1.2-0.5-2.2-1.1-2.8-2.1c-0.8-0.9-1.2-2.1-1.5-3.3c-0.3-1.3-0.5-2.8-0.5-4.6
			L157.4,679.4"/>
		<path id="path3279-5" inkscape:connector-curvature="0" class="st24" d="M195.8,690.3c-0.7,0.7-1.5,1.6-2.6,2.8
			c-1,1.2-2.2,2.6-3.3,4.2c-1.2,1.5-2.4,3-3.6,4.7c-1.2,1.6-2.3,3.1-3.2,4.6h13v4.9h-20.2V708c0.8-1.3,1.6-2.8,2.7-4.3
			c1-1.5,2.2-3,3.3-4.6s2.3-3,3.3-4.5c1.1-1.4,2.2-2.6,3-3.6h-11.7v-4.9h19.3V690.3"/>
	</g>
	<path id="path10-5" inkscape:connector-curvature="0" sodipodi:nodetypes="cccccc" class="st25" d="M-727.9-205
		c7.4,7.5-3.4,15.6-3.4,15.6s11.5-3.7,9.2-16c-1.8-4.8-17.8-22.5,1.1-40.4C-720.7-245.8-747.9-233.2-727.9-205L-727.9-205z"/>
	<path id="path10-7-2" inkscape:connector-curvature="0" sodipodi:nodetypes="cccccc" class="st26" d="M-739.8-280.5
		c0,0,14.3,28.6,6.2,37.3c-12.9,20.3-16.9,20.2,2.6,49.7c-15.7-12.9-23.9-28.4-19.4-36.1C-736.2-246.7-732.2-254.5-739.8-280.5
		L-739.8-280.5z"/>
</g>
<text transform="matrix(1 0 0 1 33.4998 694.603)" class="st0 st2 st3">Mittwoch, 25.01.2017</text>
<text transform="matrix(1 0 0 1 33.4998 718.603)" class="st0 st2 st3">19:00 Uhr</text>
<text transform="matrix(1 0 0 1 33.4998 742.603)" class="st0 st2 st27">Hochschule Zittau/Görlitz</text>
<g>
	<text transform="matrix(1 0 0 1 33.4998 766.603)" class="st28"><tspan x="0" y="0" class="st0 st2 st27">Brückenstraße 1 </tspan><tspan x="0" y="24" class="st0 st2 st27">Haus GII, Raum 0.11</tspan><tspan x="0" y="48" class="st0 st2 st27">02826 Görlitz</tspan></text>
</g>
<g>
</g>
<text transform="matrix(1 0 0 1 36.2049 814.6033)" class="st2 st3"> </text>
<rect id="rect4799-6_1_" x="41.2" y="286" class="st20" width="315.3" height="176.6"/>
<g>
	<rect x="36" y="292" class="st29" width="295.5" height="301"/>
	<rect id="rect5741_1_" x="34.5" y="253.8" class="st1" width="298.4" height="36.8"/>
	<text transform="matrix(0.982 0 0 1 45.0361 318.124)" class="st2 st30">Unit Testing in Java - dafür ist </text>
	<text transform="matrix(0.982 0 0 1 45.0361 339.7236)" class="st2 st30">JUnit das Werkzeug der Wahl. Die </text>
	<text transform="matrix(0.982 0 0 1 45.0361 361.3232)" class="st2 st30">letzte Version JUnit 4 tat dabei </text>
	<text transform="matrix(0.982 0 0 1 45.0361 382.9238)" class="st2 st30">viele Jahre ihre Dienste und </text>
	<text transform="matrix(0.982 0 0 1 45.0361 404.5234)" class="st2 st30">wurde kontinuierlich weiterent-</text>
	<text transform="matrix(0.982 0 0 1 45.0361 426.124)" class="st2 st30">wickelt, stieß allerdings nun doch </text>
	<text transform="matrix(0.982 0 0 1 45.0361 447.7236)" class="st2 st30">an ihre Grenzen. Der Nach-</text>
	<text transform="matrix(0.982 0 0 1 45.0361 469.3232)" class="st2 st30">folger JUnit 5 ist eine komplette </text>
	<text transform="matrix(0.982 0 0 1 45.0361 490.9238)" class="st2 st30">Neuentwicklung und steht kurz </text>
	<text transform="matrix(0.982 0 0 1 45.0361 512.5234)" class="st2 st30">vor dem Release. Wir wollen uns </text>
	<text transform="matrix(0.982 0 0 1 45.0361 534.124)" class="st2 st30">ansehen, welche Neuerungen </text>
	<text transform="matrix(0.982 0 0 1 45.0361 555.7236)" class="st2 st30">JUnit 5 mit sich bringt und was es </text>
	<text transform="matrix(0.982 0 0 1 45.0361 577.3232)" class="st2 st30">beim Umstieg zu beachten gilt. </text>
	<text transform="matrix(1 0 0 1 46.3285 281.5823)" class="st0 st2 st27">Thema</text>
</g>
<line class="st31" x1="418.5" y1="411.5" x2="423.5" y2="412.1"/>
<path class="st6" d="M400.3,416c-0.2-2.2-0.3-4.4-0.5-6.5l23.4,3.3v6.6L400.3,416z"/>
<polygon class="st6" points="423.2,412.8 424.4,412.3 424.4,415.8 423.2,415.8 "/>
<path class="st32" d="M402.1,408.5"/>
<path class="st32" d="M399.4,409.3"/>
<path class="st32" d="M401.7,408.4"/>
<path class="st32" d="M425.1,411.8"/>
<line class="st32" x1="424.9" y1="411.8" x2="400.9" y2="408.4"/>
<line class="st32" x1="399.6" y1="409.3" x2="401.2" y2="408.3"/>
</svg>
