<?xml version="1.0" encoding="UTF-8" standalone="no"?>
<!-- Created with Inkscape (http://www.inkscape.org/) -->

<svg
   xmlns:dc="http://purl.org/dc/elements/1.1/"
   xmlns:cc="http://creativecommons.org/ns#"
   xmlns:rdf="http://www.w3.org/1999/02/22-rdf-syntax-ns#"
   xmlns:svg="http://www.w3.org/2000/svg"
   xmlns="http://www.w3.org/2000/svg"
   xmlns:xlink="http://www.w3.org/1999/xlink"
   xmlns:sodipodi="http://sodipodi.sourceforge.net/DTD/sodipodi-0.dtd"
   xmlns:inkscape="http://www.inkscape.org/namespaces/inkscape"
   width="210mm"
   height="297mm"
   id="svg2"
   version="1.1"
   inkscape:version="0.48.3.1 r9886"
   sodipodi:docname="JUGG-Plakat-gruen2.svg"
   inkscape:export-filename="/home/manuel/workspaces/juggr/grafiken/Plakat/svg/JUGG-Plakat-gruen2_.png"
   inkscape:export-xdpi="90.099998"
   inkscape:export-ydpi="90.099998">
  <defs
     id="defs4">
    <linearGradient
       id="linearGradient4188">
      <stop
         style="stop-color:#4eb006;stop-opacity:1;"
         offset="0"
         id="stop4190" />
      <stop
         style="stop-color:#80ed00;stop-opacity:0.5;"
         offset="1"
         id="stop4192" />
    </linearGradient>
    <linearGradient
       inkscape:collect="always"
       xlink:href="#linearGradient4188"
       id="linearGradient4194"
       x1="548.57141"
       y1="178.07646"
       x2="350"
       y2="980.93353"
       gradientUnits="userSpaceOnUse" />
  </defs>
  <sodipodi:namedview
     id="base"
     pagecolor="#ffffff"
     bordercolor="#666666"
     borderopacity="1.0"
     inkscape:pageopacity="0.0"
     inkscape:pageshadow="2"
     inkscape:zoom="0.9899495"
     inkscape:cx="254.52548"
     inkscape:cy="264.90344"
     inkscape:document-units="px"
     inkscape:current-layer="layer1"
     showgrid="false"
     inkscape:window-width="1366"
     inkscape:window-height="718"
     inkscape:window-x="0"
     inkscape:window-y="0"
     inkscape:window-maximized="1"
     showguides="true"
     inkscape:guide-bbox="true">
    <inkscape:grid
       type="xygrid"
       id="grid3050"
       empspacing="5"
       visible="true"
       enabled="true"
       snapvisiblegridlinesonly="true" />
  </sodipodi:namedview>
  <metadata
     id="metadata7">
    <rdf:RDF>
      <cc:Work
         rdf:about="">
        <dc:format>image/svg+xml</dc:format>
        <dc:type
           rdf:resource="http://purl.org/dc/dcmitype/StillImage" />
        <dc:title />
      </cc:Work>
    </rdf:RDF>
  </metadata>
  <g
     inkscape:label="Ebene 1"
     inkscape:groupmode="layer"
     id="layer1">
    <rect
       style="fill:url(#linearGradient4194);fill-opacity:1;fill-rule:evenodd;stroke:#000000;stroke-width:1px;stroke-linecap:butt;stroke-linejoin:miter;stroke-opacity:1"
       id="rect3052"
       width="742.85712"
       height="1052.8572"
       x="1.4285715"
       y="0.93361062" />
    <g
       id="g3029"
       transform="matrix(0.86721987,0,0,0.7861038,76.093173,277.07143)">
      <path
         id="path2986"
         d="m 48.859,43.518 c 8.424,17.64 2.736,140.832 -7.128,184.032 -9.864,43.272 -19.728,98.28 -22.032,144.576 -1.008,19.728 2.016,27.504 14.904,27.504 22.752,0 51.624,-47.952 87.84,-46.872 36.288,1.08 47.808,55.008 64.8,54.648 16.992,-0.36 30.672,-6.264 30.816,-58.752 C 218.563,191.981 87.235,64.973 48.859,43.518 l 0,0 0,0 0,0 z"
         clip-rule="evenodd"
         inkscape:connector-curvature="0"
         style="fill-rule:evenodd" />
      <path
         id="path2988"
         d="m 162.763,168.726 c 7.992,13.464 28.368,3.096 29.232,-12.096 0.864,-15.192 -1.368,-34.344 -11.232,-35.064 -9.864,-0.72 -16.92,-10.584 -26.784,-11.304 -9.864,-0.72 -20.448,9.144 -25.056,-3.96 -4.608,-13.104 12.384,-18.648 25.056,-20.736 -11.304,-11.304 -17.928,-23.832 -22.896,-36.864 -4.968,-13.032 -8.64,-24.984 5.256,-30.096 13.896,-5.112 12.744,21.168 28.656,33.192 -4.68,-17.712 -6.408,-25.056 -6.048,-35.352 0.36,-10.296 -0.36,-18.144 14.256,-16.128 14.616,2.016 8.28,32.4 19.656,44.784 3.456,-11.736 5.544,-26.64 13.896,-32.76 8.352,-6.12 27.36,-6.264 15.264,18.864 -12.096,25.128 3.528,38.736 -0.144,58.536 -3.672,19.8 -15.048,16.2 -19.944,28.944 -4.896,12.744 2.88,41.76 -6.336,54.792 -9.216,13.032 -10.872,33.048 -4.896,49.032 -18.36,-17.136 -27.936,-53.784 -27.936,-53.784 l 0,0 0,0 0,0 z"
         clip-rule="evenodd"
         inkscape:connector-curvature="0"
         style="fill-rule:evenodd" />
      <path
         id="path2990"
         d="m 48.355,185.646 c -7.416,50.832 -33.192,56.88 -34.488,77.976 -1.296,21.096 6.84,23.112 6.336,42.624 -0.504,19.512 -17.856,27.432 -19.944,38.016 -2.088,10.584 8.928,13.968 15.336,13.968 6.408,0 12.816,-28.08 15.408,-45.936 2.592,-17.856 -8.496,-28.368 -8.496,-40.608 0,-12.24 16.056,-34.632 13.104,-14.976 13.32,-21.024 19.657,-47.809 12.744,-71.064 l 0,0 0,0 0,0 z"
         clip-rule="evenodd"
         inkscape:connector-curvature="0"
         style="fill-rule:evenodd" />
      <path
         id="path2992"
         d="m 58.292,205.013 c -5.616,27.504 -40.68,181.08 -22.824,183.024 17.856,1.944 43.272,-47.52 84.888,-47.16 41.688,0.36 58.104,55.44 68.256,55.08 10.152,-0.36 16.848,3.6 17.928,-58.464 1.08,-62.064 -36.792,-141.336 -59.184,-176.256 -30.385,1.944 -63.073,26.281 -89.064,43.776 l 0,0 0,0 0,0 z"
         clip-rule="evenodd"
         inkscape:connector-curvature="0"
         style="fill:#ffffff;fill-rule:evenodd" />
      <g
         id="g2994">
        <path
           id="path2996"
           d="m 139.162,172.181 c -1.95,-18.251 -19.12,-25.421 -35.661,-23.168 -13.889,1.893 -32.403,13.613 -34.107,28.64 -1.921,16.937 11.402,32.522 28.361,33.203 15.03,0.604 31.176,-6.668 37.93,-20.79 2.73,-5.704 3.797,-11.578 3.477,-17.885"
           inkscape:connector-curvature="0"
           style="fill:none" />
        <path
           id="path2998"
           d="m 147.082,171.533 c -1.662,-17.195 -14.407,-27.988 -30.895,-30.627 -15.924,-2.549 -33.26,4.998 -44.408,16.146 -12.538,12.538 -13.039,29.978 -4.26,44.833 8.661,14.657 27.847,19.501 43.563,15.835 21.506,-5.015 37.398,-23.824 36,-46.187"
           inkscape:connector-curvature="0" />
        <radialGradient
           gradientUnits="userSpaceOnUse"
           r="54.7155"
           cy="167.06931"
           cx="86.629898"
           id="SVGID_1_">
          <stop
             id="stop3001"
             style="stop-color:#FFFFFF"
             offset="0" />
          <stop
             id="stop3003"
             style="stop-color:#FBC8B4"
             offset="0.0604" />
          <stop
             id="stop3005"
             style="stop-color:#FBC3B0"
             offset="0.0712" />
          <stop
             id="stop3007"
             style="stop-color:#F7978B"
             offset="0.1829" />
          <stop
             id="stop3009"
             style="stop-color:#F4716B"
             offset="0.2995" />
          <stop
             id="stop3011"
             style="stop-color:#F15251"
             offset="0.4199" />
          <stop
             id="stop3013"
             style="stop-color:#EF3A3D"
             offset="0.5453" />
          <stop
             id="stop3015"
             style="stop-color:#EE292F"
             offset="0.6778" />
          <stop
             id="stop3017"
             style="stop-color:#ED1F27"
             offset="0.822" />
          <stop
             id="stop3019"
             style="stop-color:#ED1C24"
             offset="1" />
        </radialGradient>
        <path
           id="path3021"
           d="m 139.162,177.941 c -1.493,15.627 -13.947,28.182 -28.944,31.824 -15.87,3.854 -33.393,-2.257 -39.096,-18.576 -2.912,-8.332 -2.37,-16.879 2.637,-24.198 4.223,-6.171 11.033,-11 17.779,-14.066 13.924,-6.326 33.832,-7.029 43.531,7.077 3.675,5.346 4.318,11.639 4.093,17.939"
           inkscape:connector-curvature="0"
           style="fill:url(#SVGID_1_);stroke:#000000" />
      </g>
    </g>
    <text
       xml:space="preserve"
       style="font-size:56px;font-style:normal;font-variant:normal;font-weight:normal;font-stretch:normal;text-align:start;line-height:125%;letter-spacing:0px;word-spacing:0px;writing-mode:lr-tb;text-anchor:start;fill:#ffffff;fill-opacity:1;stroke:none;font-family:Ubuntu;-inkscape-font-specification:Ubuntu"
       x="72.455879"
       y="103.87282"
       id="text3852"
       sodipodi:linespacing="125%"><tspan
         sodipodi:role="line"
         x="72.455879"
         y="103.87282"
         id="tspan4198"
         style="font-size:80px;font-style:normal;font-variant:normal;font-weight:500;font-stretch:normal;fill:#ffffff;stroke:#292929;stroke-width:2.5;stroke-miterlimit:4;stroke-opacity:1;stroke-dasharray:none;font-family:Ubuntu;-inkscape-font-specification:Ubuntu Medium">Java User Group</tspan></text>
    <g
       id="g3991"
       transform="translate(20.135165,0)">
      <text
         transform="scale(0.89867478,1.1127496)"
         sodipodi:linespacing="125%"
         id="text3858-1"
         y="622.39294"
         x="148.62836"
         style="font-size:35.94699097px;font-style:normal;font-variant:normal;font-weight:normal;font-stretch:normal;text-align:start;line-height:125%;letter-spacing:0px;word-spacing:0px;writing-mode:lr-tb;text-anchor:start;fill:#000000;fill-opacity:1;stroke:none;font-family:Arial;-inkscape-font-specification:Arial"
         xml:space="preserve"><tspan
           style="font-style:normal;font-variant:normal;font-weight:bold;font-stretch:normal;letter-spacing:-1.95000005px;fill:#000000;fill-opacity:1;stroke:none;font-family:Droid Sans;-inkscape-font-specification:Droid Sans"
           y="622.39294"
           x="148.62836"
           id="tspan3860-7"
           sodipodi:role="line"
           dx="0">jeder letzte Mittwoch - alle 2 Monate</tspan></text>
      <text
         transform="scale(0.89867478,1.1127496)"
         sodipodi:linespacing="125%"
         id="text3858-1-9"
         y="663.96704"
         x="553.32184"
         style="font-size:35.94699097px;font-style:normal;font-variant:normal;font-weight:normal;font-stretch:normal;text-align:start;line-height:125%;letter-spacing:0px;word-spacing:0px;writing-mode:lr-tb;text-anchor:start;fill:#000000;fill-opacity:1;stroke:none;font-family:Arial;-inkscape-font-specification:Arial"
         xml:space="preserve"><tspan
           style="font-style:normal;font-variant:normal;font-weight:bold;font-stretch:normal;fill:#000000;fill-opacity:1;stroke:none;font-family:Droid Sans;-inkscape-font-specification:Droid Sans"
           y="663.96704"
           x="553.32184"
           id="tspan3860-7-4"
           sodipodi:role="line">19:00 Uhr</tspan></text>
    </g>
    <g
       id="g3959"
       transform="translate(28.284271,-88.893423)">
      <path
         inkscape:connector-curvature="0"
         id="path3392"
         d="m 492.51694,273.21429 c -92.79497,0 -168.03125,27.8357 -168.03125,62.15625 0,16.25677 16.90254,31.05048 44.53125,42.125 l -87.0625,72.875 112.4375,-64.59375 c 27.61281,7.36306 61.48379,11.71875 98.125,11.71875 92.79497,0 168.03125,-27.80445 168.03125,-62.125 0,-34.32055 -75.23628,-62.15625 -168.03125,-62.15625 z"
         style="fill:#ffffff;fill-opacity:1;stroke:#000000;stroke-opacity:1" />
      <text
         transform="scale(0.89867478,1.1127496)"
         sodipodi:linespacing="89.999998%"
         id="text3858-1-4"
         y="302.17297"
         x="401.89825"
         style="font-size:35.94699097px;font-style:normal;font-variant:normal;font-weight:normal;font-stretch:normal;text-align:start;line-height:89.99999762%;letter-spacing:0px;word-spacing:0px;writing-mode:lr-tb;text-anchor:start;fill:#000000;fill-opacity:1;stroke:none;font-family:Arial;-inkscape-font-specification:Arial"
         xml:space="preserve"><tspan
           style="font-style:normal;font-variant:normal;font-weight:normal;font-stretch:normal;font-family:Droid Sans;-inkscape-font-specification:Droid Sans"
           y="302.17297"
           x="401.89825"
           id="tspan3959"
           sodipodi:role="line">Termine &amp; Themen</tspan><tspan
           style="font-style:normal;font-variant:normal;font-weight:normal;font-stretch:normal;font-family:Droid Sans;-inkscape-font-specification:Droid Sans"
           id="tspan4166"
           y="334.52527"
           x="401.89825"
           sodipodi:role="line">      hier</tspan></text>
    </g>
    <path
       style="fill:#000000;fill-opacity:1;display:inline"
       d="M 433.53125 778.9375 C 431.86008 778.9215 431.45353 779.13365 431.75 779.90625 C 431.99723 780.55055 431.88719 780.7347 431.40625 780.4375 C 430.90094 780.1252 430.81801 780.35655 431.125 781.15625 C 431.39287 781.85435 431.23864 782.5082 430.75 782.8125 C 430.09212 783.2221 430.0738 783.5845 430.71875 784.625 C 431.19125 785.3874 431.25364 785.90625 430.875 785.90625 C 430.02115 785.90625 430.0491 788.2767 430.90625 788.5625 C 431.84735 788.8762 430.95295 791 429.875 791 C 428.71778 791 428.74333 791.4933 430 792.75 C 430.94116 793.6912 430.93407 793.84225 429.90625 794.59375 C 428.96008 795.28565 428.90751 795.5729 429.625 796.4375 C 430.33499 797.293 430.3266 797.5246 429.5625 798 C 428.81304 798.4663 428.81175 798.8151 429.46875 799.875 C 430.02632 800.7747 430.0587 801.15625 429.5625 801.15625 C 429.09348 801.15625 428.97498 801.909 429.25 803.375 C 429.51389 804.7816 429.42649 805.59375 429 805.59375 C 428.62913 805.59375 428.33225 806.38275 428.34375 807.34375 C 428.40225 812.23525 427.92995 816.0129 427.21875 816.25 C 426.78875 816.3933 426.65207 816.843 426.90625 817.25 C 427.61291 818.3815 427.75926 820.21875 427.15625 820.21875 C 426.86077 820.21875 426.70586 821.79665 426.8125 823.71875 C 426.91913 825.64095 426.762 827.21875 426.4375 827.21875 C 426.11302 827.21875 426.00906 828.0765 426.21875 829.125 C 426.47936 830.428 426.35433 831.03125 425.8125 831.03125 C 425.28554 831.03125 425.19929 831.2845 425.59375 831.8125 C 426.09589 832.4847 426.22234 833.8004 425.84375 834.375 C 425.78615 834.462 425.59752 836.0779 425.40625 838 C 424.7947 844.1458 424.73524 844.6654 424.5625 845.3125 C 424.4692 845.662 424.4407 846.5596 424.5 847.3125 C 424.5593 848.0655 424.3373 848.854 424 849.0625 C 423.66266 849.271 423.53557 850.01825 423.71875 850.71875 C 423.90193 851.41925 423.70205 852.4305 423.28125 852.9375 C 422.86043 853.4445 422.66198 854.0808 422.84375 854.375 C 423.02552 854.669 422.91485 855.33615 422.59375 855.84375 C 422.1624 856.52555 422.0144 856.25235 422 854.84375 C 421.985 853.37755 421.81751 853.17315 421.34375 853.90625 C 421.00497 854.43045 420.72375 857.9088 420.71875 861.625 C 420.70975 868.0682 420.64465 868.3747 419.28125 868.8125 C 418.07046 869.2014 418.02702 869.34235 418.96875 869.59375 C 420.35648 869.96435 420.42382 872.19485 419.09375 874.09375 C 418.54533 874.87675 418.1246 876.1574 418.1875 876.9375 C 418.2504 877.7176 418.2887 879.051 418.25 879.875 L 418.1875 881.375 C 418.2367 890.0987 418.55863 882.6534 417.375 890.0625 C 418.35937 890.1515 418.4699 894.9631 417.5 895.5625 C 417.12668 895.7932 416.96357 896.3729 417.15625 896.875 C 417.34892 897.3772 417.08715 897.95495 416.5625 898.15625 C 417.71963 897.99605 417.75 903.9375 417.75 903.9375 C 417.61662 904.8976 417.7972 910.8481 417.375 917.125 L 416.25 933.625 C 415.90237 934.9321 414.13667 934.6063 411.84375 935.9375 C 411.36331 936.2164 411.75135 940.2565 410.625 940.1875 C 401.34814 939.6153 376.81398 939.18095 357.40625 937.84375 C 353.13247 937.69605 348.92566 937.145 345.09375 937.125 C 344.26239 937.125 342.502 936.9259 334.53125 936.625 C 325.87344 936.2981 324.1427 935.8295 321.5625 935.3125 C 319.88976 934.9774 319.80555 932.31795 319.1875 931.65625 C 318.76884 931.20815 318.40625 930.56235 318.40625 930.21875 C 318.40625 928.81065 317.10419 928.9117 316.4375 930.375 C 315.63825 932.1291 313.79113 932.8849 312.78125 931.875 C 312.3221 931.4158 311.8155 931.4894 311.125 932.0625 C 312.89576 933.1734 303.20792 940.96875 293.125 946.28125 C 293.83678 946.70865 294.10141 947.44165 293.875 948.34375 C 293.42391 950.14105 294.69929 950.9226 295.25 949.1875 C 295.65098 947.9241 295.71942 947.8918 296.875 948.9375 C 298.60617 950.5042 298.37542 951.9576 296.1875 953.25 C 294.59221 954.1924 293.81981 955.7572 288.875 955.4375 L 288.375 959.90625 C 289.67927 959.90625 288.58066 960.99405 289 961.28125 C 289.69711 961.75865 290.34814 962.9038 291.53125 961.4375 C 292.35718 960.4139 292.39759 960.45205 292.03125 961.78125 C 291.43169 963.95675 292.29873 967.163 293.375 966.75 C 293.91372 966.5433 294.28125 966.821 294.28125 967.4375 C 294.28125 967.9996 294.74204 968.80155 295.3125 969.21875 C 296.08408 969.78295 296.12216 969.9535 295.46875 969.9375 C 293.50992 969.8895 292.375 969.4186 292.375 968.625 C 292.375 968.1638 291.92137 967.61595 291.375 967.40625 C 290.82864 967.19655 290.55093 966.7596 290.75 966.4375 C 290.94907 966.1154 290.751 965.7142 290.3125 965.5625 C 289.86435 965.4076 289.21361 966.10635 288.84375 967.15625 L 288.1875 969.03125 L 282.5 969.125 L 276.78125 969.21875 L 276.46875 966.6875 C 276.14184 964.0775 276.09562 964.0623 272.5 964.375 C 271.81641 964.434 271.37455 965.02735 271.34375 965.90625 C 271.31615 966.69265 271.14502 966.96805 270.96875 966.53125 C 270.77806 966.05865 269.47533 965.71875 267.75 965.71875 C 265.3521 965.71875 264.35606 965.3276 261.9375 963.375 C 260.32886 962.0763 258.78801 960.70505 258.53125 960.34375 L 250.8125 953.28125 C 250.5083 952.48855 249.8208 952.32515 247.71875 952.59375 C 237.46349 953.90445 237.71875 953.92145 237.71875 952.46875 C 237.71875 951.72645 237.44323 951.125 237.09375 951.125 C 236.74427 951.125 236.4375 951.5383 236.4375 952.0625 C 236.4375 952.7648 235.70843 953.03125 233.65625 953.03125 C 231.40538 953.03125 230.79983 952.777 230.53125 951.75 C 230.34847 951.051 229.67556 950.49 229.03125 950.5 C 228.13167 950.51 228.05673 950.643 228.71875 951.0625 C 230.36925 952.1083 228.45228 952.2403 220.875 951.6875 C 216.68125 951.3816 210.29965 950.95595 206.6875 950.71875 C 201.99042 950.41035 199.84478 950.00105 199.125 949.28125 C 198.38223 948.53845 198.03775 948.4805 197.84375 949.0625 C 197.69917 949.4962 196.87583 949.84375 196.03125 949.84375 C 194.91927 949.84375 194.5 949.4828 194.5 948.5625 C 194.5 947.5338 194.0816 947.3125 192.28125 947.3125 C 190.68276 947.3125 190.0625 947.5945 190.0625 948.3125 C 190.0625 949.1501 189.47012 949.23345 186.40625 948.90625 C 178.85939 948.10045 178.84375 948.10535 178.84375 946.09375 C 178.84375 945.08355 178.41212 943.84955 177.90625 943.34375 C 176.69268 942.13015 172.90871 942.37415 172.15625 943.71875 C 171.33665 945.18325 170.68709 945.0384 169.84375 943.1875 C 168.60072 940.583 167.00735 938.85975 167.875 936.03125 C 166.20485 936.46795 166.16526 935.5354 167.8125 934.125 C 168.51146 933.5265 169.09375 932.66535 169.09375 932.21875 C 169.09375 930.80585 170.77757 931.3459 171.53125 933 C 172.13168 934.3178 172.68631 934.59375 174.84375 934.59375 C 177.15547 934.59375 177.34722 934.50375 176.5 933.65625 C 175.97578 933.13205 175.04493 932.6875 174.4375 932.6875 C 173.83008 932.6875 173.50584 932.5254 173.71875 932.3125 C 173.93166 932.0992 176.40283 931.959 179.21875 932 C 182.03466 932.041 184.34375 931.8482 184.34375 931.5625 C 184.34375 929.8959 182.45149 928.71545 179.5625 928.59375 C 177.18893 928.49375 176.26907 928.15785 175.5625 927.09375 C 175.05759 926.33335 174.12508 925.6875 173.46875 925.6875 C 172.81242 925.6875 172.28125 925.4656 172.28125 925.1875 C 172.28125 924.3653 166.34937 925.3199 166.0625 926.1875 C 165.91807 926.6243 166.29253 926.96875 166.875 926.96875 C 167.45747 926.96875 167.80523 927.34445 167.65625 927.78125 C 167.50727 928.21815 166.82534 928.4752 166.125 928.375 C 165.42466 928.2747 164.47703 928.6504 164.03125 929.1875 C 163.32565 930.0377 158.28125 930.6378 158.28125 929.875 C 158.28125 929.7288 158.13308 929.1971 157.9375 928.6875 C 157.70091 928.0709 158.13665 927.61535 159.21875 927.34375 C 160.32141 927.06695 160.84375 926.50355 160.84375 925.59375 C 160.84375 924.41645 160.56608 924.31 158.625 924.625 C 157.40822 924.8225 156.23301 924.701 156.03125 924.375 C 155.82948 924.0486 156.11145 923.78125 156.65625 923.78125 C 157.24146 923.78125 157.65625 923.232 157.65625 922.4375 C 157.65625 921.4549 157.33657 921.18755 156.5 921.40625 C 155.7806 921.59445 154.57635 920.9019 153.21875 919.5625 C 150.69402 917.0716 150.28547 917.0135 148.875 918.75 C 148.29476 919.4644 146.95469 920.1343 145.90625 920.25 C 144.1881 920.4398 144.00768 920.6479 144.1875 922.4375 C 144.3951 924.5036 144.01923 924.8127 142.4375 923.8125 C 141.26688 923.0721 140.5133 924.1033 140.5 926.5 C 140.495 927.461 140.22448 928.25 139.875 928.25 C 139.52552 928.25 139.21875 928.01225 139.21875 927.71875 C 139.21875 927.25685 136.52944 925.6875 135.71875 925.6875 C 134.82625 925.6875 135.61787 928.3025 136.6875 928.875 C 137.38645 929.2491 137.96875 929.9054 137.96875 930.3125 C 137.96875 930.8637 137.75497 930.84845 137.1875 930.28125 C 136.76812 929.86195 135.8857 929.53125 135.21875 929.53125 C 134.23208 929.53125 134.07097 929.82045 134.40625 931.15625 C 135.05541 933.74275 134.06625 932.7115 126.4375 922.8125 C 122.08859 917.1693 118.8575 913.50315 118.03125 913.34375 C 117.29111 913.20095 113.73842 912.7454 110.15625 912.3125 C 104.19588 911.592 103.65625 911.4179 103.65625 910.1875 C 103.65625 909.448 103.07396 908.3485 102.375 907.75 C 101.64851 907.128 101.09375 906.9645 101.09375 907.375 C 101.09375 907.8672 99.97452 907.97085 97.53125 907.71875 C 94.33987 907.38935 93.95285 907.4908 93.65625 908.625 C 93.36978 909.7204 92.9131 909.85975 90.375 909.59375 C 88.76072 909.42455 87.23086 909.24375 86.96875 909.21875 C 86.70664 909.19375 86.5 907.96485 86.5 906.46875 C 86.5 904.08305 86.28262 903.66535 84.75 903.09375 C 83.78893 902.73565 82.27995 902.6043 81.40625 902.8125 C 80.11722 903.1198 79.78503 903.6493 79.625 905.5625 C 79.39094 908.3608 79.08578 908.3841 70.28125 906.9375 C 67.13593 906.4207 64.31838 906 64.03125 906 C 63.74414 906 63.60637 905.2111 63.71875 904.25 C 63.92077 902.5224 63.8695 902.49365 58.84375 901.78125 C 56.04791 901.38515 53.54336 901.18905 53.28125 901.34375 C 53.01914 901.49855 52.8125 902.19 52.8125 902.875 C 52.8125 903.9138 52.52003 904.0446 51.0625 903.6875 C 50.10143 903.4521 49.21024 903.01415 49.09375 902.71875 C 48.74946 901.84575 47.31663 902.12185 46.40625 903.21875 C 45.94097 903.77945 44.89444 904.47685 44.09375 904.78125 C 43.29305 905.08575 42.65689 905.84845 42.65625 906.46875 C 42.65562 907.08895 41.10884 909.298 39.25 911.375 L 35.875 915.15625 L 32.375 914.03125 C 28.70571 912.87705 23.78765 912.9702 24.0625 914.1875 C 24.17136 914.6696 21.96083 914.90625 17.0625 914.90625 C 13.504236 914.90716 6.2241446 915.05281 0 915.25 L 0 1056.6562 L 748.5625 1056.6562 L 748.5625 1002 C 742.96468 1001.8038 746.60032 996.2842 746.875 997 C 747.15045 997.7179 747.6452 995.9143 746.53125 996.25 C 741.55161 997.7506 742.9245 996.83185 743.1875 996.40625 C 743.44853 995.98385 744.12639 993.5408 742.71875 993.8125 C 737.59589 994.8014 745.03668 988.46075 734.65625 986.78125 C 728.94095 985.85665 729.69896 987.9845 729 987.9375 C 728.45023 987.8645 726.98383 989.0925 726.4375 989.1875 C 726.4375 989.6616 727.19373 993.27765 725.59375 992.96875 C 724.2832 992.71575 727.36127 1000.1957 725.1875 1000.875 C 722.1104 1001.8367 719.68015 1002.9147 717.5625 1003.875 L 710.9375 1003.875 L 710.3125 983.1875 C 709.80874 966.35318 693.27075 973.38392 690.3125 970.4375 C 689.88867 970.0153 688.0353 969.3139 686.1875 968.875 C 684.33977 968.436 681.87984 967.58575 680.71875 966.96875 C 679.0035 966.05725 678.80914 965.77455 679.75 965.53125 C 680.46262 965.34705 680.20436 965.20825 679.03125 965.15625 C 677.55397 965.09125 677.32389 964.94615 678.0625 964.46875 C 678.58671 964.13005 678.68067 963.85375 678.28125 963.84375 C 677.88176 963.83375 677.40474 963.4222 677.21875 962.9375 C 676.98981 962.3362 677.24925 962.14755 678 962.34375 C 679.1541 962.64565 681.07949 960.92325 680.375 960.21875 C 680.1535 959.99725 680.2982 959.43775 680.6875 958.96875 C 681.22722 958.31835 681.14962 958.09375 680.40625 958.09375 C 679.40032 958.09375 679.31996 957.10745 680.1875 955.71875 C 680.49008 955.23455 680.35323 954.9375 679.84375 954.9375 C 679.38422 954.9375 678.62119 955.79335 678.15625 956.84375 C 677.34343 958.68005 675.70793 958.91365 676.40625 957.09375 C 676.60101 956.58625 676.36515 956.1875 675.84375 956.1875 C 675.32242 956.1875 675.0865 956.58625 675.28125 957.09375 C 675.46883 957.58255 675.31085 958.17555 674.9375 958.40625 C 674.50466 958.67375 674.25 958.0046 674.25 956.5625 C 674.25 955.3187 674.14615 954.28125 674 954.28125 C 673.85385 954.28125 673.27157 954.11845 672.71875 953.90625 C 671.96064 953.61535 671.71875 953.9382 671.71875 955.1875 C 671.71875 956.2364 671.35345 956.84375 670.75 956.84375 C 670.22578 956.84375 669.8125 957.25705 669.8125 957.78125 C 669.8125 958.30555 669.49507 958.75 669.125 958.75 C 668.75488 958.75 668.62778 958.44325 668.84375 958.09375 C 669.05973 957.74435 668.95771 957.46875 668.625 957.46875 C 668.2923 957.46875 667.85742 957.9132 667.65625 958.4375 C 667.40609 959.0893 667.69175 959.375 668.5625 959.375 C 669.66877 959.375 669.76073 959.5621 669.125 960.75 C 668.50178 961.9145 668.53141 962.05445 669.40625 961.71875 C 669.97107 961.50205 670.4375 961.599 670.4375 961.9375 C 670.4375 962.276 669.58737 962.5625 668.5625 962.5625 C 667.27337 962.5625 666.58439 962.1692 666.3125 961.3125 C 666.08299 960.5893 665.54867 960.20765 665.03125 960.40625 C 664.29614 960.68825 664.29218 960.4392 664.90625 958.8125 C 665.31336 957.734 665.86275 956.84375 666.15625 956.84375 C 666.44982 956.84375 666.49166 956.46815 666.21875 956.03125 C 665.21841 954.43005 665.45225 953.58095 666.84375 953.78125 C 667.84835 953.92585 668.17274 954.36625 668.0625 955.40625 C 667.9793 956.19145 668.1859 956.84375 668.53125 956.84375 C 668.8766 956.84375 669.15625 956.1237 669.15625 955.25 C 669.15625 954.3763 668.88073 953.65625 668.53125 953.65625 C 667.61028 953.65625 667.74689 951.2734 668.6875 950.9375 C 669.12447 950.7815 669.3021 950.4771 669.09375 950.25 C 668.88533 950.0229 667.69353 950.8154 666.4375 952 C 665.1814 953.1846 663.42579 954.338 662.53125 954.5625 C 660.55491 955.0585 660.49923 954.72485 662.25 953.09375 C 663.91574 951.54175 663.23671 950.23555 661.0625 950.78125 C 659.78833 951.10095 659.54263 950.9723 659.84375 950.1875 C 660.05726 949.6311 659.90595 949.22875 659.46875 949.21875 C 658.93697 949.20875 658.95897 949.0073 659.5625 948.625 C 660.20904 948.2156 659.90201 947.97785 658.4375 947.65625 C 657.34255 947.41575 656.46875 946.9467 656.46875 946.625 C 656.46875 946.3033 656.0053 946.03125 655.46875 946.03125 C 654.67626 946.03125 654.64154 945.79735 655.21875 944.71875 C 655.82805 943.58055 655.74888 943.40135 654.75 943.59375 C 654.10938 943.71715 653.57505 944.193 653.53125 944.625 C 653.48755 945.0571 653.4189 945.68175 653.375 946.03125 C 653.25408 946.99855 652 946.8004 652 945.8125 C 652 945.247 651.49544 945.02845 650.5 945.21875 C 649.66728 945.37785 648.78199 945.18675 648.53125 944.78125 C 648.26406 944.34905 648.43475 944.08725 648.9375 944.15625 C 649.40943 944.22125 650.36354 944.2345 651.0625 944.1875 C 652.12206 944.1165 652.16972 944.0135 651.375 943.5 C 650.73959 943.0893 650.68925 942.885 651.21875 942.875 C 651.6556 942.865 652 942.59395 652 942.28125 C 652 941.95195 651.00558 941.9366 649.625 942.25 C 648.16837 942.5802 647.16069 942.5582 647.03125 942.1875 C 646.91472 941.8534 646.59317 941.59375 646.3125 941.59375 C 645.57929 941.59375 645.12601 945.25115 645.78125 945.90625 C 646.09115 946.21615 645.92705 946.82305 645.375 947.28125 C 644.57323 947.94645 644.3722 947.93175 644.3125 947.21875 C 644.2721 946.73915 644.17485 946.06825 644.09375 945.71875 C 644.01255 945.36925 643.89715 944.58035 643.84375 943.96875 C 643.79045 943.35715 643.23659 942.865 642.625 942.875 C 641.9399 942.885 641.78863 943.05615 642.21875 943.34375 C 643.38417 944.12305 642.99921 946.0945 641.34375 947.75 C 640.06707 949.0267 639.36922 949.23345 637.625 948.90625 C 636.41307 948.67885 635.5 948.7826 635.5 949.125 C 635.5 949.4579 634.96622 949.57725 634.3125 949.40625 C 632.81234 949.01395 632.3205 945.5025 632.3125 934.6875 L 632.3125 926.8125 L 629.40625 924.25 C 627.80062 922.8366 626.24395 921.07145 625.96875 920.34375 C 624.61138 916.36035 630.28826 918.5288 626.4375 915.1875 C 625.12696 913.9316 624.0625 912.837 624.0625 912.75 C 621.22345 909.4453 619.32231 906.01005 616.25 902.28125 C 615.33964 901.45205 614.31993 900.01195 614 899.09375 L 613.4375 897.4375 C 609.70957 892.7142 609.79874 892.4589 605.9375 886.625 L 602.96875 882.1875 C 598.50513 875.4862 592.90731 866.5444 587.71875 857.875 C 585.1589 853.5978 582.651 849.95625 582.125 849.78125 C 581.59901 849.60625 577.00317 851.0203 571.9375 852.9375 C 566.87182 854.8546 562.51211 856.4375 562.25 856.4375 C 561.98789 856.4375 561.78125 855.44195 561.78125 854.21875 C 561.78125 852.99555 562.05677 852 562.40625 852 C 563.20302 852 563.25063 849.90345 562.46875 849.09375 C 562.14818 848.76175 561.73851 847.56035 561.5625 846.40625 C 561.38642 845.25215 560.89353 843.8868 560.46875 843.375 C 560.04404 842.8633 559.71275 841.2294 559.71875 839.75 C 559.72575 838.2705 559.46234 836.7326 559.125 836.3125 C 558.7877 835.8924 558.65248 835.03465 558.84375 834.40625 C 559.03507 833.77795 559.36267 831.3681 559.5625 829.0625 C 559.84495 825.8035 559.70063 824.70115 558.96875 824.09375 C 558.45095 823.66405 557.73871 821.83915 557.375 820.03125 C 556.48783 815.62145 555.39215 801.1175 555.875 800.25 C 556.12491 799.8011 555.97613 799.81405 555.46875 800.28125 C 554.93742 800.77085 554.69075 803.21025 554.71875 807.90625 C 554.77065 816.67125 553.96802 822.2375 552.3125 824.5625 C 551.59664 825.5678 551.18324 826.5582 551.375 826.75 C 551.56684 826.9418 551.7789 827.77665 551.875 828.59375 C 551.9711 829.41095 552.27759 831.54675 552.53125 833.34375 C 552.79889 835.24035 552.72194 836.75435 552.375 836.96875 C 552.04626 837.17195 551.86518 838.5457 551.96875 840 C 552.08681 841.6575 551.77655 843.22445 551.125 844.21875 C 550.12333 845.74755 549.87054 851.88305 550.53125 858.21875 C 550.80232 860.81775 551.00737 860.70635 538.65625 865.03125 C 533.38553 866.87685 519.06731 872.14275 506.84375 876.71875 C 494.6202 881.29475 483.92619 885.03125 483.09375 885.03125 C 481.82516 885.03125 481.65666 884.8059 481.96875 883.5625 C 482.17354 882.7465 482.0725 881.15575 481.75 880.03125 C 481.28388 878.40595 481.35264 877.89015 482.125 877.59375 C 482.85562 877.31335 482.90105 877.1138 482.3125 876.75 C 481.79874 876.4325 481.45395 874.0044 481.3125 869.6875 C 481.15031 864.7381 480.84853 862.93715 480.125 862.40625 C 479.59625 862.01815 479.1496 861.1604 479.125 860.5 C 479.083 859.3707 479.0448 859.3679 478.53125 860.5625 C 478.04734 861.6887 477.9771 861.64215 477.9375 860.09375 C 477.9129 859.13265 478.18177 858.34375 478.53125 858.34375 C 478.88073 858.34375 479.1875 858.05725 479.1875 857.71875 C 479.1875 857.38005 478.7851 857.2561 478.3125 857.4375 C 477.67688 857.6814 477.33742 856.82015 477.03125 854.09375 C 476.8036 852.06665 476.42409 848.82835 476.1875 846.90625 C 475.95092 844.98405 475.74295 841.9974 475.71875 840.25 C 475.69455 838.5026 475.47136 836.90815 475.21875 836.71875 C 474.96614 836.52925 474.63828 833.9558 474.46875 831 C 474.29921 828.0442 473.94763 824.1849 473.71875 822.4375 C 473.48987 820.6901 473.26675 818.25445 473.21875 817.03125 C 473.17075 815.80815 472.92396 814.4752 472.65625 814.0625 C 472.38854 813.6498 472.4716 813.13635 472.84375 812.90625 C 473.31715 812.61375 473.31529 812.2309 472.8125 811.625 C 472.41718 811.1486 472.25093 810.1863 472.46875 809.5 C 472.68658 808.8137 472.60113 808.092 472.25 807.875 C 471.89883 807.658 471.6885 806.05 471.8125 804.3125 C 471.93649 802.575 471.7802 800.9618 471.4375 800.75 C 471.09304 800.5371 470.99563 799.40815 471.21875 798.21875 C 471.47944 796.82915 471.35953 796.0625 470.90625 796.0625 C 470.52035 796.0625 470.37424 795.7927 470.59375 795.4375 C 470.81326 795.0823 471.26947 794.95585 471.59375 795.15625 C 471.93035 795.36435 471.89556 794.80195 471.53125 793.84375 C 471.18037 792.92075 471.08338 791.8827 471.28125 791.5625 C 471.47912 791.2424 471.33885 791 470.96875 791 C 470.59864 791 470.3501 790.6243 470.4375 790.1875 C 470.5249 789.7506 470.18047 789.40625 469.65625 789.40625 C 469.06888 789.40625 468.66935 790.0211 468.65625 791 C 468.64455 791.8737 468.40548 792.95415 468.125 793.40625 C 467.83777 793.86935 467.97371 794.63515 468.40625 795.15625 C 469.00204 795.87445 468.99899 796.0625 468.40625 796.0625 C 467.88965 796.0625 467.78159 796.68985 468.0625 797.96875 C 468.29093 799.00875 468.25146 800.21095 467.96875 800.65625 C 467.68599 801.10165 467.43365 802.8045 467.40625 804.4375 C 467.37885 806.0705 466.95746 807.85505 466.5 808.40625 C 465.94343 809.07695 465.92895 809.40625 466.40625 809.40625 C 466.79852 809.40625 467.09375 809.8508 467.09375 810.375 C 467.09375 810.8992 466.79362 811.3125 466.40625 811.3125 C 465.977 811.3125 465.85651 811.9306 466.09375 812.875 C 466.30766 813.7273 466.19545 814.5951 465.84375 814.8125 C 465.41508 815.077 465.4173 815.60945 465.84375 816.40625 C 466.70367 818.01305 466.64464 818.3125 465.5 818.3125 C 464.7181 818.3125 464.66781 818.56465 465.21875 819.59375 C 465.59668 820.29995 465.72536 821.15475 465.53125 821.46875 C 465.33714 821.78285 465.02469 825.12115 464.8125 828.90625 C 464.60031 832.69135 464.22144 835.8505 464 835.9375 C 463.77858 836.0245 463.66515 837.53315 463.71875 839.28125 C 463.77235 841.02935 463.58139 842.61505 463.3125 842.78125 C 463.0436 842.94745 462.95638 843.8054 463.125 844.6875 C 463.2936 845.5695 463.1778 846.28125 462.875 846.28125 C 462.57214 846.28125 462.3052 848.597 462.25 851.4375 C 462.1813 854.9748 461.86532 856.78605 461.28125 857.15625 C 460.64672 857.55845 460.62775 857.70875 461.21875 857.71875 C 461.6556 857.72875 462.03125 858.26975 462.03125 858.96875 C 462.03125 860.09365 461.0264 860.61435 459.3125 860.34375 C 458.82826 860.26775 458.7715 861.1388 458.53125 870 C 458.43785 873.4437 458.10955 875.1698 457.5 875.5625 C 456.77672 876.0285 456.78464 876.2458 457.46875 876.6875 C 458.34108 877.2509 458.25187 881.5307 457.34375 883 C 457.0788 883.4287 457.16115 883.75 457.53125 883.75 C 457.90136 883.75 458.1925 884.70795 458.1875 885.84375 C 458.1805 887.27215 458.00973 887.63865 457.625 887.03125 C 456.82639 885.77025 456.27135 887.8442 456.21875 892.25 C 456.18115 895.4006 455.80201 896.4018 452.6875 901.375 C 450.76522 904.4444 449.0797 907.06955 448.9375 907.21875 C 448.49992 907.67795 446.80624 905.08065 447.0625 904.34375 C 447.19506 903.96265 447.0472 903.26205 446.75 902.78125 C 446.45281 902.30045 446.41662 901.6112 446.6875 901.25 C 446.95844 900.8888 447.01256 896.1669 446.78125 890.75 C 446.54999 885.333 446.28895 882.0395 446.21875 883.4375 C 446.1106 885.5897 445.98696 885.8119 445.40625 884.8125 C 445.01416 884.1379 444.83845 881.81925 445 879.40625 C 445.15542 877.08475 445.0591 874.3724 444.78125 873.375 C 444.35383 871.8407 444.49186 871.51505 445.625 871.21875 C 446.92772 870.87805 446.92291 870.82735 445.75 869.96875 C 444.80571 869.27755 444.52175 868.24385 444.46875 865.15625 C 444.32105 856.55845 444.02459 851.13295 443.78125 853.09375 C 443.46984 855.60315 442.3261 855.876 442.3125 853.4375 C 442.3045 852.0759 442.16749 851.8823 441.6875 852.625 C 441.16111 853.4396 441.0705 853.41905 441.0625 852.46875 C 441.0575 851.85715 441.33802 851.34375 441.6875 851.34375 C 442.03698 851.34375 442.3125 850.9507 442.3125 850.4375 C 442.3125 849.8321 441.96084 849.64545 441.28125 849.90625 C 440.42762 850.23385 440.29636 849.98625 440.5625 848.59375 C 440.74205 847.65445 440.6189 846.72065 440.3125 846.53125 C 440.00608 846.34195 439.80145 845.4381 439.84375 844.5 C 439.88605 843.5619 439.75275 841.7556 439.5625 840.5 C 439.37228 839.2445 439.03837 836.2265 438.8125 833.8125 C 438.58664 831.3984 438.30995 828.3673 438.1875 827.0625 C 438.06506 825.7577 437.77761 824.4106 437.5625 824.0625 C 437.34739 823.7145 437.4971 822.86245 437.875 822.15625 C 438.37209 821.22745 438.35244 820.84375 437.84375 820.84375 C 437.45696 820.84375 437.1863 820.2238 437.25 819.4375 C 437.3134 818.6512 437.3147 817.8622 437.25 817.6875 C 436.6596 816.0918 436.74553 814.508 437.40625 814.5 C 437.96277 814.49 437.96773 814.35995 437.46875 814.03125 C 436.31915 813.27395 435.74516 810.6989 436.71875 810.6875 C 437.36179 810.6775 437.37966 810.5677 436.78125 810.1875 C 436.35283 809.9153 436.00033 808.8455 436 807.8125 C 435.999 803.396 435.58791 798.88875 435.125 798.15625 C 434.85067 797.72225 434.91436 796.88105 435.25 796.28125 C 435.69392 795.48805 435.5606 794.9845 434.8125 794.4375 C 433.9246 793.7882 433.92062 793.51785 434.6875 792.59375 C 435.29207 791.86535 435.33763 791.38515 434.875 791.09375 C 434.50116 790.85835 434.24145 789.506 434.28125 788.0625 C 434.33745 786.0247 434.56254 785.48455 435.3125 785.71875 C 435.97864 785.92685 436.05048 785.84705 435.53125 785.46875 C 435.11718 785.16715 434.68856 784.16015 434.5625 783.21875 C 434.43644 782.27745 434.11577 781.3033 433.875 781.0625 C 433.63424 780.8217 433.9564 780.2728 434.5625 779.8125 C 435.54428 779.067 435.43145 778.9553 433.53125 778.9375 z M 429.375 788.625 C 429.2924 788.59 429.09205 788.7267 428.6875 789.0625 C 428.15528 789.5042 427.71875 789.993 427.71875 790.125 C 427.71875 790.8369 428.90822 790.203 429.25 789.3125 C 429.41733 788.8764 429.45755 788.6599 429.375 788.625 z M 555.90625 833.15625 C 555.94244 833.16287 555.96042 833.19425 556 833.21875 C 556.31672 833.41455 556.43268 834.14515 556.25 834.84375 C 555.79275 836.59215 555.4375 836.41575 555.4375 834.46875 C 555.4375 833.79805 555.57479 833.3076 555.78125 833.1875 C 555.81565 833.1675 555.87006 833.14963 555.90625 833.15625 z M 557.5625 834.40625 C 557.6203 834.41625 557.70519 834.52875 557.78125 834.71875 C 557.96475 835.17745 557.9299 835.7264 557.71875 835.9375 C 557.5076 836.1487 557.3477 835.76365 557.375 835.09375 C 557.3941 834.63115 557.4662 834.39175 557.5625 834.40625 z M 419.5625 876.125 C 419.85146 876.125 420.09375 876.98285 420.09375 878.03125 C 420.09375 879.07975 419.97882 879.9375 419.84375 879.9375 C 419.70867 879.9375 419.46638 879.07975 419.3125 878.03125 C 419.15862 876.98285 419.2736 876.125 419.5625 876.125 z M 459.125 884.6875 C 459.1633 884.7015 459.2059 884.7655 459.25 884.875 C 459.42627 885.3118 459.42627 886.03195 459.25 886.46875 C 459.07373 886.90565 458.9375 886.52975 458.9375 885.65625 C 458.9375 885.00135 459.0101 884.6448 459.125 884.6875 z M 182.5625 925.09375 C 182.10049 925.09375 181.875 925.283 182.125 925.6875 C 182.34099 926.037 183.14055 926.3225 183.90625 926.3125 C 185.03807 926.3025 185.11863 926.1883 184.34375 925.6875 C 183.71783 925.283 183.02451 925.09375 182.5625 925.09375 z M 638.84375 944.125 C 637.94972 944.125 637.81595 944.7742 638.40625 946.3125 C 639.0085 947.8819 639.92714 947.48185 639.78125 945.71875 C 639.70895 944.84505 639.29172 944.125 638.84375 944.125 z M 209.6875 945.46875 C 209.34199 945.46875 208.96537 945.51275 208.65625 945.59375 C 208.03801 945.75485 208.38906 945.89325 209.4375 945.90625 C 210.48598 945.91925 210.99269 945.7991 210.5625 945.625 C 210.3474 945.538 210.03301 945.47295 209.6875 945.46875 z M 650.375 946.28125 C 650.42784 946.26842 650.4682 946.26955 650.53125 946.28125 C 650.61535 946.29725 650.71579 946.34625 650.8125 946.40625 C 651.2512 946.67735 651.29161 946.97095 650.90625 947.21875 C 650.56662 947.43715 650.08915 948.2762 649.84375 949.0625 C 649.59207 949.8689 648.88155 950.46875 648.21875 950.46875 C 647.57246 950.46875 646.89501 950.84445 646.71875 951.28125 C 646.5273 951.75585 646.37365 951.63315 646.34375 950.96875 C 646.31585 950.34985 646.74367 949.84375 647.3125 949.84375 C 648.09381 949.84375 648.25203 949.47195 647.9375 948.21875 C 647.57728 946.78345 647.67802 946.60875 648.8125 946.96875 C 649.59298 947.21645 650.09375 947.1186 650.09375 946.6875 C 650.09375 946.4661 650.21649 946.31975 650.375 946.28125 z M 637.09375 947.375 C 636.76978 947.375 636.82548 947.5622 637.40625 947.9375 C 637.93047 948.2763 638.78828 948.55025 639.3125 948.53125 C 639.94099 948.50825 639.80668 948.2976 638.96875 947.9375 C 638.09534 947.5622 637.41772 947.375 637.09375 947.375 z M 308.21875 947.9375 C 308.58885 947.9375 308.875 948.213 308.875 948.5625 C 308.875 948.912 308.74787 949.21875 308.59375 949.21875 C 308.43964 949.21875 308.15349 948.912 307.9375 948.5625 C 307.72151 948.213 307.8486 947.9375 308.21875 947.9375 z M 644.53125 948.90625 C 645.2296 948.89525 645.07002 949.27375 644.125 950.21875 C 642.96714 951.37825 642.0625 951.37185 642.0625 950.21875 C 642.0625 949.72415 642.71575 949.18705 643.53125 949.03125 C 643.96032 948.94925 644.29847 948.91005 644.53125 948.90625 z M 216.125 949.90625 C 215.49157 949.90625 214.85554 949.95825 214.375 950.03125 C 213.41393 950.17685 214.20286 950.28125 216.125 950.28125 C 218.04714 950.28125 218.83607 950.17685 217.875 950.03125 C 217.39446 949.95825 216.75843 949.90625 216.125 949.90625 z M 226.875 950.5625 C 226.65426 950.5525 226.38559 950.5955 226.15625 950.6875 C 225.64935 950.8903 225.79102 951.0325 226.53125 951.0625 C 227.20108 951.0905 227.58614 950.9612 227.375 950.75 C 227.26943 950.6445 227.09574 950.5716 226.875 950.5625 z M 648.28125 952.59375 C 648.45514 952.58375 648.7071 952.608 649 952.625 C 649.89378 952.679 650.47434 952.9254 650.3125 953.1875 C 649.93004 953.807 649.35035 953.7591 648.25 953.0625 C 647.76781 952.7574 647.75963 952.61975 648.28125 952.59375 z M 680.75 953.0625 C 680.50305 953.0525 680.1358 953.26815 679.8125 953.59375 C 679.18966 954.22135 679.25066 954.2824 680.15625 953.9375 C 680.7829 953.6989 681.13308 953.35185 680.9375 953.15625 C 680.8886 953.10725 680.83232 953.0655 680.75 953.0625 z M 296.78125 963.34375 C 296.84275 963.34375 296.89755 963.354 296.96875 963.375 C 297.4056 963.53 297.7082 964.2522 297.625 965 C 297.51683 965.9717 297.81142 966.375 298.6875 966.375 C 299.36172 966.375 300.10894 966.6826 300.34375 967.0625 C 300.57856 967.4424 300.45142 968.07975 300.0625 968.46875 C 299.54327 968.98785 299.34375 968.9627 299.34375 968.375 C 299.34375 967.9349 299.05229 967.74325 298.6875 967.96875 C 298.32271 968.19415 297.60265 968.0477 297.09375 967.625 C 296.00966 966.7252 295.85931 963.41995 296.78125 963.34375 z "
       id="path3001-3" />
    <text
       xml:space="preserve"
       style="font-size:35.94699097px;font-style:normal;font-variant:normal;font-weight:normal;font-stretch:normal;text-align:start;line-height:125%;letter-spacing:0px;word-spacing:0px;writing-mode:lr-tb;text-anchor:start;fill:#ffffff;fill-opacity:1;stroke:none;font-family:Droid Sans;-inkscape-font-specification:Droid Sans"
       x="233.09991"
       y="915.50946"
       id="text3858-1-8"
       sodipodi:linespacing="125%"
       transform="scale(0.89867478,1.1127496)"><tspan
         sodipodi:role="line"
         x="233.09991"
         y="915.50946"
         id="tspan3992"
         style="-inkscape-font-specification:FreeMono;font-family:FreeMono;font-weight:normal;font-style:normal;font-stretch:normal;font-variant:normal">http://www.jug-gr.de</tspan></text>
    <g
       id="g3288">
      <g
         id="flowRoot3915"
         style="font-size:40px;font-style:normal;font-weight:normal;text-align:end;line-height:125%;letter-spacing:0px;word-spacing:0px;text-anchor:end;fill:#ffffff;fill-opacity:1;stroke:#000000;stroke-width:2.5;stroke-linejoin:miter;stroke-miterlimit:4;stroke-opacity:1;font-family:Sans"
         transform="translate(303.00588,591.29096)">
        <path
           id="path3282"
           style="font-size:64px;font-variant:normal;font-weight:500;font-stretch:normal;fill:#ffffff;stroke:#000000;font-family:Ubuntu;-inkscape-font-specification:Ubuntu Medium"
           d="m -102.3475,188.36171 c -3e-5,2.17601 -0.23469,4.20268 -0.704,6.08 -0.46936,1.87734 -1.30136,3.52 -2.496,4.928 -1.15202,1.408 -2.73069,2.51733 -4.736,3.328 -1.96268,0.81067 -4.45868,1.216 -7.488,1.216 -2.81601,0 -5.26934,-0.384 -7.36,-1.152 -2.048,-0.81067 -3.62667,-1.664 -4.736,-2.56 l 2.88,-6.336 c 1.06666,0.72534 2.36799,1.42934 3.904,2.112 1.57866,0.64001 3.17866,0.96001 4.8,0.96 2.73065,1e-5 4.71465,-0.68266 5.952,-2.048 1.23731,-1.36532 1.85598,-3.71199 1.856,-7.04 l 0,-29.248 8.128,0 0,29.76" />
        <path
           id="path3284"
           style="font-size:64px;font-variant:normal;font-weight:500;font-stretch:normal;fill:#ffffff;stroke:#000000;font-family:Ubuntu;-inkscape-font-specification:Ubuntu Medium"
           d="m -74.9125,203.91371 c -3.029353,0 -5.632017,-0.42667 -7.808,-1.28 -2.176012,-0.896 -3.989344,-2.13333 -5.44,-3.712 -1.408008,-1.57866 -2.45334,-3.43466 -3.136,-5.568 -0.682672,-2.13332 -1.024005,-4.47999 -1.024,-7.04 l 0,-27.712 8.128,0 0,26.944 c -1.3e-5,2.00535 0.21332,3.73335 0.64,5.184 0.469319,1.40801 1.109318,2.56001 1.92,3.456 0.853317,0.89601 1.834649,1.55734 2.944,1.984 1.15198,0.42667 2.431979,0.64001 3.84,0.64 1.407976,1e-5 2.687975,-0.21333 3.84,-0.64 1.151973,-0.42666 2.133305,-1.08799 2.944,-1.984 0.853303,-0.89599 1.493303,-2.04799 1.92,-3.456 0.469302,-1.45065 0.703968,-3.17865 0.704,-5.184 l 0,-26.944 8.128,0 0,27.712 c -4e-5,2.56001 -0.362706,4.90668 -1.088,7.04 -0.682705,2.13334 -1.74937,3.98934 -3.2,5.568 -1.408034,1.57867 -3.221366,2.816 -5.44,3.712 -2.218695,0.85333 -4.842692,1.28 -7.872,1.28" />
        <path
           id="path3286"
           style="font-size:64px;font-variant:normal;font-weight:500;font-stretch:normal;fill:#ffffff;stroke:#000000;font-family:Ubuntu;-inkscape-font-specification:Ubuntu Medium"
           d="m -26.2645,164.68171 c -4.565355,4e-5 -8.064018,1.42937 -10.496,4.288 -2.389346,2.81603 -3.584012,6.74136 -3.584,11.776 -1.2e-5,2.38935 0.277321,4.58668 0.832,6.592 0.59732,1.96268 1.450652,3.64801 2.56,5.056 1.151983,1.40801 2.559982,2.51734 4.224,3.328 1.706645,0.76801 3.690643,1.15201 5.952,1.152 1.407973,1e-5 2.623972,-0.0427 3.648,-0.128 1.02397,-0.12799 1.834636,-0.27733 2.432,-0.448 l 0,-15.936 8.064,0 0,21.312 c -1.109372,0.42667 -2.986703,0.896 -5.632,1.408 -2.645365,0.512 -5.696028,0.768 -9.152,0.768 -3.200022,0 -6.122685,-0.512 -8.768,-1.536 -2.645347,-1.024 -4.906678,-2.51733 -6.784,-4.48 -1.834674,-1.96266 -3.264006,-4.37332 -4.288,-7.232 -1.024004,-2.85865 -1.536004,-6.14398 -1.536,-9.856 -4e-6,-3.71197 0.554663,-6.9973 1.664,-9.856 1.151994,-2.85863 2.709325,-5.2693 4.672,-7.232 1.962655,-2.00529 4.266653,-3.51996 6.912,-4.544 2.645314,-1.02396 5.461311,-1.53595 8.448,-1.536 2.047973,5e-5 3.861304,0.14938 5.44,0.448 1.621301,0.25604 3.007966,0.55471 4.16,0.896 1.151964,0.34138 2.09063,0.70404 2.816,1.088 0.767962,0.38404 1.301294,0.66138 1.6,0.832 l -2.432,6.592 c -1.280036,-0.76796 -2.880034,-1.40796 -4.8,-1.92 -1.877363,-0.55463 -3.861361,-0.83196 -5.952,-0.832" />
      </g>
      <g
         id="text3927"
         style="font-size:40px;font-style:normal;font-weight:normal;line-height:125%;letter-spacing:0px;word-spacing:0px;fill:#ffffff;fill-opacity:1;stroke:#000000;stroke-width:2.5;stroke-linejoin:miter;stroke-miterlimit:4;stroke-opacity:1;font-family:Sans">
        <path
           id="path3267"
           style="font-size:64px;font-variant:normal;font-weight:500;font-stretch:normal;fill:#ffffff;stroke:#000000;font-family:Ubuntu;-inkscape-font-specification:Ubuntu Medium"
           d="m 116.56038,818.99228 c -4.56535,4e-5 -8.06402,1.42937 -10.496,4.288 -2.38934,2.81603 -3.58401,6.74136 -3.584,11.776 -1e-5,2.38936 0.27732,4.58669 0.832,6.592 0.59732,1.96268 1.45065,3.64801 2.56,5.056 1.15199,1.40801 2.55998,2.51734 4.224,3.328 1.70665,0.76801 3.69065,1.15201 5.952,1.152 1.40798,1e-5 2.62397,-0.0427 3.648,-0.128 1.02397,-0.12799 1.83464,-0.27732 2.432,-0.448 l 0,-15.936 8.064,0 0,21.312 c -1.10937,0.42667 -2.9867,0.896 -5.632,1.408 -2.64536,0.512 -5.69603,0.768 -9.152,0.768 -3.20002,0 -6.12268,-0.512 -8.768,-1.536 -2.64534,-1.024 -4.90668,-2.51733 -6.783997,-4.48 -1.834675,-1.96266 -3.264007,-4.37332 -4.288,-7.232 -1.024005,-2.85865 -1.536004,-6.14398 -1.536,-9.856 -4e-6,-3.71197 0.554662,-6.9973 1.664,-9.856 1.151993,-2.85863 2.709325,-5.26929 4.671997,-7.232 1.96266,-2.00529 4.26666,-3.51995 6.912,-4.544 2.64532,-1.02395 5.46131,-1.53595 8.448,-1.536 2.04798,5e-5 3.86131,0.14938 5.44,0.448 1.6213,0.25605 3.00797,0.55471 4.16,0.896 1.15197,0.34138 2.09063,0.70405 2.816,1.088 0.76796,0.38404 1.3013,0.66138 1.6,0.832 l -2.432,6.592 c -1.28003,-0.76796 -2.88003,-1.40796 -4.8,-1.92 -1.87736,-0.55463 -3.86136,-0.83196 -5.952,-0.832" />
        <path
           id="path3269"
           style="font-size:64px;font-variant:normal;font-weight:500;font-stretch:normal;fill:#ffffff;stroke:#000000;font-family:Ubuntu;-inkscape-font-specification:Ubuntu Medium"
           d="m 169.46238,840.49628 c -3e-5,2.64535 -0.38403,5.05601 -1.152,7.232 -0.76803,2.17601 -1.85603,4.03201 -3.264,5.568 -1.40803,1.536 -3.11469,2.73067 -5.12,3.584 -1.96269,0.85334 -4.13869,1.28 -6.528,1.28 -2.38935,0 -4.56535,-0.42666 -6.528,-1.28 -1.96267,-0.85333 -3.64801,-2.048 -5.056,-3.584 -1.408,-1.53599 -2.51734,-3.39199 -3.328,-5.568 -0.768,-2.17599 -1.152,-4.58665 -1.152,-7.232 0,-2.64531 0.384,-5.03464 1.152,-7.168 0.81066,-2.17597 1.92,-4.03197 3.328,-5.568 1.45066,-1.53597 3.15733,-2.7093 5.12,-3.52 1.96265,-0.8533 4.11732,-1.27996 6.464,-1.28 2.34665,4e-5 4.50131,0.4267 6.464,1.28 2.00531,0.8107 3.71197,1.98403 5.12,3.52 1.40797,1.53603 2.49597,3.39203 3.264,5.568 0.81063,2.13336 1.21597,4.52269 1.216,7.168 m -7.936,0 c -2e-5,-3.32798 -0.72536,-5.95198 -2.176,-7.872 -1.40802,-1.96264 -3.39202,-2.94397 -5.952,-2.944 -2.56001,3e-5 -4.56535,0.98136 -6.016,2.944 -1.40801,1.92002 -2.11201,4.54402 -2.112,7.872 -10e-6,3.37068 0.70399,6.03735 2.112,8 1.45065,1.96268 3.45599,2.94401 6.016,2.944 2.55998,10e-6 4.54398,-0.98132 5.952,-2.944 1.45064,-1.96265 2.17598,-4.62932 2.176,-8 m -14.784,-22.208 c -1.15201,4e-5 -2.15467,-0.38396 -3.008,-1.152 -0.85334,-0.76796 -1.28001,-1.81329 -1.28,-3.136 -10e-6,-1.32262 0.42666,-2.36795 1.28,-3.136 0.85333,-0.81062 1.85599,-1.21595 3.008,-1.216 1.15199,5e-5 2.15465,0.40538 3.008,1.216 0.89599,0.76805 1.34399,1.81338 1.344,3.136 -1e-5,1.32271 -0.44801,2.36804 -1.344,3.136 -0.85335,0.76804 -1.85601,1.15204 -3.008,1.152 m 13.248,0 c -1.15202,4e-5 -2.17602,-0.38396 -3.072,-1.152 -0.85335,-0.76796 -1.28002,-1.81329 -1.28,-3.136 -2e-5,-1.32262 0.42665,-2.36795 1.28,-3.136 0.89598,-0.81062 1.91998,-1.21595 3.072,-1.216 1.15198,5e-5 2.15464,0.40538 3.008,1.216 0.85331,0.76805 1.27997,1.81338 1.28,3.136 -3e-5,1.32271 -0.42669,2.36804 -1.28,3.136 -0.85336,0.76804 -1.85602,1.15204 -3.008,1.152" />
        <path
           id="path3271"
           style="font-size:64px;font-variant:normal;font-weight:500;font-stretch:normal;fill:#ffffff;stroke:#000000;font-family:Ubuntu;-inkscape-font-specification:Ubuntu Medium"
           d="m 196.51238,830.76828 c -0.64002,-0.2133 -1.53602,-0.42664 -2.688,-0.64 -1.10935,-0.25597 -2.41068,-0.38397 -3.904,-0.384 -0.85335,3e-5 -1.77068,0.0854 -2.752,0.256 -0.93868,0.1707 -1.60001,0.32003 -1.984,0.448 l 0,26.816 -7.744,0 0,-31.872 c 1.49333,-0.55463 3.34933,-1.06663 5.568,-1.536 2.26132,-0.51196 4.75732,-0.76796 7.488,-0.768 0.51198,4e-5 1.10932,0.0427 1.792,0.128 0.68265,0.0427 1.36531,0.12804 2.048,0.256 0.68265,0.0854 1.34398,0.21337 1.984,0.384 0.63998,0.12804 1.15198,0.25604 1.536,0.384 l -1.344,6.528" />
        <path
           id="path3273"
           style="font-size:64px;font-variant:normal;font-weight:500;font-stretch:normal;fill:#ffffff;stroke:#000000;font-family:Ubuntu;-inkscape-font-specification:Ubuntu Medium"
           d="m 214.83838,857.90428 c -2.30401,-0.0427 -4.22401,-0.29866 -5.76,-0.768 -1.49334,-0.46933 -2.68801,-1.13066 -3.584,-1.984 -0.896,-0.89599 -1.536,-1.98399 -1.92,-3.264 -0.34134,-1.32266 -0.512,-2.81599 -0.512,-4.48 l 0,-38.528 7.744,-1.28 0,38.336 c -1e-5,0.93868 0.064,1.72801 0.192,2.368 0.17066,0.64001 0.44799,1.19468 0.832,1.664 0.38399,0.42668 0.89599,0.76801 1.536,1.024 0.68265,0.21334 1.53599,0.38401 2.56,0.512 l -1.088,6.4" />
        <path
           id="path3275"
           style="font-size:64px;font-variant:normal;font-weight:500;font-stretch:normal;fill:#ffffff;stroke:#000000;font-family:Ubuntu;-inkscape-font-specification:Ubuntu Medium"
           d="m 229.99838,857.26428 -7.744,0 0,-33.472 7.744,0 0,33.472 m 0.832,-43.264 c -1e-5,1.45071 -0.46934,2.60271 -1.408,3.456 -0.93868,0.85337 -2.04801,1.28004 -3.328,1.28 -1.32267,4e-5 -2.45334,-0.42663 -3.392,-1.28 -0.93867,-0.85329 -1.408,-2.00529 -1.408,-3.456 0,-1.49329 0.46933,-2.66662 1.408,-3.52 0.93866,-0.85328 2.06933,-1.27995 3.392,-1.28 1.27999,5e-5 2.38932,0.42672 3.328,1.28 0.93866,0.85338 1.40799,2.02671 1.408,3.52" />
        <path
           id="path3277"
           style="font-size:64px;font-variant:normal;font-weight:500;font-stretch:normal;fill:#ffffff;stroke:#000000;font-family:Ubuntu;-inkscape-font-specification:Ubuntu Medium"
           d="m 239.43138,814.96028 7.744,-1.28 0,10.112 11.904,0 0,6.464 -11.904,0 0,13.632 c -1e-5,2.68801 0.42666,4.60801 1.28,5.76 0.85332,1.15201 2.30399,1.72801 4.352,1.728 1.40798,1e-5 2.64532,-0.14933 3.712,-0.448 1.10931,-0.29866 1.98398,-0.57599 2.624,-0.832 l 1.28,6.144 c -0.89602,0.384 -2.06935,0.768 -3.52,1.152 -1.45068,0.42667 -3.15735,0.64 -5.12,0.64 -2.38935,0 -4.39468,-0.32 -6.016,-0.96 -1.57867,-0.64 -2.83734,-1.55733 -3.776,-2.752 -0.93867,-1.23733 -1.6,-2.70933 -1.984,-4.416 -0.384,-1.74932 -0.576,-3.73332 -0.576,-5.952 l 0,-28.992" />
        <path
           id="path3279"
           style="font-size:64px;font-variant:normal;font-weight:500;font-stretch:normal;fill:#ffffff;stroke:#000000;font-family:Ubuntu;-inkscape-font-specification:Ubuntu Medium"
           d="m 289.98938,829.23228 c -0.85336,0.89603 -1.98402,2.15469 -3.392,3.776 -1.36535,1.62136 -2.83735,3.43469 -4.416,5.44 -1.57868,1.96269 -3.17868,4.03202 -4.8,6.208 -1.57868,2.13335 -3.00801,4.18134 -4.288,6.144 l 17.28,0 0,6.464 -26.624,0 0,-4.8 c 0.93867,-1.70666 2.112,-3.56266 3.52,-5.568 1.408,-2.00532 2.85866,-4.01065 4.352,-6.016 1.49332,-2.04798 2.96532,-3.98931 4.416,-5.824 1.49332,-1.83464 2.81599,-3.43464 3.968,-4.8 l -15.424,0 0,-6.464 25.408,0 0,5.44" />
      </g>
      <rect
         y="749.17792"
         x="298.27075"
         height="108.59141"
         width="6.0609198"
         id="rect3931"
         style="fill:#ffffff;fill-opacity:1;stroke:#000000;stroke-width:2.5;stroke-linejoin:miter;stroke-miterlimit:4;stroke-opacity:1;stroke-dasharray:none" />
    </g>
    <g
       transform="matrix(0.70821028,0,0,0.70699053,450.3625,344.26269)"
       id="g3493">
      <rect
         style="fill:#ffffff"
         shape-rendering="optimizeSpeed"
         x="0"
         y="0"
         width="300"
         height="300"
         id="rect3041" />
      <rect
         style="fill:#000000"
         shape-rendering="optimizeSpeed"
         x="13"
         y="13"
         width="13"
         height="13"
         id="rect3043" />
      <rect
         style="fill:#000000"
         shape-rendering="optimizeSpeed"
         x="26"
         y="13"
         width="13"
         height="13"
         id="rect3045" />
      <rect
         style="fill:#000000"
         shape-rendering="optimizeSpeed"
         x="39"
         y="13"
         width="13"
         height="13"
         id="rect3047" />
      <rect
         style="fill:#000000"
         shape-rendering="optimizeSpeed"
         x="52"
         y="13"
         width="13"
         height="13"
         id="rect3049" />
      <rect
         style="fill:#000000"
         shape-rendering="optimizeSpeed"
         x="65"
         y="13"
         width="13"
         height="13"
         id="rect3051" />
      <rect
         style="fill:#000000"
         shape-rendering="optimizeSpeed"
         x="78"
         y="13"
         width="13"
         height="13"
         id="rect3053" />
      <rect
         style="fill:#000000"
         shape-rendering="optimizeSpeed"
         x="91"
         y="13"
         width="13"
         height="13"
         id="rect3055" />
      <rect
         style="fill:#000000"
         shape-rendering="optimizeSpeed"
         x="143"
         y="13"
         width="13"
         height="13"
         id="rect3057" />
      <rect
         style="fill:#000000"
         shape-rendering="optimizeSpeed"
         x="156"
         y="13"
         width="13"
         height="13"
         id="rect3059" />
      <rect
         style="fill:#000000"
         shape-rendering="optimizeSpeed"
         x="195"
         y="13"
         width="13"
         height="13"
         id="rect3061" />
      <rect
         style="fill:#000000"
         shape-rendering="optimizeSpeed"
         x="208"
         y="13"
         width="13"
         height="13"
         id="rect3063" />
      <rect
         style="fill:#000000"
         shape-rendering="optimizeSpeed"
         x="221"
         y="13"
         width="13"
         height="13"
         id="rect3065" />
      <rect
         style="fill:#000000"
         shape-rendering="optimizeSpeed"
         x="234"
         y="13"
         width="13"
         height="13"
         id="rect3067" />
      <rect
         style="fill:#000000"
         shape-rendering="optimizeSpeed"
         x="247"
         y="13"
         width="13"
         height="13"
         id="rect3069" />
      <rect
         style="fill:#000000"
         shape-rendering="optimizeSpeed"
         x="260"
         y="13"
         width="13"
         height="13"
         id="rect3071" />
      <rect
         style="fill:#000000"
         shape-rendering="optimizeSpeed"
         x="273"
         y="13"
         width="13"
         height="13"
         id="rect3073" />
      <rect
         style="fill:#000000"
         shape-rendering="optimizeSpeed"
         x="13"
         y="26"
         width="13"
         height="13"
         id="rect3075" />
      <rect
         style="fill:#000000"
         shape-rendering="optimizeSpeed"
         x="91"
         y="26"
         width="13"
         height="13"
         id="rect3077" />
      <rect
         style="fill:#000000"
         shape-rendering="optimizeSpeed"
         x="130"
         y="26"
         width="13"
         height="13"
         id="rect3079" />
      <rect
         style="fill:#000000"
         shape-rendering="optimizeSpeed"
         x="156"
         y="26"
         width="13"
         height="13"
         id="rect3081" />
      <rect
         style="fill:#000000"
         shape-rendering="optimizeSpeed"
         x="169"
         y="26"
         width="13"
         height="13"
         id="rect3083" />
      <rect
         style="fill:#000000"
         shape-rendering="optimizeSpeed"
         x="195"
         y="26"
         width="13"
         height="13"
         id="rect3085" />
      <rect
         style="fill:#000000"
         shape-rendering="optimizeSpeed"
         x="273"
         y="26"
         width="13"
         height="13"
         id="rect3087" />
      <rect
         style="fill:#000000"
         shape-rendering="optimizeSpeed"
         x="13"
         y="39"
         width="13"
         height="13"
         id="rect3089" />
      <rect
         style="fill:#000000"
         shape-rendering="optimizeSpeed"
         x="39"
         y="39"
         width="13"
         height="13"
         id="rect3091" />
      <rect
         style="fill:#000000"
         shape-rendering="optimizeSpeed"
         x="52"
         y="39"
         width="13"
         height="13"
         id="rect3093" />
      <rect
         style="fill:#000000"
         shape-rendering="optimizeSpeed"
         x="65"
         y="39"
         width="13"
         height="13"
         id="rect3095" />
      <rect
         style="fill:#000000"
         shape-rendering="optimizeSpeed"
         x="91"
         y="39"
         width="13"
         height="13"
         id="rect3097" />
      <rect
         style="fill:#000000"
         shape-rendering="optimizeSpeed"
         x="130"
         y="39"
         width="13"
         height="13"
         id="rect3099" />
      <rect
         style="fill:#000000"
         shape-rendering="optimizeSpeed"
         x="169"
         y="39"
         width="13"
         height="13"
         id="rect3101" />
      <rect
         style="fill:#000000"
         shape-rendering="optimizeSpeed"
         x="195"
         y="39"
         width="13"
         height="13"
         id="rect3103" />
      <rect
         style="fill:#000000"
         shape-rendering="optimizeSpeed"
         x="221"
         y="39"
         width="13"
         height="13"
         id="rect3105" />
      <rect
         style="fill:#000000"
         shape-rendering="optimizeSpeed"
         x="234"
         y="39"
         width="13"
         height="13"
         id="rect3107" />
      <rect
         style="fill:#000000"
         shape-rendering="optimizeSpeed"
         x="247"
         y="39"
         width="13"
         height="13"
         id="rect3109" />
      <rect
         style="fill:#000000"
         shape-rendering="optimizeSpeed"
         x="273"
         y="39"
         width="13"
         height="13"
         id="rect3111" />
      <rect
         style="fill:#000000"
         shape-rendering="optimizeSpeed"
         x="13"
         y="52"
         width="13"
         height="13"
         id="rect3113" />
      <rect
         style="fill:#000000"
         shape-rendering="optimizeSpeed"
         x="39"
         y="52"
         width="13"
         height="13"
         id="rect3115" />
      <rect
         style="fill:#000000"
         shape-rendering="optimizeSpeed"
         x="52"
         y="52"
         width="13"
         height="13"
         id="rect3117" />
      <rect
         style="fill:#000000"
         shape-rendering="optimizeSpeed"
         x="65"
         y="52"
         width="13"
         height="13"
         id="rect3119" />
      <rect
         style="fill:#000000"
         shape-rendering="optimizeSpeed"
         x="91"
         y="52"
         width="13"
         height="13"
         id="rect3121" />
      <rect
         style="fill:#000000"
         shape-rendering="optimizeSpeed"
         x="117"
         y="52"
         width="13"
         height="13"
         id="rect3123" />
      <rect
         style="fill:#000000"
         shape-rendering="optimizeSpeed"
         x="143"
         y="52"
         width="13"
         height="13"
         id="rect3125" />
      <rect
         style="fill:#000000"
         shape-rendering="optimizeSpeed"
         x="156"
         y="52"
         width="13"
         height="13"
         id="rect3127" />
      <rect
         style="fill:#000000"
         shape-rendering="optimizeSpeed"
         x="169"
         y="52"
         width="13"
         height="13"
         id="rect3129" />
      <rect
         style="fill:#000000"
         shape-rendering="optimizeSpeed"
         x="195"
         y="52"
         width="13"
         height="13"
         id="rect3131" />
      <rect
         style="fill:#000000"
         shape-rendering="optimizeSpeed"
         x="221"
         y="52"
         width="13"
         height="13"
         id="rect3133" />
      <rect
         style="fill:#000000"
         shape-rendering="optimizeSpeed"
         x="234"
         y="52"
         width="13"
         height="13"
         id="rect3135" />
      <rect
         style="fill:#000000"
         shape-rendering="optimizeSpeed"
         x="247"
         y="52"
         width="13"
         height="13"
         id="rect3137" />
      <rect
         style="fill:#000000"
         shape-rendering="optimizeSpeed"
         x="273"
         y="52"
         width="13"
         height="13"
         id="rect3139" />
      <rect
         style="fill:#000000"
         shape-rendering="optimizeSpeed"
         x="13"
         y="65"
         width="13"
         height="13"
         id="rect3141" />
      <rect
         style="fill:#000000"
         shape-rendering="optimizeSpeed"
         x="39"
         y="65"
         width="13"
         height="13"
         id="rect3143" />
      <rect
         style="fill:#000000"
         shape-rendering="optimizeSpeed"
         x="52"
         y="65"
         width="13"
         height="13"
         id="rect3145" />
      <rect
         style="fill:#000000"
         shape-rendering="optimizeSpeed"
         x="65"
         y="65"
         width="13"
         height="13"
         id="rect3147" />
      <rect
         style="fill:#000000"
         shape-rendering="optimizeSpeed"
         x="91"
         y="65"
         width="13"
         height="13"
         id="rect3149" />
      <rect
         style="fill:#000000"
         shape-rendering="optimizeSpeed"
         x="117"
         y="65"
         width="13"
         height="13"
         id="rect3151" />
      <rect
         style="fill:#000000"
         shape-rendering="optimizeSpeed"
         x="143"
         y="65"
         width="13"
         height="13"
         id="rect3153" />
      <rect
         style="fill:#000000"
         shape-rendering="optimizeSpeed"
         x="195"
         y="65"
         width="13"
         height="13"
         id="rect3155" />
      <rect
         style="fill:#000000"
         shape-rendering="optimizeSpeed"
         x="221"
         y="65"
         width="13"
         height="13"
         id="rect3157" />
      <rect
         style="fill:#000000"
         shape-rendering="optimizeSpeed"
         x="234"
         y="65"
         width="13"
         height="13"
         id="rect3159" />
      <rect
         style="fill:#000000"
         shape-rendering="optimizeSpeed"
         x="247"
         y="65"
         width="13"
         height="13"
         id="rect3161" />
      <rect
         style="fill:#000000"
         shape-rendering="optimizeSpeed"
         x="273"
         y="65"
         width="13"
         height="13"
         id="rect3163" />
      <rect
         style="fill:#000000"
         shape-rendering="optimizeSpeed"
         x="13"
         y="78"
         width="13"
         height="13"
         id="rect3165" />
      <rect
         style="fill:#000000"
         shape-rendering="optimizeSpeed"
         x="91"
         y="78"
         width="13"
         height="13"
         id="rect3167" />
      <rect
         style="fill:#000000"
         shape-rendering="optimizeSpeed"
         x="143"
         y="78"
         width="13"
         height="13"
         id="rect3169" />
      <rect
         style="fill:#000000"
         shape-rendering="optimizeSpeed"
         x="156"
         y="78"
         width="13"
         height="13"
         id="rect3171" />
      <rect
         style="fill:#000000"
         shape-rendering="optimizeSpeed"
         x="169"
         y="78"
         width="13"
         height="13"
         id="rect3173" />
      <rect
         style="fill:#000000"
         shape-rendering="optimizeSpeed"
         x="195"
         y="78"
         width="13"
         height="13"
         id="rect3175" />
      <rect
         style="fill:#000000"
         shape-rendering="optimizeSpeed"
         x="273"
         y="78"
         width="13"
         height="13"
         id="rect3177" />
      <rect
         style="fill:#000000"
         shape-rendering="optimizeSpeed"
         x="13"
         y="91"
         width="13"
         height="13"
         id="rect3179" />
      <rect
         style="fill:#000000"
         shape-rendering="optimizeSpeed"
         x="26"
         y="91"
         width="13"
         height="13"
         id="rect3181" />
      <rect
         style="fill:#000000"
         shape-rendering="optimizeSpeed"
         x="39"
         y="91"
         width="13"
         height="13"
         id="rect3183" />
      <rect
         style="fill:#000000"
         shape-rendering="optimizeSpeed"
         x="52"
         y="91"
         width="13"
         height="13"
         id="rect3185" />
      <rect
         style="fill:#000000"
         shape-rendering="optimizeSpeed"
         x="65"
         y="91"
         width="13"
         height="13"
         id="rect3187" />
      <rect
         style="fill:#000000"
         shape-rendering="optimizeSpeed"
         x="78"
         y="91"
         width="13"
         height="13"
         id="rect3189" />
      <rect
         style="fill:#000000"
         shape-rendering="optimizeSpeed"
         x="91"
         y="91"
         width="13"
         height="13"
         id="rect3191" />
      <rect
         style="fill:#000000"
         shape-rendering="optimizeSpeed"
         x="117"
         y="91"
         width="13"
         height="13"
         id="rect3193" />
      <rect
         style="fill:#000000"
         shape-rendering="optimizeSpeed"
         x="143"
         y="91"
         width="13"
         height="13"
         id="rect3195" />
      <rect
         style="fill:#000000"
         shape-rendering="optimizeSpeed"
         x="169"
         y="91"
         width="13"
         height="13"
         id="rect3197" />
      <rect
         style="fill:#000000"
         shape-rendering="optimizeSpeed"
         x="195"
         y="91"
         width="13"
         height="13"
         id="rect3199" />
      <rect
         style="fill:#000000"
         shape-rendering="optimizeSpeed"
         x="208"
         y="91"
         width="13"
         height="13"
         id="rect3201" />
      <rect
         style="fill:#000000"
         shape-rendering="optimizeSpeed"
         x="221"
         y="91"
         width="13"
         height="13"
         id="rect3203" />
      <rect
         style="fill:#000000"
         shape-rendering="optimizeSpeed"
         x="234"
         y="91"
         width="13"
         height="13"
         id="rect3205" />
      <rect
         style="fill:#000000"
         shape-rendering="optimizeSpeed"
         x="247"
         y="91"
         width="13"
         height="13"
         id="rect3207" />
      <rect
         style="fill:#000000"
         shape-rendering="optimizeSpeed"
         x="260"
         y="91"
         width="13"
         height="13"
         id="rect3209" />
      <rect
         style="fill:#000000"
         shape-rendering="optimizeSpeed"
         x="273"
         y="91"
         width="13"
         height="13"
         id="rect3211" />
      <rect
         style="fill:#000000"
         shape-rendering="optimizeSpeed"
         x="130"
         y="104"
         width="13"
         height="13"
         id="rect3213" />
      <rect
         style="fill:#000000"
         shape-rendering="optimizeSpeed"
         x="143"
         y="104"
         width="13"
         height="13"
         id="rect3215" />
      <rect
         style="fill:#000000"
         shape-rendering="optimizeSpeed"
         x="13"
         y="117"
         width="13"
         height="13"
         id="rect3217" />
      <rect
         style="fill:#000000"
         shape-rendering="optimizeSpeed"
         x="26"
         y="117"
         width="13"
         height="13"
         id="rect3219" />
      <rect
         style="fill:#000000"
         shape-rendering="optimizeSpeed"
         x="78"
         y="117"
         width="13"
         height="13"
         id="rect3221" />
      <rect
         style="fill:#000000"
         shape-rendering="optimizeSpeed"
         x="91"
         y="117"
         width="13"
         height="13"
         id="rect3223" />
      <rect
         style="fill:#000000"
         shape-rendering="optimizeSpeed"
         x="104"
         y="117"
         width="13"
         height="13"
         id="rect3225" />
      <rect
         style="fill:#000000"
         shape-rendering="optimizeSpeed"
         x="130"
         y="117"
         width="13"
         height="13"
         id="rect3227" />
      <rect
         style="fill:#000000"
         shape-rendering="optimizeSpeed"
         x="156"
         y="117"
         width="13"
         height="13"
         id="rect3229" />
      <rect
         style="fill:#000000"
         shape-rendering="optimizeSpeed"
         x="221"
         y="117"
         width="13"
         height="13"
         id="rect3231" />
      <rect
         style="fill:#000000"
         shape-rendering="optimizeSpeed"
         x="234"
         y="117"
         width="13"
         height="13"
         id="rect3233" />
      <rect
         style="fill:#000000"
         shape-rendering="optimizeSpeed"
         x="52"
         y="130"
         width="13"
         height="13"
         id="rect3235" />
      <rect
         style="fill:#000000"
         shape-rendering="optimizeSpeed"
         x="104"
         y="130"
         width="13"
         height="13"
         id="rect3237" />
      <rect
         style="fill:#000000"
         shape-rendering="optimizeSpeed"
         x="143"
         y="130"
         width="13"
         height="13"
         id="rect3239" />
      <rect
         style="fill:#000000"
         shape-rendering="optimizeSpeed"
         x="234"
         y="130"
         width="13"
         height="13"
         id="rect3241" />
      <rect
         style="fill:#000000"
         shape-rendering="optimizeSpeed"
         x="247"
         y="130"
         width="13"
         height="13"
         id="rect3243" />
      <rect
         style="fill:#000000"
         shape-rendering="optimizeSpeed"
         x="260"
         y="130"
         width="13"
         height="13"
         id="rect3245" />
      <rect
         style="fill:#000000"
         shape-rendering="optimizeSpeed"
         x="39"
         y="143"
         width="13"
         height="13"
         id="rect3247" />
      <rect
         style="fill:#000000"
         shape-rendering="optimizeSpeed"
         x="65"
         y="143"
         width="13"
         height="13"
         id="rect3249" />
      <rect
         style="fill:#000000"
         shape-rendering="optimizeSpeed"
         x="78"
         y="143"
         width="13"
         height="13"
         id="rect3251" />
      <rect
         style="fill:#000000"
         shape-rendering="optimizeSpeed"
         x="91"
         y="143"
         width="13"
         height="13"
         id="rect3253" />
      <rect
         style="fill:#000000"
         shape-rendering="optimizeSpeed"
         x="130"
         y="143"
         width="13"
         height="13"
         id="rect3255" />
      <rect
         style="fill:#000000"
         shape-rendering="optimizeSpeed"
         x="169"
         y="143"
         width="13"
         height="13"
         id="rect3257" />
      <rect
         style="fill:#000000"
         shape-rendering="optimizeSpeed"
         x="195"
         y="143"
         width="13"
         height="13"
         id="rect3259" />
      <rect
         style="fill:#000000"
         shape-rendering="optimizeSpeed"
         x="247"
         y="143"
         width="13"
         height="13"
         id="rect3261" />
      <rect
         style="fill:#000000"
         shape-rendering="optimizeSpeed"
         x="260"
         y="143"
         width="13"
         height="13"
         id="rect3263" />
      <rect
         style="fill:#000000"
         shape-rendering="optimizeSpeed"
         x="26"
         y="156"
         width="13"
         height="13"
         id="rect3265" />
      <rect
         style="fill:#000000"
         shape-rendering="optimizeSpeed"
         x="39"
         y="156"
         width="13"
         height="13"
         id="rect3267" />
      <rect
         style="fill:#000000"
         shape-rendering="optimizeSpeed"
         x="52"
         y="156"
         width="13"
         height="13"
         id="rect3269" />
      <rect
         style="fill:#000000"
         shape-rendering="optimizeSpeed"
         x="143"
         y="156"
         width="13"
         height="13"
         id="rect3271" />
      <rect
         style="fill:#000000"
         shape-rendering="optimizeSpeed"
         x="182"
         y="156"
         width="13"
         height="13"
         id="rect3273" />
      <rect
         style="fill:#000000"
         shape-rendering="optimizeSpeed"
         x="208"
         y="156"
         width="13"
         height="13"
         id="rect3275" />
      <rect
         style="fill:#000000"
         shape-rendering="optimizeSpeed"
         x="221"
         y="156"
         width="13"
         height="13"
         id="rect3277" />
      <rect
         style="fill:#000000"
         shape-rendering="optimizeSpeed"
         x="234"
         y="156"
         width="13"
         height="13"
         id="rect3279" />
      <rect
         style="fill:#000000"
         shape-rendering="optimizeSpeed"
         x="247"
         y="156"
         width="13"
         height="13"
         id="rect3281" />
      <rect
         style="fill:#000000"
         shape-rendering="optimizeSpeed"
         x="26"
         y="169"
         width="13"
         height="13"
         id="rect3283" />
      <rect
         style="fill:#000000"
         shape-rendering="optimizeSpeed"
         x="39"
         y="169"
         width="13"
         height="13"
         id="rect3285" />
      <rect
         style="fill:#000000"
         shape-rendering="optimizeSpeed"
         x="65"
         y="169"
         width="13"
         height="13"
         id="rect3287" />
      <rect
         style="fill:#000000"
         shape-rendering="optimizeSpeed"
         x="78"
         y="169"
         width="13"
         height="13"
         id="rect3289" />
      <rect
         style="fill:#000000"
         shape-rendering="optimizeSpeed"
         x="91"
         y="169"
         width="13"
         height="13"
         id="rect3291" />
      <rect
         style="fill:#000000"
         shape-rendering="optimizeSpeed"
         x="104"
         y="169"
         width="13"
         height="13"
         id="rect3293" />
      <rect
         style="fill:#000000"
         shape-rendering="optimizeSpeed"
         x="117"
         y="169"
         width="13"
         height="13"
         id="rect3295" />
      <rect
         style="fill:#000000"
         shape-rendering="optimizeSpeed"
         x="130"
         y="169"
         width="13"
         height="13"
         id="rect3297" />
      <rect
         style="fill:#000000"
         shape-rendering="optimizeSpeed"
         x="143"
         y="169"
         width="13"
         height="13"
         id="rect3299" />
      <rect
         style="fill:#000000"
         shape-rendering="optimizeSpeed"
         x="156"
         y="169"
         width="13"
         height="13"
         id="rect3301" />
      <rect
         style="fill:#000000"
         shape-rendering="optimizeSpeed"
         x="169"
         y="169"
         width="13"
         height="13"
         id="rect3303" />
      <rect
         style="fill:#000000"
         shape-rendering="optimizeSpeed"
         x="260"
         y="169"
         width="13"
         height="13"
         id="rect3305" />
      <rect
         style="fill:#000000"
         shape-rendering="optimizeSpeed"
         x="117"
         y="182"
         width="13"
         height="13"
         id="rect3307" />
      <rect
         style="fill:#000000"
         shape-rendering="optimizeSpeed"
         x="156"
         y="182"
         width="13"
         height="13"
         id="rect3309" />
      <rect
         style="fill:#000000"
         shape-rendering="optimizeSpeed"
         x="182"
         y="182"
         width="13"
         height="13"
         id="rect3311" />
      <rect
         style="fill:#000000"
         shape-rendering="optimizeSpeed"
         x="221"
         y="182"
         width="13"
         height="13"
         id="rect3313" />
      <rect
         style="fill:#000000"
         shape-rendering="optimizeSpeed"
         x="234"
         y="182"
         width="13"
         height="13"
         id="rect3315" />
      <rect
         style="fill:#000000"
         shape-rendering="optimizeSpeed"
         x="247"
         y="182"
         width="13"
         height="13"
         id="rect3317" />
      <rect
         style="fill:#000000"
         shape-rendering="optimizeSpeed"
         x="273"
         y="182"
         width="13"
         height="13"
         id="rect3319" />
      <rect
         style="fill:#000000"
         shape-rendering="optimizeSpeed"
         x="13"
         y="195"
         width="13"
         height="13"
         id="rect3321" />
      <rect
         style="fill:#000000"
         shape-rendering="optimizeSpeed"
         x="26"
         y="195"
         width="13"
         height="13"
         id="rect3323" />
      <rect
         style="fill:#000000"
         shape-rendering="optimizeSpeed"
         x="39"
         y="195"
         width="13"
         height="13"
         id="rect3325" />
      <rect
         style="fill:#000000"
         shape-rendering="optimizeSpeed"
         x="52"
         y="195"
         width="13"
         height="13"
         id="rect3327" />
      <rect
         style="fill:#000000"
         shape-rendering="optimizeSpeed"
         x="65"
         y="195"
         width="13"
         height="13"
         id="rect3329" />
      <rect
         style="fill:#000000"
         shape-rendering="optimizeSpeed"
         x="78"
         y="195"
         width="13"
         height="13"
         id="rect3331" />
      <rect
         style="fill:#000000"
         shape-rendering="optimizeSpeed"
         x="91"
         y="195"
         width="13"
         height="13"
         id="rect3333" />
      <rect
         style="fill:#000000"
         shape-rendering="optimizeSpeed"
         x="117"
         y="195"
         width="13"
         height="13"
         id="rect3335" />
      <rect
         style="fill:#000000"
         shape-rendering="optimizeSpeed"
         x="130"
         y="195"
         width="13"
         height="13"
         id="rect3337" />
      <rect
         style="fill:#000000"
         shape-rendering="optimizeSpeed"
         x="156"
         y="195"
         width="13"
         height="13"
         id="rect3339" />
      <rect
         style="fill:#000000"
         shape-rendering="optimizeSpeed"
         x="169"
         y="195"
         width="13"
         height="13"
         id="rect3341" />
      <rect
         style="fill:#000000"
         shape-rendering="optimizeSpeed"
         x="182"
         y="195"
         width="13"
         height="13"
         id="rect3343" />
      <rect
         style="fill:#000000"
         shape-rendering="optimizeSpeed"
         x="208"
         y="195"
         width="13"
         height="13"
         id="rect3345" />
      <rect
         style="fill:#000000"
         shape-rendering="optimizeSpeed"
         x="247"
         y="195"
         width="13"
         height="13"
         id="rect3347" />
      <rect
         style="fill:#000000"
         shape-rendering="optimizeSpeed"
         x="260"
         y="195"
         width="13"
         height="13"
         id="rect3349" />
      <rect
         style="fill:#000000"
         shape-rendering="optimizeSpeed"
         x="13"
         y="208"
         width="13"
         height="13"
         id="rect3351" />
      <rect
         style="fill:#000000"
         shape-rendering="optimizeSpeed"
         x="91"
         y="208"
         width="13"
         height="13"
         id="rect3353" />
      <rect
         style="fill:#000000"
         shape-rendering="optimizeSpeed"
         x="117"
         y="208"
         width="13"
         height="13"
         id="rect3355" />
      <rect
         style="fill:#000000"
         shape-rendering="optimizeSpeed"
         x="143"
         y="208"
         width="13"
         height="13"
         id="rect3357" />
      <rect
         style="fill:#000000"
         shape-rendering="optimizeSpeed"
         x="156"
         y="208"
         width="13"
         height="13"
         id="rect3359" />
      <rect
         style="fill:#000000"
         shape-rendering="optimizeSpeed"
         x="182"
         y="208"
         width="13"
         height="13"
         id="rect3361" />
      <rect
         style="fill:#000000"
         shape-rendering="optimizeSpeed"
         x="195"
         y="208"
         width="13"
         height="13"
         id="rect3363" />
      <rect
         style="fill:#000000"
         shape-rendering="optimizeSpeed"
         x="208"
         y="208"
         width="13"
         height="13"
         id="rect3365" />
      <rect
         style="fill:#000000"
         shape-rendering="optimizeSpeed"
         x="234"
         y="208"
         width="13"
         height="13"
         id="rect3367" />
      <rect
         style="fill:#000000"
         shape-rendering="optimizeSpeed"
         x="247"
         y="208"
         width="13"
         height="13"
         id="rect3369" />
      <rect
         style="fill:#000000"
         shape-rendering="optimizeSpeed"
         x="273"
         y="208"
         width="13"
         height="13"
         id="rect3371" />
      <rect
         style="fill:#000000"
         shape-rendering="optimizeSpeed"
         x="13"
         y="221"
         width="13"
         height="13"
         id="rect3373" />
      <rect
         style="fill:#000000"
         shape-rendering="optimizeSpeed"
         x="39"
         y="221"
         width="13"
         height="13"
         id="rect3375" />
      <rect
         style="fill:#000000"
         shape-rendering="optimizeSpeed"
         x="52"
         y="221"
         width="13"
         height="13"
         id="rect3377" />
      <rect
         style="fill:#000000"
         shape-rendering="optimizeSpeed"
         x="65"
         y="221"
         width="13"
         height="13"
         id="rect3379" />
      <rect
         style="fill:#000000"
         shape-rendering="optimizeSpeed"
         x="91"
         y="221"
         width="13"
         height="13"
         id="rect3381" />
      <rect
         style="fill:#000000"
         shape-rendering="optimizeSpeed"
         x="143"
         y="221"
         width="13"
         height="13"
         id="rect3383" />
      <rect
         style="fill:#000000"
         shape-rendering="optimizeSpeed"
         x="156"
         y="221"
         width="13"
         height="13"
         id="rect3385" />
      <rect
         style="fill:#000000"
         shape-rendering="optimizeSpeed"
         x="169"
         y="221"
         width="13"
         height="13"
         id="rect3387" />
      <rect
         style="fill:#000000"
         shape-rendering="optimizeSpeed"
         x="195"
         y="221"
         width="13"
         height="13"
         id="rect3389" />
      <rect
         style="fill:#000000"
         shape-rendering="optimizeSpeed"
         x="221"
         y="221"
         width="13"
         height="13"
         id="rect3391" />
      <rect
         style="fill:#000000"
         shape-rendering="optimizeSpeed"
         x="234"
         y="221"
         width="13"
         height="13"
         id="rect3393" />
      <rect
         style="fill:#000000"
         shape-rendering="optimizeSpeed"
         x="13"
         y="234"
         width="13"
         height="13"
         id="rect3395" />
      <rect
         style="fill:#000000"
         shape-rendering="optimizeSpeed"
         x="39"
         y="234"
         width="13"
         height="13"
         id="rect3397" />
      <rect
         style="fill:#000000"
         shape-rendering="optimizeSpeed"
         x="52"
         y="234"
         width="13"
         height="13"
         id="rect3399" />
      <rect
         style="fill:#000000"
         shape-rendering="optimizeSpeed"
         x="65"
         y="234"
         width="13"
         height="13"
         id="rect3401" />
      <rect
         style="fill:#000000"
         shape-rendering="optimizeSpeed"
         x="91"
         y="234"
         width="13"
         height="13"
         id="rect3403" />
      <rect
         style="fill:#000000"
         shape-rendering="optimizeSpeed"
         x="130"
         y="234"
         width="13"
         height="13"
         id="rect3405" />
      <rect
         style="fill:#000000"
         shape-rendering="optimizeSpeed"
         x="143"
         y="234"
         width="13"
         height="13"
         id="rect3407" />
      <rect
         style="fill:#000000"
         shape-rendering="optimizeSpeed"
         x="182"
         y="234"
         width="13"
         height="13"
         id="rect3409" />
      <rect
         style="fill:#000000"
         shape-rendering="optimizeSpeed"
         x="221"
         y="234"
         width="13"
         height="13"
         id="rect3411" />
      <rect
         style="fill:#000000"
         shape-rendering="optimizeSpeed"
         x="247"
         y="234"
         width="13"
         height="13"
         id="rect3413" />
      <rect
         style="fill:#000000"
         shape-rendering="optimizeSpeed"
         x="260"
         y="234"
         width="13"
         height="13"
         id="rect3415" />
      <rect
         style="fill:#000000"
         shape-rendering="optimizeSpeed"
         x="13"
         y="247"
         width="13"
         height="13"
         id="rect3417" />
      <rect
         style="fill:#000000"
         shape-rendering="optimizeSpeed"
         x="39"
         y="247"
         width="13"
         height="13"
         id="rect3419" />
      <rect
         style="fill:#000000"
         shape-rendering="optimizeSpeed"
         x="52"
         y="247"
         width="13"
         height="13"
         id="rect3421" />
      <rect
         style="fill:#000000"
         shape-rendering="optimizeSpeed"
         x="65"
         y="247"
         width="13"
         height="13"
         id="rect3423" />
      <rect
         style="fill:#000000"
         shape-rendering="optimizeSpeed"
         x="91"
         y="247"
         width="13"
         height="13"
         id="rect3425" />
      <rect
         style="fill:#000000"
         shape-rendering="optimizeSpeed"
         x="130"
         y="247"
         width="13"
         height="13"
         id="rect3427" />
      <rect
         style="fill:#000000"
         shape-rendering="optimizeSpeed"
         x="169"
         y="247"
         width="13"
         height="13"
         id="rect3429" />
      <rect
         style="fill:#000000"
         shape-rendering="optimizeSpeed"
         x="208"
         y="247"
         width="13"
         height="13"
         id="rect3431" />
      <rect
         style="fill:#000000"
         shape-rendering="optimizeSpeed"
         x="221"
         y="247"
         width="13"
         height="13"
         id="rect3433" />
      <rect
         style="fill:#000000"
         shape-rendering="optimizeSpeed"
         x="234"
         y="247"
         width="13"
         height="13"
         id="rect3435" />
      <rect
         style="fill:#000000"
         shape-rendering="optimizeSpeed"
         x="247"
         y="247"
         width="13"
         height="13"
         id="rect3437" />
      <rect
         style="fill:#000000"
         shape-rendering="optimizeSpeed"
         x="260"
         y="247"
         width="13"
         height="13"
         id="rect3439" />
      <rect
         style="fill:#000000"
         shape-rendering="optimizeSpeed"
         x="273"
         y="247"
         width="13"
         height="13"
         id="rect3441" />
      <rect
         style="fill:#000000"
         shape-rendering="optimizeSpeed"
         x="13"
         y="260"
         width="13"
         height="13"
         id="rect3443" />
      <rect
         style="fill:#000000"
         shape-rendering="optimizeSpeed"
         x="91"
         y="260"
         width="13"
         height="13"
         id="rect3445" />
      <rect
         style="fill:#000000"
         shape-rendering="optimizeSpeed"
         x="117"
         y="260"
         width="13"
         height="13"
         id="rect3447" />
      <rect
         style="fill:#000000"
         shape-rendering="optimizeSpeed"
         x="156"
         y="260"
         width="13"
         height="13"
         id="rect3449" />
      <rect
         style="fill:#000000"
         shape-rendering="optimizeSpeed"
         x="169"
         y="260"
         width="13"
         height="13"
         id="rect3451" />
      <rect
         style="fill:#000000"
         shape-rendering="optimizeSpeed"
         x="221"
         y="260"
         width="13"
         height="13"
         id="rect3453" />
      <rect
         style="fill:#000000"
         shape-rendering="optimizeSpeed"
         x="247"
         y="260"
         width="13"
         height="13"
         id="rect3455" />
      <rect
         style="fill:#000000"
         shape-rendering="optimizeSpeed"
         x="13"
         y="273"
         width="13"
         height="13"
         id="rect3457" />
      <rect
         style="fill:#000000"
         shape-rendering="optimizeSpeed"
         x="26"
         y="273"
         width="13"
         height="13"
         id="rect3459" />
      <rect
         style="fill:#000000"
         shape-rendering="optimizeSpeed"
         x="39"
         y="273"
         width="13"
         height="13"
         id="rect3461" />
      <rect
         style="fill:#000000"
         shape-rendering="optimizeSpeed"
         x="52"
         y="273"
         width="13"
         height="13"
         id="rect3463" />
      <rect
         style="fill:#000000"
         shape-rendering="optimizeSpeed"
         x="65"
         y="273"
         width="13"
         height="13"
         id="rect3465" />
      <rect
         style="fill:#000000"
         shape-rendering="optimizeSpeed"
         x="78"
         y="273"
         width="13"
         height="13"
         id="rect3467" />
      <rect
         style="fill:#000000"
         shape-rendering="optimizeSpeed"
         x="91"
         y="273"
         width="13"
         height="13"
         id="rect3469" />
      <rect
         style="fill:#000000"
         shape-rendering="optimizeSpeed"
         x="117"
         y="273"
         width="13"
         height="13"
         id="rect3471" />
      <rect
         style="fill:#000000"
         shape-rendering="optimizeSpeed"
         x="143"
         y="273"
         width="13"
         height="13"
         id="rect3473" />
      <rect
         style="fill:#000000"
         shape-rendering="optimizeSpeed"
         x="156"
         y="273"
         width="13"
         height="13"
         id="rect3475" />
      <rect
         style="fill:#000000"
         shape-rendering="optimizeSpeed"
         x="195"
         y="273"
         width="13"
         height="13"
         id="rect3477" />
      <rect
         style="fill:#000000"
         shape-rendering="optimizeSpeed"
         x="208"
         y="273"
         width="13"
         height="13"
         id="rect3479" />
      <rect
         style="fill:#000000"
         shape-rendering="optimizeSpeed"
         x="221"
         y="273"
         width="13"
         height="13"
         id="rect3481" />
      <rect
         style="fill:#000000"
         shape-rendering="optimizeSpeed"
         x="234"
         y="273"
         width="13"
         height="13"
         id="rect3483" />
      <rect
         style="fill:#000000"
         shape-rendering="optimizeSpeed"
         x="260"
         y="273"
         width="13"
         height="13"
         id="rect3485" />
    </g>
  </g>
</svg>
