<?xml version="1.0" encoding="UTF-8" standalone="no"?>
<!-- Created with Inkscape (http://www.inkscape.org/) -->

<svg
   xmlns:dc="http://purl.org/dc/elements/1.1/"
   xmlns:cc="http://creativecommons.org/ns#"
   xmlns:rdf="http://www.w3.org/1999/02/22-rdf-syntax-ns#"
   xmlns:svg="http://www.w3.org/2000/svg"
   xmlns="http://www.w3.org/2000/svg"
   xmlns:sodipodi="http://sodipodi.sourceforge.net/DTD/sodipodi-0.dtd"
   xmlns:inkscape="http://www.inkscape.org/namespaces/inkscape"
   width="336.65079mm"
   height="336.65079mm"
   viewBox="0 0 1192.8571 1192.8571"
   id="svg5042"
   version="1.1"
   inkscape:version="0.91 r13725"
   sodipodi:docname="juergen.svg"
   inkscape:export-filename="C:\Users\Marlene\grafiken\Flyer\juergen.png"
   inkscape:export-xdpi="90"
   inkscape:export-ydpi="90">
  <defs
     id="defs5044">
    <inkscape:path-effect
       effect="spiro"
       id="path-effect4253-1"
       is_visible="true" />
    <inkscape:path-effect
       effect="spiro"
       id="path-effect4253"
       is_visible="true" />
  </defs>
  <sodipodi:namedview
     id="base"
     pagecolor="#ffffff"
     bordercolor="#666666"
     borderopacity="1.0"
     inkscape:pageopacity="0.0"
     inkscape:pageshadow="2"
     inkscape:zoom="0.175"
     inkscape:cx="703.87405"
     inkscape:cy="-183.30116"
     inkscape:document-units="px"
     inkscape:current-layer="layer1"
     showgrid="false"
     inkscape:window-width="944"
     inkscape:window-height="1002"
     inkscape:window-x="960"
     inkscape:window-y="0"
     inkscape:window-maximized="0"
     fit-margin-top="0"
     fit-margin-left="0"
     fit-margin-right="0"
     fit-margin-bottom="0" />
  <metadata
     id="metadata5047">
    <rdf:RDF>
      <cc:Work
         rdf:about="">
        <dc:format>image/svg+xml</dc:format>
        <dc:type
           rdf:resource="http://purl.org/dc/dcmitype/StillImage" />
        <dc:title></dc:title>
      </cc:Work>
    </rdf:RDF>
  </metadata>
  <g
     inkscape:label="Ebene 1"
     inkscape:groupmode="layer"
     id="layer1"
     transform="translate(216.42857,118.352)">
    <g
       id="g5668"
       transform="translate(119.99999,231.42861)">
      <path
         sodipodi:nodetypes="ccssssssc"
         inkscape:connector-curvature="0"
         id="path4322"
         d="m 56.110859,110.32101 21.21316,-90.509646 c 0,0 -90.50962,-62.2254 -115.96546,-91.92388 -25.45585,-29.698494 -50.91169,-83.438594 -25.45585,-96.166524 25.45585,-12.72792 142.83561,-59.39697 199.404111,-57.98275 56.5685,1.41421 371.9382,-19.79899 434.1636,19.79899 62.22538,39.59798 159.80608,38.18376 127.27918,179.605114 C 664.2227,114.56366 618.9679,306.8967 596.3405,349.3231 573.7131,391.7495 56.110859,110.32101 56.110859,110.32101 Z"
         style="opacity:1;fill:#d3623a;fill-opacity:1;fill-rule:evenodd;stroke:#000000;stroke-width:13;stroke-linecap:butt;stroke-linejoin:miter;stroke-miterlimit:4;stroke-dasharray:none;stroke-opacity:1" />
      <path
         inkscape:connector-curvature="0"
         id="path4398"
         d="m 248.27912,754.77376 c 30,72.00005 44,76.00005 44,76.00005 l 26,4 62,-68 10,-102.00005 -130,-8 z"
         style="opacity:1;fill:#d3623a;fill-opacity:1;fill-rule:evenodd;stroke:#000000;stroke-width:8;stroke-linecap:butt;stroke-linejoin:miter;stroke-miterlimit:4;stroke-dasharray:none;stroke-opacity:1" />
      <path
         sodipodi:nodetypes="czzzsccc"
         inkscape:connector-curvature="0"
         id="path4394"
         d="m 518.27912,548.77376 c 0,0 14.69173,-3.12941 32,6 17.30827,9.12942 50.14718,37.22596 59.99998,60 9.8528,22.77404 19.349,25.33119 2,64 -17.349,38.66881 -99.99998,110.00005 -145.99998,122.00005 -46,12 -58,24 -58,24 l -52,-122.00005 z"
         style="opacity:1;fill:#ffffff;fill-opacity:1;fill-rule:evenodd;stroke:#000000;stroke-width:10;stroke-linecap:butt;stroke-linejoin:miter;stroke-miterlimit:4;stroke-dasharray:none;stroke-opacity:1" />
      <path
         inkscape:connector-curvature="0"
         id="path4396"
         d="m 264.27912,582.77376 -84,32 c 0,0 -28,10 -22,46 6,36 64,142.00005 64,142.00005 l 64,-110.00005 22,-110 z"
         style="opacity:1;fill:#ffffff;fill-opacity:1;fill-rule:evenodd;stroke:#000000;stroke-width:10;stroke-linecap:butt;stroke-linejoin:miter;stroke-miterlimit:4;stroke-dasharray:none;stroke-opacity:1" />
      <path
         sodipodi:nodetypes="ccssssssssssccccsscc"
         inkscape:connector-curvature="0"
         id="path4310"
         d="M 125.40732,-5.6444861 82.273819,132.94846 c 0,0 -7.0711,100.4091 -10.6066,148.4924 -3.5355,48.0833 -8.4853,130.8148 6.364,162.6346 14.8492,31.8198 35.355301,71.4177 88.388301,101.1162 53.033,29.6985 137.8858,56.5686 180.3122,43.1335 42.4264,-13.435 82.0244,-33.9411 106.7732,-61.5182 24.7487,-27.5772 91.03992,-118.9708 91.03992,-124.6276 0,-5.6569 4.41948,10.0763 18.56158,-4.773 14.14208,-14.8492 41.71928,-48.7904 37.47668,-73.5391 -4.2427,-24.7487 9.8995,-53.033 -19.799,-50.2046 -29.69848,2.8285 -40.30508,2.1214 -57.98278,37.4767 -17.6776,35.3553 -4.9497,-24.0416 -4.9497,-24.0416 l 18.3847,-11.3137 -15.5563,-16.2635 23.3345,-69.2965 c 0,0 -55.1543,-1.4142 -56.5685,-12.7279 -1.4142,-11.3137 21.2132,-82.024396 -2.8284,-168.9985061 -24.0417,-86.9741399 -249.6087,-26.1629499 -249.6087,-26.1629499 0,0 -94.7523,28.99137 -109.6016,12.0208099 z"
         style="opacity:1;fill:#e1d2b1;fill-opacity:1;fill-rule:evenodd;stroke:#000000;stroke-width:10;stroke-linecap:butt;stroke-linejoin:miter;stroke-miterlimit:4;stroke-dasharray:none;stroke-opacity:1" />
      <ellipse
         ry="56.063465"
         rx="35.355339"
         cy="197.69917"
         cx="348.85309"
         id="path3350"
         style="opacity:1;fill:#000000;fill-opacity:1;stroke:#000000;stroke-opacity:1" />
      <ellipse
         ry="56.063465"
         rx="35.355339"
         cy="191.1331"
         cx="136.72101"
         id="path3350-4"
         style="opacity:1;fill:#000000;fill-opacity:1;stroke:#000000;stroke-opacity:1" />
      <ellipse
         ry="17.366301"
         rx="10.951721"
         cy="179.66786"
         cx="360.46985"
         id="path3350-47"
         style="opacity:1;fill:#ffffff;fill-opacity:1;stroke:#000000;stroke-width:0.30976143;stroke-opacity:1" />
      <ellipse
         ry="17.366301"
         rx="10.951721"
         cy="172.95033"
         cx="147.8327"
         id="path3350-47-1"
         style="opacity:1;fill:#ffffff;fill-opacity:1;stroke:#000000;stroke-width:0.30976143;stroke-opacity:1" />
      <path
         inkscape:connector-curvature="0"
         inkscape:original-d="m 177.27912,99.273764 2.5,-8 c 0,0 -0.5,-18.5 -14,-22 -13.5,-3.5 -44.5,8 -44.5,8 l -3.5,9.5 c 0,0 12.5,-2 25.5,-3 13,-1 29,3.5 34,15.5 z"
         inkscape:path-effect="#path-effect4253"
         id="path4251"
         d="m 177.27912,99.273764 2.5,-8 c -1.37156,-8.838312 -6.57443,-17.014242 -14,-22 -6.91846,-4.645269 -15.66715,-6.479907 -23.86895,-5.005426 -8.20181,1.474482 -15.7637,6.241359 -20.63105,13.005426 l -3.5,9.5 c 8.14093,-2.859345 16.91775,-3.891913 25.5,-3 12.60844,1.310335 24.74143,6.841553 34,15.5 z"
         style="opacity:1;fill:#000000;fill-opacity:1;fill-rule:evenodd;stroke:#000000;stroke-width:1px;stroke-linecap:butt;stroke-linejoin:miter;stroke-opacity:1" />
      <path
         inkscape:connector-curvature="0"
         inkscape:original-d="m 327.14166,107.60696 -1.13576,-8.456396 c 0,0 3.50596,-18.13948 17.25702,-18.54941 13.75105,-0.40992 42.14058,17.92413 42.14058,17.92413 l 1.86738,10.161716 c 0,0 -11.87756,-4.79099 -24.4064,-8.708076 -12.52885,-3.91708 -28.88379,-3.08411 -35.72282,7.628036 z"
         inkscape:path-effect="#path-effect4253-1"
         id="path4251-3"
         d="m 327.14166,107.60696 -1.13576,-8.456396 c 2.87031,-8.201981 9.28331,-15.095253 17.25702,-18.54941 7.83437,-3.393797 17.06066,-3.424383 24.91736,-0.0826 7.8567,3.341778 14.23404,10.009234 17.22322,18.006734 l 1.86738,10.161716 c -7.3308,-4.70968 -15.75003,-7.71361 -24.4064,-8.708076 -12.31177,-1.414401 -25.06255,1.308326 -35.72282,7.628036 z"
         style="opacity:1;fill:#000000;fill-opacity:1;fill-rule:evenodd;stroke:#000000;stroke-width:1px;stroke-linecap:butt;stroke-linejoin:miter;stroke-opacity:1" />
      <path
         inkscape:connector-curvature="0"
         id="path4304"
         d="m 184.27912,148.27376 9.5,2 -55,196.5 c 0,0 -0.5,7 5.5,8 6,1 46,2.5 46,2.5 0,0 14,3 9.5,9 -4.5,6 -62.5,-1.5 -62.5,-1.5 0,0 -18.5,-10 -18,-15.5 0.5,-5.5 8,-21.5 17,-50.5 9,-29 48,-150.5 48,-150.5 z"
         style="opacity:1;fill:#000000;fill-opacity:1;fill-rule:evenodd;stroke:#000000;stroke-width:1px;stroke-linecap:butt;stroke-linejoin:miter;stroke-opacity:1" />
      <path
         inkscape:connector-curvature="0"
         id="path4306"
         d="m 133.89262,415.79116 34.6482,74.9533 c 0,0 36.0625,24.7487 84.8528,23.3345 48.7904,-1.4142 111.0158,-14.1421 115.9655,-21.2132 4.9498,-7.071 38.1838,-73.5391 38.1838,-73.5391 l -12.0208,-6.3639 c 0,0 -62.2254,19.799 -123.0366,21.9203 -60.8112,2.1213 -138.5929,-19.0919 -138.5929,-19.0919 z"
         style="opacity:1;fill:#ffffff;fill-opacity:1;fill-rule:evenodd;stroke:#000000;stroke-width:10;stroke-linecap:butt;stroke-linejoin:miter;stroke-miterlimit:4;stroke-dasharray:none;stroke-opacity:1" />
      <path
         inkscape:connector-curvature="0"
         id="path4308"
         d="m 148.1043,444.76561 70.24391,11.95574 c 0,0 82.58406,9.23854 105.36592,7.06479 22.78173,-2.17376 -47.46218,8.6951 -98.72115,2.71719 -51.25912,-5.97783 -71.19315,-11.4123 -71.19315,-11.4123 z"
         style="opacity:1;fill:#000000;fill-opacity:1;fill-rule:evenodd;stroke:#000000;stroke-width:1.01573646px;stroke-linecap:butt;stroke-linejoin:miter;stroke-opacity:1" />
      <path
         inkscape:connector-curvature="0"
         id="path4318"
         d="m 540.27912,343.77376 c 0,0 -9,-18 5,-29 14,-11 37.99998,-3 37.99998,6 0,9 4,28 -17.99998,37 -22,9 -22,9 -22,9 l 1,6"
         style="opacity:1;fill:none;fill-rule:evenodd;stroke:#000000;stroke-width:7;stroke-linecap:butt;stroke-linejoin:miter;stroke-miterlimit:4;stroke-dasharray:none;stroke-opacity:1" />
      <path
         inkscape:connector-curvature="0"
         id="path4324"
         d="m 73.081419,-216.3623 c 0,0 74.953301,-18.38477 124.450801,15.55635 49.4975,33.94113 73.5391,66.46803 65.0538,101.823374 -8.4853,35.35534 -59.3969,53.74011 -113.1371,45.25483 -53.740101,-8.48528 -94.752301,-31.1127 -93.338101,-57.982754 1.4143,-26.87005 24.0417,-49.49747 48.083301,-49.49747 24.0416,0 59.397,38.18376 59.397,38.18376 l 0,0"
         style="opacity:1;fill:none;fill-rule:evenodd;stroke:#000000;stroke-width:13;stroke-linecap:butt;stroke-linejoin:miter;stroke-miterlimit:4;stroke-dasharray:none;stroke-opacity:1" />
      <path
         inkscape:connector-curvature="0"
         id="path4326"
         d="m 327.63982,-186.66381 c 0,0 45.2549,12.72792 52.3259,49.49746 7.0711,36.76956 -1.4142,45.254844 -1.4142,45.254844 l 0,0"
         style="opacity:1;fill:none;fill-rule:evenodd;stroke:#000000;stroke-width:16;stroke-linecap:butt;stroke-linejoin:miter;stroke-miterlimit:4;stroke-dasharray:none;stroke-opacity:1" />
      <path
         inkscape:connector-curvature="0"
         id="path4326-3"
         d="m 412.87925,-179.39887 c 0,0 32.56251,19.63287 30.19007,49.82474 -2.37233,30.191824 -10.80973,34.989134 -10.80973,34.989134 l 0,0"
         style="opacity:1;fill:none;fill-rule:evenodd;stroke:#000000;stroke-width:12.94113445;stroke-linecap:butt;stroke-linejoin:miter;stroke-miterlimit:4;stroke-dasharray:none;stroke-opacity:1" />
      <path
         inkscape:connector-curvature="0"
         id="path4326-3-5"
         d="m 474.50721,-161.66958 c 0,0 21.0839,22.9385 12.26438,46.13368 -8.81947,23.195294 -16.55924,25.024354 -16.55924,25.024354 l 0,0"
         style="opacity:1;fill:none;fill-rule:evenodd;stroke:#000000;stroke-width:10.60392857;stroke-linecap:butt;stroke-linejoin:miter;stroke-miterlimit:4;stroke-dasharray:none;stroke-opacity:1" />
      <path
         inkscape:connector-curvature="0"
         id="path4358"
         d="m 553.91402,236.18606 c 74.95328,9.8995 74.95328,9.8995 74.95328,9.8995"
         style="opacity:1;fill:none;fill-rule:evenodd;stroke:#000000;stroke-width:10;stroke-linecap:butt;stroke-linejoin:miter;stroke-miterlimit:4;stroke-dasharray:none;stroke-opacity:1" />
      <path
         inkscape:connector-curvature="0"
         id="path4358-6"
         d="m 559.67555,169.75961 c 78.98665,19.71523 78.98665,19.71523 78.98665,19.71523"
         style="opacity:1;fill:none;fill-rule:evenodd;stroke:#000000;stroke-width:14.48691654;stroke-linecap:butt;stroke-linejoin:miter;stroke-miterlimit:4;stroke-dasharray:none;stroke-opacity:1" />
      <path
         inkscape:transform-center-y="70.218503"
         inkscape:transform-center-x="1.091775"
         inkscape:connector-curvature="0"
         id="path4358-6-9"
         d="m 568.8073,109.85991 c 81.4347,34.05745 81.4347,34.05745 81.4347,34.05745"
         style="opacity:1;fill:none;fill-rule:evenodd;stroke:#000000;stroke-width:15.50581169;stroke-linecap:butt;stroke-linejoin:miter;stroke-miterlimit:4;stroke-dasharray:none;stroke-opacity:1" />
      <path
         sodipodi:nodetypes="cccssscscc"
         inkscape:connector-curvature="0"
         id="path4390"
         d="m 544.02496,399.91162 -33.95154,175.68564 19.799,18.3848 c 0,0 31.1127,22.6274 5.6568,49.4975 -25.4558,26.87 -106.066,59.3969 -176.7767,57.9827 -70.7106,-1.4142 -132.936,-25.4558 -132.936,-45.2548 0,-19.799 37.098,-25.0269 37.098,-25.0269 0,0 4.97479,1.69235 10.63166,-22.34923 l 5.6569,-17.85452 -0.85618,-3.55806"
         style="opacity:1;fill:#e1d2b1;fill-opacity:1;fill-rule:evenodd;stroke:#000000;stroke-width:10;stroke-linecap:round;stroke-linejoin:miter;stroke-miterlimit:4;stroke-dasharray:none;stroke-opacity:1" />
      <path
         sodipodi:nodetypes="cssc"
         inkscape:connector-curvature="0"
         id="path4392"
         d="m 280.59916,587.29347 c 0,0 6.11283,3.5039 32.61454,1.72225 26.50171,-1.78165 140.90982,-27.14171 149.2523,-32.36263 8.34248,-5.22092 17.35944,-25.7221 17.35944,-25.7221"
         style="opacity:1;fill:none;fill-rule:evenodd;stroke:#000000;stroke-width:10;stroke-linecap:round;stroke-linejoin:miter;stroke-miterlimit:4;stroke-dasharray:none;stroke-opacity:1" />
      <path
         inkscape:connector-curvature="0"
         id="path4694"
         d="m 294.77912,696.27376 c -39,73.00005 -47,61 -47,61 l 38,-64 z"
         style="opacity:1;fill:#000000;fill-opacity:1;fill-rule:evenodd;stroke:#000000;stroke-width:1px;stroke-linecap:butt;stroke-linejoin:miter;stroke-opacity:1" />
      <path
         inkscape:connector-curvature="0"
         id="path4700"
         d="m 257.27912,770.27381 52,-69.50005 12.5,1 -63.5,74.00005 z"
         style="opacity:1;fill:#000000;fill-opacity:1;fill-rule:evenodd;stroke:#000000;stroke-width:1px;stroke-linecap:butt;stroke-linejoin:miter;stroke-opacity:1" />
      <path
         inkscape:connector-curvature="0"
         id="path4702"
         d="m 332.77912,703.27376 -70.5,81.50005 2,6 86,-86.50005 z"
         style="opacity:1;fill:#000000;fill-opacity:1;fill-rule:evenodd;stroke:#000000;stroke-width:1px;stroke-linecap:butt;stroke-linejoin:miter;stroke-opacity:1" />
      <path
         inkscape:connector-curvature="0"
         id="path4723"
         d="m 273.89972,620.85216 c 0,0 84.8528,15.5563 137.1787,-11.3137 52.3259,-26.8701 70.7107,-76.3676 70.7107,-76.3676 l -41.0122,28.2843 -138.5929,29.6985 -16.9706,-2.8285 z"
         style="opacity:1;fill:#000000;fill-opacity:1;fill-rule:evenodd;stroke:#000000;stroke-width:1px;stroke-linecap:butt;stroke-linejoin:miter;stroke-opacity:1" />
      <path
         sodipodi:nodetypes="csccscc"
         inkscape:connector-curvature="0"
         id="path4852"
         d="m 194.70382,-224.84758 c 0,0 80.06592,33.40656 84.9533,76.13961 6.89432,60.280854 -32.45064,80.130984 -32.45064,80.130984 l 17.03644,-28.98275 c 0,0 -4.1569,-57.319804 -21.1274,-68.633514 -16.9706,-11.31371 -97.9092,-57.24011 -97.9092,-57.24011 z"
         style="opacity:1;fill:#000000;fill-opacity:1;fill-rule:evenodd;stroke:#000000;stroke-width:1px;stroke-linecap:butt;stroke-linejoin:miter;stroke-opacity:1" />
      <path
         inkscape:connector-curvature="0"
         id="path4854"
         d="m 64.596119,90.522064 c 24.7488,13.434996 25.4559,13.434996 25.4559,13.434996"
         style="opacity:1;fill:none;fill-rule:evenodd;stroke:#000000;stroke-width:6;stroke-linecap:butt;stroke-linejoin:miter;stroke-miterlimit:4;stroke-dasharray:none;stroke-opacity:1" />
      <path
         inkscape:transform-center-y="-22.80928"
         inkscape:transform-center-x="12.519088"
         inkscape:connector-curvature="0"
         id="path4854-3"
         d="m 68.340479,75.844494 c 24.7488,13.435 25.4559,13.435 25.4559,13.435"
         style="opacity:1;fill:none;fill-rule:evenodd;stroke:#000000;stroke-width:6;stroke-linecap:butt;stroke-linejoin:miter;stroke-miterlimit:4;stroke-dasharray:none;stroke-opacity:1" />
      <path
         inkscape:transform-center-y="-19.980852"
         inkscape:transform-center-x="-0.20883427"
         inkscape:connector-curvature="0"
         id="path4854-6"
         d="m 71.876019,62.409474 c 24.7488,13.435 25.4559,13.435 25.4559,13.435"
         style="opacity:1;fill:none;fill-rule:evenodd;stroke:#000000;stroke-width:6;stroke-linecap:butt;stroke-linejoin:miter;stroke-miterlimit:4;stroke-dasharray:none;stroke-opacity:1" />
      <path
         inkscape:connector-curvature="0"
         id="path4889"
         d="m 105.60832,-156.96533 c 0,0 -18.384801,-7.07106 -24.041601,24.04162 -5.6569,31.1127 16.9706,63.639614 38.183801,70.710684 21.2132,7.07107 -50.911701,-19.79899 -50.911701,-19.79899 l -14.1422,-35.355344 19.799,-32.5269 35.355401,-7.07107 0,0"
         style="opacity:1;fill:#000000;fill-opacity:1;fill-rule:evenodd;stroke:#000000;stroke-width:1px;stroke-linecap:butt;stroke-linejoin:miter;stroke-opacity:1" />
      <path
         sodipodi:nodetypes="cccc"
         inkscape:connector-curvature="0"
         id="path4893"
         d="m 168.14308,-126.69234 13.3909,30.007864 -22.075,-21.992144 z"
         style="opacity:1;fill:#000000;fill-opacity:1;fill-rule:evenodd;stroke:#000000;stroke-width:1px;stroke-linecap:butt;stroke-linejoin:miter;stroke-opacity:1" />
    </g>
    <circle
       style="opacity:1;fill:none;fill-opacity:1;stroke:#000000;stroke-width:7.20448637;stroke-linecap:round;stroke-miterlimit:4;stroke-dasharray:none;stroke-opacity:1"
       id="path15853"
       cx="379.99997"
       cy="478.07654"
       r="592.82629" />
  </g>
</svg>
