<?xml version="1.0" encoding="utf-8"?>
<!-- Generator: Adobe Illustrator 22.0.1, SVG Export Plug-In . SVG Version: 6.00 Build 0)  -->
<svg version="1.1"
	 id="svg2" inkscape:export-filename="C:\Users\Marlene\JUG\grafiken\Plakate\Plakat_2017_11\plakat2017-11.png" inkscape:export-xdpi="300" inkscape:export-ydpi="300" inkscape:version="0.91 r13725" sodipodi:docname="Plakat11-2017n.svg" xmlns:cc="http://creativecommons.org/ns#" xmlns:dc="http://purl.org/dc/elements/1.1/" xmlns:inkscape="http://www.inkscape.org/namespaces/inkscape" xmlns:rdf="http://www.w3.org/1999/02/22-rdf-syntax-ns#" xmlns:sodipodi="http://sodipodi.sourceforge.net/DTD/sodipodi-0.dtd" xmlns:svg="http://www.w3.org/2000/svg"
	 xmlns="http://www.w3.org/2000/svg" xmlns:xlink="http://www.w3.org/1999/xlink" x="0px" y="0px" viewBox="0 0 595.3 841.9"
	 style="enable-background:new 0 0 595.3 841.9;" xml:space="preserve">
<style type="text/css">
	.st0{fill:#FFFFFF;stroke:#373799;stroke-width:3.3336;stroke-miterlimit:10;}
	.st1{fill:#373799;}
	.st2{fill:#FFFFFF;}
	.st3{font-family:'ArialMT';}
	.st4{font-size:18.6353px;}
	.st5{fill:none;}
	.st6{font-size:24px;}
	.st7{font-size:16px;}
	.st8{enable-background:new    ;}
	.st9{font-size:30px;}
	.st10{font-size:18px;}
	.st11{fill:#FFFFFF;stroke:#FFFFFF;}
	.st12{fill:#F58219;stroke:#FFFFFF;}
	.st13{fill:#4E7896;stroke:#FFFFFF;}
	.st14{font-size:15.868px;}
	.st15{font-size:20px;}
	.st16{font-size:13px;}
</style>
<defs>
	
	<inkscape:path-effect  effect="spiro" id="path-effect4253-2" is_visible="true"></inkscape:path-effect>
	<inkscape:path-effect  effect="spiro" id="path-effect4253-1-8" is_visible="true"></inkscape:path-effect>
	<inkscape:path-effect  effect="spiro" id="path-effect4253-8" is_visible="true"></inkscape:path-effect>
	<inkscape:path-effect  effect="spiro" id="path-effect4253-1-9" is_visible="true"></inkscape:path-effect>
	<inkscape:path-effect  effect="spiro" id="path-effect4253-6-5" is_visible="true"></inkscape:path-effect>
	<inkscape:path-effect  effect="spiro" id="path-effect4253-1-7" is_visible="true"></inkscape:path-effect>
</defs>
<sodipodi:namedview  bordercolor="#666666" borderopacity="1" gridtolerance="10" guidetolerance="10" id="namedview112" inkscape:current-layer="g7316" inkscape:cx="452.9265" inkscape:cy="547.45936" inkscape:pageopacity="1" inkscape:pageshadow="2" inkscape:window-height="1018" inkscape:window-maximized="1" inkscape:window-width="1920" inkscape:window-x="-8" inkscape:window-y="-8" inkscape:zoom="16" objecttolerance="10" pagecolor="#ffffff" showgrid="false">
	</sodipodi:namedview>
<g id="g76">
	<rect id="rect78" x="33.5" y="272.1" class="st0" width="285.1" height="285.8"/>
	<rect id="rect5741_1_" x="31.8" y="236.4" class="st1" width="288.2" height="34.3"/>
	<text id="text105" transform="matrix(0.9985 0 0 1 51.9671 262.1886)" class="st2 st3 st4">Thema</text>
	<g id="flowRoot4506" transform="translate(1.2612568,-18.288224)">
	</g>
</g>
<defs>
	
	<inkscape:path-effect  effect="spiro" id="path-effect4253" is_visible="true"></inkscape:path-effect>
	<inkscape:path-effect  effect="spiro" id="path-effect4253-1" is_visible="true"></inkscape:path-effect>
	<inkscape:path-effect  effect="spiro" id="path-effect4253-7" is_visible="true"></inkscape:path-effect>
	<inkscape:path-effect  effect="spiro" id="path-effect4253-1-1" is_visible="true"></inkscape:path-effect>
	<inkscape:path-effect  effect="spiro" id="path-effect4253-6" is_visible="true"></inkscape:path-effect>
	<inkscape:path-effect  effect="spiro" id="path-effect4253-1-6" is_visible="true"></inkscape:path-effect>
</defs>
<sodipodi:namedview  bordercolor="#666666" borderopacity="1.0" fit-margin-bottom="0" fit-margin-left="0" fit-margin-right="0" fit-margin-top="0" id="base" inkscape:current-layer="layer1" inkscape:cx="226.64962" inkscape:cy="585.35062" inkscape:document-units="px" inkscape:pageopacity="0.0" inkscape:pageshadow="2" inkscape:window-height="1147" inkscape:window-maximized="1" inkscape:window-width="1920" inkscape:window-x="-8" inkscape:window-y="-8" inkscape:zoom="0.70710678" pagecolor="#ffffff" showgrid="false">
	</sodipodi:namedview>
<rect id="rect4799-6-8-3-1" x="-0.2" y="130" class="st5" width="594.9" height="568.6"/>
<rect id="rect4799-6-8" x="-0.2" y="-0.1" class="st1" width="595.3" height="218.1"/>
<text transform="matrix(1 0 0 1 33.3 53.0566)" class="st2 st3 st6">Vortrag bei der Java User Group Görlitz </text>
<text transform="matrix(1 0 0 1 474.6 53.0566)" class="st2 st3 st7">im iJUG e.V.</text>
<text transform="matrix(1 0 0 1 31.7886 106.8585)" class="st8"><tspan x="0" y="0" class="st2 st3 st9">Entwicklung von Java Applikationen </tspan><tspan x="0" y="36" class="st2 st3 st9">auf der SAP Cloud Platform</tspan></text>
<g id="g26">
	<g id="g28">
		<text id="text30" transform="matrix(1 0 0 1 33.3 179.7448)" class="st8"><tspan x="0" y="0" class="st2 st3 st10">Jens Leuschner, Mariusz Zienkiewicz, </tspan><tspan x="0" y="21.6" class="st2 st3 st10">CIDEON Software GmbH &amp; Co. KG</tspan></text>
	</g>
</g>
<g id="flowRoot5521" transform="translate(-2.2268386,3.3339304)">
</g>
<g id="flowRoot5689" transform="translate(13.793466,-6.686375)">
</g>
<g id="flowRoot5763" transform="translate(-2.2268386,3.3339304)">
</g>
<g id="flowRoot5773" transform="translate(-3.0349635,9.3725)">
</g>
<polygon class="st5" points="129.5,335.2 126.4,335.2 126.4,335.2 "/>
<g id="Ebene_2_1_">
</g>
<rect id="rect4799-6-8-3" x="-0.4" y="633.3" class="st1" width="595.3" height="208.2"/>
<g id="g5902" transform="matrix(1.2833263,0,0,1.2833263,1487.7059,1035.0505)">
	<g id="flowRoot3915-1" transform="translate(-649.1227,-316.58845)">
		<path id="path3282-6" inkscape:connector-curvature="0" class="st11" d="M-147.4,49.2c0,1.2-0.1,2.4-0.4,3.4s-0.7,2-1.4,2.7
			s-1.5,1.4-2.6,1.9c-1.1,0.4-2.5,0.7-4.2,0.7c-1.6,0-2.9-0.2-4.1-0.7c-1.1-0.4-2.1-0.9-2.6-1.4l1.6-3.5c0.7,0.4,1.3,0.7,2.1,1.2
			c0.9,0.4,1.8,0.6,2.6,0.6c1.5,0,2.6-0.4,3.4-1.1c0.7-0.7,1-2.1,1-3.9V32.6h4.6L-147.4,49.2"/>
		<path id="path3284-1" inkscape:connector-curvature="0" class="st11" d="M-132,57.9c-1.7,0-3.2-0.2-4.3-0.7
			c-1.2-0.5-2.2-1.2-3.1-2.1c-0.7-0.9-1.4-1.9-1.8-3.2c-0.4-1.2-0.6-2.5-0.6-3.9V32.7h4.6v15.1c0,1.1,0.1,2.1,0.4,2.9
			c0.3,0.7,0.7,1.4,1,2c0.5,0.5,1,0.8,1.7,1.1c0.7,0.2,1.3,0.4,2.1,0.4c0.7,0,1.5-0.1,2.1-0.4c0.7-0.2,1.2-0.7,1.7-1.1
			c0.5-0.5,0.8-1.1,1-2c0.3-0.8,0.4-1.8,0.4-2.9V32.6h4.6v15.5c0,1.4-0.2,2.7-0.7,3.9c-0.4,1.2-1,2.2-1.8,3.2
			c-0.7,0.9-1.8,1.6-3.1,2.1C-128.8,57.7-130.3,57.9-132,57.9"/>
		<path id="path3286-0" inkscape:connector-curvature="0" class="st11" d="M-104.9,36c-2.6,0-4.6,0.7-5.9,2.4
			c-1.3,1.6-2.1,3.8-2.1,6.5c0,1.3,0.1,2.6,0.5,3.7c0.4,1.1,0.8,2.1,1.4,2.8c0.7,0.7,1.4,1.4,2.4,1.9c1,0.4,2.1,0.7,3.4,0.7
			c0.7,0,1.5,0,2.1-0.1s1-0.1,1.3-0.3v-8.8h4.6v11.8c-0.7,0.2-1.7,0.5-3.2,0.7c-1.5,0.2-3.2,0.4-5.1,0.4s-3.4-0.3-4.9-0.8
			c-1.5-0.6-2.7-1.4-3.8-2.5c-1-1.1-1.8-2.4-2.4-4s-0.8-3.4-0.8-5.5s0.3-3.9,0.9-5.5c0.7-1.6,1.5-2.9,2.6-4s2.4-2,3.8-2.5
			c1.5-0.6,3.1-0.8,4.8-0.8c1.1,0,2.1,0.1,3.1,0.3c0.9,0.1,1.7,0.3,2.3,0.5c0.7,0.2,1.2,0.4,1.6,0.7c0.4,0.2,0.7,0.4,0.9,0.5
			l-1.3,3.7c-0.7-0.4-1.6-0.7-2.6-1C-102.6,36.2-103.7,36-104.9,36"/>
	</g>
	<g id="text3927-1" transform="translate(-952.12858,-907.87941)">
		<path id="path3267-8" inkscape:connector-curvature="0" class="st11" d="M108.8,662.4c-2.6,0-4.6,0.7-5.9,2.4
			c-1.3,1.6-2.1,3.8-2.1,6.5c0,1.3,0.1,2.6,0.5,3.7c0.4,1.1,0.8,2.1,1.4,2.8c0.7,0.7,1.4,1.4,2.4,1.9c1,0.4,2.1,0.7,3.4,0.7
			c0.7,0,1.5,0,2.1-0.1s1-0.1,1.3-0.3v-8.8h4.6V683c-0.7,0.2-1.7,0.5-3.2,0.7s-3.2,0.4-5.1,0.4s-3.4-0.3-4.9-0.8
			c-1.5-0.6-2.7-1.4-3.8-2.5s-1.8-2.4-2.4-4s-0.8-3.4-0.8-5.5s0.3-3.9,0.9-5.5c0.7-1.6,1.5-2.9,2.6-4s2.4-2,3.8-2.5
			c1.5-0.6,3.1-0.8,4.8-0.8c1.1,0,2.1,0.1,3.1,0.3c0.9,0.1,1.7,0.3,2.3,0.5c0.7,0.2,1.2,0.4,1.6,0.7c0.4,0.2,0.7,0.4,0.9,0.5
			l-1.3,3.7c-0.7-0.4-1.6-0.7-2.6-1C111,662.7,109.9,662.4,108.8,662.4"/>
		<path id="path3269-1" inkscape:connector-curvature="0" class="st11" d="M138.3,674.4c0,1.5-0.2,2.8-0.7,4c-0.4,1.2-1,2.2-1.8,3.2
			c-0.7,0.8-1.8,1.5-2.9,2.1c-1.1,0.5-2.3,0.7-3.6,0.7c-1.3,0-2.6-0.2-3.6-0.7c-1.1-0.5-2.1-1.1-2.8-2.1c-0.7-0.8-1.4-1.9-1.9-3.2
			c-0.4-1.2-0.7-2.6-0.7-4s0.2-2.8,0.7-4c0.4-1.2,1-2.2,1.9-3.2c0.8-0.8,1.8-1.5,2.9-2s2.3-0.7,3.6-0.7s2.5,0.2,3.6,0.7
			c1.1,0.4,2.1,1.1,2.9,2s1.4,1.9,1.8,3.2C138,671.6,138.3,673,138.3,674.4 M133.8,674.4c0-1.9-0.4-3.4-1.2-4.4
			c-0.7-1.1-1.9-1.7-3.4-1.7c-1.4,0-2.6,0.6-3.4,1.7c-0.7,1-1.2,2.5-1.2,4.4s0.4,3.4,1.2,4.5c0.8,1.1,2,1.7,3.4,1.7
			c1.4,0,2.5-0.6,3.4-1.7S133.8,676.3,133.8,674.4 M125.5,662.1c-0.7,0-1.2-0.2-1.7-0.7c-0.5-0.4-0.7-1-0.7-1.8s0.2-1.3,0.7-1.8
			c0.5-0.4,1-0.7,1.7-0.7s1.2,0.2,1.7,0.7c0.5,0.4,0.7,1,0.7,1.8s-0.3,1.3-0.7,1.8C126.7,661.8,126.2,662.1,125.5,662.1 M133,662.1
			c-0.7,0-1.2-0.2-1.8-0.7c-0.5-0.4-0.7-1-0.7-1.8s0.2-1.3,0.7-1.8c0.5-0.4,1-0.7,1.8-0.7c0.7,0,1.2,0.2,1.7,0.7
			c0.5,0.4,0.7,1,0.7,1.8s-0.2,1.3-0.7,1.8C134.1,661.8,133.5,662.1,133,662.1"/>
		<path id="path3271-8" inkscape:connector-curvature="0" class="st11" d="M153.3,669.1c-0.4-0.1-0.8-0.2-1.5-0.4
			c-0.7-0.1-1.3-0.2-2.1-0.2c-0.5,0-1,0.1-1.5,0.1c-0.6,0.1-0.9,0.2-1.1,0.3v15h-4.3v-17.8c0.8-0.3,1.9-0.7,3.2-0.8
			c1.3-0.3,2.6-0.4,4.2-0.4c0.3,0,0.7,0,1,0.1c0.4,0,0.7,0.1,1.1,0.1c0.4,0.1,0.7,0.1,1.1,0.2s0.7,0.1,0.8,0.2L153.3,669.1"/>
		<path id="path3273-5" inkscape:connector-curvature="0" class="st11" d="M163.6,684.2c-1.3,0-2.4-0.1-3.2-0.4
			c-0.8-0.3-1.5-0.7-2.1-1.1c-0.5-0.5-0.8-1.1-1-1.8s-0.3-1.6-0.3-2.5v-21.5l4.3-0.7v21.4c0,0.6,0.1,1,0.1,1.3
			c0.1,0.4,0.3,0.7,0.5,0.9s0.5,0.4,0.8,0.6s0.8,0.2,1.4,0.3L163.6,684.2"/>
		<path id="path3275-0" inkscape:connector-curvature="0" class="st11" d="M172,683.8h-4.3v-18.7h4.3V683.8 M172.5,659.6
			c0,0.8-0.3,1.5-0.7,2c-0.6,0.5-1.1,0.7-1.9,0.7c-0.8,0-1.4-0.2-1.9-0.7c-0.6-0.5-0.7-1.1-0.7-2c0-0.8,0.3-1.5,0.7-2
			c0.6-0.5,1.2-0.7,1.9-0.7s1.3,0.2,1.9,0.7C172.2,658.2,172.5,658.8,172.5,659.6"/>
		<path id="path3277-1" inkscape:connector-curvature="0" class="st11" d="M177.3,660.1l4.3-0.7v5.7h6.6v3.6h-6.6v7.6
			c0,1.5,0.2,2.6,0.7,3.2c0.4,0.7,1.3,1,2.4,1c0.7,0,1.5-0.1,2.1-0.3c0.7-0.1,1.1-0.4,1.5-0.5l0.7,3.4c-0.5,0.2-1.2,0.4-2,0.7
			c-0.8,0.2-1.8,0.4-2.9,0.4c-1.3,0-2.4-0.2-3.4-0.6c-0.9-0.4-1.6-0.8-2.1-1.5c-0.6-0.7-0.9-1.5-1.1-2.4c-0.2-1-0.4-2.1-0.4-3.4
			L177.3,660.1"/>
		<path id="path3279-5" inkscape:connector-curvature="0" class="st11" d="M205.6,668.2c-0.5,0.5-1.1,1.2-1.9,2.1
			c-0.7,0.9-1.6,1.9-2.4,3.1c-0.9,1.1-1.8,2.2-2.6,3.5c-0.9,1.2-1.7,2.3-2.4,3.4h9.6v3.6H191v-2.6c0.6-1,1.2-2.1,2-3.2
			c0.7-1.1,1.6-2.2,2.4-3.4c0.8-1.2,1.7-2.2,2.4-3.3c0.8-1,1.6-1.9,2.2-2.6h-8.6v-3.6h14.2L205.6,668.2"/>
	</g>
	<path id="path10-5" inkscape:connector-curvature="0" sodipodi:nodetypes="cccccc" class="st12" d="M-725.6-230.5
		c5.4,5.5-2.5,11.5-2.5,11.5s8.5-2.7,6.8-11.8c-1.3-3.5-13.1-16.6,0.8-29.7C-720.3-260.5-740.4-251.2-725.6-230.5L-725.6-230.5z"/>
	<path id="path10-7-2" inkscape:connector-curvature="0" sodipodi:nodetypes="cccccc" class="st13" d="M-734.4-286
		c0,0,10.5,21,4.6,27.4c-9.5,14.9-12.4,14.9,1.9,36.6c-11.6-9.5-17.6-20.9-14.3-26.6C-731.8-261.1-728.8-266.9-734.4-286L-734.4-286
		z"/>
</g>
<image style="overflow:visible;enable-background:new    ;" width="505" height="238" id="image4325" xlink:href="EB2E1F34.png"  transform="matrix(0.1327 0 0 0.1327 493.831 789.0551)">
</image>
<text id="text109" transform="matrix(1 0 0 1 389.5754 771.9805)" class="st2 st3 st14">http://www.jug-gr.de</text>
<text id="text54" transform="matrix(1 0 0 1 33.2998 687.5503)" class="st2 st3 st6">Mittwoch, 28.02.2018</text>
<text id="text56" transform="matrix(1 0 0 1 33.2998 711.5503)" class="st2 st3 st6">19:00 Uhr</text>
<text id="text58" transform="matrix(1 0 0 1 33.2998 735.5503)" class="st2 st3 st15">CIDEON Software GmbH &amp; Co. KG</text>
<g id="g60">
	<text transform="matrix(1 0 0 1 33.2998 759.5503)" class="st2 st3 st15">Untermarkt 25</text>
	<text id="text68" transform="matrix(1 0 0 1 32.7998 785.5503)" class="st2 st3 st15">02826 Görlitz</text>
</g>
<rect x="43" y="283.9" class="st5" width="266" height="289.5"/>
<text transform="matrix(1 0 0 1 42.967 293.1974)"><tspan x="0" y="0" class="st3 st16">Die SAP Cloud Platform (SCP) beschreibt ein </tspan><tspan x="0" y="15.6" class="st3 st16">„Platform as a Service“ (PaaS) Angebot der </tspan><tspan x="0" y="31.2" class="st3 st16">SAP. Mit der SCP liefert SAP sowohl die </tspan><tspan x="0" y="46.8" class="st3 st16">Entwicklungsumgebung als auch die Laufzei</tspan><tspan x="255.8" y="46.8" class="st3 st16">-</tspan><tspan x="0" y="62.4" class="st3 st16">tumgebung zur Realisierung kundenindividu</tspan><tspan x="253" y="62.4" class="st3 st16">-</tspan><tspan x="0" y="78" class="st3 st16">eller Erweiterungen von Cloud- und On-Pre</tspan><tspan x="249.3" y="78" class="st3 st16">-</tspan><tspan x="0" y="93.6" class="st3 st16">mise-Lösungen (z.B. SAP S/4HANA). Basie</tspan><tspan x="252.2" y="93.6" class="st3 st16">-</tspan><tspan x="0" y="109.2" class="st3 st16">rend auf der In-Memory-Plattform SAP HANA </tspan><tspan x="0" y="124.8" class="st3 st16">stellt die SCP eine Vielzahl an Datenbank- </tspan><tspan x="0" y="140.4" class="st3 st16">und Cloud-Services zur Verfügung, welche </tspan><tspan x="0" y="156" class="st3 st16">das PaaS Angebot erweitern und die Integra</tspan><tspan x="255.8" y="156" class="st3 st16">-</tspan><tspan x="0" y="171.6" class="st3 st16">tion von SAP- und Non-SAP-Lösungen </tspan><tspan x="0" y="187.2" class="st3 st16">ermöglichen. Im Vortrag wird illustriert, wie die </tspan><tspan x="0" y="202.8" class="st3 st16">Verbindung aus einer Java EE Applikation zu </tspan><tspan x="0" y="218.4" class="st3 st16">einem SAP On-Premise System hergestellt </tspan><tspan x="0" y="234" class="st3 st16">und dessen Funktionalität in der Cloud </tspan><tspan x="0" y="249.6" class="st3 st16">genutzt wird.</tspan></text>
</svg>
