<?xml version="1.0" encoding="utf-8"?>
<!-- Generator: Adobe Illustrator 22.0.1, SVG Export Plug-In . SVG Version: 6.00 Build 0)  -->
<svg version="1.1" xmlns="http://www.w3.org/2000/svg" xmlns:xlink="http://www.w3.org/1999/xlink" x="0px" y="0px"
	 viewBox="0 0 954.3 954.3" style="enable-background:new 0 0 954.3 954.3;" xml:space="preserve">
<style type="text/css">
	.st0{fill:#00941E;stroke:#000000;}
	.st1{fill:#FFFFFF;stroke:#000000;stroke-width:8;}
	.st2{fill:#FFFFFF;stroke:#000000;stroke-width:7.2045;stroke-linecap:round;}
	.st3{fill:#FFFFFF;stroke:#000000;}
	.st4{fill:#D3623A;stroke:#000000;stroke-width:8.416;}
	.st5{fill:#57888D;stroke:#000000;stroke-width:9;}
	.st6{fill:#57888D;stroke:#000000;stroke-width:9.0277;}
	.st7{fill:none;stroke:#000000;stroke-width:8;}
	.st8{stroke:#000000;stroke-width:1;}
	.st9{stroke:#000000;stroke-width:0.8964;}
	.st10{fill:#D3623A;stroke:#000000;stroke-width:13;}
	.st11{fill:#D3623A;stroke:#000000;stroke-width:8;}
	.st12{fill:#FFFFFF;stroke:#000000;stroke-width:10;}
	.st13{fill:#E1D2B1;stroke:#000000;stroke-width:10;}
	.st14{stroke:#000000;}
	.st15{fill:#FFFFFF;stroke:#000000;stroke-width:0.3098;}
	.st16{stroke:#000000;stroke-width:1.0157;}
	.st17{fill:none;stroke:#000000;stroke-width:7;}
	.st18{fill:none;stroke:#000000;stroke-width:13;}
	.st19{fill:none;stroke:#000000;stroke-width:16;}
	.st20{fill:none;stroke:#000000;stroke-width:12.9411;}
	.st21{fill:none;stroke:#000000;stroke-width:10.6039;}
	.st22{fill:none;stroke:#000000;stroke-width:10;}
	.st23{fill:none;stroke:#000000;stroke-width:14.4869;}
	.st24{fill:none;stroke:#000000;stroke-width:15.5058;}
	.st25{fill:#E1D2B1;stroke:#000000;stroke-width:10;stroke-linecap:round;}
	.st26{fill:none;stroke:#000000;stroke-width:10;stroke-linecap:round;}
	.st27{fill:none;stroke:#000000;stroke-width:6;}
	.st28{fill:#E1D2B1;stroke:#000000;stroke-width:6;}
	.st29{fill:none;stroke:#000000;stroke-width:6.0004;stroke-linecap:round;}
	.st30{fill:none;stroke:#000000;stroke-width:6;stroke-linecap:round;}
	.st31{stroke:#000000;stroke-width:0.9399;}
	.st32{fill:none;}
</style>
<g id="Ebene_2">
	<rect x="-188.3" y="-32.9" class="st0" width="1336" height="1020"/>
</g>
<g id="svg5042" inkscape:export-filename="D:\JUGGR\grafiken\Flyer\juergen.png" inkscape:export-xdpi="90" inkscape:export-ydpi="90" inkscape:version="0.91 r13725" sodipodi:docname="juergen.svg" xmlns:cc="http://creativecommons.org/ns#" xmlns:dc="http://purl.org/dc/elements/1.1/" xmlns:inkscape="http://www.inkscape.org/namespaces/inkscape" xmlns:rdf="http://www.w3.org/1999/02/22-rdf-syntax-ns#" xmlns:sodipodi="http://sodipodi.sourceforge.net/DTD/sodipodi-0.dtd" xmlns:svg="http://www.w3.org/2000/svg">
	<defs>
		
		<inkscape:path-effect  effect="spiro" id="path-effect4253-1" is_visible="true"></inkscape:path-effect>
		<inkscape:path-effect  effect="spiro" id="path-effect4253" is_visible="true"></inkscape:path-effect>
	</defs>
	
		<sodipodi:namedview  bordercolor="#666666" borderopacity="1.0" fit-margin-bottom="0" fit-margin-left="0" fit-margin-right="0" fit-margin-top="0" id="base" inkscape:current-layer="layer2" inkscape:cx="195.44511" inkscape:cy="407.27902" inkscape:document-units="px" inkscape:pageopacity="0.0" inkscape:pageshadow="2" inkscape:window-height="1147" inkscape:window-maximized="1" inkscape:window-width="1920" inkscape:window-x="-8" inkscape:window-y="-8" inkscape:zoom="0.49497475" pagecolor="#ffffff" showgrid="false" showguides="false">
		</sodipodi:namedview>
	<ellipse class="st1" cx="479.7" cy="477.1" rx="616.8" ry="614"/>
	<g id="layer1" transform="translate(216.42857,118.352)" inkscape:groupmode="layer" inkscape:label="Ebene 1">
	</g>
	<g id="layer2" inkscape:groupmode="layer" inkscape:label="Ebene 2">
		<g id="g4501">
			<circle id="path15853" class="st2" cx="477.1" cy="477.1" r="474.3"/>
			<path id="path4454" inkscape:connector-curvature="0" class="st3" d="M452.6,800l3.4,142.3l163.4-12l40-44l-34.9-94.9L452.6,800z
				"/>
			<path id="path4400" inkscape:connector-curvature="0" sodipodi:nodetypes="ccccc" class="st4" d="M530.5,880.5L462,950
				c84.9-1,129.2-14.1,147-18.9L565,884.5L530.5,880.5z"/>
			<path id="path4433" inkscape:connector-curvature="0" sodipodi:nodetypes="cccccc" class="st5" d="M431.9,742.7
				c-156.8,9.6-160,12.8-160,12.8l13.8,152c26.5,13.1,73.1,28.8,176.7,42.4l7.9-212L431.9,742.7z"/>
			<path id="path4402" inkscape:connector-curvature="0" sodipodi:nodetypes="ccccc" class="st6" d="M641,872.9L622.1,926
				c89.6-16.9,181.8-99.6,238.1-176.5l-161.4-37.2L641,872.9z"/>
			<path id="path4654-9" inkscape:connector-curvature="0" sodipodi:nodetypes="ccccc" class="st7" d="M396.7,944.1l-22.4-53.9
				l51.6-51.3l-40.8-35.4l48.8-59.2"/>
			<path id="path4654" inkscape:connector-curvature="0" sodipodi:nodetypes="cccc" class="st7" d="M735.5,871.1l70.9-55.5
				l-3.2-58.5l0,0"/>
			<path id="path4704" inkscape:connector-curvature="0" class="st8" d="M550.1,887.2l-83.7,64.5l-3.4-12.4l67.9-58.8L550.1,887.2z"
				/>
			<path id="path4706" inkscape:connector-curvature="0" sodipodi:nodetypes="ccccc" class="st8" d="M530.6,948.1l49.7-44.7
				l14.7,13.6l-47.8,28.2l-9.8,2.4"/>
			<path id="path4706-2" inkscape:connector-curvature="0" sodipodi:nodetypes="ccccc" class="st9" d="M491.2,950.2l73.4-65.8
				l13,12.3l-75,52.8l-4,0.8"/>
			<g id="g5668" transform="translate(386.73318,273.47463)">
				<path id="path4322" inkscape:connector-curvature="0" sodipodi:nodetypes="ccssssssc" class="st10" d="M-32.5,33.6l17-72.4
					c0,0-72.4-49.8-92.8-73.5s-40.7-66.8-20.4-76.9c20.4-10.2,114.3-47.5,159.5-46.4c45.3,1.1,297.6-15.8,347.3,15.8
					s127.8,30.5,101.8,143.7c-26,113.1-62.2,267-80.3,300.9S-32.5,33.6-32.5,33.6z"/>
				<path id="path4398" inkscape:connector-curvature="0" class="st11" d="M121.3,549.1c24,57.6,35.2,60.8,35.2,60.8l20.8,3.2
					l49.6-54.4l8-81.6l-104-6.4L121.3,549.1z"/>
				<path id="path4394" inkscape:connector-curvature="0" sodipodi:nodetypes="czzzsccc" class="st12" d="M337.3,384.3
					c0,0,11.8-2.5,25.6,4.8c13.8,7.3,40.1,29.8,48,48c7.9,18.2,15.5,20.3,1.6,51.2c-13.9,30.9-80,88-116.8,97.6
					c-36.8,9.6-46.4,19.2-46.4,19.2l-41.6-97.6L337.3,384.3z"/>
				<path id="path4396" inkscape:connector-curvature="0" class="st12" d="M134.1,411.5l-67.2,25.6c0,0-22.4,8-17.6,36.8
					c4.8,28.8,51.2,113.6,51.2,113.6l51.2-88l17.6-88H134.1z"/>
				<path id="path4310" inkscape:connector-curvature="0" sodipodi:nodetypes="ccssssssssssccccsscc" class="st13" d="M23-59.2
					L-11.5,51.7c0,0-5.7,80.3-8.5,118.8s-6.8,104.7,5.1,130.1C-3,326,13.4,357.7,55.8,381.5S166.1,426.7,200,416
					c33.9-10.7,65.6-27.2,85.4-49.2c19.8-22.1,72.8-95.2,72.8-99.7c0-4.5,3.5,8.1,14.8-3.8c11.3-11.9,33.4-39,30-58.8
					c-3.4-19.8,7.9-42.4-15.8-40.2c-23.8,2.3-32.2,1.7-46.4,30c-14.1,28.3-4-19.2-4-19.2l14.7-9.1l-12.4-13l18.7-55.4
					c0,0-44.1-1.1-45.3-10.2c-1.1-9.1,17-65.6-2.3-135.2c-19.2-69.6-199.7-20.9-199.7-20.9S34.9-45.6,23-59.2L23-59.2z"/>
				<ellipse id="path3350" class="st14" cx="201.7" cy="103.5" rx="28.3" ry="44.9"/>
				<ellipse id="path3350-4" class="st14" cx="32" cy="98.2" rx="28.3" ry="44.9"/>
				<ellipse id="path3350-47" class="st15" cx="211" cy="89" rx="8.8" ry="13.9"/>
				<ellipse id="path3350-47-1" class="st15" cx="40.9" cy="83.7" rx="8.8" ry="13.9"/>
				
					<path id="path4251" inkscape:connector-curvature="0" inkscape:original-d="m 177.27912,99.273764 2.5,-8 c 0,0 -0.5,-18.5 -14,-22 -13.5,-3.5 -44.5,8 -44.5,8 l -3.5,9.5 c 0,0 12.5,-2 25.5,-3 13,-1 29,3.5 34,15.5 z" inkscape:path-effect="#path-effect4253" class="st14" d="
					M64.5,24.7l2-6.4c-1.1-7.1-5.3-13.6-11.2-17.6c-5.5-3.7-12.5-5.2-19.1-4c-6.6,1.2-12.6,5-16.5,10.4l-2.8,7.6
					c6.5-2.3,13.5-3.1,20.4-2.4C47.4,13.4,57.1,17.8,64.5,24.7z"/>
				
					<path id="path4251-3" inkscape:connector-curvature="0" inkscape:original-d="m 327.14166,107.60696 -1.13576,-8.456396 c 0,0 3.50596,-18.13948 17.25702,-18.54941 13.75105,-0.40992 42.14058,17.92413 42.14058,17.92413 l 1.86738,10.161716 c 0,0 -11.87756,-4.79099 -24.4064,-8.708076 -12.52885,-3.91708 -28.88379,-3.08411 -35.72282,7.628036 z" inkscape:path-effect="#path-effect4253-1" class="st14" d="
					M184.4,31.4l-0.9-6.8c2.3-6.6,7.4-12.1,13.8-14.8c6.3-2.7,13.6-2.7,19.9-0.1s11.4,8,13.8,14.4l1.5,8.1c-5.9-3.8-12.6-6.2-19.5-7
					C203.1,24.2,192.9,26.3,184.4,31.4z"/>
				<path id="path4304" inkscape:connector-curvature="0" class="st14" d="M70.1,63.9l7.6,1.6l-44,157.2c0,0-0.4,5.6,4.4,6.4
					s36.8,2,36.8,2s11.2,2.4,7.6,7.2c-3.6,4.8-50-1.2-50-1.2s-14.8-8-14.4-12.4c0.4-4.4,6.4-17.2,13.6-40.4S70.1,63.9,70.1,63.9
					L70.1,63.9z"/>
				<path id="path4306" inkscape:connector-curvature="0" class="st12" d="M29.8,277.9l27.7,60c0,0,28.9,19.8,67.9,18.7
					c39-1.1,88.8-11.3,92.8-17c4-5.7,30.5-58.8,30.5-58.8l-9.6-5.1c0,0-49.8,15.8-98.4,17.5C92,294.9,29.8,277.9,29.8,277.9
					L29.8,277.9z"/>
				<path id="path4308" inkscape:connector-curvature="0" class="st16" d="M41.1,301.1l56.2,9.6c0,0,66.1,7.4,84.3,5.7
					c18.2-1.7-38,7-79,2.2c-41-4.8-57-9.1-57-9.1L41.1,301.1z"/>
				<path id="path4318" inkscape:connector-curvature="0" class="st17" d="M354.9,220.3c0,0-7.2-14.4,4-23.2
					c11.2-8.8,30.4-2.4,30.4,4.8c0,7.2,3.2,22.4-14.4,29.6c-17.6,7.2-17.6,7.2-17.6,7.2l0.8,4.8"/>
				<path id="path4324" inkscape:connector-curvature="0" class="st18" d="M-18.9-227.8c0,0,60-14.7,99.6,12.4s58.8,53.2,52,81.5
					s-47.5,43-90.5,36.2c-43-6.8-75.8-24.9-74.7-46.4c1.1-21.5,19.2-39.6,38.5-39.6s47.5,30.5,47.5,30.5l0,0"/>
				<path id="path4326" inkscape:connector-curvature="0" class="st19" d="M184.8-204c0,0,36.2,10.2,41.9,39.6
					c5.7,29.4-1.1,36.2-1.1,36.2l0,0"/>
				<path id="path4326-3" inkscape:connector-curvature="0" class="st20" d="M253-198.2c0,0,26,15.7,24.2,39.9
					c-1.9,24.2-8.6,28-8.6,28l0,0"/>
				<path id="path4326-3-5" inkscape:connector-curvature="0" class="st21" d="M302.3-184c0,0,16.9,18.4,9.8,36.9
					c-7.1,18.6-13.2,20-13.2,20l0,0"/>
				<path id="path4358" inkscape:connector-curvature="0" class="st22" d="M365.8,134.3c60,7.9,60,7.9,60,7.9"/>
				<path id="path4358-6" inkscape:connector-curvature="0" class="st23" d="M370.4,81.1c63.2,15.8,63.2,15.8,63.2,15.8"/>
				
					<path id="path4358-6-9" inkscape:connector-curvature="0" inkscape:transform-center-x="1.091775" inkscape:transform-center-y="70.218503" class="st24" d="
					M377.7,33.2c65.1,27.2,65.1,27.2,65.1,27.2"/>
				<path id="path4390" inkscape:connector-curvature="0" sodipodi:nodetypes="cccssscscc" class="st25" d="M357.9,265.2
					l-27.2,140.5l15.8,14.7c0,0,24.9,18.1,4.5,39.6c-20.4,21.5-84.9,47.5-141.4,46.4c-56.6-1.1-106.3-20.4-106.3-36.2
					s29.7-20,29.7-20s4,1.4,8.5-17.9l4.5-14.3l-0.7-2.8"/>
				<path id="path4392" inkscape:connector-curvature="0" sodipodi:nodetypes="cssc" class="st26" d="M147.1,415.1
					c0,0,4.9,2.8,26.1,1.4c21.2-1.4,112.7-21.7,119.4-25.9c6.7-4.2,13.9-20.6,13.9-20.6"/>
				<path id="path4694" inkscape:connector-curvature="0" class="st14" d="M158.5,502.3c-31.2,58.4-37.6,48.8-37.6,48.8l30.4-51.2
					L158.5,502.3z"/>
				<path id="path4700" inkscape:connector-curvature="0" class="st14" d="M128.5,561.5l41.6-55.6l10,0.8l-50.8,59.2L128.5,561.5z"
					/>
				<path id="path4702" inkscape:connector-curvature="0" class="st14" d="M188.9,507.9l-56.4,65.2l1.6,4.8l68.8-69.2L188.9,507.9z"
					/>
				<path id="path4723" inkscape:connector-curvature="0" class="st14" d="M141.8,442c0,0,67.9,12.4,109.7-9.1
					c41.9-21.5,56.6-61.1,56.6-61.1l-32.8,22.6l-110.9,23.8l-13.6-2.3L141.8,442z"/>
				<path id="path4852" inkscape:connector-curvature="0" sodipodi:nodetypes="csccscc" class="st14" d="M78.4-234.6
					c0,0,64.1,26.7,68,60.9c5.5,48.2-26,64.1-26,64.1l13.6-23.2c0,0-3.3-45.9-16.9-54.9c-13.6-9.1-78.3-45.8-78.3-45.8L78.4-234.6z"
					/>
				<path id="path4854" inkscape:connector-curvature="0" class="st27" d="M-25.7,17.7C-5.9,28.5-5.3,28.5-5.3,28.5"/>
				
					<path id="path4854-3" inkscape:connector-curvature="0" inkscape:transform-center-x="12.519088" inkscape:transform-center-y="-22.80928" class="st27" d="
					M-22.7,6C-2.9,16.7-2.3,16.7-2.3,16.7"/>
				
					<path id="path4854-6" inkscape:connector-curvature="0" inkscape:transform-center-x="-0.20883427" inkscape:transform-center-y="-19.980852" class="st27" d="
					M-19.8-4.8C0,6,0.5,6,0.5,6"/>
				<path id="path4889" inkscape:connector-curvature="0" class="st14" d="M7.1-180.3c0,0-14.7-5.7-19.2,19.2
					c-4.5,24.9,13.6,50.9,30.5,56.6c17,5.7-40.7-15.8-40.7-15.8l-11.3-28.3l15.8-26l28.3-5.7l0,0"/>
				<path id="path4893" inkscape:connector-curvature="0" sodipodi:nodetypes="cccc" class="st14" d="M57.2-156l10.7,24l-17.7-17.6
					L57.2-156z"/>
			</g>
			<g id="g4240" transform="matrix(1.0596051,0.09590046,-0.09590046,1.0596051,-306.82465,-123.83903)">
				<g id="g4374" transform="translate(1308.9529,132.29936)">
					<path id="path4185" inkscape:connector-curvature="0" sodipodi:nodetypes="csssscccsssccscsccssssscssac" class="st28" d="
						M-803.5,319.5c-4,1.5-11,6.4-11,6.4c-9.2,4.2-14.9,17.1-14.9,21.6c-0.1,4.5,15.2,70.4,24.8,83c10.8,14.1,10.4,38.3,12.2,49
						c1.7,10.8,4.1,30,1.2,41.6c-4.3,24.5-15.8,44-26.3,57.3c-22,10-63.3,23.3-67,41.4c-1.5,9.6-5.9,26.4-1.5,40.6
						c4.3,14,10,10.9,9.2,18.2c-0.9,9.1-1.4,19.6-0.4,26c1,6.4,16.4,24.9,22.6,30.5c-2.6,22.9,8.1,41.7,19.7,48.2
						c2.9,8.1,6.1,29.4,25.1,37.9c3.7,1.6,19.2,10.8,25.7,10.2s32.2,1.9,52-2.1c16.1-3.2,52-23.1,52-23.1
						c14.2-10.6,27.7-28.8,28.6-40.3c1.6-27.2-7.5-30.8-7.5-30.8c-1.2-1.8-0.6-49,1.6-63.7s6.3-42.3,3.2-59s-29.9-74.1-41.3-94.5
						c-10.9-19.4-12.7-39.7-24.5-66.6c-9-20.7-16.4-65.3-18-65c0,0-28.2-51.1-34.9-56.6c-6.6-5.5-8.6-11-17.8-12.7
						C-795.5,316.3-799.5,318-803.5,319.5L-803.5,319.5z"/>
					<path id="path4187" inkscape:connector-curvature="0" sodipodi:nodetypes="ccssscssc" class="st29" d="M-859.4,605.3l91.8-26.3
						c0,0,31.3-1.1,33.1-0.8c1.8,0.3,17.4,3.6,19.6,10.2s5.4,15.9,8.2,22.4c2.8,6.5-10.8,26.7-10.8,26.7l-19.5,8.9
						c-13.2,6-36.8,11.9-57.9,13.9c-30.4,2.9-39,3.7-39,3.7"/>
					<path id="path4189" inkscape:connector-curvature="0" sodipodi:nodetypes="cssssc" class="st30" d="M-812.9,724.3
						c0,0,75.5-3.3,90.8-10c15.6-6.9,30.9-19.1,34.5-27c5.4-11.9,4-26.4,0.1-32.9c0,0-13.3-24.7-20-21.5l-15.4,7.3"/>
					<path id="path4191" inkscape:connector-curvature="0" sodipodi:nodetypes="csszssc" class="st30" d="M-790,783.6
						c0,0,25.6,0.7,38.7-0.3c13.2-1,19.1-0.2,39.9-7.5s28-12.7,39.1-24c11.1-11.3,13.4-14.1,11-32.3c-2.3-18.1-6-22-14.7-29.9
						c-8.8-7.9-9.2-6.6-9.2-6.6"/>
					<path id="path4193" inkscape:connector-curvature="0" sodipodi:nodetypes="cssscscsccccc" class="st14" d="M-760.9,578.1
						c0,0,49.7-9.7,57,2.4c7.3,12.1,4.4,38,14.1,52.5s21,39.6,22.7,51.7c1.6,12.1,8.9,33.9,8.9,33.9l-19.4-23.4
						c-12.3-14.9-4.8-29.9-4.8-29.9s-3.7-19.8-15-25.5c-11.3-5.7-17.8-4.5-17.8-4.5l9.4-21.8l-12.1-29.1l-17-8.1L-760.9,578.1z"/>
					<path id="path4262" inkscape:connector-curvature="0" sodipodi:nodetypes="cssccc" class="st31" d="M-695.8,699.7
						c0,0,8.4-6.1,12.7-5.5c4.4,0.7,12.5,7,13.2,9s1.6-12.5,1.6-12.5l-17.8-5.9L-695.8,699.7z"/>
				</g>
			</g>
		</g>
	</g>
	<path id="SVGID_x5F_1_x5F_" class="st32" d="M1033.5,477.1c0,294.1-242.8,532.5-542.3,532.5S-51.1,771.2-51.1,477.1
		S191.7-55.3,491.2-55.3S1033.5,183.1,1033.5,477.1z"/>
	<text>	<textPath  xlink:href="#SVGID_x5F_1_x5F_" startOffset="8.8178%">
<tspan  style="font-family:'MyriadPro-Regular'; font-size:72px;">                                                                                                                  Java Group Görlitz </tspan>	</textPath>
</text>
</g>
</svg>
