<?xml version="1.0" encoding="utf-8"?>
<!-- Generator: Adobe Illustrator 21.0.2, SVG Export Plug-In . SVG Version: 6.00 Build 0)  -->
<svg version="1.1" xmlns="http://www.w3.org/2000/svg" xmlns:xlink="http://www.w3.org/1999/xlink" x="0px" y="0px"
	 viewBox="0 0 595.3 841.9" style="enable-background:new 0 0 595.3 841.9;" xml:space="preserve">
<style type="text/css">
	.st0{fill:none;stroke:#57878C;stroke-miterlimit:10;}
	.st1{fill:#53C1DE;}
	.st2{enable-background:new    ;}
	.st3{fill:#FFFFFF;}
	.st4{font-family:'OpenSans';}
	.st5{font-size:24px;}
	.st6{font-size:16px;}
	.st7{font-size:36px;}
	.st8{font-size:20px;}
	.st9{fill:#FFFFFF;stroke:#FFFFFF;}
	.st10{fill:#F58219;stroke:#FFFFFF;}
	.st11{fill:#4E7896;stroke:#FFFFFF;}
	.st12{fill:#FFFFFF;stroke:#53C1DE;stroke-width:3;stroke-miterlimit:10;}
	.st13{font-size:17.0636px;}
	.st14{font-size:20.0503px;}
	.st15{font-family:'MyriadPro-Regular';}
	.st16{font-size:15.868px;}
</style>
<g id="svg4632" inkscape:export-filename="D:\JUGGR\grafiken\Plakate\Plakat_05_2016\plakat_05_2016_v2.png" inkscape:export-xdpi="90" inkscape:export-ydpi="90" inkscape:version="0.91 r13725" sodipodi:docname="plakat_05_2016_v2.svg" xmlns:cc="http://creativecommons.org/ns#" xmlns:dc="http://purl.org/dc/elements/1.1/" xmlns:inkscape="http://www.inkscape.org/namespaces/inkscape" xmlns:rdf="http://www.w3.org/1999/02/22-rdf-syntax-ns#" xmlns:sodipodi="http://sodipodi.sourceforge.net/DTD/sodipodi-0.dtd" xmlns:svg="http://www.w3.org/2000/svg">
	<defs>
		
		<inkscape:path-effect  effect="spiro" id="path-effect4253" is_visible="true"></inkscape:path-effect>
		<inkscape:path-effect  effect="spiro" id="path-effect4253-1" is_visible="true"></inkscape:path-effect>
		<inkscape:path-effect  effect="spiro" id="path-effect4253-7" is_visible="true"></inkscape:path-effect>
		<inkscape:path-effect  effect="spiro" id="path-effect4253-1-1" is_visible="true"></inkscape:path-effect>
		<inkscape:path-effect  effect="spiro" id="path-effect4253-6" is_visible="true"></inkscape:path-effect>
		<inkscape:path-effect  effect="spiro" id="path-effect4253-1-6" is_visible="true"></inkscape:path-effect>
	</defs>
	
		<sodipodi:namedview  bordercolor="#666666" borderopacity="1.0" fit-margin-bottom="0" fit-margin-left="0" fit-margin-right="0" fit-margin-top="0" id="base" inkscape:current-layer="layer1" inkscape:cx="226.64962" inkscape:cy="585.35062" inkscape:document-units="px" inkscape:pageopacity="0.0" inkscape:pageshadow="2" inkscape:window-height="1147" inkscape:window-maximized="1" inkscape:window-width="1920" inkscape:window-x="-8" inkscape:window-y="-8" inkscape:zoom="0.70710678" pagecolor="#ffffff" showgrid="false">
		</sodipodi:namedview>
	<rect id="rect4799-6-8-3-1" y="137.1" class="st0" width="594.9" height="568.6"/>
	<rect id="rect4799-6-8" class="st1" width="595.3" height="218.1"/>
	<text transform="matrix(1 0 0 1 33.5 60.1094)" class="st2"><tspan x="0" y="0" class="st3 st4 st5">Vortrag bei der Java User Group Görlitz </tspan><tspan x="441.3" y="0" class="st3 st4 st6">im iJUG e.V.</tspan></text>
	<text transform="matrix(1 0 0 1 31.2498 135.7974)" class="st3 st4 st7">React und React-Native</text>
	<g>
		<g>
			<text transform="matrix(1 0 0 1 33.5 180.7975)" class="st3 st4 st8">Manuel Mauky, Saxonia Systems AG</text>
		</g>
	</g>
	<g id="flowRoot5521" transform="translate(-2.2268386,3.3339304)">
	</g>
	<g id="flowRoot5689" transform="translate(13.793466,-6.686375)">
	</g>
	<g id="flowRoot5763" transform="translate(-2.2268386,3.3339304)">
	</g>
	
		<image style="overflow:visible;" width="5213" height="8859" xlink:href="react-butler.png"  transform="matrix(4.431229e-02 0 0 4.431229e-02 340.3708 250.3074)">
	</image>
	<g id="flowRoot5773" transform="translate(-3.0349635,9.3725)">
	</g>
	<rect id="rect4799-6-8-3" y="633.6" class="st1" width="595.3" height="208.2"/>
	<g id="g5902" transform="matrix(1.2833263,0,0,1.2833263,1487.7059,1035.0505)">
		<g id="flowRoot3915-1" transform="translate(-649.1227,-316.58845)">
			<path id="path3282-6" inkscape:connector-curvature="0" class="st9" d="M-147.2,54.7c0,1.2-0.1,2.4-0.4,3.4s-0.7,2-1.4,2.7
				c-0.7,0.7-1.5,1.4-2.6,1.9c-1.1,0.4-2.5,0.7-4.2,0.7c-1.6,0-2.9-0.2-4.1-0.7c-1.1-0.4-2.1-0.9-2.6-1.4l1.6-3.5
				c0.7,0.4,1.3,0.7,2.1,1.2c0.9,0.4,1.8,0.6,2.6,0.6c1.5,0,2.6-0.4,3.4-1.1c0.7-0.7,1-2.1,1-3.9V38.1h4.6L-147.2,54.7"/>
			<path id="path3284-1" inkscape:connector-curvature="0" class="st9" d="M-131.8,63.4c-1.7,0-3.2-0.2-4.3-0.7
				c-1.2-0.5-2.2-1.2-3.1-2.1c-0.7-0.9-1.4-1.9-1.8-3.2c-0.4-1.2-0.6-2.5-0.6-3.9V38.2h4.6v15.1c0,1.1,0.1,2.1,0.4,2.9
				c0.3,0.7,0.7,1.4,1,2c0.5,0.5,1,0.8,1.7,1.1c0.7,0.2,1.3,0.4,2.1,0.4c0.7,0,1.5-0.1,2.1-0.4c0.7-0.2,1.2-0.7,1.7-1.1
				c0.5-0.5,0.8-1.1,1-2c0.3-0.8,0.4-1.8,0.4-2.9V38.1h4.6v15.5c0,1.4-0.2,2.7-0.7,3.9c-0.4,1.2-1,2.2-1.8,3.2
				c-0.7,0.9-1.8,1.6-3.1,2.1C-128.6,63.2-130.1,63.4-131.8,63.4"/>
			<path id="path3286-0" inkscape:connector-curvature="0" class="st9" d="M-104.7,41.5c-2.6,0-4.6,0.7-5.9,2.4
				c-1.3,1.6-2.1,3.8-2.1,6.5c0,1.3,0.1,2.6,0.5,3.7c0.4,1.1,0.8,2.1,1.4,2.8c0.7,0.7,1.4,1.4,2.4,1.9c1,0.4,2.1,0.7,3.4,0.7
				c0.7,0,1.5,0,2.1-0.1s1-0.1,1.3-0.3v-8.8h4.6v11.8c-0.7,0.2-1.7,0.5-3.2,0.7c-1.5,0.2-3.2,0.4-5.1,0.4s-3.4-0.3-4.9-0.8
				c-1.5-0.6-2.7-1.4-3.8-2.5c-1-1.1-1.8-2.4-2.4-4c-0.6-1.6-0.8-3.4-0.8-5.5s0.3-3.9,0.9-5.5c0.7-1.6,1.5-2.9,2.6-4
				c1.1-1.1,2.4-2,3.8-2.5c1.5-0.6,3.1-0.8,4.8-0.8c1.1,0,2.1,0.1,3.1,0.3c0.9,0.1,1.7,0.3,2.3,0.5c0.7,0.2,1.2,0.4,1.6,0.7
				c0.4,0.2,0.7,0.4,0.9,0.5l-1.3,3.7c-0.7-0.4-1.6-0.7-2.6-1C-102.4,41.7-103.5,41.5-104.7,41.5"/>
		</g>
		<g id="text3927-1" transform="translate(-952.12858,-907.87941)">
			<path id="path3267-8" inkscape:connector-curvature="0" class="st9" d="M109,667.9c-2.6,0-4.6,0.7-5.9,2.4
				c-1.3,1.6-2.1,3.8-2.1,6.5c0,1.3,0.1,2.6,0.5,3.7c0.4,1.1,0.8,2.1,1.4,2.8c0.7,0.7,1.4,1.4,2.4,1.9c1,0.4,2.1,0.7,3.4,0.7
				c0.7,0,1.5,0,2.1-0.1s1-0.1,1.3-0.3v-8.8h4.6v11.8c-0.7,0.2-1.7,0.5-3.2,0.7c-1.5,0.2-3.2,0.4-5.1,0.4s-3.4-0.3-4.9-0.8
				c-1.5-0.6-2.7-1.4-3.8-2.5s-1.8-2.4-2.4-4c-0.6-1.6-0.8-3.4-0.8-5.5c0-2.1,0.3-3.9,0.9-5.5c0.7-1.6,1.5-2.9,2.6-4
				c1.1-1.1,2.4-2,3.8-2.5c1.5-0.6,3.1-0.8,4.8-0.8c1.1,0,2.1,0.1,3.1,0.3c0.9,0.1,1.7,0.3,2.3,0.5c0.7,0.2,1.2,0.4,1.6,0.7
				c0.4,0.2,0.7,0.4,0.9,0.5l-1.3,3.7c-0.7-0.4-1.6-0.7-2.6-1C111.2,668.2,110.1,667.9,109,667.9"/>
			<path id="path3269-1" inkscape:connector-curvature="0" class="st9" d="M138.5,679.9c0,1.5-0.2,2.8-0.7,4c-0.4,1.2-1,2.2-1.8,3.2
				c-0.7,0.8-1.8,1.5-2.9,2.1c-1.1,0.5-2.3,0.7-3.6,0.7c-1.3,0-2.6-0.2-3.6-0.7c-1.1-0.5-2.1-1.1-2.8-2.1c-0.7-0.8-1.4-1.9-1.9-3.2
				c-0.4-1.2-0.7-2.6-0.7-4s0.2-2.8,0.7-4c0.4-1.2,1-2.2,1.9-3.2c0.8-0.8,1.8-1.5,2.9-2c1.1-0.5,2.3-0.7,3.6-0.7s2.5,0.2,3.6,0.7
				c1.1,0.4,2.1,1.1,2.9,2s1.4,1.9,1.8,3.2C138.2,677.1,138.5,678.5,138.5,679.9 M134,679.9c0-1.9-0.4-3.4-1.2-4.4
				c-0.7-1.1-1.9-1.7-3.4-1.7c-1.4,0-2.6,0.6-3.4,1.7c-0.7,1-1.2,2.5-1.2,4.4c0,1.9,0.4,3.4,1.2,4.5c0.8,1.1,2,1.7,3.4,1.7
				s2.5-0.6,3.4-1.7C133.7,683.3,134,681.8,134,679.9 M125.7,667.6c-0.7,0-1.2-0.2-1.7-0.7c-0.5-0.4-0.7-1-0.7-1.8s0.2-1.3,0.7-1.8
				c0.5-0.4,1-0.7,1.7-0.7c0.7,0,1.2,0.2,1.7,0.7c0.5,0.4,0.7,1,0.7,1.8s-0.3,1.3-0.7,1.8C126.9,667.3,126.4,667.6,125.7,667.6
				 M133.2,667.6c-0.7,0-1.2-0.2-1.8-0.7c-0.5-0.4-0.7-1-0.7-1.8s0.2-1.3,0.7-1.8c0.5-0.4,1-0.7,1.8-0.7c0.7,0,1.2,0.2,1.7,0.7
				c0.5,0.4,0.7,1,0.7,1.8s-0.2,1.3-0.7,1.8C134.3,667.3,133.7,667.6,133.2,667.6"/>
			<path id="path3271-8" inkscape:connector-curvature="0" class="st9" d="M153.5,674.6c-0.4-0.1-0.8-0.2-1.5-0.4
				c-0.7-0.1-1.3-0.2-2.1-0.2c-0.5,0-1,0.1-1.5,0.1c-0.6,0.1-0.9,0.2-1.1,0.3v15h-4.3v-17.8c0.8-0.3,1.9-0.7,3.2-0.8
				c1.3-0.3,2.6-0.4,4.2-0.4c0.3,0,0.7,0,1,0.1c0.4,0,0.7,0.1,1.1,0.1c0.4,0.1,0.7,0.1,1.1,0.2s0.7,0.1,0.8,0.2L153.5,674.6"/>
			<path id="path3273-5" inkscape:connector-curvature="0" class="st9" d="M163.8,689.7c-1.3,0-2.4-0.1-3.2-0.4
				c-0.8-0.3-1.5-0.7-2.1-1.1c-0.5-0.5-0.8-1.1-1-1.8s-0.3-1.6-0.3-2.5v-21.5l4.3-0.7v21.4c0,0.6,0.1,1,0.1,1.3
				c0.1,0.4,0.3,0.7,0.5,0.9c0.2,0.2,0.5,0.4,0.8,0.6s0.8,0.2,1.4,0.3L163.8,689.7"/>
			<path id="path3275-0" inkscape:connector-curvature="0" class="st9" d="M172.2,689.3h-4.3v-18.7h4.3V689.3 M172.7,665.1
				c0,0.8-0.3,1.5-0.7,2c-0.6,0.5-1.1,0.7-1.9,0.7c-0.8,0-1.4-0.2-1.9-0.7c-0.6-0.5-0.7-1.1-0.7-2c0-0.8,0.3-1.5,0.7-2
				c0.6-0.5,1.2-0.7,1.9-0.7c0.7,0,1.3,0.2,1.9,0.7C172.4,663.7,172.7,664.3,172.7,665.1"/>
			<path id="path3277-1" inkscape:connector-curvature="0" class="st9" d="M177.5,665.6l4.3-0.7v5.7h6.6v3.6h-6.6v7.6
				c0,1.5,0.2,2.6,0.7,3.2c0.4,0.7,1.3,1,2.4,1c0.7,0,1.5-0.1,2.1-0.3c0.7-0.1,1.1-0.4,1.5-0.5l0.7,3.4c-0.5,0.2-1.2,0.4-2,0.7
				c-0.8,0.2-1.8,0.4-2.9,0.4c-1.3,0-2.4-0.2-3.4-0.6c-0.9-0.4-1.6-0.8-2.1-1.5c-0.6-0.7-0.9-1.5-1.1-2.4c-0.2-1-0.4-2.1-0.4-3.4
				L177.5,665.6"/>
			<path id="path3279-5" inkscape:connector-curvature="0" class="st9" d="M205.8,673.7c-0.5,0.5-1.1,1.2-1.9,2.1
				c-0.7,0.9-1.6,1.9-2.4,3.1c-0.9,1.1-1.8,2.2-2.6,3.5c-0.9,1.2-1.7,2.3-2.4,3.4h9.6v3.6h-14.9v-2.6c0.6-1,1.2-2.1,2-3.2
				c0.7-1.1,1.6-2.2,2.4-3.4c0.8-1.2,1.7-2.2,2.4-3.3c0.8-1,1.6-1.9,2.2-2.6h-8.6v-3.6h14.2V673.7"/>
		</g>
		<path id="path10-5" inkscape:connector-curvature="0" sodipodi:nodetypes="cccccc" class="st10" d="M-725.4-225
			c5.4,5.5-2.5,11.5-2.5,11.5s8.5-2.7,6.8-11.8c-1.3-3.5-13.1-16.6,0.8-29.7C-720.1-255-740.2-245.7-725.4-225L-725.4-225z"/>
		<path id="path10-7-2" inkscape:connector-curvature="0" sodipodi:nodetypes="cccccc" class="st11" d="M-734.2-280.5
			c0,0,10.5,21,4.6,27.4c-9.5,14.9-12.4,14.9,1.9,36.6c-11.6-9.5-17.6-20.9-14.3-26.6C-731.6-255.6-728.6-261.4-734.2-280.5
			L-734.2-280.5z"/>
	</g>
	<text transform="matrix(1 0 0 1 33.4998 694.603)" class="st3 st4 st5">Mittwoch, 31.05.2017</text>
	<text transform="matrix(1 0 0 1 33.4998 718.603)" class="st3 st4 st5">19:00 Uhr</text>
	<text transform="matrix(1 0 0 1 33.4998 742.603)" class="st3 st4 st8">Hochschule Zittau/Görlitz</text>
	<g>
		<text transform="matrix(1 0 0 1 33.4998 766.603)" class="st2"><tspan x="0" y="0" class="st3 st4 st8">Brückenstraße 1, </tspan><tspan x="0" y="24" class="st3 st4 st8">Haus G2, Raum 0.10 </tspan></text>
		<text transform="matrix(1 0 0 1 33.4998 814.603)" class="st3 st4 st8">02826 Görlitz</text>
	</g>
	<text transform="matrix(1 0 0 1 36.2049 814.6033)" class="st4 st5"> </text>
	<g>
		<rect x="31.2" y="251.1" class="st3" width="292.8" height="299.9"/>
	</g>
	<g>
		<rect x="35" y="293.7" class="st12" width="285.4" height="265.6"/>
		<rect id="rect5741_1_" x="33.5" y="255.4" class="st1" width="288.2" height="36.9"/>
		<text transform="matrix(0.9113 0 0 1 43.5699 318.1158)" class="st2"><tspan x="0" y="0" class="st4 st13">React ist eine JavaScript-Bibliothek </tspan><tspan x="0" y="20.5" class="st4 st13">für UI-Komponenten, welche stark</tspan><tspan x="0" y="41" class="st4 st13">von Konzepten der funktionalen </tspan><tspan x="0" y="61.4" class="st4 st13">Programmierung inspiriert ist. Mit</tspan><tspan x="0" y="81.9" class="st4 st13">React-Native existiert darüber hinaus </tspan><tspan x="0" y="102.4" class="st4 st13">auch eine Variante zur Entwicklung </tspan><tspan x="0" y="122.9" class="st4 st13">von nativen Mobile-Apps. Beides wird</tspan><tspan x="0" y="143.3" class="st4 st13">im Vortrag anhand von Live-Coding </tspan><tspan x="0" y="163.8" class="st4 st13">vorgestellt.</tspan><tspan x="0" y="204.8" class="st4 st13">Infos zur Veranstaltung: </tspan><tspan x="0" y="225.2" class="st4 st13">https://goo.gl/H0XOUp</tspan></text>
		<text transform="matrix(0.928 0 0 1 46.6783 283.1817)" class="st3 st4 st14">Thema</text>
	</g>
	
		<image style="overflow:visible;" width="169" height="77" xlink:href="../Plakat_2017_03/Logo_transp.png"  transform="matrix(0.4234 0 0 0.4234 491.6831 793.603)">
	</image>
	<text transform="matrix(1 0 0 1 389.7754 779.0332)" class="st3 st15 st16">http://www.jug-gr.de</text>
</g>
<g id="Ebene_2">
</g>
</svg>
