<?xml version="1.0" encoding="UTF-8" standalone="no"?>
<!-- Created with Inkscape (http://www.inkscape.org/) -->

<svg
   xmlns:dc="http://purl.org/dc/elements/1.1/"
   xmlns:cc="http://creativecommons.org/ns#"
   xmlns:rdf="http://www.w3.org/1999/02/22-rdf-syntax-ns#"
   xmlns:svg="http://www.w3.org/2000/svg"
   xmlns="http://www.w3.org/2000/svg"
   xmlns:sodipodi="http://sodipodi.sourceforge.net/DTD/sodipodi-0.dtd"
   xmlns:inkscape="http://www.inkscape.org/namespaces/inkscape"
   width="429.65643mm"
   height="818.09857mm"
   viewBox="0 0 1522.4047 2898.7745"
   id="svg2"
   version="1.1"
   inkscape:version="0.91 r13725"
   sodipodi:docname="juergen_mai.svg"
   inkscape:export-filename="D:\JUGGR\grafiken\Plakate\Plakat_05_2016\juergen_mai.png"
   inkscape:export-xdpi="90"
   inkscape:export-ydpi="90">
  <defs
     id="defs4">
    <inkscape:perspective
       sodipodi:type="inkscape:persp3d"
       inkscape:vp_x="0 : 526.1811 : 1"
       inkscape:vp_y="0 : 1000 : 0"
       inkscape:vp_z="744.0945 : 526.18111 : 1"
       inkscape:persp3d-origin="372.04725 : 350.7874 : 1"
       id="perspective4584" />
    <inkscape:path-effect
       effect="spiro"
       id="path-effect4253"
       is_visible="true" />
    <inkscape:path-effect
       effect="spiro"
       id="path-effect4253-1"
       is_visible="true" />
  </defs>
  <sodipodi:namedview
     id="base"
     pagecolor="#ffffff"
     bordercolor="#666666"
     borderopacity="1.0"
     inkscape:pageopacity="0.0"
     inkscape:pageshadow="2"
     inkscape:zoom="0.16430664"
     inkscape:cx="812.70776"
     inkscape:cy="1454.8514"
     inkscape:document-units="px"
     inkscape:current-layer="layer1"
     showgrid="false"
     inkscape:window-width="1536"
     inkscape:window-height="814"
     inkscape:window-x="-8"
     inkscape:window-y="-8"
     inkscape:window-maximized="1"
     fit-margin-top="0"
     fit-margin-left="0"
     fit-margin-right="0"
     fit-margin-bottom="0" />
  <metadata
     id="metadata7">
    <rdf:RDF>
      <cc:Work
         rdf:about="">
        <dc:format>image/svg+xml</dc:format>
        <dc:type
           rdf:resource="http://purl.org/dc/dcmitype/StillImage" />
        <dc:title></dc:title>
      </cc:Work>
    </rdf:RDF>
  </metadata>
  <g
     inkscape:label="Ebene 1"
     inkscape:groupmode="layer"
     id="layer1"
     transform="translate(485.85925,837.02503)">
    <g
       id="g5590">
      <path
         inkscape:connector-curvature="0"
         id="path4595"
         d="m -25.14403,1138.2419 70.71069,907.9251 619.42541,5.6569 45.2549,-882.4693 z"
         style="fill:#57888d;fill-opacity:1;fill-rule:evenodd;stroke:#000000;stroke-width:9;stroke-linecap:butt;stroke-linejoin:miter;stroke-miterlimit:4;stroke-dasharray:none;stroke-opacity:1" />
      <path
         inkscape:connector-curvature="0"
         id="path4508"
         d="m 48.39509,1149.5556 c 0,0 39.598,65.0538 135.7645,76.3675 96.1665,11.3137 237.5879,-16.9705 319.6122,-56.5685 82.0244,-39.598 96.1666,-545.88648 96.1666,-545.88648 l -514.7738,-5.6568 z"
         style="fill:#ffffff;fill-opacity:1;fill-rule:evenodd;stroke:#000000;stroke-width:8;stroke-linecap:butt;stroke-linejoin:miter;stroke-miterlimit:4;stroke-dasharray:none;stroke-opacity:1" />
      <path
         inkscape:connector-curvature="0"
         id="path4489-5"
         d="m -122.25146,1077.9684 c 0,0 -1.4622,-20.7632 -36.05582,-26.0811 -34.59365,-5.3179 -42.0285,0.9249 -42.0285,0.9249 l -3.83531,2.9009 c 0,0 4.99205,6.6862 8.87748,9.7116 3.88541,3.0255 23.65084,18.2555 23.65084,18.2555 l 43.22439,18.2799 z"
         style="opacity:1;fill:#e1d2b1;fill-opacity:1;fill-rule:evenodd;stroke:#000000;stroke-width:8;stroke-linecap:butt;stroke-linejoin:miter;stroke-miterlimit:4;stroke-dasharray:none;stroke-opacity:1" />
      <path
         sodipodi:nodetypes="ccssssssc"
         inkscape:connector-curvature="0"
         id="path4322"
         d="m 96.47833,-489.51793 21.21316,-90.50965 c 0,0 -90.50962,-62.2254 -115.96546,-91.92388 -25.45585,-29.69849 -50.91169,-83.4386 -25.45585,-96.16653 25.45585,-12.72792 142.83561,-59.39697 199.40411,-57.98275 56.5685,1.41421 371.9382,-19.79899 434.1636,19.79899 62.22538,39.59798 159.80608,38.18376 127.27918,179.60512 -32.5269,141.42135 -77.7817,333.75439 -100.4091,376.18079 -22.6274,42.4264 -540.22964,-239.00209 -540.22964,-239.00209 z"
         style="fill:#d3623a;fill-opacity:1;fill-rule:evenodd;stroke:#000000;stroke-width:13;stroke-linecap:butt;stroke-linejoin:miter;stroke-miterlimit:4;stroke-dasharray:none;stroke-opacity:1" />
      <rect
         y="117.17966"
         x="124.76256"
         height="229.1026"
         width="461.03363"
         id="rect4479"
         style="opacity:1;fill:#ffffff;fill-opacity:1;stroke:#000000;stroke-width:6;stroke-linecap:round;stroke-miterlimit:4;stroke-dasharray:none;stroke-opacity:1" />
      <path
         inkscape:connector-curvature="0"
         id="path4398"
         d="m 288.64659,154.93482 c 30,72 44,76 44,76 l 26,4 62,-68 10,-102 -130,-8 z"
         style="fill:#d3623a;fill-opacity:1;fill-rule:evenodd;stroke:#000000;stroke-width:8;stroke-linecap:butt;stroke-linejoin:miter;stroke-miterlimit:4;stroke-dasharray:none;stroke-opacity:1" />
      <path
         inkscape:connector-curvature="0"
         id="path4400"
         d="m 319.77672,226.90388 -84.48498,65.01344 -54.06487,538.06473 73.76576,106.43757 99.64228,-82.30327 98.53916,-536.0248 -90.04321,-86.96602 z"
         style="fill:#d3623a;fill-opacity:1;fill-rule:evenodd;stroke:#000000;stroke-width:7.75049019;stroke-linecap:butt;stroke-linejoin:miter;stroke-miterlimit:4;stroke-dasharray:none;stroke-opacity:1"
         sodipodi:nodetypes="cccccccc" />
      <path
         inkscape:connector-curvature="0"
         id="path4489"
         d="m -163.02985,1082.3804 c 0,0 -7.42463,-19.4454 -42.07286,-14.4957 -34.64823,4.9498 -39.95153,13.0815 -39.95153,13.0815 l -2.82843,3.8891 c 0,0 6.71752,4.9498 11.31371,6.7175 4.59619,1.7678 27.93072,10.6066 27.93072,10.6066 l 46.66905,4.9498 z"
         style="fill:#e1d2b1;fill-opacity:1;fill-rule:evenodd;stroke:#000000;stroke-width:8;stroke-linecap:butt;stroke-linejoin:miter;stroke-miterlimit:4;stroke-dasharray:none;stroke-opacity:1" />
      <path
         sodipodi:nodetypes="czcscscccccccc"
         inkscape:connector-curvature="0"
         id="path4485"
         d="m -102.92578,954.39412 c 0,0 8.27344,13.8354 0,41.0122 -8.27344,27.17678 -72.12489,107.48018 -72.12489,107.48018 0,0 -38.18377,-5.6568 -66.46804,9.8995 -28.28427,15.5564 -26.87005,31.1127 -26.87005,31.1127 0,0 -12.72793,5.6569 22.62741,14.1422 35.35534,8.4852 125.86501,-7.0711 125.86501,-7.0711 l 28.28427,-8.4853 127.27922,-207.88938 -35.35534,-168.2914 -131.52186,5.6569 -15.55635,118.7939 31.99658,54.8008 z"
         style="fill:#e1d2b1;fill-opacity:1;fill-rule:evenodd;stroke:#000000;stroke-width:8;stroke-linecap:butt;stroke-linejoin:miter;stroke-miterlimit:4;stroke-dasharray:none;stroke-opacity:1" />
      <path
         inkscape:connector-curvature="0"
         id="path4433"
         d="m 196.64659,54.93482 c -196,12 -200,16 -200,16 l 36,440 c 0,0 -92,521.99998 -122,547.99998 -30,26 42,266 42,266 l 68,-12 202,-302 22,-961.99998 z"
         style="fill:#57888d;fill-opacity:1;fill-rule:evenodd;stroke:#000000;stroke-width:9;stroke-linecap:butt;stroke-linejoin:miter;stroke-miterlimit:4;stroke-dasharray:none;stroke-opacity:1" />
      <path
         inkscape:connector-curvature="0"
         id="path4402"
         d="m 458.64659,216.93482 -184.28571,785.42858 220.28571,306.5714 123.99998,16 140,-156 -112,-391.99998 20,-392 L 854.31626,102.14914 530.64659,16.93482 Z"
         style="fill:#57888d;fill-opacity:1;fill-rule:evenodd;stroke:#000000;stroke-width:9;stroke-linecap:butt;stroke-linejoin:miter;stroke-miterlimit:4;stroke-dasharray:none;stroke-opacity:1"
         sodipodi:nodetypes="cccccccccc" />
      <path
         sodipodi:nodetypes="csssccc"
         inkscape:connector-curvature="0"
         id="path4652"
         d="m 456.39569,247.99442 c 0,0 17.67767,-23.33452 46.66907,-33.23402 28.9914,-9.8995 125.29091,-71.51758 133.64321,-77.78175 7.071,-5.30321 43.1334,-36.76953 41.0121,-61.51823 -2.1213,-24.7488 -26.1629,-44.54775 -26.1629,-44.54775 L 464.88099,183.64772 Z"
         style="fill:#000000;fill-opacity:1;fill-rule:evenodd;stroke:#000000;stroke-width:1px;stroke-linecap:butt;stroke-linejoin:miter;stroke-opacity:1" />
      <path
         sodipodi:nodetypes="czzzsccc"
         inkscape:connector-curvature="0"
         id="path4394"
         d="m 558.64659,-51.06518 c 0,0 14.69173,-3.129414 32,6 17.30827,9.129414 50.14718,37.225962 59.99998,60 9.8528,22.77404 19.349,25.33119 2,64 -17.349,38.66881 -99.99998,110 -145.99998,122 -46,12 -58,24 -58,24 l -52,-122 z"
         style="fill:#ffffff;fill-opacity:1;fill-rule:evenodd;stroke:#000000;stroke-width:10;stroke-linecap:butt;stroke-linejoin:miter;stroke-miterlimit:4;stroke-dasharray:none;stroke-opacity:1" />
      <path
         inkscape:connector-curvature="0"
         id="path4396"
         d="m 304.64659,-17.06518 -84,32 c 0,0 -28,10 -22,46 6,36 64,142 64,142 l 64,-110 22,-110 z"
         style="fill:#ffffff;fill-opacity:1;fill-rule:evenodd;stroke:#000000;stroke-width:10;stroke-linecap:butt;stroke-linejoin:miter;stroke-miterlimit:4;stroke-dasharray:none;stroke-opacity:1" />
      <path
         sodipodi:nodetypes="ccssssssssssccccsscc"
         inkscape:connector-curvature="0"
         id="path4310"
         d="m 165.77479,-605.48343 -43.1335,138.59295 c 0,0 -7.0711,100.4091 -10.6066,148.4924 -3.5355,48.0833 -8.4853,130.8148 6.364,162.6346 14.8492,31.8198 35.3553,71.4177 88.3883,101.1162 53.033,29.6985 137.8858,56.5686 180.3122,43.1335 42.4264,-13.435 82.0244,-33.9411 106.7732,-61.5182 24.7487,-27.5772 91.03992,-118.9708 91.03992,-124.6276 0,-5.6569 4.41948,10.0763 18.56158,-4.773 14.14208,-14.8492 41.71928,-48.7904 37.47668,-73.5391 -4.2427,-24.7487 9.8995,-53.033 -19.799,-50.2046 -29.69848,2.8285 -40.30508,2.1214 -57.98278,37.4767 -17.6776,35.3553 -4.9497,-24.0416 -4.9497,-24.0416 l 18.3847,-11.3137 -15.5563,-16.2635 23.3345,-69.2965 c 0,0 -55.1543,-1.4142 -56.5685,-12.7279 -1.4142,-11.3137 21.2132,-82.0244 -2.8284,-168.99851 -24.0417,-86.97414 -249.6087,-26.16295 -249.6087,-26.16295 0,0 -94.7523,28.99137 -109.6016,12.02081 z"
         style="fill:#e1d2b1;fill-opacity:1;fill-rule:evenodd;stroke:#000000;stroke-width:10;stroke-linecap:butt;stroke-linejoin:miter;stroke-miterlimit:4;stroke-dasharray:none;stroke-opacity:1" />
      <ellipse
         ry="88.055"
         rx="55.530182"
         cy="-369.86292"
         cx="368.76044"
         id="path3350"
         style="fill:#000000;fill-opacity:1;stroke:#000000;stroke-width:1.57063067;stroke-opacity:1" />
      <ellipse
         ry="56.063465"
         rx="35.355339"
         cy="-408.70584"
         cx="177.08849"
         id="path3350-4"
         style="fill:#000000;fill-opacity:1;stroke:#000000;stroke-opacity:1" />
      <ellipse
         ry="27.276045"
         rx="17.201109"
         cy="-398.18344"
         cx="387.00607"
         id="path3350-47"
         style="fill:#ffffff;fill-opacity:1;stroke:#000000;stroke-width:0.48652083;stroke-opacity:1" />
      <ellipse
         ry="17.366301"
         rx="10.951721"
         cy="-426.88861"
         cx="188.20018"
         id="path3350-47-1"
         style="fill:#ffffff;fill-opacity:1;stroke:#000000;stroke-width:0.30976143;stroke-opacity:1" />
      <path
         inkscape:connector-curvature="0"
         inkscape:original-d="m 217.64659,-500.56518 2.5,-8 c 0,0 -0.5,-18.5 -14,-22 -13.5,-3.5 -44.5,8 -44.5,8 l -3.5,9.5 c 0,0 12.5,-2 25.5,-3 13,-1 29,3.5 34,15.5 z"
         inkscape:path-effect="#path-effect4253"
         id="path4251"
         d="m 217.64659,-500.56518 2.5,-8 c -1.37156,-8.83831 -6.57443,-17.01424 -14,-22 -6.91846,-4.64527 -15.66715,-6.47991 -23.86895,-5.00543 -8.20181,1.47449 -15.7637,6.24136 -20.63105,13.00543 l -3.5,9.5 c 8.14093,-2.85935 16.91775,-3.89191 25.5,-3 12.60844,1.31034 24.74143,6.84155 34,15.5 z"
         style="fill:#000000;fill-opacity:1;fill-rule:evenodd;stroke:#000000;stroke-width:1px;stroke-linecap:butt;stroke-linejoin:miter;stroke-opacity:1" />
      <path
         inkscape:connector-curvature="0"
         inkscape:original-d="m 367.50913,-492.23198 -1.13576,-8.4564 c 0,0 3.50596,-18.13948 17.25702,-18.54941 13.75105,-0.40992 42.14058,17.92413 42.14058,17.92413 l 1.86738,10.16172 c 0,0 -11.87756,-4.79099 -24.4064,-8.70808 -12.52885,-3.91708 -28.88379,-3.08411 -35.72282,7.62804 z"
         inkscape:path-effect="#path-effect4253-1"
         id="path4251-3"
         d="m 367.50913,-492.23198 -1.13576,-8.4564 c 2.87031,-8.20198 9.28331,-15.09525 17.25702,-18.54941 7.83437,-3.3938 17.06066,-3.42438 24.91736,-0.0826 7.8567,3.34177 14.23404,10.00923 17.22322,18.00673 l 1.86738,10.16172 c -7.3308,-4.70968 -15.75003,-7.71362 -24.4064,-8.70808 -12.31177,-1.4144 -25.06255,1.30833 -35.72282,7.62804 z"
         style="fill:#000000;fill-opacity:1;fill-rule:evenodd;stroke:#000000;stroke-width:1px;stroke-linecap:butt;stroke-linejoin:miter;stroke-opacity:1" />
      <path
         inkscape:connector-curvature="0"
         id="path4304"
         d="m 224.64659,-451.56518 9.5,2 -55,196.5 c 0,0 -0.5,7 5.5,8 6,1 46,2.5 46,2.5 0,0 14,3 9.5,9 -4.5,6 -62.5,-1.5 -62.5,-1.5 0,0 -18.5,-10 -18,-15.5 0.5,-5.5 8,-21.5 17,-50.5 9,-29 48,-150.5 48,-150.5 z"
         style="fill:#000000;fill-opacity:1;fill-rule:evenodd;stroke:#000000;stroke-width:1px;stroke-linecap:butt;stroke-linejoin:miter;stroke-opacity:1" />
      <path
         inkscape:connector-curvature="0"
         id="path4306"
         d="m 174.26009,-184.04778 34.6482,74.9533 c 0,0 36.0625,24.7487 84.8528,23.3345 48.7904,-1.4142 111.0158,-14.1421 115.9655,-21.2132 4.9498,-7.071 38.1838,-73.5391 38.1838,-73.5391 l -12.0208,-6.3639 c 0,0 -62.2254,19.799 -123.0366,21.9203 -60.8112,2.1213 -138.5929,-19.0919 -138.5929,-19.0919 z"
         style="fill:#ffffff;fill-opacity:1;fill-rule:evenodd;stroke:#000000;stroke-width:10;stroke-linecap:butt;stroke-linejoin:miter;stroke-miterlimit:4;stroke-dasharray:none;stroke-opacity:1" />
      <path
         inkscape:connector-curvature="0"
         id="path4308"
         d="m 188.47177,-155.07333 70.24391,11.95574 c 0,0 82.58406,9.23854 105.36592,7.06478 22.78173,-2.17375 -47.46218,8.69511 -98.72115,2.7172 -51.25912,-5.97783 -71.19315,-11.4123 -71.19315,-11.4123 z"
         style="fill:#000000;fill-opacity:1;fill-rule:evenodd;stroke:#000000;stroke-width:1.01573646px;stroke-linecap:butt;stroke-linejoin:miter;stroke-opacity:1" />
      <path
         inkscape:connector-curvature="0"
         id="path4318"
         d="m 580.64659,-256.06518 c 0,0 -9,-18 5,-29 14,-11 37.99998,-3 37.99998,6 0,9 4,28 -17.99998,37 -22,9 -22,9 -22,9 l 1,6"
         style="fill:none;fill-rule:evenodd;stroke:#000000;stroke-width:7;stroke-linecap:butt;stroke-linejoin:miter;stroke-miterlimit:4;stroke-dasharray:none;stroke-opacity:1" />
      <path
         inkscape:connector-curvature="0"
         id="path4324"
         d="m 113.44889,-816.20125 c 0,0 74.9533,-18.38477 124.4508,15.55635 49.4975,33.94113 73.5391,66.46804 65.0538,101.82338 -8.4853,35.35534 -59.3969,53.74011 -113.1371,45.25483 -53.7401,-8.48528 -94.7523,-31.1127 -93.3381,-57.98275 1.4143,-26.87006 24.0417,-49.49748 48.0833,-49.49748 24.0416,0 59.397,38.18377 59.397,38.18377 l 0,0"
         style="fill:none;fill-rule:evenodd;stroke:#000000;stroke-width:13;stroke-linecap:butt;stroke-linejoin:miter;stroke-miterlimit:4;stroke-dasharray:none;stroke-opacity:1" />
      <path
         inkscape:connector-curvature="0"
         id="path4326"
         d="m 368.00729,-786.50276 c 0,0 45.2549,12.72792 52.3259,49.49747 7.0711,36.76956 -1.4142,45.25484 -1.4142,45.25484 l 0,0"
         style="fill:none;fill-rule:evenodd;stroke:#000000;stroke-width:16;stroke-linecap:butt;stroke-linejoin:miter;stroke-miterlimit:4;stroke-dasharray:none;stroke-opacity:1" />
      <path
         inkscape:connector-curvature="0"
         id="path4326-3"
         d="m 453.24672,-779.23782 c 0,0 32.56251,19.63287 30.19007,49.82475 -2.37233,30.19182 -10.80973,34.98913 -10.80973,34.98913 l 0,0"
         style="opacity:1;fill:none;fill-rule:evenodd;stroke:#000000;stroke-width:12.94113445;stroke-linecap:butt;stroke-linejoin:miter;stroke-miterlimit:4;stroke-dasharray:none;stroke-opacity:1" />
      <path
         inkscape:connector-curvature="0"
         id="path4326-3-5"
         d="m 514.87468,-761.50853 c 0,0 21.0839,22.9385 12.26438,46.13369 -8.81947,23.19529 -16.55924,25.02435 -16.55924,25.02435 l 0,0"
         style="opacity:1;fill:none;fill-rule:evenodd;stroke:#000000;stroke-width:10.60392857;stroke-linecap:butt;stroke-linejoin:miter;stroke-miterlimit:4;stroke-dasharray:none;stroke-opacity:1" />
      <path
         inkscape:connector-curvature="0"
         id="path4358"
         d="m 594.28149,-363.65288 c 74.95328,9.8995 74.95328,9.8995 74.95328,9.8995"
         style="fill:none;fill-rule:evenodd;stroke:#000000;stroke-width:10;stroke-linecap:butt;stroke-linejoin:miter;stroke-miterlimit:4;stroke-dasharray:none;stroke-opacity:1" />
      <path
         inkscape:connector-curvature="0"
         id="path4358-6"
         d="m 600.04302,-430.07933 c 78.98665,19.71523 78.98665,19.71523 78.98665,19.71523"
         style="opacity:1;fill:none;fill-rule:evenodd;stroke:#000000;stroke-width:14.48691654;stroke-linecap:butt;stroke-linejoin:miter;stroke-miterlimit:4;stroke-dasharray:none;stroke-opacity:1" />
      <path
         inkscape:transform-center-y="70.218503"
         inkscape:transform-center-x="1.091775"
         inkscape:connector-curvature="0"
         id="path4358-6-9"
         d="m 609.17477,-489.97903 c 81.4347,34.05745 81.4347,34.05745 81.4347,34.05745"
         style="opacity:1;fill:none;fill-rule:evenodd;stroke:#000000;stroke-width:15.50581169;stroke-linecap:butt;stroke-linejoin:miter;stroke-miterlimit:4;stroke-dasharray:none;stroke-opacity:1" />
      <path
         sodipodi:nodetypes="cccssscscc"
         inkscape:connector-curvature="0"
         id="path4390"
         d="m 584.39243,-199.92732 -33.95154,175.68564 19.799,18.3848 c 0,0 31.1127,22.6274 5.6568,49.4975 -25.4558,26.87 -106.066,59.3969 -176.7767,57.9827 -70.7106,-1.4142 -132.936,-25.4558 -132.936,-45.2548 0,-19.799 37.098,-25.0269 37.098,-25.0269 0,0 4.97479,1.69235 10.63166,-22.349234 l 5.6569,-17.854516 -0.85618,-3.558059"
         style="fill:#e1d2b1;fill-opacity:1;fill-rule:evenodd;stroke:#000000;stroke-width:10;stroke-linecap:round;stroke-linejoin:miter;stroke-miterlimit:4;stroke-dasharray:none;stroke-opacity:1" />
      <path
         sodipodi:nodetypes="cssc"
         inkscape:connector-curvature="0"
         id="path4392"
         d="m 320.96663,-12.545474 c 0,0 6.11283,3.503904 32.61454,1.722255 26.50171,-1.781649 140.90982,-27.141714 149.2523,-32.362636 8.34248,-5.220921 17.35944,-25.722095 17.35944,-25.722095"
         style="fill:none;fill-rule:evenodd;stroke:#000000;stroke-width:10;stroke-linecap:round;stroke-linejoin:miter;stroke-miterlimit:4;stroke-dasharray:none;stroke-opacity:1" />
      <path
         sodipodi:nodetypes="ccccazccsscccc"
         inkscape:connector-curvature="0"
         id="path4437"
         d="m -5.35341,72.93482 -16,-16 -18,16 4,20 c 0,0 -320.04893,288.64335 -422,474 -14.03421,25.51551 -24.28442,55.83975 -24,84 0.28442,28.16025 24,78 24,78 l 355.52513,228 c 0,0 -13.52513,-4 -3.52513,-54 10,-50 24,-106 52,-120 28,-14 29.63604,-18.24264 29.63604,-18.24264 l -189.63604,-137.75736 236,-222 c 0,0 42,-70 -28,-332 z"
         style="fill:#57888d;fill-opacity:1;fill-rule:evenodd;stroke:#000000;stroke-width:9;stroke-linecap:butt;stroke-linejoin:miter;stroke-miterlimit:4;stroke-dasharray:none;stroke-opacity:1" />
      <circle
         r="10.5"
         cy="996.43488"
         cx="261.14661"
         id="path4789"
         style="opacity:1;fill:none;fill-opacity:1;stroke:#000000;stroke-width:6;stroke-linecap:round;stroke-miterlimit:4;stroke-dasharray:none;stroke-opacity:1" />
      <path
         inkscape:connector-curvature="0"
         id="path4439"
         d="m -35.35341,92.93482 c 0,0 34,90 34,156 0,66 2,66 2,66 l 0,0"
         style="fill:none;fill-rule:evenodd;stroke:#000000;stroke-width:9;stroke-linecap:round;stroke-linejoin:miter;stroke-miterlimit:4;stroke-dasharray:none;stroke-opacity:1" />
      <circle
         r="39.59798"
         cy="797.09912"
         cx="384.73416"
         id="path4462"
         style="opacity:1;fill:#57888d;fill-opacity:1;stroke:#000000;stroke-width:6;stroke-linecap:round;stroke-miterlimit:4;stroke-dasharray:none;stroke-opacity:1" />
      <circle
         r="39.59798"
         cy="1045.8912"
         cx="390.39102"
         id="path4462-9"
         style="opacity:1;fill:#57888d;fill-opacity:1;stroke:#000000;stroke-width:6;stroke-linecap:round;stroke-miterlimit:4;stroke-dasharray:none;stroke-opacity:1" />
      <path
         inkscape:connector-curvature="0"
         id="path4462-9-8"
         d="m 388.04105,756.80156 a 39.59798,39.59798 0 0 1 39.5977,39.5977 39.59798,39.59798 0 0 1 -39.5977,39.5977 39.59798,39.59798 0 0 1 -8.4512,-0.9629 39.59798,39.59798 0 0 0 31.0489,-38.6348 39.59798,39.59798 0 0 0 -31.1465,-38.6348 39.59798,39.59798 0 0 1 8.5488,-0.9629 z"
         style="opacity:1;fill:#000000;fill-opacity:1;stroke:#000000;stroke-width:4;stroke-linecap:round;stroke-miterlimit:4;stroke-dasharray:none;stroke-opacity:1" />
      <path
         sodipodi:nodetypes="ccccc"
         inkscape:connector-curvature="0"
         id="path4654-9"
         d="M 225.38601,728.79962 124.56555,239.23297 189.08406,175.11092 138.12833,130.81726 199.18485,56.7758"
         style="opacity:1;fill:none;fill-rule:evenodd;stroke:#000000;stroke-width:8;stroke-linecap:butt;stroke-linejoin:miter;stroke-miterlimit:4;stroke-dasharray:none;stroke-opacity:1" />
      <path
         inkscape:connector-curvature="0"
         id="path4599"
         d="m 248.64092,1314.9399 c 18.01021,637.554 20.01134,736.989 20.01134,736.989"
         style="fill:none;fill-rule:evenodd;stroke:#000000;stroke-width:7.90101337;stroke-linecap:butt;stroke-linejoin:miter;stroke-miterlimit:4;stroke-dasharray:none;stroke-opacity:1" />
      <path
         id="path4462-9-8-6"
         d="m 388.73668,1007.2119 a 39.59798,39.59798 0 0 1 39.5977,39.5977 39.59798,39.59798 0 0 1 -39.5977,39.5977 39.59798,39.59798 0 0 1 -8.4512,-0.9629 39.59798,39.59798 0 0 0 31.0489,-38.6348 39.59798,39.59798 0 0 0 -31.1465,-38.6348 39.59798,39.59798 0 0 1 8.5488,-0.9629 z"
         style="opacity:1;fill:#000000;fill-opacity:1;stroke:#000000;stroke-width:4;stroke-linecap:round;stroke-miterlimit:4;stroke-dasharray:none;stroke-opacity:1"
         inkscape:connector-curvature="0" />
      <path
         inkscape:connector-curvature="0"
         id="path4654"
         d="m 342.9323,729.22053 269.71427,-460.28571 -37.99998,-62 89.99998,-48 -4,-86 0,0"
         style="fill:none;fill-rule:evenodd;stroke:#000000;stroke-width:8;stroke-linecap:butt;stroke-linejoin:miter;stroke-miterlimit:4;stroke-dasharray:none;stroke-opacity:1"
         sodipodi:nodetypes="cccccc" />
      <path
         inkscape:connector-curvature="0"
         id="path4671"
         d="m 9.64659,71.93482 c 0,0 8,-2 15,57 7,59 8,127 8,127 l -35,-181 17,-6"
         style="fill:#000000;fill-opacity:1;fill-rule:evenodd;stroke:#000000;stroke-width:1px;stroke-linecap:butt;stroke-linejoin:miter;stroke-opacity:1" />
      <path
         inkscape:connector-curvature="0"
         id="path4690"
         d="m 587.91759,224.65992 c 5.6568,-3.5355 78.48878,-63.6396 78.48878,-63.6396 l -91.92388,45.2548 z"
         style="fill:#000000;fill-opacity:1;fill-rule:evenodd;stroke:#000000;stroke-width:1px;stroke-linecap:butt;stroke-linejoin:miter;stroke-opacity:1" />
      <path
         sodipodi:nodetypes="cccc"
         inkscape:connector-curvature="0"
         id="path4692"
         d="m 335.30811,751.67523 287.96466,-472.56804 -7.4245,-11.66734 z"
         style="fill:#000000;fill-opacity:1;fill-rule:evenodd;stroke:#000000;stroke-width:1px;stroke-linecap:butt;stroke-linejoin:miter;stroke-opacity:1" />
      <path
         inkscape:connector-curvature="0"
         id="path4694"
         d="m 335.14659,96.43482 c -39,73 -47,61 -47,61 l 38,-64 z"
         style="fill:#000000;fill-opacity:1;fill-rule:evenodd;stroke:#000000;stroke-width:1px;stroke-linecap:butt;stroke-linejoin:miter;stroke-opacity:1" />
      <path
         inkscape:connector-curvature="0"
         id="path4696"
         d="m 249.64659,187.93482 c -1.5,105 -10.5,115 -10.5,115 l 5.5,-134 z"
         style="fill:#000000;fill-opacity:1;fill-rule:evenodd;stroke:#000000;stroke-width:1px;stroke-linecap:butt;stroke-linejoin:miter;stroke-opacity:1" />
      <path
         inkscape:connector-curvature="0"
         id="path4698"
         d="m 425.14659,178.93482 -53.5,52 62.5,80.5 -72,-80 60.5,-66 z"
         style="fill:#000000;fill-opacity:1;fill-rule:evenodd;stroke:#000000;stroke-width:1px;stroke-linecap:butt;stroke-linejoin:miter;stroke-opacity:1" />
      <path
         inkscape:connector-curvature="0"
         id="path4700"
         d="m 297.64659,170.43482 52,-69.5 12.5,1 -63.5,74 z"
         style="fill:#000000;fill-opacity:1;fill-rule:evenodd;stroke:#000000;stroke-width:1px;stroke-linecap:butt;stroke-linejoin:miter;stroke-opacity:1" />
      <path
         inkscape:connector-curvature="0"
         id="path4702"
         d="m 373.14659,103.43482 -70.5,81.5 2,6 86,-86.5 z"
         style="fill:#000000;fill-opacity:1;fill-rule:evenodd;stroke:#000000;stroke-width:1px;stroke-linecap:butt;stroke-linejoin:miter;stroke-opacity:1" />
      <path
         inkscape:connector-curvature="0"
         id="path4704"
         d="m 345.37989,234.55942 -104.6518,80.6102 -4.2426,-15.5564 84.8528,-73.5391 z"
         style="fill:#000000;fill-opacity:1;fill-rule:evenodd;stroke:#000000;stroke-width:1px;stroke-linecap:butt;stroke-linejoin:miter;stroke-opacity:1" />
      <path
         inkscape:connector-curvature="0"
         id="path4706"
         d="m 240.72809,378.80922 141.4214,-123.0366 18.3848,16.9706 -165.463,121.6223 5.6568,-9.8995"
         style="fill:#000000;fill-opacity:1;fill-rule:evenodd;stroke:#000000;stroke-width:1px;stroke-linecap:butt;stroke-linejoin:miter;stroke-opacity:1" />
      <path
         inkscape:connector-curvature="0"
         id="path4706-2"
         d="m 241.18638,340.56342 125.29065,-111.59523 16.2878,15.39248 -146.59003,110.31244 5.01158,-8.97893"
         style="opacity:1;fill:#000000;fill-opacity:1;fill-rule:evenodd;stroke:#000000;stroke-width:0.89641148px;stroke-linecap:butt;stroke-linejoin:miter;stroke-opacity:1" />
      <path
         inkscape:connector-curvature="0"
         id="path4723"
         d="m 314.26719,21.01322 c 0,0 84.8528,15.5563 137.1787,-11.3137 52.3259,-26.8701 70.7107,-76.3676 70.7107,-76.3676 l -41.0122,28.2843 -138.5929,29.6985 -16.9706,-2.8285 z"
         style="fill:#000000;fill-opacity:1;fill-rule:evenodd;stroke:#000000;stroke-width:1px;stroke-linecap:butt;stroke-linejoin:miter;stroke-opacity:1" />
      <path
         sodipodi:nodetypes="csczc"
         inkscape:connector-curvature="0"
         id="path4673-6-2"
         d="m -356.38722,547.05244 c 0,0 43.09804,-4.24796 85.62008,15.45184 42.52208,19.70031 57.25154,66.22545 57.25154,66.22545 -3.83699,5.87857 -33.15506,-36.45341 -62.77188,-53.64133 -29.61682,-17.18792 -80.09974,-28.03596 -80.09974,-28.03596 z"
         style="opacity:1;fill:#000000;fill-opacity:1;fill-rule:evenodd;stroke:#000000;stroke-width:1.2443794px;stroke-linecap:butt;stroke-linejoin:miter;stroke-opacity:1" />
      <path
         sodipodi:nodetypes="csczc"
         inkscape:connector-curvature="0"
         id="path4673-6-2-0"
         d="m -393.73474,612.51593 c 0,0 41.821,-20.21254 92.95193,-18.06077 51.13134,2.15247 85.50387,36.26029 85.50387,36.26029 0,0 -24.1709,-18.05393 -85.88699,-22.53654 -61.71651,-4.48285 -92.56881,4.33702 -92.56881,4.33702 z"
         style="opacity:1;fill:#000000;fill-opacity:1;fill-rule:evenodd;stroke:#000000;stroke-width:1.29984784px;stroke-linecap:butt;stroke-linejoin:miter;stroke-opacity:1" />
      <path
         inkscape:connector-curvature="0"
         id="path4757"
         d="m -172.35341,911.93482 c 0,0 -11,-18 -6,-41 5,-23 8,-27 8,-27"
         style="fill:none;fill-rule:evenodd;stroke:#000000;stroke-width:6;stroke-linecap:butt;stroke-linejoin:miter;stroke-miterlimit:4;stroke-dasharray:none;stroke-opacity:1" />
      <ellipse
         ry="16"
         rx="14"
         cy="887.93481"
         cx="-142.35341"
         id="path4761"
         style="opacity:1;fill:#000000;fill-opacity:1;stroke:#000000;stroke-width:6;stroke-linecap:round;stroke-miterlimit:4;stroke-dasharray:none;stroke-opacity:1" />
      <path
         inkscape:connector-curvature="0"
         id="path4767"
         d="m 34.25294,315.16962 c 0,0 7.07105,43.8406 -16.97057,72.1249 -24.04163,28.2842 -234.75945,237.5879 -234.75945,237.5879 L 25.76766,407.09352 Z"
         style="fill:#000000;fill-opacity:1;fill-rule:evenodd;stroke:#000000;stroke-width:1px;stroke-linecap:butt;stroke-linejoin:miter;stroke-opacity:1" />
      <path
         inkscape:connector-curvature="0"
         id="path4769"
         d="m -149.59483,923.28142 c 0,0 1.41422,0 12.72793,1.4142 11.3137,1.4142 28.28427,-14.1421 31.11269,-25.4558 2.82843,-11.3137 -11.3137,43.8406 -5.65685,49.4975 5.65685,5.6568 -38.18377,-25.4559 -38.18377,-25.4559 z"
         style="fill:#000000;fill-opacity:1;fill-rule:evenodd;stroke:#000000;stroke-width:1px;stroke-linecap:butt;stroke-linejoin:miter;stroke-opacity:1" />
      <path
         inkscape:connector-curvature="0"
         id="path4771"
         d="m 238.14229,913.74952 -1.6568,102.86998 -135.7645,183.8478 123.0366,-188.0904 0.5858,-124.95588 z"
         style="fill:#000000;fill-opacity:1;fill-rule:evenodd;stroke:#000000;stroke-width:1px;stroke-linecap:butt;stroke-linejoin:miter;stroke-opacity:1"
         sodipodi:nodetypes="cccccc" />
      <path
         sodipodi:nodetypes="cssczsc"
         inkscape:connector-curvature="0"
         id="path4775"
         d="m 117.66209,1330.9536 c 0,0 96.87363,-21.2132 123.74374,-24.0416 27.81945,-2.9284 73.38408,-6.8976 98.99486,1.4142 25.7488,8.3566 40.30518,29.6985 40.30518,29.6985 0,0 -16.29932,-12.0787 -38.93378,-17.4706 -22.63446,-5.3919 -54.7328,-9.1066 -96.8308,-4.4497 -39.7574,4.398 -127.2792,14.8492 -127.2792,14.8492 z"
         style="fill:#000000;fill-opacity:1;fill-rule:evenodd;stroke:#000000;stroke-width:1px;stroke-linecap:butt;stroke-linejoin:miter;stroke-opacity:1" />
      <path
         sodipodi:nodetypes="csccsc"
         inkscape:connector-curvature="0"
         id="path4777"
         d="m 105.64659,1198.9348 c 0,0 78,65 170,47 92,-18 126,-39 126,-39 l -95,17 c 0,0 -108,9 -129,2 -21,-7 -72,-27 -72,-27 z"
         style="fill:#000000;fill-opacity:1;fill-rule:evenodd;stroke:#000000;stroke-width:1px;stroke-linecap:butt;stroke-linejoin:miter;stroke-opacity:1" />
      <path
         inkscape:connector-curvature="0"
         id="path4779"
         d="m 706.64657,1254.9348 -84,72 82,-104 z"
         style="fill:#000000;fill-opacity:1;fill-rule:evenodd;stroke:#000000;stroke-width:1px;stroke-linecap:butt;stroke-linejoin:miter;stroke-opacity:1" />
      <path
         inkscape:connector-curvature="0"
         id="path4781"
         d="m 112.64659,1204.9348 -88,108 78,-118 z"
         style="fill:#000000;fill-opacity:1;fill-rule:evenodd;stroke:#000000;stroke-width:1px;stroke-linecap:butt;stroke-linejoin:miter;stroke-opacity:1" />
      <path
         inkscape:connector-curvature="0"
         id="path4785"
         d="m 253.14592,933.12292 c 0,0 -26.60204,187.66998 -29.88029,240.17228 -3.27825,52.5023 -1.63913,68.1112 -1.63913,68.1112"
         style="fill:none;fill-rule:evenodd;stroke:#000000;stroke-width:6.47042561;stroke-linecap:butt;stroke-linejoin:miter;stroke-miterlimit:4;stroke-dasharray:none;stroke-opacity:1"
         sodipodi:nodetypes="csc" />
      <ellipse
         ry="11.5"
         rx="10.5"
         cy="1115.4348"
         cx="248.14659"
         id="path4787"
         style="opacity:1;fill:none;fill-opacity:1;stroke:#000000;stroke-width:6;stroke-linecap:round;stroke-miterlimit:4;stroke-dasharray:none;stroke-opacity:1" />
      <path
         sodipodi:nodetypes="cccc"
         inkscape:connector-curvature="0"
         id="path4791"
         d="m 662.99217,409.36552 -57.39698,335.725 42.42638,-8.4853 z"
         style="fill:#000000;fill-opacity:1;fill-rule:evenodd;stroke:#000000;stroke-width:1px;stroke-linecap:butt;stroke-linejoin:miter;stroke-opacity:1" />
      <path
         inkscape:connector-curvature="0"
         id="path4793"
         d="M 572.90916,770.32107 753.35697,1160.0276 623.32517,778.86563 Z"
         style="fill:#000000;fill-opacity:1;fill-rule:evenodd;stroke:#000000;stroke-width:1.92897904px;stroke-linecap:butt;stroke-linejoin:miter;stroke-opacity:1"
         sodipodi:nodetypes="cccc" />
      <path
         sodipodi:nodetypes="cccccc"
         inkscape:connector-curvature="0"
         id="path4795"
         d="m 594.68822,1322.5917 35.95835,726.3431 32.9314,1.4748 48.0832,-824.4865 -90.5096,100.4092 z"
         style="fill:#000000;fill-opacity:1;fill-rule:evenodd;stroke:#000000;stroke-width:1px;stroke-linecap:butt;stroke-linejoin:miter;stroke-opacity:1" />
      <path
         inkscape:connector-curvature="0"
         id="path4799"
         d="m 682.51287,484.49042 -28.6277,311.15504 -81.88976,-27.05741 88.22096,-357.67751 z"
         style="fill:#000000;fill-opacity:1;fill-rule:evenodd;stroke:#000000;stroke-width:0.99714017px;stroke-linecap:butt;stroke-linejoin:miter;stroke-opacity:1"
         sodipodi:nodetypes="ccccc" />
      <path
         sodipodi:nodetypes="cccc"
         inkscape:connector-curvature="0"
         id="path4801-9"
         d="m 643.59067,673.9499 43.5756,-178.32592 -8.5067,-29.24695 z"
         style="opacity:1;fill:#57888d;fill-opacity:1;fill-rule:evenodd;stroke:#000000;stroke-width:1.4804796px;stroke-linecap:butt;stroke-linejoin:miter;stroke-opacity:1" />
      <path
         sodipodi:nodetypes="cccc"
         inkscape:connector-curvature="0"
         id="path4797-8"
         d="m 587.34039,779.71983 29.15768,7.2891 123.5939,343.20227 z"
         style="opacity:1;fill:#57888d;fill-opacity:1;fill-rule:evenodd;stroke:#000000;stroke-width:1.33110106px;stroke-linecap:butt;stroke-linejoin:miter;stroke-opacity:1" />
      <path
         sodipodi:nodetypes="cccc"
         inkscape:connector-curvature="0"
         id="path4833"
         d="m 621.85867,1336.2317 -17.34928,-1.1715 37.85538,726.6632 z"
         style="fill:#57888d;fill-opacity:1;fill-rule:evenodd;stroke:#000000;stroke-width:1px;stroke-linecap:butt;stroke-linejoin:miter;stroke-opacity:1" />
      <path
         sodipodi:nodetypes="cccc"
         inkscape:connector-curvature="0"
         id="path4833-2"
         d="m 650.80817,1300.504 -13.9093,14.9933 17.5343,608.915 z"
         style="opacity:1;fill:#57888d;fill-opacity:1;fill-rule:evenodd;stroke:#000000;stroke-width:1px;stroke-linecap:butt;stroke-linejoin:miter;stroke-opacity:1" />
      <path
         inkscape:connector-curvature="0"
         id="path4850"
         d="m 192.64659,1320.9348 c 0,0 30,-16 40,34 10,50 36,696 36,696 l -18,-744 z"
         style="fill:#000000;fill-opacity:1;fill-rule:evenodd;stroke:#000000;stroke-width:1px;stroke-linecap:butt;stroke-linejoin:miter;stroke-opacity:1" />
      <path
         sodipodi:nodetypes="csccscc"
         inkscape:connector-curvature="0"
         id="path4852"
         d="m 235.07129,-824.68653 c 0,0 80.06592,33.40656 84.9533,76.13961 6.89432,60.28086 -32.45064,80.13099 -32.45064,80.13099 l 17.03644,-28.98275 c 0,0 -4.1569,-57.31981 -21.1274,-68.63352 -16.9706,-11.31371 -97.9092,-57.24011 -97.9092,-57.24011 z"
         style="fill:#000000;fill-opacity:1;fill-rule:evenodd;stroke:#000000;stroke-width:1px;stroke-linecap:butt;stroke-linejoin:miter;stroke-opacity:1" />
      <path
         inkscape:connector-curvature="0"
         id="path4854"
         d="m 104.96359,-509.31688 c 24.7488,13.435 25.4559,13.435 25.4559,13.435"
         style="fill:none;fill-rule:evenodd;stroke:#000000;stroke-width:6;stroke-linecap:butt;stroke-linejoin:miter;stroke-miterlimit:4;stroke-dasharray:none;stroke-opacity:1" />
      <path
         inkscape:transform-center-y="-22.80928"
         inkscape:transform-center-x="12.519088"
         inkscape:connector-curvature="0"
         id="path4854-3"
         d="m 108.70795,-523.99445 c 24.7488,13.435 25.4559,13.435 25.4559,13.435"
         style="opacity:1;fill:none;fill-rule:evenodd;stroke:#000000;stroke-width:6;stroke-linecap:butt;stroke-linejoin:miter;stroke-miterlimit:4;stroke-dasharray:none;stroke-opacity:1" />
      <path
         inkscape:transform-center-y="-19.980852"
         inkscape:transform-center-x="-0.20883427"
         inkscape:connector-curvature="0"
         id="path4854-6"
         d="m 112.24349,-537.42947 c 24.7488,13.435 25.4559,13.435 25.4559,13.435"
         style="opacity:1;fill:none;fill-rule:evenodd;stroke:#000000;stroke-width:6;stroke-linecap:butt;stroke-linejoin:miter;stroke-miterlimit:4;stroke-dasharray:none;stroke-opacity:1" />
      <path
         inkscape:connector-curvature="0"
         id="path4889"
         d="m 145.97579,-756.80428 c 0,0 -18.3848,-7.07106 -24.0416,24.04163 -5.6569,31.1127 16.9706,63.63961 38.1838,70.71068 21.2132,7.07107 -50.9117,-19.79899 -50.9117,-19.79899 l -14.1422,-35.35534 19.799,-32.52691 35.3554,-7.07107 0,0"
         style="fill:#000000;fill-opacity:1;fill-rule:evenodd;stroke:#000000;stroke-width:1px;stroke-linecap:butt;stroke-linejoin:miter;stroke-opacity:1" />
      <path
         sodipodi:nodetypes="cccc"
         inkscape:connector-curvature="0"
         id="path4893"
         d="m 208.51055,-726.53128 13.3909,30.00786 -22.075,-21.99214 z"
         style="fill:#000000;fill-opacity:1;fill-rule:evenodd;stroke:#000000;stroke-width:1px;stroke-linecap:butt;stroke-linejoin:miter;stroke-opacity:1" />
      <g
         transform="translate(6.4553701,-58.09833)"
         id="g4626">
        <ellipse
           style="opacity:1;fill:#ffffff;fill-opacity:0.30396477;fill-rule:nonzero;stroke:none;stroke-width:7.34682465;stroke-linecap:round;stroke-linejoin:bevel;stroke-miterlimit:4;stroke-dasharray:none;stroke-dashoffset:0;stroke-opacity:1"
           id="path4624"
           cx="363.78134"
           cy="-287.58243"
           rx="180.81343"
           ry="177.84926" />
        <g
           id="g4620">
          <rect
             y="-111.38287"
             x="325.29367"
             height="332.7807"
             width="70.262321"
             id="rect4600"
             style="opacity:1;fill:#8c041d;fill-opacity:1;fill-rule:nonzero;stroke:#000000;stroke-width:8;stroke-linecap:round;stroke-linejoin:bevel;stroke-miterlimit:4;stroke-dasharray:none;stroke-dashoffset:0;stroke-opacity:1" />
          <path
             inkscape:connector-curvature="0"
             id="path4602"
             d="M 364.72852,-468.95312 A 188.28163,190.43341 0 0 0 176.44727,-278.51953 188.28163,190.43341 0 0 0 364.72852,-88.085938 188.28163,190.43341 0 0 0 553.00977,-278.51953 188.28163,190.43341 0 0 0 364.72852,-468.95312 Z m -1.80664,32.71093 a 158.06786,159.87434 0 0 1 158.06835,159.875 158.06786,159.87434 0 0 1 -158.06835,159.87305 158.06786,159.87434 0 0 1 -158.06836,-159.87305 158.06786,159.87434 0 0 1 158.06836,-159.875 z"
             style="opacity:1;fill:#8c041d;fill-opacity:1;fill-rule:nonzero;stroke:#000000;stroke-width:8;stroke-linecap:round;stroke-linejoin:bevel;stroke-miterlimit:4;stroke-dasharray:none;stroke-dashoffset:0;stroke-opacity:1" />
        </g>
      </g>
      <g
         transform="matrix(0.986821,0.16181565,-0.16181565,0.986821,-869.60255,-176.73182)"
         id="g4577">
        <path
           style="fill:#e1d2b1;fill-opacity:1;fill-rule:evenodd;stroke:#000000;stroke-width:9;stroke-linecap:butt;stroke-linejoin:miter;stroke-miterlimit:4;stroke-dasharray:none;stroke-opacity:1"
           d="m 1286.2981,342.38857 -86.6261,-91.86822 c -13.3889,-14.19916 -33.2291,-6.35531 -35.9774,-38.72232 -2.8768,-33.87916 25.6311,-17.07434 25.6311,-17.07434 -25.956,-10.99649 -46.0201,-16.30183 -43.1174,-39.45494 2.9028,-23.15311 17.9221,-27.07796 17.9221,-27.07796 41.1906,6.7508 -19.7257,-2.01426 -23.0068,-28.818524 -5.1228,-41.849614 36.4613,-30.221958 36.4613,-30.221958 0,0 3.4044,-49.223384 18.1229,-53.143759 19.4832,-5.189467 76.708,3.451052 130.2445,30.299841 10.1132,5.071823 64.3447,105.65203 64.3447,105.65203 19.4774,52.93355 6.3918,42.83349 31.974,75.18325 l 33.1739,22.80659 47.0444,32.1468 -25.5656,73.97251 -68.2004,48.19896 z"
           id="path4516"
           inkscape:connector-curvature="0"
           sodipodi:nodetypes="csscssscssccccccc" />
        <path
           style="fill:none;fill-rule:evenodd;stroke:#000000;stroke-width:8.80000019;stroke-linecap:round;stroke-linejoin:miter;stroke-miterlimit:4;stroke-dasharray:none;stroke-opacity:1"
           d="m 1181.4799,192.68911 55.5364,13.6939"
           id="path4550"
           inkscape:connector-curvature="0"
           sodipodi:nodetypes="cc" />
        <path
           style="fill:none;fill-rule:evenodd;stroke:#000000;stroke-width:1px;stroke-linecap:butt;stroke-linejoin:miter;stroke-opacity:1"
           d="m 1176.9153,67.922387 92.8143,15.215453"
           id="path4554"
           inkscape:connector-curvature="0" />
        <path
           style="fill:none;fill-rule:evenodd;stroke:#000000;stroke-width:9.40128708;stroke-linecap:round;stroke-linejoin:miter;stroke-miterlimit:4;stroke-dasharray:none;stroke-opacity:1"
           d="m 1176.8426,129.84922 66.3326,13.08541"
           id="path4550-5"
           inkscape:connector-curvature="0"
           sodipodi:nodetypes="cc" />
        <path
           style="fill:none;fill-rule:evenodd;stroke:#000000;stroke-width:9.88153362;stroke-linecap:round;stroke-linejoin:miter;stroke-miterlimit:4;stroke-dasharray:none;stroke-opacity:1"
           d="m 1180.6953,69.711836 83.7325,13.158099"
           id="path4550-4"
           inkscape:connector-curvature="0"
           sodipodi:nodetypes="cc" />
      </g>
      <path
         sodipodi:nodetypes="cccssscsccccc"
         inkscape:connector-curvature="0"
         id="path4412"
         d="m 846.85468,68.35431 24.3458,6.87609 -6.7831,26.34366 c 0,0 166.00952,503.08516 167.49712,621.14356 1.4878,118.05839 -9.7678,176.94802 -36.16617,184.96053 -36.01755,10.93213 -57.49635,9.88603 -102.94725,12.00022 -42.7089,1.9868 -533.14248,-489.8236 -533.14248,-489.8236 l 49.48782,-60.16247 c 24.12832,-29.33285 130.49847,-84.8165 130.49847,-84.8165 l 385.04229,368.56312 -226.0219,-223.57849 -34.5872,-29.65406 c -1.1771,-42.2167 49.5328,-274.6246 182.7766,-331.85206 z"
         style="fill:#57888d;fill-opacity:1;fill-rule:evenodd;stroke:#000000;stroke-width:9;stroke-linecap:butt;stroke-linejoin:miter;stroke-miterlimit:4;stroke-dasharray:none;stroke-opacity:1" />
      <path
         inkscape:connector-curvature="0"
         id="path4650"
         d="m 728.44912,275.33795 c 0,0 82.0244,-121.62234 103.2376,-128.69344 21.2132,-7.0711 35.3553,-12.7279 35.3553,-12.7279 l -5.6569,-29.6985 c 0,0 -10.9601,-2.8285 -22.6274,8.1317 -11.6672,10.9602 -76.014,98.99494 -80.9637,109.60164 -4.9497,10.6066 -29.3449,53.3865 -29.3449,53.3865 z"
         style="opacity:1;fill:#000000;fill-opacity:1;fill-rule:evenodd;stroke:#000000;stroke-width:1px;stroke-linecap:butt;stroke-linejoin:miter;stroke-opacity:1" />
      <ellipse
         ry="18.5"
         rx="18"
         cy="432.255"
         cx="442.15179"
         id="path4759"
         style="opacity:1;fill:#000000;fill-opacity:1;stroke:#000000;stroke-width:6;stroke-linecap:round;stroke-miterlimit:4;stroke-dasharray:none;stroke-opacity:1" />
      <path
         inkscape:connector-curvature="0"
         id="path4765"
         d="m 533.5631,435.60157 c 0,0 -53.7852,59.19274 -70.3922,63.21843 -16.6071,4.02556 -30.8942,-2.74776 -40.3755,-9.69249 -9.4813,-6.9448 3.8776,9.53753 3.8776,9.53753 0,0 25.1875,20.69026 32.0019,18.49642 6.8145,-2.19377 77.9034,-79.4305 77.9034,-79.4305 z"
         style="opacity:1;fill:#000000;fill-opacity:1;fill-rule:evenodd;stroke:#000000;stroke-width:1px;stroke-linecap:butt;stroke-linejoin:miter;stroke-opacity:1" />
      <path
         sodipodi:nodetypes="csczc"
         inkscape:connector-curvature="0"
         id="path4673-6"
         d="m 867.81098,594.20944 c 0,0 34.3637,15.25115 58.4182,47.48481 24.0544,32.23385 18.2918,75.92132 18.2918,75.92132 0,0 0.1168,-29.35376 -27.6572,-69.21381 -27.7742,-39.86013 -49.0528,-54.19232 -49.0528,-54.19232 z"
         style="opacity:1;fill:#000000;fill-opacity:1;fill-rule:evenodd;stroke:#000000;stroke-width:1.05549872px;stroke-linecap:butt;stroke-linejoin:miter;stroke-opacity:1" />
      <path
         sodipodi:nodetypes="csczc"
         inkscape:connector-curvature="0"
         id="path4673-6-4"
         d="m 868.49805,600.35627 c 0,0 37.0889,6.15412 68.4528,31.33216 31.3639,25.17825 36.7318,68.91596 36.7318,68.91596 0,0 -7.242,-28.4466 -44.1177,-60.07574 -36.8759,-31.62918 -61.0669,-40.17238 -61.0669,-40.17238 z"
         style="opacity:1;fill:#000000;fill-opacity:1;fill-rule:evenodd;stroke:#000000;stroke-width:1.05549872px;stroke-linecap:butt;stroke-linejoin:miter;stroke-opacity:1" />
    </g>
  </g>
</svg>
