<?xml version="1.0" encoding="UTF-8" standalone="no"?>
<!-- Created with Inkscape (http://www.inkscape.org/) -->

<svg
   xmlns:dc="http://purl.org/dc/elements/1.1/"
   xmlns:cc="http://creativecommons.org/ns#"
   xmlns:rdf="http://www.w3.org/1999/02/22-rdf-syntax-ns#"
   xmlns:svg="http://www.w3.org/2000/svg"
   xmlns="http://www.w3.org/2000/svg"
   xmlns:sodipodi="http://sodipodi.sourceforge.net/DTD/sodipodi-0.dtd"
   xmlns:inkscape="http://www.inkscape.org/namespaces/inkscape"
   width="250.48666mm"
   height="284.33502mm"
   viewBox="0 0 887.55117 1007.4863"
   id="svg2"
   version="1.1"
   inkscape:version="0.91 r13725"
   sodipodi:docname="sessel.svg">
  <defs
     id="defs4" />
  <sodipodi:namedview
     id="base"
     pagecolor="#ffffff"
     bordercolor="#666666"
     borderopacity="1.0"
     inkscape:pageopacity="0.0"
     inkscape:pageshadow="2"
     inkscape:zoom="0.7"
     inkscape:cx="779.5766"
     inkscape:cy="549.82593"
     inkscape:document-units="px"
     inkscape:current-layer="layer2"
     showgrid="false"
     inkscape:window-width="1920"
     inkscape:window-height="1018"
     inkscape:window-x="-8"
     inkscape:window-y="-8"
     inkscape:window-maximized="1"
     fit-margin-top="0"
     fit-margin-left="0"
     fit-margin-right="0"
     fit-margin-bottom="0" />
  <metadata
     id="metadata7">
    <rdf:RDF>
      <cc:Work
         rdf:about="">
        <dc:format>image/svg+xml</dc:format>
        <dc:type
           rdf:resource="http://purl.org/dc/dcmitype/StillImage" />
        <dc:title></dc:title>
      </cc:Work>
    </rdf:RDF>
  </metadata>
  <g
     inkscape:groupmode="layer"
     id="layer2"
     inkscape:label="SVG"
     style="display:inline"
     transform="translate(39.99207,-39.909066)">
    <g
       id="g5445">
      <path
         inkscape:connector-curvature="0"
         id="path4197"
         d="m 444.00685,910.04547 c 3.57143,-0.71429 345,-107.85714 345,-107.85714 L 796.14971,592.90262 413.29257,693.6169 Z"
         style="display:inline;opacity:1;fill:#6a0000;fill-opacity:1;fill-rule:evenodd;stroke:#000000;stroke-width:3;stroke-linecap:butt;stroke-linejoin:miter;stroke-miterlimit:4;stroke-dasharray:none;stroke-opacity:1" />
      <path
         sodipodi:nodetypes="cscscscccc"
         inkscape:connector-curvature="0"
         id="path4168"
         d="m 486.36232,500.20596 c 0,0 195.71429,22.85715 237.14286,45.71429 41.42857,22.85714 57.14286,34.28571 57.14286,34.28571 0,0 -34.28572,-77.14285 -20,-115.71428 14.28571,-38.57143 63.57514,-31.21565 63.57514,-31.21565 0,0 -6.43229,-21.6415 -100.718,-30.21292 -94.28572,-8.57143 -162.85714,-10 -162.85714,-10 l -30,-18.57143 -65.71429,57.14285 z"
         style="display:inline;fill:#6a0000;fill-opacity:1;fill-rule:evenodd;stroke:#000000;stroke-width:3;stroke-linecap:butt;stroke-linejoin:miter;stroke-miterlimit:4;stroke-dasharray:none;stroke-opacity:1" />
      <path
         sodipodi:nodetypes="cssssscssccc"
         inkscape:connector-curvature="0"
         id="path4166"
         d="m 362.07662,67.348819 c 0,0 37.14284,-21.42858 57.14284,-24.28572 20,-2.85714 55.82056,-1.412519 81.42858,0 15.52386,0.856285 25.71428,18.57143 30,35.71429 4.28571,17.14285 1.42856,31.428581 -8.57143,90.000001 -9.88371,57.89035 -17.66787,68.72616 -1.42857,122.85714 17.14285,57.14286 40,101.07143 40,101.07143 0,0 -20.00001,4.64286 -30.00001,10.35715 -10,5.71428 -25.71428,22.85713 -27.14285,49.99999 -1.42857,27.14286 -7.94643,55.00001 -7.94643,55.00001 L 363.50519,405.92025 Z"
         style="display:inline;fill:#6a0000;fill-opacity:1;fill-rule:evenodd;stroke:#000000;stroke-width:3;stroke-linecap:butt;stroke-linejoin:miter;stroke-miterlimit:4;stroke-dasharray:none;stroke-opacity:1" />
      <path
         sodipodi:nodetypes="cssssscscc"
         inkscape:connector-curvature="0"
         id="path4164"
         d="m 63.450817,67.919266 c 0,0 58.588843,-11.11168 117.177693,-11.11168 58.58885,0 169.70563,1.01015 177.78685,4.04061 8.08122,3.03046 11.11167,-8.08122 31.31472,55.558404 20.20305,63.63961 39.39595,178.797 42.4264,193.94928 3.03046,15.15229 40.04931,141.27607 46.46702,164.65487 l 7.07107,25.75888 c 0,0 -43.43656,-5.55583 -94.95434,5.55585 C 339.22246,517.43716 93.755393,480.06151 93.755393,480.06151 Z"
         style="display:inline;opacity:1;fill:#6a0000;fill-opacity:1;fill-rule:evenodd;stroke:#000000;stroke-width:3;stroke-linecap:butt;stroke-linejoin:miter;stroke-miterlimit:4;stroke-dasharray:none;stroke-opacity:1" />
      <path
         sodipodi:nodetypes="cssssssccccc"
         inkscape:connector-curvature="0"
         id="path4160"
         d="m 323.24881,612.94585 c 0,0 -22.22335,-54.54824 -17.17259,-64.64977 5.05076,-10.10152 12.12183,-30.30457 33.33504,-36.36549 21.2132,-6.06091 42.4264,0 47.47716,7.07107 5.05077,7.07107 4.04062,-12.12183 -53.53808,-27.27412 -57.5787,-15.15229 -154.55334,-29.29441 -168.69548,-30.30457 -4.42879,-0.31634 -12.42398,-1.92181 -21.31751,-2.75147 -19.50552,-1.81964 -43.33225,-3.30945 -43.33225,-3.30945 L 66.670068,515.9712 119.198,592.7428 319.2082,644.26058 Z"
         style="fill:#6a0000;fill-opacity:1;fill-rule:evenodd;stroke:#000000;stroke-width:3;stroke-linecap:butt;stroke-linejoin:miter;stroke-miterlimit:4;stroke-dasharray:none;stroke-opacity:1" />
      <path
         sodipodi:nodetypes="csscsccscccc"
         inkscape:connector-curvature="0"
         id="path4158"
         d="m 7.3706514,51.939812 c 0,0 49.3712056,1.136422 54.4219686,6.187184 5.050763,5.050763 22.050041,32.396671 26.090651,48.559104 4.040611,16.16246 3.305302,103.75857 -1.990565,153.44168 0,0 22.908694,120.91898 34.662084,149.43078 20.02973,48.58885 18.9652,38.9906 20.02973,48.58885 l -9.09137,2.0203 c 0,0 -32.324883,7.07107 -36.365496,20.20305 -4.04061,13.13199 -11.111678,26.26397 -11.111678,26.26397 L 11.284993,314.70575 -13.968821,83.38081 Z"
         style="fill:#6a0000;fill-opacity:1;fill-rule:evenodd;stroke:#000000;stroke-width:3;stroke-linecap:butt;stroke-linejoin:miter;stroke-miterlimit:4;stroke-dasharray:none;stroke-opacity:1" />
      <text
         sodipodi:linespacing="125%"
         id="text4140"
         y="-359.79404"
         x="-1009.352"
         style="font-style:normal;font-weight:normal;font-size:40px;line-height:125%;font-family:sans-serif;letter-spacing:0px;word-spacing:0px;display:inline;fill:#000000;fill-opacity:1;stroke:none;stroke-width:3;stroke-linecap:butt;stroke-linejoin:miter;stroke-miterlimit:4;stroke-dasharray:none;stroke-opacity:1"
         xml:space="preserve"><tspan
           y="-359.79404"
           x="-1009.352"
           id="tspan4142"
           sodipodi:role="line" /></text>
      <path
         inkscape:connector-curvature="0"
         id="path4155"
         d="m 369.59883,513.22323 c 0,0 42.4264,-16.16244 86.87311,-15.15229 44.44671,1.01015 217.18279,25.25381 250.51783,39.39595 33.33503,14.14214 65.65991,30.30458 72.73098,42.42641 7.07107,12.12183 5.05076,23.2335 5.05076,23.2335 l -27.27411,-17.17259 -313.14729,54.54824 -25.25382,44.44671 z"
         style="display:inline;fill:#6a0000;fill-opacity:1;fill-rule:evenodd;stroke:#000000;stroke-width:3;stroke-linecap:butt;stroke-linejoin:miter;stroke-miterlimit:4;stroke-dasharray:none;stroke-opacity:1" />
      <path
         sodipodi:nodetypes="ccssssssc"
         inkscape:connector-curvature="0"
         id="path4151"
         d="m 368.86266,934.03842 76.31903,-24.29968 c 0,0 16.34101,-97.51036 4.21918,-153.06875 -12.12183,-55.55839 -33.33503,-91.92388 -35.35534,-124.24876 -2.0203,-32.32488 -1.01015,-89.90358 -14.14213,-103.03556 -13.13199,-13.13198 -9.09138,-19.1929 -22.22336,-23.23351 -13.13197,-4.04061 -49.49747,2.02031 -57.57869,11.11168 -8.08122,9.09137 -28.28427,32.32488 -13.13198,61.6193 15.15229,29.29443 61.89329,355.15528 61.89329,355.15528 z"
         style="display:inline;fill:#6a0000;fill-opacity:1;fill-rule:evenodd;stroke:#000000;stroke-width:3;stroke-linecap:butt;stroke-linejoin:miter;stroke-miterlimit:4;stroke-dasharray:none;stroke-opacity:1" />
      <path
         sodipodi:nodetypes="ccssssssssccc"
         inkscape:connector-curvature="0"
         id="path4156"
         d="M -38.385797,71.504083 -8.0812204,55.341642 c 0,0 26.2639664,-10.101525 36.3654914,4.040611 10.101526,14.142135 19.188567,67.451197 18.529375,94.015977 -1.183467,47.69254 -18.284271,95.13997 -2.366934,154.48155 27.715979,103.32822 41.416254,190.91883 62.629458,212.13203 21.2132,21.21321 67.68022,25.25382 96.97464,37.37565 29.29443,12.12183 108.08633,46.46701 116.16755,54.54823 8.08122,8.08123 37.37564,97.9848 41.41625,109.09648 4.04061,11.11168 19.1929,85.86297 18.18275,122.22846 C 378.8072,879.62612 368.103,933.9065 368.103,933.9065 L 39.395949,751.33675 Z"
         style="fill:#6a0000;fill-opacity:1;fill-rule:evenodd;stroke:#000000;stroke-width:3;stroke-linecap:butt;stroke-linejoin:miter;stroke-miterlimit:4;stroke-dasharray:none;stroke-opacity:1" />
      <path
         sodipodi:nodetypes="cssssc"
         inkscape:connector-curvature="0"
         id="path4193"
         d="m 462.92411,41.544629 c 0,0 9.21875,-1.325282 23.50446,27.960432 16.53531,33.897389 -7.14286,133.571429 -9.28571,149.285719 -2.14286,15.71428 -10.71429,49.28571 -2.85715,86.42857 7.85715,37.14285 32.53615,92.30808 35.71429,95 l 11.63778,9.85733"
         style="fill:none;fill-rule:evenodd;stroke:#000000;stroke-width:3;stroke-linecap:butt;stroke-linejoin:miter;stroke-miterlimit:4;stroke-dasharray:none;stroke-opacity:1" />
      <path
         sodipodi:nodetypes="ccssssssssc"
         inkscape:connector-curvature="0"
         id="path4195"
         d="m 782.85714,803.79078 55,-16.42858 c 0,0 12.75633,-102.25382 6.42857,-152.85714 -4.53317,-36.25191 -32.14285,-82.14286 -31.42857,-105 0.71429,-22.85714 24.28572,-51.42857 22.85715,-62.85714 -1.42858,-11.42857 -7.99457,-36.68111 -17.28028,-36.68111 -9.28571,0 -38.43401,-2.60461 -49.86258,13.82397 -11.42857,16.42857 -17.14286,59.28571 -11.42857,77.14285 5.71428,17.85715 23.57143,63.57143 25.71428,68.57143 2.14286,5 6.42857,27.85714 7.14286,45 0.71429,17.14286 -7.14286,169.28572 -7.14286,169.28572 z"
         style="fill:#6a0000;fill-opacity:1;fill-rule:evenodd;stroke:#000000;stroke-width:3;stroke-linecap:butt;stroke-linejoin:miter;stroke-miterlimit:4;stroke-dasharray:none;stroke-opacity:1" />
      <path
         sodipodi:nodetypes="cssssssscc"
         inkscape:connector-curvature="0"
         id="path4153"
         d="m 423.1369,668.78672 c 0,0 1.01016,-21.2132 17.1726,-36.36549 16.16244,-15.15229 312.86375,-54.46889 330.31988,-50.50762 13.60117,3.08647 14.0874,18.06724 18.77711,28.40238 0,0 1.00471,12.50469 1.53649,29.33326 0.53177,16.82857 -10.95084,47.35085 -14.48638,48.36101 -7.07105,2.0203 -236.142,50.47699 -264.42627,57.54805 -28.28427,7.07107 -40.4061,9.09138 -55.55839,2.02031 -15.15229,-7.07107 -33.33504,-70.71068 -33.33504,-70.71068 z"
         style="display:inline;fill:#6a0000;fill-opacity:1;fill-rule:evenodd;stroke:#000000;stroke-width:3;stroke-linecap:butt;stroke-linejoin:miter;stroke-miterlimit:4;stroke-dasharray:none;stroke-opacity:1" />
      <path
         inkscape:connector-curvature="0"
         id="path4222"
         d="m 50,758.07649 c 0,0 1.428571,47.85714 -3.571429,69.64286 -5,21.78571 -5.714285,22.14285 -5.714285,22.14285 l 21.428571,10 8.214286,-24.64285 c 0,0 8.214286,-45 7.857143,-53.92857 -0.357143,-8.92858 -0.357143,-8.92858 -0.357143,-8.92858 z"
         style="fill:#390000;fill-opacity:1;fill-rule:evenodd;stroke:#000000;stroke-width:3;stroke-linecap:butt;stroke-linejoin:miter;stroke-miterlimit:4;stroke-dasharray:none;stroke-opacity:1" />
      <path
         inkscape:connector-curvature="0"
         id="path4224"
         d="m 61.785714,859.50506 27.857143,-11.07143 c 0,0 6.428572,-18.21428 10.714283,-35 C 104.64286,796.64792 105,788.07649 105,788.07649 L 77.5,772.71935 Z"
         style="fill:#390000;fill-opacity:1;fill-rule:evenodd;stroke:#000000;stroke-width:3;stroke-linecap:butt;stroke-linejoin:miter;stroke-miterlimit:4;stroke-dasharray:none;stroke-opacity:1" />
      <path
         inkscape:connector-curvature="0"
         id="path4226"
         d="m 332.5,914.14792 6.42857,115.35718 27.5,15.3571 1.78572,-111.78571 z"
         style="fill:#390000;fill-opacity:1;fill-rule:evenodd;stroke:#000000;stroke-width:3;stroke-linecap:butt;stroke-linejoin:miter;stroke-miterlimit:4;stroke-dasharray:none;stroke-opacity:1" />
      <path
         inkscape:connector-curvature="0"
         id="path4228"
         d="m 366.42857,1045.2193 32.85714,-11.4285 c 0,0 16.78572,-113.57145 16.42858,-113.9286 -0.35715,-0.35714 -47.85715,15 -47.85715,15 z"
         style="fill:#390000;fill-opacity:1;fill-rule:evenodd;stroke:#000000;stroke-width:3;stroke-linecap:butt;stroke-linejoin:miter;stroke-miterlimit:4;stroke-dasharray:none;stroke-opacity:1" />
      <path
         inkscape:connector-curvature="0"
         id="path4230"
         d="m 735,901.64792 28.57143,10.71428 5,-104.28571 -37.85714,12.85714 z"
         style="fill:#390000;fill-opacity:1;fill-rule:evenodd;stroke:#000000;stroke-width:3;stroke-linecap:butt;stroke-linejoin:miter;stroke-miterlimit:4;stroke-dasharray:none;stroke-opacity:1" />
      <path
         inkscape:connector-curvature="0"
         id="path4232"
         d="m 763.92273,912.37078 24.77644,-11.29081 13.45006,-104.43985 -33.27121,11.2908 z"
         style="fill:#390000;fill-opacity:1;fill-rule:evenodd;stroke:#000000;stroke-width:2.96849918;stroke-linecap:butt;stroke-linejoin:miter;stroke-miterlimit:4;stroke-dasharray:none;stroke-opacity:1" />
    </g>
  </g>
</svg>
