<?xml version="1.0" encoding="utf-8"?>
<!-- Generator: Adobe Illustrator 20.1.0, SVG Export Plug-In . SVG Version: 6.00 Build 0)  -->
<svg version="1.1"
	 id="svg2" inkscape:export-filename="D:\JUGGR\grafiken\Plakate\Plakat_01_2016\jug-butler.png" inkscape:export-xdpi="90" inkscape:export-ydpi="90" inkscape:version="0.91 r13725" sodipodi:docname="jug-buttler.svg" xmlns:cc="http://creativecommons.org/ns#" xmlns:dc="http://purl.org/dc/elements/1.1/" xmlns:inkscape="http://www.inkscape.org/namespaces/inkscape" xmlns:rdf="http://www.w3.org/1999/02/22-rdf-syntax-ns#" xmlns:sodipodi="http://sodipodi.sourceforge.net/DTD/sodipodi-0.dtd" xmlns:svg="http://www.w3.org/2000/svg"
	 xmlns="http://www.w3.org/2000/svg" xmlns:xlink="http://www.w3.org/1999/xlink" x="0px" y="0px" viewBox="0 0 2160 3840"
	 style="enable-background:new 0 0 2160 3840;" xml:space="preserve">
<style type="text/css">
	.st0{fill:#57888D;stroke:#000000;stroke-width:9;}
	.st1{fill:#FFFFFF;stroke:#000000;stroke-width:8;}
	.st2{fill:#E1D2B1;stroke:#000000;stroke-width:8;}
	.st3{fill:#D3623A;stroke:#000000;stroke-width:13;}
	.st4{fill:#FFFFFF;stroke:#000000;stroke-width:6;stroke-linecap:round;}
	.st5{fill:#D42316;stroke:#000000;stroke-width:8;stroke-miterlimit:10;}
	.st6{stroke:#000000;stroke-width:2.9733;stroke-linecap:round;}
	.st7{stroke:#000000;}
	.st8{fill:#FFFFFF;stroke:#000000;stroke-width:10;}
	.st9{fill:#E1D2B1;stroke:#000000;stroke-width:10;}
	.st10{fill:#FFFFFF;stroke:#000000;stroke-width:0.3098;}
	.st11{stroke:#000000;stroke-width:1.0157;}
	.st12{fill:none;stroke:#000000;stroke-width:7;}
	.st13{fill:none;stroke:#000000;stroke-width:13;}
	.st14{fill:none;stroke:#000000;stroke-width:12.9411;}
	.st15{fill:none;stroke:#000000;stroke-width:10.6039;}
	.st16{fill:none;stroke:#000000;stroke-width:10;}
	.st17{fill:none;stroke:#000000;stroke-width:14.4869;}
	.st18{fill:none;stroke:#000000;stroke-width:15.5058;}
	.st19{fill:#E1D2B1;stroke:#000000;stroke-width:10;stroke-linecap:round;}
	.st20{fill:none;stroke:#000000;stroke-width:10;stroke-linecap:round;}
	.st21{fill:none;stroke:#000000;stroke-width:6;stroke-linecap:round;}
	.st22{stroke:#000000;stroke-width:9;}
	.st23{fill:#E1D2B1;stroke:#000000;stroke-width:9;}
	.st24{fill:none;stroke:#000000;stroke-width:7;stroke-linecap:round;}
	.st25{fill:none;stroke:#000000;stroke-width:9;stroke-linecap:round;}
	.st26{fill:#57888D;stroke:#000000;stroke-width:6;stroke-linecap:round;}
	.st27{stroke:#000000;stroke-width:4;stroke-linecap:round;}
	.st28{fill:none;stroke:#000000;stroke-width:8;}
	.st29{fill:none;stroke:#000000;stroke-width:7.901;}
	.st30{stroke:#000000;stroke-width:1.0555;}
	.st31{stroke:#000000;stroke-width:0.8964;}
	.st32{stroke:#000000;stroke-width:1.2444;}
	.st33{stroke:#000000;stroke-width:1.2998;}
	.st34{fill:none;stroke:#000000;stroke-width:6;}
	.st35{stroke:#000000;stroke-width:6;stroke-linecap:round;}
	.st36{fill:none;stroke:#000000;stroke-width:6.4704;}
	.st37{fill:#57888D;stroke:#000000;stroke-width:1.0821;}
	.st38{fill:#57888D;stroke:#000000;stroke-width:2.2524;}
	.st39{fill:#57888D;stroke:#000000;stroke-width:1.4805;}
	.st40{fill:#57888D;stroke:#000000;stroke-width:0.8634;}
	.st41{fill:#57888D;stroke:#000000;}
	.st42{fill:#FFFFFF;stroke:#000000;stroke-width:8;stroke-linecap:round;}
	.st43{fill:#C25B34;stroke:#000000;stroke-width:5;}
	.st44{fill:#C25B34;stroke:#000000;stroke-width:3.3177;}
	.st45{fill:#E1B152;stroke:#000000;stroke-width:8;stroke-miterlimit:10;}
	.st46{fill:#3F3025;stroke:#1D1D1B;stroke-miterlimit:10;}
	.st47{fill:#FFFFFF;stroke:#000000;stroke-width:8;stroke-miterlimit:10;}
	.st48{fill:none;stroke:#000000;stroke-width:8;stroke-miterlimit:10;}
</style>
<defs>
	
	<inkscape:path-effect  effect="spiro" id="path-effect4253" is_visible="true"></inkscape:path-effect>
	<inkscape:path-effect  effect="spiro" id="path-effect4205" is_visible="true"></inkscape:path-effect>
	<inkscape:path-effect  effect="spiro" id="path-effect4205-7" is_visible="true"></inkscape:path-effect>
	<inkscape:path-effect  effect="spiro" id="path-effect4205-2" is_visible="true"></inkscape:path-effect>
	<inkscape:path-effect  effect="spiro" id="path-effect4253-1" is_visible="true"></inkscape:path-effect>
</defs>
<sodipodi:namedview  bordercolor="#666666" borderopacity="1.0" fit-margin-bottom="0" fit-margin-left="0" fit-margin-right="0" fit-margin-top="0" id="base" inkscape:current-layer="layer2" inkscape:cx="1843.8166" inkscape:cy="2446.6679" inkscape:document-units="px" inkscape:pageopacity="0.0" inkscape:pageshadow="2" inkscape:window-height="1147" inkscape:window-maximized="1" inkscape:window-width="1920" inkscape:window-x="-8" inkscape:window-y="-8" inkscape:zoom="0.25" pagecolor="#ffffff" showgrid="false">
	</sodipodi:namedview>
<g>
	<g id="layer2" transform="translate(572.85718,1493.3521)" inkscape:groupmode="layer" inkscape:label="Vektoren">
		<g id="g4805">
			<path id="path4595" inkscape:connector-curvature="0" class="st0" d="M176.1,667.7l56.6,726.3l495.5,4.5l36.2-706L176.1,667.7z"
				/>
			<path id="path4508" inkscape:connector-curvature="0" class="st1" d="M234.9,676.7c0,0,31.7,52,108.6,61.1s190.1-13.6,255.7-45.3
				s76.9-436.7,76.9-436.7l-411.8-4.5L234.9,676.7z"/>
			<path id="path4489-5" inkscape:connector-curvature="0" class="st2" d="M98.4,619.5c0,0-1.2-16.6-28.8-20.9
				c-27.7-4.3-33.6,0.7-33.6,0.7l-3.1,2.3c0,0,4,5.3,7.1,7.8c3.1,2.4,18.9,14.6,18.9,14.6l34.6,14.6L98.4,619.5z"/>
			<path id="path4322" inkscape:connector-curvature="0" sodipodi:nodetypes="ccssssssc" class="st3" d="M277.1-637.6l17-72.4
				c0,0,3.4-65.6-17-89.4c-20.4-23.8-20.4-25.5,0-35.7s84.9-25.5,74.2-56.9c45.3,1.1,238.6,17.1,288.4,48.8
				c49.8,31.7,59.4,29.9,150,95.9c-26,113.1-62.2,267-80.3,300.9C691.1-412.5,277.1-637.6,277.1-637.6L277.1-637.6z"/>
			<rect id="rect4479" x="296" y="-149.2" class="st4" width="368.8" height="183.3"/>
			<path id="path4398" inkscape:connector-curvature="0" class="st5" d="M427.1-119c24,57.6,35.2,60.8,35.2,60.8l20.8,3.2l49.6-54.4
				l8-81.6l-104-6.4L427.1-119z"/>
			<path id="path4400" inkscape:connector-curvature="0" class="st5" d="M452.1-61.2L384.7,0.4l-8.9,316.5l90.4,11.2l92.2-302.9
				l-71.8-82.3L452.1-61.2z"/>
			<path id="path4489" inkscape:connector-curvature="0" class="st2" d="M65.8,623c0,0-5.9-15.6-33.7-11.6c-27.7,4-32,10.5-32,10.5
				l-2.3,3.1c0,0,5.4,4,9.1,5.4s22.3,8.5,22.3,8.5l37.3,4L65.8,623z"/>
			<path id="path4485" inkscape:connector-curvature="0" sodipodi:nodetypes="czcscscccccccc" class="st2" d="M113.9,520.6
				c0,0,6.6,11.1,0,32.8s-57.7,86-57.7,86s-30.5-4.5-53.2,7.9c-22.6,12.4-21.5,24.9-21.5,24.9s-10.2,4.5,18.1,11.3
				s100.7-5.7,100.7-5.7l22.6-6.8l101.8-166.3l-28.3-134.6l-105.2,4.5l-12.4,95l25.6,43.8L113.9,520.6z"/>
			<path id="path4433" inkscape:connector-curvature="0" class="st0" d="M353.5-199c-156.8,9.6-160,12.8-160,12.8l28.8,352
				c0,0-73.6,417.6-97.6,438.4S158.3,817,158.3,817l54.4-9.6l161.6-241.6l17.6-769.6L353.5-199z"/>
			<path id="path4402" inkscape:connector-curvature="0" class="st0" d="M563.1-69.4l-152,635.2l180.8,238.4l99.2,12.8l112-124.8
				l-89.6-313.6l16-313.6l131.2-240l-240-54.4L563.1-69.4z"/>
			<rect id="rect4524" x="127.4" y="413.1" class="st6" width="202.1" height="30.1"/>
			<path id="path4652" inkscape:connector-curvature="0" sodipodi:nodetypes="csssccc" class="st7" d="M561.3-44.5
				c0,0,14.1-18.7,37.3-26.6s100.2-57.2,106.9-62.2c5.7-4.2,34.5-29.4,32.8-49.2s-20.9-35.6-20.9-35.6L568.1-96L561.3-44.5z"/>
			<path id="path4394" inkscape:connector-curvature="0" sodipodi:nodetypes="czzzsccc" class="st8" d="M643.1-283.8
				c0,0,11.8-2.5,25.6,4.8s40.1,29.8,48,48s15.5,20.3,1.6,51.2s-80,88-116.8,97.6S555.1-63,555.1-63l-41.6-97.6L643.1-283.8z"/>
			<path id="path4396" inkscape:connector-curvature="0" class="st8" d="M439.9-256.6L372.7-231c0,0-22.4,8-17.6,36.8
				s51.2,113.6,51.2,113.6l51.2-88l17.6-88H439.9z"/>
			<path id="path4310" inkscape:connector-curvature="0" sodipodi:nodetypes="ccssssssssssccccsscc" class="st9" d="M328.8-727.3
				l-34.5,110.9c0,0-5.7,80.3-8.5,118.8s-6.8,104.7,5.1,130.1c11.9,25.5,28.3,57.1,70.7,80.9s110.3,45.3,144.2,34.5
				c33.9-10.7,65.6-27.2,85.4-49.2C611-323.4,664-396.5,664-401s3.5,8.1,14.8-3.8s33.4-39,30-58.8s7.9-42.4-15.8-40.2
				c-23.8,2.3-32.2,1.7-46.4,30c-14.1,28.3-4-19.2-4-19.2l14.7-9.1l-12.4-13l18.7-55.4c0,0-44.1-1.1-45.3-10.2
				c-1.1-9.1,17-65.6-2.3-135.2s-199.7-20.9-199.7-20.9S340.7-713.7,328.8-727.3L328.8-727.3z"/>
			<ellipse id="path3350" class="st7" cx="507.6" cy="-564.6" rx="28.3" ry="44.9"/>
			<ellipse id="path3350-4" class="st7" cx="337.9" cy="-569.9" rx="28.3" ry="44.9"/>
			<ellipse id="path3350-47" class="st10" cx="516.9" cy="-579" rx="8.8" ry="13.9"/>
			<ellipse id="path3350-47-1" class="st10" cx="346.8" cy="-584.4" rx="8.8" ry="13.9"/>
			
				<path id="path4251" inkscape:connector-curvature="0" inkscape:original-d="m 606.14282,-430.8521 2.5,-8 c 0,0 -0.5,-18.5 -14,-22 -13.5,-3.5 -44.5,8 -44.5,8 l -3.5,9.5 c 0,0 12.5,-2 25.5,-3 13,-1 29,3.5 34,15.5 z" inkscape:path-effect="#path-effect4253" class="st7" d="
				M370.3-643.4l2-6.4c-1.1-7.1-5.3-13.6-11.2-17.6c-5.5-3.7-12.5-5.2-19.1-4s-12.6,5-16.5,10.4l-2.8,7.6c6.5-2.3,13.5-3.1,20.4-2.4
				C353.2-654.7,362.9-650.3,370.3-643.4z"/>
			
				<path id="path4251-3" inkscape:connector-curvature="0" inkscape:original-d="m 756.00536,-422.5189 -1.13576,-8.4564 c 0,0 3.50596,-18.13948 17.25702,-18.54941 13.75105,-0.40992 42.14058,17.92413 42.14058,17.92413 l 1.86738,10.16172 c 0,0 -11.87756,-4.79099 -24.4064,-8.70808 -12.52885,-3.91708 -28.88379,-3.08411 -35.72282,7.62804 z" inkscape:path-effect="#path-effect4253-1" class="st7" d="
				M490.2-636.7l-0.9-6.8c2.3-6.6,7.4-12.1,13.8-14.8c6.3-2.7,13.6-2.7,19.9-0.1c6.3,2.7,11.4,8,13.8,14.4l1.5,8.1
				c-5.9-3.8-12.6-6.2-19.5-7C509-643.9,498.8-641.7,490.2-636.7z"/>
			<path id="path4304" inkscape:connector-curvature="0" class="st7" d="M375.9-604.2l7.6,1.6l-44,157.2c0,0-0.4,5.6,4.4,6.4
				s36.8,2,36.8,2s11.2,2.4,7.6,7.2c-3.6,4.8-50-1.2-50-1.2s-14.8-8-14.4-12.4s6.4-17.2,13.6-40.4S375.9-604.2,375.9-604.2z"/>
			<path id="path4306" inkscape:connector-curvature="0" class="st8" d="M335.6-390.1l27.7,60c0,0,28.9,19.8,67.9,18.7
				c39-1.1,88.8-11.3,92.8-17s30.5-58.8,30.5-58.8l-9.6-5.1c0,0-49.8,15.8-98.4,17.5C397.9-373.2,335.6-390.1,335.6-390.1
				L335.6-390.1z"/>
			<path id="path4308" inkscape:connector-curvature="0" class="st11" d="M347-367l56.2,9.6c0,0,66.1,7.4,84.3,5.7
				c18.2-1.7-38,7-79,2.2s-57-9.1-57-9.1L347-367z"/>
			<path id="path4318" inkscape:connector-curvature="0" class="st12" d="M660.7-447.8c0,0-7.2-14.4,4-23.2
				c11.2-8.8,30.4-2.4,30.4,4.8c0,7.2,3.2,22.4-14.4,29.6c-17.6,7.2-17.6,7.2-17.6,7.2l0.8,4.8"/>
			<path id="path4324" inkscape:connector-curvature="0" class="st13" d="M335.6-872.1c0,0,11.3-38.5,50.9-11.3s58.8,53.2,52,81.5
				s-47.5,43-90.5,36.2s-75.8-24.9-74.7-46.4c1.1-21.5,19.2-39.6,38.5-39.6c19.2,0,47.5,30.5,47.5,30.5l0,0"/>
			<path id="path4326-3" inkscape:connector-curvature="0" class="st14" d="M558.8-866.3c0,0,26,15.7,24.2,39.9
				c-1.9,24.2-8.6,28-8.6,28l0,0"/>
			<path id="path4326-3-5" inkscape:connector-curvature="0" class="st15" d="M608.1-852.1c0,0,16.9,18.4,9.8,36.9
				c-7.1,18.6-13.2,20-13.2,20l0,0"/>
			<path id="path4358" inkscape:connector-curvature="0" class="st16" d="M671.7-533.8c60,7.9,60,7.9,60,7.9"/>
			<path id="path4358-6" inkscape:connector-curvature="0" class="st17" d="M676.3-587c63.2,15.8,63.2,15.8,63.2,15.8"/>
			
				<path id="path4358-6-9" inkscape:connector-curvature="0" inkscape:transform-center-x="1.091775" inkscape:transform-center-y="70.218503" class="st18" d="
				M683.6-634.9c65.1,27.2,65.1,27.2,65.1,27.2"/>
			<path id="path4390" inkscape:connector-curvature="0" sodipodi:nodetypes="cccssscscc" class="st19" d="M663.7-402.8l-27.2,140.5
				l15.8,14.7c0,0,24.9,18.1,4.5,39.6s-84.9,47.5-141.4,46.4c-56.6-1.1-106.3-20.4-106.3-36.2s29.7-20,29.7-20s4,1.4,8.5-17.9
				l4.5-14.3l-0.7-2.8"/>
			<path id="path4392" inkscape:connector-curvature="0" sodipodi:nodetypes="cssc" class="st20" d="M453-252.9
				c0,0,4.9,2.8,26.1,1.4c21.2-1.4,112.7-21.7,119.4-25.9c6.7-4.2,13.9-20.6,13.9-20.6"/>
			<path id="path4437" inkscape:connector-curvature="0" sodipodi:nodetypes="ccccazccsscccc" class="st0" d="M191.9-184.6
				l-12.8-12.8l-14.4,12.8l3.2,16c0,0-256,230.9-337.6,379.2c-11.2,20.4-19.4,44.7-19.2,67.2s19.2,62.4,19.2,62.4l284.4,182.4
				c0,0-10.8-3.2-2.8-43.2s19.2-84.8,41.6-96s23.7-14.6,23.7-14.6L25.5,258.6L214.3,81C214.3,81,247.9,25,191.9-184.6L191.9-184.6z"
				/>
			<circle id="path4789" class="st21" cx="405.1" cy="554.2" r="8.4"/>
			<path id="path4609" inkscape:connector-curvature="0" class="st22" d="M378.1,548.1l-22.6-29.7l72.4-7.1L378.1,548.1z"/>
			<path id="path4516" inkscape:connector-curvature="0" sodipodi:nodetypes="csscsscsccsccscsccccc" class="st23" d="M393.3,531.9
				c0,0-95,2.3-144.8-2.3c-49.8-4.5-129-95-138-95c-9.1,0-61.1-2.3-61.1-2.3s-9.1-18.1,2.3-22.6c11.3-4.5,33.9-13.6,43-13.6
				s61.1-2.3,61.1-2.3s4.5,4.5,22.6,22.6s54.3,36.2,54.3,36.2l-19.1-20.5c0,0-8.8-10.4-4-15.2c4.8-4.8,21.6-16.8,21.6-16.8l26.4,12
				c0,0,12.8,6.4,15.2,14.4s19.2,13.6,19.2,13.6s19.2-8,27.2-15.2s32-11.2,32-11.2l61.6-8l35.2,84.8l-20,38.4L393.3,531.9z"/>
			<path id="path4412" inkscape:connector-curvature="0" sodipodi:nodetypes="cccssscsccscc" class="st0" d="M886.3-184.6l19.2,6.4
				l-6.4,20.8c0,0,99.2,430.4,96,524.8s11.8,119.4-9.6,124.8c-29.2,7.4-51.2,12.4-87.6,12.4c-34.2,0-515.6,43.6-515.6,43.6
				s30.9-53,23.4-96.1c-5.2-29.9-25-49.5-25-49.5l390.4-67.2l16.8-13.6c5.6-4.5-60-248-60-248C728.6,40.1,777.7-143.8,886.3-184.6
				L886.3-184.6z"/>
			<path id="path4414" inkscape:connector-curvature="0" class="st24" d="M897.5-156.6c0,0-6.4-10.4-36,24.8S791.9-21.4,791.9-21.4
				l0,0"/>
			<path id="path4439" inkscape:connector-curvature="0" class="st25" d="M167.9-168.6c0,0,27.2,72,27.2,124.8S196.7,9,196.7,9l0,0"
				/>
			<circle id="path4462" class="st26" cx="517.8" cy="332.8" r="31.7"/>
			<circle id="path4462-9" class="st26" cx="522.3" cy="617.9" r="31.7"/>
			<path id="path4462-9-8" inkscape:connector-curvature="0" class="st27" d="M520.4,300.6c17.5,0,31.7,14.2,31.7,31.7
				S537.9,364,520.4,364c-2.3,0-4.5-0.3-6.8-0.8c14.5-3.2,24.8-16.1,24.8-30.9c0-14.9-10.4-27.7-24.9-30.9
				C515.8,300.8,518.1,300.6,520.4,300.6L520.4,300.6z"/>
			<path id="path4520" inkscape:connector-curvature="0" class="st25" d="M228.7,450.6c0,0,9.6,4.8,17.6,12.8s15.2,20,15.2,20"/>
			<path id="path4522" inkscape:connector-curvature="0" class="st21" d="M225.5,433.8c12.8,2.4,21.6,2.4,25.6-0.8
				c4-3.2,4-3.2,4-3.2"/>
			<path id="path4654-9" inkscape:connector-curvature="0" sodipodi:nodetypes="ccccc" class="st28" d="M383.4,369.9L295.9-51.5
				l51.6-51.3l-40.8-35.4l48.8-59.2"/>
			<path id="path4599" inkscape:connector-curvature="0" class="st29" d="M395.1,809.1c14.4,510,16,589.6,16,589.6"/>
			<path id="path4462-9-8-6" inkscape:connector-curvature="0" class="st27" d="M521,587c17.5,0,31.7,14.2,31.7,31.7
				s-14.2,31.7-31.7,31.7c-2.3,0-4.5-0.3-6.8-0.8c14.5-3.2,24.8-16.1,24.8-30.9c0-14.9-10.4-27.7-24.9-30.9
				C516.4,587.2,518.7,587,521,587L521,587z"/>
			<path id="path4650" inkscape:connector-curvature="0" class="st7" d="M792.7-21.3c0,0,65.6-97.3,82.6-103s28.3-10.2,28.3-10.2
				l-4.5-23.8c0,0-8.8-2.3-18.1,6.5s-60.8,79.2-64.8,87.7C812.2-55.5,792.7-21.3,792.7-21.3z"/>
			<path id="path4654" inkscape:connector-curvature="0" class="st28" d="M475.1,313L686.3-27.8l-30.4-49.6l72-38.4l-3.2-68.8l0,0"
				/>
			<path id="path4671" inkscape:connector-curvature="0" class="st7" d="M203.9-185.4c0,0,6.4-1.6,12,45.6s6.4,101.6,6.4,101.6
				l-28-144.8l13.6-4.8"/>
			<path id="path4673" inkscape:connector-curvature="0" sodipodi:nodetypes="csczc" class="st7" d="M785.5,322.5
				c0,0,30.2-6.4,58.9,3.7c28.7,10.2,43.5,40.2,43.5,40.2s-14.4-17-48.7-30.4C804.9,322.6,785.5,322.5,785.5,322.5z"/>
			<path id="path4673-6" inkscape:connector-curvature="0" sodipodi:nodetypes="csczc" class="st30" d="M782.6,322.7
				c0,0,30.1-0.1,58.2,15.7c28.1,15.7,38.1,49.5,38.1,49.5s-9.5-21.5-42.8-41.6S782.6,322.7,782.6,322.7L782.6,322.7z"/>
			<path id="path4690" inkscape:connector-curvature="0" class="st7" d="M666.6-63.2c4.5-2.8,62.8-50.9,62.8-50.9l-73.5,36.2
				L666.6-63.2z"/>
			<path id="path4692" inkscape:connector-curvature="0" sodipodi:nodetypes="cccc" class="st7" d="M478.2,312.7L694.8-19.6
				l-5.9-9.3L478.2,312.7z"/>
			<path id="path4694" inkscape:connector-curvature="0" class="st7" d="M464.3-165.8c-31.2,58.4-37.6,48.8-37.6,48.8l30.4-51.2
				L464.3-165.8z"/>
			<path id="path4696" inkscape:connector-curvature="0" class="st7" d="M395.9-92.6c-1.2,84-8.4,92-8.4,92l4.4-107.2L395.9-92.6z"
				/>
			<path id="path4698" inkscape:connector-curvature="0" class="st7" d="M536.3-99.8l-42.8,41.6l50,64.4l-57.6-64l48.4-52.8
				L536.3-99.8z"/>
			<path id="path4700" inkscape:connector-curvature="0" class="st7" d="M434.3-106.6l41.6-55.6l10,0.8l-50.8,59.2L434.3-106.6z"/>
			<path id="path4702" inkscape:connector-curvature="0" class="st7" d="M494.7-160.2L438.3-95l1.6,4.8l68.8-69.2L494.7-160.2z"/>
			<path id="path4704" inkscape:connector-curvature="0" class="st7" d="M472.5-55.3L388.8,9.2l-3.4-12.4L453.3-62L472.5-55.3z"/>
			<path id="path4706" inkscape:connector-curvature="0" class="st7" d="M388.8,60.1l113.1-98.4l14.7,13.6L384.3,72.6l4.5-7.9"/>
			<path id="path4706-2" inkscape:connector-curvature="0" class="st31" d="M389.2,29.6l100.2-89.3l13,12.3L385.2,40.8l4-7.2"/>
			<path id="path4723" inkscape:connector-curvature="0" class="st7" d="M447.6-226.1c0,0,67.9,12.4,109.7-9.1
				c41.9-21.5,56.6-61.1,56.6-61.1l-32.8,22.6l-110.9,23.8l-13.6-2.3L447.6-226.1z"/>
			<path id="path4673-6-2" inkscape:connector-curvature="0" sodipodi:nodetypes="csczc" class="st32" d="M-88.9,194.7
				c0,0,34.5-3.4,68.5,12.4s45.8,53,45.8,53c-3.1,4.7-26.5-29.2-50.2-42.9C-48.5,203.4-88.9,194.7-88.9,194.7z"/>
			<path id="path4673-6-2-0" inkscape:connector-curvature="0" sodipodi:nodetypes="csczc" class="st33" d="M-118.8,247.1
				c0,0,33.5-16.2,74.4-14.4c40.9,1.7,68.4,29,68.4,29s-19.3-14.4-68.7-18S-118.8,247.1-118.8,247.1z"/>
			<path id="path4755" inkscape:connector-curvature="0" class="st34" d="M470.9,400.7c0,0,12.8-9.9,18.5,33.1
				c5.8,43.1-22,108.3-22,108.3"/>
			<path id="path4757" inkscape:connector-curvature="0" class="st34" d="M58.3,486.6c0,0-8.8-14.4-4.8-32.8s6.4-21.6,6.4-21.6"/>
			<ellipse id="path4759" class="st35" cx="436.7" cy="511.8" rx="14.4" ry="14.8"/>
			<ellipse id="path4761" class="st35" cx="82.3" cy="467.4" rx="11.2" ry="12.8"/>
			<path id="path4765" inkscape:connector-curvature="0" class="st7" d="M390.8,414c0,0,63.1-10.7,75.5-5.1
				c12.4,5.7,18.1,17,20.6,26c2.5,9.1,2.3-7.9,2.3-7.9s-5.7-25.5-11-27.4c-5.4-2-88.2,11.6-88.2,11.6L390.8,414z"/>
			<path id="path4767" inkscape:connector-curvature="0" class="st7" d="M223.6,9.2c0,0,5.7,35.1-13.6,57.7
				C190.8,89.6,22.2,257,22.2,257L216.8,82.8L223.6,9.2z"/>
			<path id="path4769" inkscape:connector-curvature="0" class="st7" d="M76.5,495.7c0,0,1.1,0,10.2,1.1s22.6-11.3,24.9-20.4
				s-9.1,35.1-4.5,39.6C111.6,520.6,76.5,495.7,76.5,495.7z"/>
			<path id="path4771" inkscape:connector-curvature="0" class="st7" d="M389.9,548.9l-4.5,21.5L276.8,717.5L375.2,567l-1.1-20.4
				L389.9,548.9z"/>
			<path id="path4775" inkscape:connector-curvature="0" sodipodi:nodetypes="cssczsc" class="st7" d="M290.4,821.9
				c0,0,77.5-17,99-19.2c22.3-2.3,58.7-5.5,79.2,1.1c20.6,6.7,32.2,23.8,32.2,23.8s-13-9.7-31.1-14s-43.8-7.3-77.5-3.6
				C360.4,813.5,290.4,821.9,290.4,821.9L290.4,821.9z"/>
			<path id="path4777" inkscape:connector-curvature="0" sodipodi:nodetypes="csccsc" class="st7" d="M280.7,716.2
				c0,0,62.4,52,136,37.6s100.8-31.2,100.8-31.2l-76,13.6c0,0-86.4,7.2-103.2,1.6C321.5,732.2,280.7,716.2,280.7,716.2z"/>
			<path id="path4779" inkscape:connector-curvature="0" class="st7" d="M761.5,761l-67.2,57.6l65.6-83.2L761.5,761z"/>
			<path id="path4781" inkscape:connector-curvature="0" class="st7" d="M286.3,721l-70.4,86.4l62.4-94.4L286.3,721z"/>
			<path id="path4785" inkscape:connector-curvature="0" class="st36" d="M391.9,547c0,0-14.4,106.7-17,148.7s-1.3,54.5-1.3,54.5"/>
			<ellipse id="path4787" class="st21" cx="394.7" cy="649.4" rx="8.4" ry="9.2"/>
			<path id="path4791" inkscape:connector-curvature="0" sodipodi:nodetypes="cccc" class="st7" d="M726.6,84.6l-45.9,268.6
				l33.9-6.8L726.6,84.6z"/>
			<path id="path4793" inkscape:connector-curvature="0" class="st7" d="M670.3,522.6l131.2,169.6l-48-177.6L670.3,522.6z"/>
			<path id="path4795" inkscape:connector-curvature="0" sodipodi:nodetypes="cccccc" class="st7" d="M672,815.2l28.8,581.1
				l26.3,1.2l38.5-659.6l-72.4,80.3L672,815.2z"/>
			<path id="path4797" inkscape:connector-curvature="0" sodipodi:nodetypes="cccc" class="st37" d="M681.8,526.3l14.2-0.7
				l102.3,156.8L681.8,526.3z"/>
			<path id="path4799" inkscape:connector-curvature="0" class="st7" d="M747.9,145.8L717.5,341l-28,4.8l40.8-260L747.9,145.8z"/>
			<path id="path4801" inkscape:connector-curvature="0" sodipodi:nodetypes="cccc" class="st38" d="M685.9,346.4l53-217l-10.4-35.6
				L685.9,346.4z"/>
			<path id="path4801-9" inkscape:connector-curvature="0" sodipodi:nodetypes="cccc" class="st39" d="M711.1,296.3L746,153.6
				l-6.8-23.4L711.1,296.3z"/>
			<path id="path4797-8" inkscape:connector-curvature="0" sodipodi:nodetypes="cccc" class="st40" d="M703.4,525.4l21.8-1.7
				l63.2,137.8L703.4,525.4z"/>
			<path id="path4833" inkscape:connector-curvature="0" sodipodi:nodetypes="cccc" class="st41" d="M693.7,826.1l-13.9-0.9
				l30.3,581.3L693.7,826.1z"/>
			<path id="path4833-2" inkscape:connector-curvature="0" sodipodi:nodetypes="cccc" class="st41" d="M716.9,797.5l-11.1,12
				l14,487.1L716.9,797.5z"/>
			<path id="path4850" inkscape:connector-curvature="0" class="st7" d="M350.3,813.8c0,0,24-12.8,32,27.2s28.8,556.8,28.8,556.8
				l-14.4-595.2L350.3,813.8z"/>
			<path id="path4852" inkscape:connector-curvature="0" sodipodi:nodetypes="csccscc" class="st7" d="M384.3-902.6
				c0,0,64.1,26.7,68,60.9c5.5,48.2-26,64.1-26,64.1l13.6-23.2c0,0-3.3-45.9-16.9-54.9c-13.6-9.1-78.3-45.8-78.3-45.8L384.3-902.6z"
				/>
			<path id="path4854" inkscape:connector-curvature="0" class="st34" d="M280.2-650.4c19.8,10.7,20.4,10.7,20.4,10.7"/>
			
				<path id="path4854-3" inkscape:connector-curvature="0" inkscape:transform-center-x="12.519088" inkscape:transform-center-y="-22.80928" class="st34" d="
				M283.2-662.1c19.8,10.7,20.4,10.7,20.4,10.7"/>
			
				<path id="path4854-6" inkscape:connector-curvature="0" inkscape:transform-center-x="-0.20883427" inkscape:transform-center-y="-19.980852" class="st34" d="
				M286-672.8c19.8,10.7,20.4,10.7,20.4,10.7"/>
			<path id="path4889" inkscape:connector-curvature="0" class="st7" d="M313-848.3c0,0-14.7-5.7-19.2,19.2s13.6,50.9,30.5,56.6
				s-40.7-15.8-40.7-15.8l-11.3-28.3l15.8-26l28.3-5.7l0,0"/>
			<path id="path4893" inkscape:connector-curvature="0" sodipodi:nodetypes="cccc" class="st7" d="M363-824.1l10.7,24L356-817.7
				L363-824.1z"/>
		</g>
	</g>
	<g>
		<ellipse id="path4514_1_" class="st42" cx="824" cy="1848.8" rx="288.5" ry="58.8"/>
		<path id="path4578_2_" inkscape:connector-curvature="0" sodipodi:nodetypes="cssscssc" class="st43" d="M798.1,1578.5"/>
		<path id="path4578_4_" inkscape:connector-curvature="0" sodipodi:nodetypes="cssscssc" class="st43" d="M774.9,1493.6"/>
		<path id="path4578_3_" inkscape:connector-curvature="0" sodipodi:nodetypes="cssscssc" class="st43" d="M774.9,1594.4"/>
		<path id="path4578-3_3_" inkscape:connector-curvature="0" sodipodi:nodetypes="cssscssc" class="st44" d="M814.2,1690.8"/>
		<path id="path4578-3_4_" inkscape:connector-curvature="0" sodipodi:nodetypes="cssscssc" class="st44" d="M820,1626.2"/>
		<path id="path4578-3_5_" inkscape:connector-curvature="0" sodipodi:nodetypes="cssscssc" class="st44" d="M814.2,1591.7"/>
		<path id="path4578-3_2_" inkscape:connector-curvature="0" sodipodi:nodetypes="cssscssc" class="st44" d="M835.4,1569.9
			L835.4,1569.9"/>
		<path id="path4607_3_" inkscape:connector-curvature="0" sodipodi:nodetypes="cssscc" class="st41" d="M827.7,1702.9"/>
		<path id="path4607_5_" inkscape:connector-curvature="0" sodipodi:nodetypes="cssscc" class="st41" d="M871.5,1685.2"/>
		<path id="path4607_1_" inkscape:connector-curvature="0" sodipodi:nodetypes="cssscc" class="st41" d="M855.7,1672.3"/>
		<path id="path4607_2_" inkscape:connector-curvature="0" sodipodi:nodetypes="cssscc" class="st41" d="M886.2,1678.6"/>
	</g>
	<ellipse class="st45" cx="700.2" cy="1839.7" rx="88" ry="32.6"/>
	<ellipse class="st46" cx="646.4" cy="1845.2" rx="11.4" ry="5.4"/>
	<ellipse class="st46" cx="704" cy="1822.9" rx="11.4" ry="3.8"/>
	<circle class="st46" cx="713" cy="1855.8" r="5.2"/>
	<ellipse class="st46" cx="754.6" cy="1839.2" rx="16.3" ry="6"/>
	<ellipse class="st46" cx="656.5" cy="1824.8" rx="10.1" ry="1.9"/>
	<ellipse class="st45" cx="801.6" cy="1863.2" rx="88" ry="32.6"/>
	<ellipse class="st46" cx="747.8" cy="1868.6" rx="11.4" ry="5.4"/>
	<ellipse class="st46" cx="805.4" cy="1846.4" rx="11.4" ry="3.8"/>
	<circle class="st46" cx="814.4" cy="1879.2" r="5.2"/>
	<ellipse class="st46" cx="855.9" cy="1862.7" rx="16.3" ry="6"/>
	<ellipse class="st46" cx="757.9" cy="1848.3" rx="10.1" ry="1.9"/>
	<ellipse class="st45" cx="805.4" cy="1826.7" rx="88" ry="32.6"/>
	<ellipse class="st46" cx="751.6" cy="1832.1" rx="11.4" ry="5.4"/>
	<ellipse class="st46" cx="809.2" cy="1809.8" rx="11.4" ry="3.8"/>
	<circle class="st46" cx="818.2" cy="1842.7" r="5.2"/>
	<ellipse class="st46" cx="859.8" cy="1826.1" rx="16.3" ry="6"/>
	<ellipse class="st46" cx="761.7" cy="1811.7" rx="10.1" ry="1.9"/>
	
		<ellipse transform="matrix(7.063060e-02 -0.9975 0.9975 7.063060e-02 -1019.5905 2617.2644)" class="st45" cx="894.8" cy="1855.8" rx="32.6" ry="88"/>
	
		<ellipse transform="matrix(7.063060e-02 -0.9975 0.9975 7.063060e-02 -1051.6056 2575.7634)" class="st46" cx="856.5" cy="1852.2" rx="5.4" ry="11.4"/>
	
		<ellipse transform="matrix(7.063060e-02 -0.9975 0.9975 7.063060e-02 -978.5095 2617.7881)" class="st46" cx="915.6" cy="1834" rx="3.8" ry="11.4"/>
	
		<ellipse transform="matrix(7.063060e-02 -0.9975 0.9975 7.063060e-02 -1005.754 2655.4504)" class="st46" cx="922.2" cy="1867.5" rx="5.2" ry="5.2"/>
	
		<ellipse transform="matrix(7.063060e-02 -0.9975 0.9975 7.063060e-02 -952.6062 2685.3843)" class="st46" cx="964.8" cy="1853.9" rx="6" ry="16.3"/>
	
		<ellipse transform="matrix(7.063060e-02 -0.9975 0.9975 7.063060e-02 -1021.3266 2568.9636)" class="st46" cx="868" cy="1832.6" rx="1.9" ry="10.1"/>
	
		<ellipse transform="matrix(0.9529 -0.3032 0.3032 0.9529 -523.7495 301.6095)" class="st45" cx="709.4" cy="1837.5" rx="88" ry="32.6"/>
	
		<ellipse transform="matrix(0.9529 -0.3032 0.3032 0.9529 -532.5735 287.5697)" class="st46" cx="659.8" cy="1858.9" rx="11.4" ry="5.4"/>
	
		<ellipse transform="matrix(0.9529 -0.3032 0.3032 0.9529 -518.579 300.3324)" class="st46" cx="707.9" cy="1820.2" rx="11.4" ry="3.8"/>
	
		<ellipse transform="matrix(0.9529 -0.3032 0.3032 0.9529 -526.4085 307.3009)" class="st46" cx="726.4" cy="1848.9" rx="5.2" ry="5.2"/>
	
		<ellipse transform="matrix(0.9529 -0.3032 0.3032 0.9529 -516.1682 316.4542)" class="st46" cx="761" cy="1820.5" rx="16.3" ry="6"/>
	
		<ellipse transform="matrix(0.9529 -0.3032 0.3032 0.9529 -525.6201 287.5522)" class="st46" cx="663.2" cy="1836.5" rx="10.1" ry="1.9"/>
	<ellipse class="st45" cx="902.3" cy="1821.4" rx="88" ry="32.6"/>
	<ellipse class="st46" cx="848.5" cy="1826.9" rx="11.4" ry="5.4"/>
	<ellipse class="st46" cx="906.2" cy="1804.6" rx="11.4" ry="3.8"/>
	<circle class="st46" cx="915.1" cy="1837.5" r="5.2"/>
	<ellipse class="st46" cx="956.7" cy="1820.9" rx="16.3" ry="6"/>
	<ellipse class="st46" cx="858.6" cy="1806.5" rx="10.1" ry="1.9"/>
	
		<ellipse transform="matrix(0.2395 -0.9709 0.9709 0.2395 -1037.9189 2360.269)" class="st45" cx="987.7" cy="1842.7" rx="32.6" ry="88"/>
	
		<ellipse transform="matrix(0.2395 -0.9709 0.9709 0.2395 -1071.3107 2302.5415)" class="st46" cx="934.1" cy="1835.1" rx="5.4" ry="11.4"/>
	
		<ellipse transform="matrix(0.2395 -0.9709 0.9709 0.2395 -1017.0532 2356.0925)" class="st46" cx="995.4" cy="1827.3" rx="3.8" ry="11.4"/>
	
		<ellipse transform="matrix(0.2395 -0.9709 0.9709 0.2395 -1049.5717 2382.7468)" class="st46" cx="996.2" cy="1861.3" rx="5.2" ry="5.2"/>
	
		<ellipse transform="matrix(0.2395 -0.9709 0.9709 0.2395 -1009.8063 2421.134)" class="st46" cx="1040.6" cy="1855.2" rx="6" ry="16.3"/>
	
		<ellipse transform="matrix(0.2395 -0.9709 0.9709 0.2395 -1043.2476 2303.4888)" class="st46" cx="948.8" cy="1817.7" rx="1.9" ry="10.1"/>
	<path class="st5" d="M866.7,682.8c-17.7-70.8,35.9-131.2,109-162.7c51.1-22,86.5-26,133.5-18c54.2,10.2,96.8,25.5,150,54.9
		c63.8,33.4,107.4,61.9,128.7,152.8c17.7,75.8,8.9,59.1,16.2,97c8.7,45.1-31,291-44,323c-15.8-1.5-22.9-55.3-29-101.7
		c-17.6-134.9,17.3-180.3-11.8-261c-107.8-302.3,43.5,48.1,13.6,74.3c-15,13.2-5-7.9-74.6-17.1c-69.9-9.3-217.8-27.7-286-55.7
		C934.7,753.2,878.5,730.2,866.7,682.8z"/>
	<path class="st47" d="M852,784.7c-22.8-8.9-46.2-30.3-40.9-47c3.5-11,15-8.9,19.1-19.3c7.5-19.5-27.7-36.8-19.7-55.3
		c2.8-6.5,7.1-4.3,19-17.1c13.5-14.6,11-20.5,19.3-25.9c19.3-12.4,61,1.5,60.6,8c-0.2,4.6-21.7,6.9-21.4,8.3
		c0.6,2.5,63.9-17.9,97.8,4.5c12.9,8.4,12.6,17.3,25.9,20.4c18.5,4.2,27.1-11.2,50.6-9.8c20.6,1.3,21,13.7,44.5,16.5
		c22.7,2.6,29.3-8.1,47.7-3.2c17.2,4.5,14.5,14.8,31.2,20.4c25.8,8.8,47.4-10.7,63.5-0.6c10.8,6.8,3.7,17.1,15.2,24.5
		c16.5,10.7,41.7-4.4,52.7,5.7c7.8,7-1.3,17.4,7.3,24.4c9,7.3,22.6-1.4,34.2,5.2c12.5,7,3.3,20.5,14.8,35.5
		c14.8,19.1,17.7,17.7,21,30.6c2.5,9.6-13.3-1.7-24.7,20c-10,19.1,4.8,47.4-4.5,51.7c-10.8,4.9-9-4.5-25.9-2.2
		c-18.3,2.5-17.3,10.1-32.6,10.9c-15,0.8-18.6-20.7-40.4-24.4c-19.7-3.4-29.2,12-45.5,7.3c-16.6-4.7-12.3-22.1-30.1-29.3
		c-19.1-7.6-33.2,8.9-53.6,2c-20.8-7-17-27.8-36.1-32.7c-19.3-4.9-30.7,14.4-51.8,10.5c-23.3-4.3-20.7-30.3-44.3-36.3
		c-26.7-6.8-51.3,21.2-70.4,11.7c-11.4-5.7-8-18.4-19-20.9c-11.4-2.7-18.8,10.2-38.3,11.1C866.7,790.4,858.8,787.3,852,784.7z"/>
	<path class="st47" d="M1356.4,1103.6c-21.6,4.2-40.7-21-46.9-15.8c-5.2,4.3,9.5,20.4,3.1,36.4c-5.9,14.8-24.3,15.6-24,24.2
		c0.3,10.1,25.9,10.1,32,26.6c5.1,14-7.6,29.9-4.5,31.7c3.4,2,13.9-21.1,29.8-21.7c16-0.6,25.7,22.2,34.6,18.8
		c7.2-2.8,2.4-18.1,12-25.1c11.1-8,29.7,3.2,32.2-1.5c2.6-4.7-17.2-14.7-15.9-27.3c1.2-12.2,21.3-17.8,19.8-22.5
		c-1.8-5.8-31.6,4.8-41.6-7.3c-9-10.9,4.2-33.3-1.1-36.2C1381.3,1081.3,1373.2,1100.3,1356.4,1103.6z"/>
	<path class="st48" d="M1255,618.9"/>
	<path class="st48" d="M1299.5,685.2"/>
</g>
</svg>
