<?xml version="1.0" encoding="utf-8"?>
<!-- Generator: Adobe Illustrator 20.1.0, SVG Export Plug-In . SVG Version: 6.00 Build 0)  -->
<svg version="1.1"
	 id="svg4632" inkscape:export-filename="D:\JUGGR\grafiken\Plakate\Plakat_05_2016\plakat_05_2016_v2.png" inkscape:export-xdpi="90" inkscape:export-ydpi="90" inkscape:version="0.91 r13725" sodipodi:docname="plakat_05_2016_v2.svg" xmlns:cc="http://creativecommons.org/ns#" xmlns:dc="http://purl.org/dc/elements/1.1/" xmlns:inkscape="http://www.inkscape.org/namespaces/inkscape" xmlns:rdf="http://www.w3.org/1999/02/22-rdf-syntax-ns#" xmlns:sodipodi="http://sodipodi.sourceforge.net/DTD/sodipodi-0.dtd" xmlns:svg="http://www.w3.org/2000/svg"
	 xmlns="http://www.w3.org/2000/svg" xmlns:xlink="http://www.w3.org/1999/xlink" x="0px" y="0px" viewBox="0 0 595.3 841.9"
	 style="enable-background:new 0 0 595.3 841.9;" xml:space="preserve">
<style type="text/css">
	.st0{fill:#DAEDC5;}
	.st1{fill:#205114;}
	.st2{fill:#CCE053;}
	.st3{font-family:'OpenSans';}
	.st4{font-size:24px;}
	.st5{fill:#FFFFFF;}
	.st6{font-size:36px;}
	.st7{fill:#57888D;stroke:#000000;stroke-width:0.75;}
	.st8{fill:#FFFFFF;stroke:#000000;stroke-width:0.75;}
	.st9{fill:#E1D2B1;stroke:#000000;stroke-width:0.75;}
	.st10{fill:#D3623A;stroke:#000000;stroke-width:0.75;}
	.st11{fill:#FFFFFF;stroke:#000000;stroke-width:0.75;stroke-linecap:round;}
	.st12{fill:#D42316;stroke:#000000;stroke-width:0.75;stroke-miterlimit:10;}
	.st13{stroke:#000000;stroke-width:0.75;stroke-linecap:round;}
	.st14{stroke:#000000;stroke-width:0.75;}
	.st15{fill:none;stroke:#000000;stroke-width:0.75;}
	.st16{fill:#E1D2B1;stroke:#000000;stroke-width:0.75;stroke-linecap:round;}
	.st17{fill:none;stroke:#000000;stroke-width:0.75;stroke-linecap:round;}
	.st18{fill:#57888D;stroke:#000000;stroke-width:0.75;stroke-linecap:round;}
	.st19{fill:#FFFFFF;stroke:#000000;stroke-linecap:round;}
	.st20{fill:#C25B34;stroke:#000000;}
	.st21{fill:#57888D;stroke:#000000;}
	.st22{fill:#E1B152;stroke:#000000;stroke-miterlimit:10;}
	.st23{fill:#3F3025;stroke:#1D1D1B;stroke-miterlimit:10;}
	.st24{fill:#D42316;stroke:#000000;stroke-miterlimit:10;}
	.st25{fill:#FFFFFF;stroke:#000000;stroke-miterlimit:10;}
	.st26{fill:none;stroke:#000000;stroke-miterlimit:10;}
	.st27{fill:#FFFFFF;stroke:#000000;stroke-width:2;}
	.st28{fill:#F58219;stroke:#000000;stroke-width:2;}
	.st29{fill:#4E7896;stroke:#000000;stroke-width:2;}
	.st30{font-size:20px;}
	.st31{fill:none;stroke:#205114;stroke-width:5;stroke-miterlimit:10;}
	.st32{fill:none;}
	.st33{font-size:18px;}
</style>
<defs>
	
	<inkscape:path-effect  effect="spiro" id="path-effect4253" is_visible="true"></inkscape:path-effect>
	<inkscape:path-effect  effect="spiro" id="path-effect4253-1" is_visible="true"></inkscape:path-effect>
	<inkscape:path-effect  effect="spiro" id="path-effect4253-7" is_visible="true"></inkscape:path-effect>
	<inkscape:path-effect  effect="spiro" id="path-effect4253-1-1" is_visible="true"></inkscape:path-effect>
	<inkscape:path-effect  effect="spiro" id="path-effect4253-6" is_visible="true"></inkscape:path-effect>
	<inkscape:path-effect  effect="spiro" id="path-effect4253-1-6" is_visible="true"></inkscape:path-effect>
</defs>
<sodipodi:namedview  bordercolor="#666666" borderopacity="1.0" fit-margin-bottom="0" fit-margin-left="0" fit-margin-right="0" fit-margin-top="0" id="base" inkscape:current-layer="layer1" inkscape:cx="226.64962" inkscape:cy="585.35062" inkscape:document-units="px" inkscape:pageopacity="0.0" inkscape:pageshadow="2" inkscape:window-height="1147" inkscape:window-maximized="1" inkscape:window-width="1920" inkscape:window-x="-8" inkscape:window-y="-8" inkscape:zoom="0.70710678" pagecolor="#ffffff" showgrid="false">
	</sodipodi:namedview>
<rect id="rect4799-6-8-3-1" y="137.3" class="st0" width="595.3" height="568.6"/>
<rect id="rect4799-6-8" y="0" class="st1" width="595.3" height="218.1"/>
<text transform="matrix(1 0 0 1 37.9248 60.1094)" class="st2 st3 st4">Vortrag bei der Java User Group Görlitz</text>
<text transform="matrix(1 0 0 1 35.562 135.7973)" class="st5 st3 st6">Inside JVM</text>
<g>
	<text transform="matrix(1 0 0 1 33.5 180.7975)" class="st2 st3 st4">Michael Wiedeking</text>
</g>
<g id="flowRoot5521" transform="translate(-2.2268386,3.3339304)">
</g>
<g id="flowRoot5689" transform="translate(13.793466,-6.686375)">
</g>
<g id="flowRoot5763" transform="translate(-2.2268386,3.3339304)">
</g>
<g id="flowRoot5773" transform="translate(-3.0349635,9.3725)">
</g>
<g>
	<g id="layer2" transform="translate(572.85718,1493.3521)" inkscape:groupmode="layer" inkscape:label="Vektoren">
		<g id="g4805">
			<path id="path4595" inkscape:connector-curvature="0" class="st7" d="M-148.5-1001l11.3,145.1l99,0.9l7.2-141L-148.5-1001z"/>
			<path id="path4508" inkscape:connector-curvature="0" class="st8" d="M-136.7-999.2c0,0,6.3,10.4,21.7,12.2
				c15.4,1.8,38-2.7,51.1-9c13.1-6.3,15.4-87.2,15.4-87.2l-82.3-0.9L-136.7-999.2z"/>
			<path id="path4489-5" inkscape:connector-curvature="0" class="st9" d="M-164-1010.7c0,0-0.2-3.3-5.8-4.2
				c-5.5-0.9-6.7,0.1-6.7,0.1l-0.6,0.5c0,0,0.8,1.1,1.4,1.6c0.6,0.5,3.8,2.9,3.8,2.9l6.9,2.9L-164-1010.7z"/>
			<path id="path4322" inkscape:connector-curvature="0" sodipodi:nodetypes="ccssssssc" class="st10" d="M-128.3-1261.8l3.4-14.5
				c0,0,0.7-13.1-3.4-17.9c-4.1-4.8-4.1-5.1,0-7.1c4.1-2,17-5.1,14.8-11.4c9,0.2,47.7,3.4,57.6,9.7c9.9,6.3,11.9,6,30,19.2
				c-5.2,22.6-12.4,53.3-16,60.1C-45.6-1216.8-128.3-1261.8-128.3-1261.8L-128.3-1261.8z"/>
			<rect id="rect4479" x="-124.5" y="-1164.2" class="st11" width="73.7" height="36.6"/>
			<path id="path4398" inkscape:connector-curvature="0" class="st12" d="M-98.3-1158.2c4.8,11.5,7,12.1,7,12.1l4.2,0.6l9.9-10.9
				l1.6-16.3l-20.8-1.3L-98.3-1158.2z"/>
			<path id="path4400" inkscape:connector-curvature="0" class="st12" d="M-93.3-1146.6l-13.5,12.3l-1.8,63.2l18.1,2.2l18.4-60.5
				l-14.3-16.4L-93.3-1146.6z"/>
			<path id="path4489" inkscape:connector-curvature="0" class="st9" d="M-170.5-1010c0,0-1.2-3.1-6.7-2.3c-5.5,0.8-6.4,2.1-6.4,2.1
				l-0.5,0.6c0,0,1.1,0.8,1.8,1.1s4.5,1.7,4.5,1.7l7.5,0.8L-170.5-1010z"/>
			<path id="path4485" inkscape:connector-curvature="0" sodipodi:nodetypes="czcscscccccccc" class="st9" d="M-160.9-1030.4
				c0,0,1.3,2.2,0,6.6s-11.5,17.2-11.5,17.2s-6.1-0.9-10.6,1.6c-4.5,2.5-4.3,5-4.3,5s-2,0.9,3.6,2.3s20.1-1.1,20.1-1.1l4.5-1.4
				l20.3-33.2l-5.7-26.9l-21,0.9l-2.5,19l5.1,8.7L-160.9-1030.4z"/>
			<path id="path4433" inkscape:connector-curvature="0" class="st7" d="M-113-1174.2c-31.3,1.9-32,2.6-32,2.6l5.8,70.3
				c0,0-14.7,83.4-19.5,87.6s6.7,42.5,6.7,42.5l10.9-1.9l32.3-48.3l3.5-153.7L-113-1174.2z"/>
			<path id="path4402" inkscape:connector-curvature="0" class="st7" d="M-71.2-1148.3l-30.4,126.9l36.1,47.6l19.8,2.6l22.4-24.9
				l-17.9-62.6l3.2-62.6l26.2-47.9l-47.9-10.9L-71.2-1148.3z"/>
			<rect id="rect4524" x="-158.2" y="-1051.9" class="st13" width="40.4" height="6"/>
			<path id="path4652" inkscape:connector-curvature="0" sodipodi:nodetypes="csssccc" class="st14" d="M-71.5-1143.3
				c0,0,2.8-3.7,7.5-5.3c4.6-1.6,20-11.4,21.4-12.4c1.1-0.8,6.9-5.9,6.6-9.8s-4.2-7.1-4.2-7.1l-29.8,24.4L-71.5-1143.3z"/>
			<path id="path4394" inkscape:connector-curvature="0" sodipodi:nodetypes="czzzsccc" class="st8" d="M-55.2-1191.1
				c0,0,2.4-0.5,5.1,1c2.8,1.5,8,6,9.6,9.6c1.6,3.6,3.1,4.1,0.3,10.2c-2.8,6.2-16,17.6-23.3,19.5c-7.4,1.9-9.3,3.8-9.3,3.8
				l-8.3-19.5L-55.2-1191.1z"/>
			<path id="path4396" inkscape:connector-curvature="0" class="st8" d="M-95.8-1185.7l-13.4,5.1c0,0-4.5,1.6-3.5,7.4
				s10.2,22.7,10.2,22.7l10.2-17.6l3.5-17.6H-95.8z"/>
			<path id="path4310" inkscape:connector-curvature="0" sodipodi:nodetypes="ccssssssssssccccsscc" class="st9" d="M-118-1279.7
				l-6.9,22.2c0,0-1.1,16-1.7,23.7c-0.6,7.7-1.4,20.9,1,26c2.4,5.1,5.7,11.4,14.1,16.2s22,9,28.8,6.9c6.8-2.1,13.1-5.4,17.1-9.8
				c4-4.4,14.5-19,14.5-19.9c0-0.9,0.7,1.6,3-0.8c2.3-2.4,6.7-7.8,6-11.7c-0.7-4,1.6-8.5-3.2-8c-4.8,0.5-6.4,0.3-9.3,6
				c-2.8,5.7-0.8-3.8-0.8-3.8l2.9-1.8l-2.5-2.6l3.7-11.1c0,0-8.8-0.2-9-2c-0.2-1.8,3.4-13.1-0.5-27c-3.9-13.9-39.9-4.2-39.9-4.2
				S-115.6-1277-118-1279.7L-118-1279.7z"/>
			<ellipse id="path3350" class="st14" cx="-82.3" cy="-1247.2" rx="5.7" ry="9"/>
			<ellipse id="path3350-4" class="st14" cx="-116.2" cy="-1248.3" rx="5.7" ry="9"/>
			<ellipse id="path3350-47" class="st8" cx="-80.4" cy="-1250.1" rx="1.8" ry="2.8"/>
			<ellipse id="path3350-47-1" class="st8" cx="-114.4" cy="-1251.2" rx="1.8" ry="2.8"/>
			
				<path id="path4251" inkscape:connector-curvature="0" inkscape:original-d="m 606.14282,-430.8521 2.5,-8 c 0,0 -0.5,-18.5 -14,-22 -13.5,-3.5 -44.5,8 -44.5,8 l -3.5,9.5 c 0,0 12.5,-2 25.5,-3 13,-1 29,3.5 34,15.5 z" inkscape:path-effect="#path-effect4253" class="st14" d="
				M-109.7-1262.9l0.4-1.3c-0.2-1.4-1.1-2.7-2.2-3.5c-1.1-0.7-2.5-1-3.8-0.8c-1.3,0.2-2.5,1-3.3,2.1l-0.6,1.5
				c1.3-0.5,2.7-0.6,4.1-0.5C-113.1-1265.2-111.2-1264.3-109.7-1262.9z"/>
			
				<path id="path4251-3" inkscape:connector-curvature="0" inkscape:original-d="m 756.00536,-422.5189 -1.13576,-8.4564 c 0,0 3.50596,-18.13948 17.25702,-18.54941 13.75105,-0.40992 42.14058,17.92413 42.14058,17.92413 l 1.86738,10.16172 c 0,0 -11.87756,-4.79099 -24.4064,-8.70808 -12.52885,-3.91708 -28.88379,-3.08411 -35.72282,7.62804 z" inkscape:path-effect="#path-effect4253-1" class="st14" d="
				M-85.7-1261.6l-0.2-1.4c0.5-1.3,1.5-2.4,2.8-3c1.3-0.5,2.7-0.5,4,0c1.3,0.5,2.3,1.6,2.8,2.9l0.3,1.6c-1.2-0.8-2.5-1.2-3.9-1.4
				C-82-1263-84-1262.6-85.7-1261.6z"/>
			<path id="path4304" inkscape:connector-curvature="0" d="M-108.6-1255.1l1.5,0.3l-8.8,31.4c0,0-0.1,1.1,0.9,1.3
				c1,0.2,7.4,0.4,7.4,0.4s2.2,0.5,1.5,1.4c-0.7,1-10-0.2-10-0.2s-3-1.6-2.9-2.5c0.1-0.9,1.3-3.4,2.7-8.1
				C-114.8-1235.7-108.6-1255.1-108.6-1255.1z"/>
			<path id="path4306" inkscape:connector-curvature="0" class="st8" d="M-116.6-1212.3l5.5,12c0,0,5.8,4,13.6,3.7
				c7.8-0.2,17.7-2.3,18.5-3.4c0.8-1.1,6.1-11.7,6.1-11.7l-1.9-1c0,0-9.9,3.2-19.7,3.5C-104.2-1209-116.6-1212.3-116.6-1212.3
				L-116.6-1212.3z"/>
			<path id="path4308" inkscape:connector-curvature="0" class="st14" d="M-114.3-1207.7l11.2,1.9c0,0,13.2,1.5,16.8,1.1
				c3.6-0.3-7.6,1.4-15.8,0.4s-11.4-1.8-11.4-1.8L-114.3-1207.7z"/>
			<path id="path4318" inkscape:connector-curvature="0" class="st15" d="M-51.7-1223.9c0,0-1.4-2.9,0.8-4.6c2.2-1.8,6.1-0.5,6.1,1
				s0.6,4.5-2.9,5.9c-3.5,1.4-3.5,1.4-3.5,1.4l0.2,1"/>
			<path id="path4324" inkscape:connector-curvature="0" class="st15" d="M-116.6-1308.6c0,0,2.3-7.7,10.2-2.3s11.7,10.6,10.4,16.3
				c-1.4,5.7-9.5,8.6-18.1,7.2s-15.1-5-14.9-9.3c0.2-4.3,3.8-7.9,7.7-7.9c3.8,0,9.5,6.1,9.5,6.1l0,0"/>
			<path id="path4326-3" inkscape:connector-curvature="0" class="st15" d="M-72-1307.5c0,0,5.2,3.1,4.8,8c-0.4,4.8-1.7,5.6-1.7,5.6
				l0,0"/>
			<path id="path4326-3-5" inkscape:connector-curvature="0" class="st15" d="M-62.2-1304.6c0,0,3.4,3.7,2,7.4c-1.4,3.7-2.6,4-2.6,4
				l0,0"/>
			<path id="path4358" inkscape:connector-curvature="0" class="st15" d="M-49.5-1241c12,1.6,12,1.6,12,1.6"/>
			<path id="path4358-6" inkscape:connector-curvature="0" class="st15" d="M-48.6-1251.7c12.6,3.2,12.6,3.2,12.6,3.2"/>
			
				<path id="path4358-6-9" inkscape:connector-curvature="0" inkscape:transform-center-x="1.091775" inkscape:transform-center-y="70.218503" class="st15" d="
				M-47.1-1261.2c13,5.4,13,5.4,13,5.4"/>
			<path id="path4390" inkscape:connector-curvature="0" sodipodi:nodetypes="cccssscscc" class="st16" d="M-51.1-1214.9l-5.4,28.1
				l3.2,2.9c0,0,5,3.6,0.9,7.9s-17,9.5-28.2,9.3c-11.3-0.2-21.2-4.1-21.2-7.2s5.9-4,5.9-4s0.8,0.3,1.7-3.6l0.9-2.9l-0.1-0.6"/>
			<path id="path4392" inkscape:connector-curvature="0" sodipodi:nodetypes="cssc" class="st17" d="M-93.2-1184.9
				c0,0,1,0.6,5.2,0.3c4.2-0.3,22.5-4.3,23.9-5.2s2.8-4.1,2.8-4.1"/>
			<path id="path4437" inkscape:connector-curvature="0" sodipodi:nodetypes="ccccazccsscccc" class="st7" d="M-145.3-1171.3
				l-2.6-2.6l-2.9,2.6l0.6,3.2c0,0-51.1,46.1-67.4,75.8c-2.2,4.1-3.9,8.9-3.8,13.4c0,4.5,3.8,12.5,3.8,12.5l56.8,36.4
				c0,0-2.2-0.6-0.6-8.6c1.6-8,3.8-16.9,8.3-19.2c4.5-2.2,4.7-2.9,4.7-2.9l-30.3-22l37.7-35.5
				C-140.8-1118.2-134.1-1129.4-145.3-1171.3L-145.3-1171.3z"/>
			<circle id="path4789" class="st17" cx="-102.7" cy="-1023.7" r="1.7"/>
			<path id="path4609" inkscape:connector-curvature="0" class="st14" d="M-108.1-1024.9l-4.5-5.9l14.5-1.4L-108.1-1024.9z"/>
			<path id="path4516" inkscape:connector-curvature="0" sodipodi:nodetypes="csscsscsccsccscsccccc" class="st9" d="M-105.1-1028.2
				c0,0-19,0.5-28.9-0.5c-9.9-0.9-25.8-19-27.6-19c-1.8,0-12.2-0.5-12.2-0.5s-1.8-3.6,0.5-4.5c2.3-0.9,6.8-2.7,8.6-2.7
				c1.8,0,12.2-0.5,12.2-0.5s0.9,0.9,4.5,4.5s10.8,7.2,10.8,7.2l-3.8-4.1c0,0-1.8-2.1-0.8-3c1-1,4.3-3.4,4.3-3.4l5.3,2.4
				c0,0,2.6,1.3,3,2.9c0.5,1.6,3.8,2.7,3.8,2.7s3.8-1.6,5.4-3c1.6-1.4,6.4-2.2,6.4-2.2l12.3-1.6l7,16.9l-4,7.7L-105.1-1028.2z"/>
			<path id="path4412" inkscape:connector-curvature="0" sodipodi:nodetypes="cccssscsccscc" class="st7" d="M-6.6-1171.3l3.8,1.3
				l-1.3,4.2c0,0,19.8,86,19.2,104.8s2.4,23.9-1.9,24.9c-5.8,1.5-10.2,2.5-17.5,2.5c-6.8,0-103,8.7-103,8.7s6.2-10.6,4.7-19.2
				c-1-6-5-9.9-5-9.9l78-13.4l3.4-2.7c1.1-0.9-12-49.5-12-49.5C-38.1-1126.4-28.3-1163.1-6.6-1171.3L-6.6-1171.3z"/>
			<path id="path4414" inkscape:connector-curvature="0" class="st17" d="M-4.4-1165.7c0,0-1.3-2.1-7.2,5
				c-5.9,7-13.9,22.1-13.9,22.1l0,0"/>
			<path id="path4439" inkscape:connector-curvature="0" class="st17" d="M-150.1-1168.1c0,0,5.4,14.4,5.4,24.9s0.3,10.5,0.3,10.5
				l0,0"/>
			<circle id="path4462" class="st18" cx="-80.2" cy="-1067.9" r="6.3"/>
			<circle id="path4462-9" class="st18" cx="-79.3" cy="-1011" r="6.3"/>
			<path id="path4462-9-8" inkscape:connector-curvature="0" class="st13" d="M-79.7-1074.4c3.5,0,6.3,2.8,6.3,6.3s-2.8,6.3-6.3,6.3
				c-0.5,0-0.9-0.1-1.4-0.2c2.9-0.6,5-3.2,5-6.2c0-3-2.1-5.5-5-6.2C-80.6-1074.3-80.2-1074.4-79.7-1074.4L-79.7-1074.4z"/>
			<path id="path4520" inkscape:connector-curvature="0" class="st17" d="M-138-1044.4c0,0,1.9,1,3.5,2.6s3,4,3,4"/>
			<path id="path4522" inkscape:connector-curvature="0" class="st17" d="M-138.6-1047.7c2.6,0.5,4.3,0.5,5.1-0.2
				c0.8-0.6,0.8-0.6,0.8-0.6"/>
			<path id="path4654-9" inkscape:connector-curvature="0" sodipodi:nodetypes="ccccc" class="st15" d="M-107.1-1060.5l-17.5-84.2
				l10.3-10.2l-8.2-7.1l9.7-11.8"/>
			<path id="path4599" inkscape:connector-curvature="0" class="st15" d="M-104.7-972.8c2.9,101.9,3.2,117.8,3.2,117.8"/>
			<path id="path4462-9-8-6" inkscape:connector-curvature="0" class="st13" d="M-79.6-1017.1c3.5,0,6.3,2.8,6.3,6.3
				s-2.8,6.3-6.3,6.3c-0.5,0-0.9-0.1-1.4-0.2c2.9-0.6,5-3.2,5-6.2c0-3-2.1-5.5-5-6.2C-80.5-1017.1-80-1017.1-79.6-1017.1
				L-79.6-1017.1z"/>
			<path id="path4650" inkscape:connector-curvature="0" class="st14" d="M-25.3-1138.7c0,0,13.1-19.4,16.5-20.6
				c3.4-1.1,5.7-2,5.7-2L-4-1166c0,0-1.8-0.5-3.6,1.3c-1.9,1.8-12.1,15.8-12.9,17.5C-21.4-1145.5-25.3-1138.7-25.3-1138.7z"/>
			<path id="path4654" inkscape:connector-curvature="0" class="st15" d="M-88.7-1071.9l42.2-68.1l-6.1-9.9l14.4-7.7l-0.6-13.7l0,0"
				/>
			<path id="path4671" inkscape:connector-curvature="0" class="st14" d="M-142.9-1171.4c0,0,1.3-0.3,2.4,9.1
				c1.1,9.4,1.3,20.3,1.3,20.3l-5.6-28.9l2.7-1"/>
			<path id="path4673" inkscape:connector-curvature="0" sodipodi:nodetypes="csczc" class="st14" d="M-26.7-1070
				c0,0,6-1.3,11.8,0.7c5.7,2,8.7,8,8.7,8s-2.9-3.4-9.7-6.1S-26.7-1070-26.7-1070z"/>
			<path id="path4673-6" inkscape:connector-curvature="0" sodipodi:nodetypes="csczc" class="st14" d="M-27.3-1069.9
				c0,0,6,0,11.6,3.1c5.6,3.1,7.6,9.9,7.6,9.9s-1.9-4.3-8.6-8.3S-27.3-1069.9-27.3-1069.9L-27.3-1069.9z"/>
			<path id="path4690" inkscape:connector-curvature="0" class="st14" d="M-50.5-1147c0.9-0.6,12.5-10.2,12.5-10.2l-14.7,7.2
				L-50.5-1147z"/>
			<path id="path4692" inkscape:connector-curvature="0" sodipodi:nodetypes="cccc" class="st14" d="M-88.1-1071.9l43.3-66.4
				l-1.2-1.9L-88.1-1071.9z"/>
			<path id="path4694" inkscape:connector-curvature="0" class="st14" d="M-90.9-1167.5c-6.2,11.7-7.5,9.7-7.5,9.7l6.1-10.2
				L-90.9-1167.5z"/>
			<path id="path4696" inkscape:connector-curvature="0" class="st14" d="M-104.6-1152.9c-0.2,16.8-1.7,18.4-1.7,18.4l0.9-21.4
				L-104.6-1152.9z"/>
			<path id="path4698" inkscape:connector-curvature="0" class="st14" d="M-76.5-1154.3l-8.6,8.3l10,12.9l-11.5-12.8l9.7-10.5
				L-76.5-1154.3z"/>
			<path id="path4700" inkscape:connector-curvature="0" class="st14" d="M-96.9-1155.7l8.3-11.1l2,0.2l-10.1,11.8L-96.9-1155.7z"/>
			<path id="path4702" inkscape:connector-curvature="0" class="st14" d="M-84.8-1166.4l-11.3,13l0.3,1l13.7-13.8L-84.8-1166.4z"/>
			<path id="path4704" inkscape:connector-curvature="0" class="st14" d="M-89.3-1145.5l-16.7,12.9l-0.7-2.5l13.6-11.7L-89.3-1145.5
				z"/>
			<path id="path4706" inkscape:connector-curvature="0" class="st14" d="M-106-1122.4l22.6-19.7l2.9,2.7l-26.4,19.4l0.9-1.6"/>
			<path id="path4706-2" inkscape:connector-curvature="0" class="st14" d="M-105.9-1128.5l20-17.8l2.6,2.5l-23.4,17.6l0.8-1.4"/>
			<path id="path4723" inkscape:connector-curvature="0" class="st14" d="M-94.2-1179.6c0,0,13.6,2.5,21.9-1.8
				c8.4-4.3,11.3-12.2,11.3-12.2l-6.6,4.5l-22.2,4.8l-2.7-0.5L-94.2-1179.6z"/>
			<path id="path4673-6-2" inkscape:connector-curvature="0" sodipodi:nodetypes="csczc" class="st14" d="M-201.4-1095.5
				c0,0,6.9-0.7,13.7,2.5c6.8,3.2,9.1,10.6,9.1,10.6c-0.6,0.9-5.3-5.8-10-8.6C-193.3-1093.8-201.4-1095.5-201.4-1095.5z"/>
			<path id="path4673-6-2-0" inkscape:connector-curvature="0" sodipodi:nodetypes="csczc" class="st14" d="M-207.4-1085
				c0,0,6.7-3.2,14.9-2.9c8.2,0.3,13.7,5.8,13.7,5.8s-3.9-2.9-13.7-3.6C-202.5-1086.4-207.4-1085-207.4-1085z"/>
			<path id="path4755" inkscape:connector-curvature="0" class="st15" d="M-89.6-1054.4c0,0,2.6-2,3.7,6.6
				c1.2,8.6-4.4,21.6-4.4,21.6"/>
			<path id="path4757" inkscape:connector-curvature="0" class="st15" d="M-172-1037.2c0,0-1.8-2.9-1-6.6s1.3-4.3,1.3-4.3"/>
			<ellipse id="path4759" class="st13" cx="-96.4" cy="-1032.2" rx="2.9" ry="3"/>
			<ellipse id="path4761" class="st13" cx="-167.2" cy="-1041" rx="2.2" ry="2.6"/>
			<path id="path4765" inkscape:connector-curvature="0" class="st14" d="M-105.6-1051.7c0,0,12.6-2.1,15.1-1
				c2.5,1.1,3.6,3.4,4.1,5.2c0.5,1.8,0.5-1.6,0.5-1.6s-1.1-5.1-2.2-5.5c-1.1-0.4-17.6,2.3-17.6,2.3L-105.6-1051.7z"/>
			<path id="path4767" inkscape:connector-curvature="0" class="st14" d="M-139-1132.6c0,0,1.1,7-2.7,11.5c-3.8,4.5-37.5,38-37.5,38
				l38.9-34.8L-139-1132.6z"/>
			<path id="path4769" inkscape:connector-curvature="0" class="st14" d="M-168.4-1035.4c0,0,0.2,0,2,0.2c1.8,0.2,4.5-2.3,5-4.1
				s-1.8,7-0.9,7.9C-161.4-1030.4-168.4-1035.4-168.4-1035.4z"/>
			<path id="path4771" inkscape:connector-curvature="0" class="st14" d="M-105.8-1024.8l-0.9,4.3l-21.7,29.4l19.7-30.1l-0.2-4.1
				L-105.8-1024.8z"/>
			<path id="path4775" inkscape:connector-curvature="0" sodipodi:nodetypes="cssczsc" class="st14" d="M-125.6-970.2
				c0,0,15.5-3.4,19.8-3.8c4.5-0.5,11.7-1.1,15.8,0.2c4.1,1.3,6.4,4.8,6.4,4.8s-2.6-1.9-6.2-2.8c-3.6-0.9-8.7-1.5-15.5-0.7
				C-111.7-971.9-125.6-970.2-125.6-970.2L-125.6-970.2z"/>
			<path id="path4777" inkscape:connector-curvature="0" sodipodi:nodetypes="csccsc" class="st14" d="M-127.6-991.3
				c0,0,12.5,10.4,27.2,7.5s20.1-6.2,20.1-6.2l-15.2,2.7c0,0-17.3,1.4-20.6,0.3S-127.6-991.3-127.6-991.3z"/>
			<path id="path4779" inkscape:connector-curvature="0" class="st14" d="M-31.5-982.4L-45-970.9l13.1-16.6L-31.5-982.4z"/>
			<path id="path4781" inkscape:connector-curvature="0" class="st14" d="M-126.5-990.4l-14.1,17.3l12.5-18.9L-126.5-990.4z"/>
			<path id="path4785" inkscape:connector-curvature="0" class="st15" d="M-105.4-1025.1c0,0-2.9,21.3-3.4,29.7s-0.3,10.9-0.3,10.9"
				/>
			<ellipse id="path4787" class="st17" cx="-104.8" cy="-1004.7" rx="1.7" ry="1.8"/>
			<path id="path4791" inkscape:connector-curvature="0" sodipodi:nodetypes="cccc" class="st14" d="M-38.5-1117.5l-9.2,53.7
				l6.8-1.4L-38.5-1117.5z"/>
			<path id="path4793" inkscape:connector-curvature="0" class="st14" d="M-49.7-1030l26.2,33.9l-9.6-35.5L-49.7-1030z"/>
			<path id="path4795" inkscape:connector-curvature="0" sodipodi:nodetypes="cccccc" class="st14" d="M-49.4-971.6l5.8,116.1
				l5.3,0.2l7.7-131.8l-14.5,16L-49.4-971.6z"/>
			<path id="path4797" inkscape:connector-curvature="0" sodipodi:nodetypes="cccc" class="st7" d="M-47.5-1029.3l2.8-0.1l20.4,31.3
				L-47.5-1029.3z"/>
			<path id="path4799" inkscape:connector-curvature="0" class="st14" d="M-34.2-1105.3l-6.1,39l-5.6,1l8.2-51.9L-34.2-1105.3z"/>
			<path id="path4801" inkscape:connector-curvature="0" sodipodi:nodetypes="cccc" class="st7" d="M-46.6-1065.2l10.6-43.4
				l-2.1-7.1L-46.6-1065.2z"/>
			<path id="path4801-9" inkscape:connector-curvature="0" sodipodi:nodetypes="cccc" class="st7" d="M-41.6-1075.2l7-28.5l-1.4-4.7
				L-41.6-1075.2z"/>
			<path id="path4797-8" inkscape:connector-curvature="0" sodipodi:nodetypes="cccc" class="st7" d="M-43.1-1029.5l4.4-0.3
				l12.6,27.5L-43.1-1029.5z"/>
			<path id="path4833" inkscape:connector-curvature="0" sodipodi:nodetypes="cccc" class="st7" d="M-45.1-969.4l-2.8-0.2l6.1,116.1
				L-45.1-969.4z"/>
			<path id="path4833-2" inkscape:connector-curvature="0" sodipodi:nodetypes="cccc" class="st7" d="M-40.4-975.1l-2.2,2.4
				l2.8,97.3L-40.4-975.1z"/>
			<path id="path4850" inkscape:connector-curvature="0" class="st14" d="M-113.7-971.8c0,0,4.8-2.6,6.4,5.4
				c1.6,8,5.8,111.2,5.8,111.2l-2.9-118.9L-113.7-971.8z"/>
			<path id="path4852" inkscape:connector-curvature="0" sodipodi:nodetypes="csccscc" class="st14" d="M-106.9-1314.7
				c0,0,12.8,5.3,13.6,12.2c1.1,9.6-5.2,12.8-5.2,12.8l2.7-4.6c0,0-0.7-9.2-3.4-11c-2.7-1.8-15.6-9.1-15.6-9.1L-106.9-1314.7z"/>
			<path id="path4854" inkscape:connector-curvature="0" class="st15" d="M-127.7-1264.3c4,2.1,4.1,2.1,4.1,2.1"/>
			
				<path id="path4854-3" inkscape:connector-curvature="0" inkscape:transform-center-x="12.519088" inkscape:transform-center-y="-22.80928" class="st15" d="
				M-127.1-1266.7c4,2.1,4.1,2.1,4.1,2.1"/>
			
				<path id="path4854-6" inkscape:connector-curvature="0" inkscape:transform-center-x="-0.20883427" inkscape:transform-center-y="-19.980852" class="st15" d="
				M-126.5-1268.8c4,2.1,4.1,2.1,4.1,2.1"/>
			<path id="path4889" inkscape:connector-curvature="0" class="st14" d="M-121.1-1303.9c0,0-2.9-1.1-3.8,3.8s2.7,10.2,6.1,11.3
				s-8.1-3.2-8.1-3.2l-2.3-5.7l3.2-5.2l5.7-1.1l0,0"/>
			<path id="path4893" inkscape:connector-curvature="0" sodipodi:nodetypes="cccc" class="st14" d="M-111.1-1299l2.1,4.8l-3.5-3.5
				L-111.1-1299z"/>
		</g>
	</g>
	<g>
		<ellipse id="path4514_1_" class="st19" cx="439.4" cy="429.9" rx="57.6" ry="11.7"/>
		<path id="path4578_2_" inkscape:connector-curvature="0" sodipodi:nodetypes="cssscssc" class="st20" d="M434.2,376"/>
		<path id="path4578_4_" inkscape:connector-curvature="0" sodipodi:nodetypes="cssscssc" class="st20" d="M429.6,359"/>
		<path id="path4578_3_" inkscape:connector-curvature="0" sodipodi:nodetypes="cssscssc" class="st20" d="M429.6,379.1"/>
		<path id="path4578-3_3_" inkscape:connector-curvature="0" sodipodi:nodetypes="cssscssc" class="st20" d="M437.4,398.4"/>
		<path id="path4578-3_4_" inkscape:connector-curvature="0" sodipodi:nodetypes="cssscssc" class="st20" d="M438.6,385.5"/>
		<path id="path4578-3_5_" inkscape:connector-curvature="0" sodipodi:nodetypes="cssscssc" class="st20" d="M437.4,378.6"/>
		<path id="path4578-3_2_" inkscape:connector-curvature="0" sodipodi:nodetypes="cssscssc" class="st20" d="M441.7,374.2
			L441.7,374.2"/>
		<path id="path4607_3_" inkscape:connector-curvature="0" sodipodi:nodetypes="cssscc" class="st21" d="M440.1,400.8"/>
		<path id="path4607_5_" inkscape:connector-curvature="0" sodipodi:nodetypes="cssscc" class="st21" d="M448.9,397.3"/>
		<path id="path4607_1_" inkscape:connector-curvature="0" sodipodi:nodetypes="cssscc" class="st21" d="M445.7,394.7"/>
		<path id="path4607_2_" inkscape:connector-curvature="0" sodipodi:nodetypes="cssscc" class="st21" d="M451.8,395.9"/>
	</g>
	<ellipse class="st22" cx="414.6" cy="428.1" rx="17.6" ry="6.5"/>
	<ellipse class="st23" cx="403.9" cy="429.2" rx="2.3" ry="1.1"/>
	<ellipse class="st23" cx="415.4" cy="424.8" rx="2.3" ry="0.8"/>
	<circle class="st23" cx="417.2" cy="431.3" r="1"/>
	<ellipse class="st23" cx="425.5" cy="428" rx="3.3" ry="1.2"/>
	<ellipse class="st23" cx="405.9" cy="425.2" rx="2" ry="0.4"/>
	<ellipse class="st22" cx="434.9" cy="432.8" rx="17.6" ry="6.5"/>
	<ellipse class="st23" cx="424.2" cy="433.9" rx="2.3" ry="1.1"/>
	<ellipse class="st23" cx="435.7" cy="429.5" rx="2.3" ry="0.8"/>
	<circle class="st23" cx="437.5" cy="436" r="1"/>
	<ellipse class="st23" cx="445.7" cy="432.7" rx="3.3" ry="1.2"/>
	<ellipse class="st23" cx="426.2" cy="429.9" rx="2" ry="0.4"/>
	<ellipse class="st22" cx="435.7" cy="425.5" rx="17.6" ry="6.5"/>
	<ellipse class="st23" cx="424.9" cy="426.6" rx="2.3" ry="1.1"/>
	<ellipse class="st23" cx="436.4" cy="422.2" rx="2.3" ry="0.8"/>
	<circle class="st23" cx="438.2" cy="428.7" r="1"/>
	<ellipse class="st23" cx="446.5" cy="425.4" rx="3.3" ry="1.2"/>
	<ellipse class="st23" cx="426.9" cy="422.5" rx="2" ry="0.4"/>
	
		<ellipse transform="matrix(7.063060e-02 -0.9975 0.9975 7.063060e-02 -8.7913 853.2614)" class="st22" cx="453.5" cy="431.3" rx="6.5" ry="17.6"/>
	
		<ellipse transform="matrix(7.063060e-02 -0.9975 0.9975 7.063060e-02 -15.187 844.9707)" class="st23" cx="445.9" cy="430.6" rx="1.1" ry="2.3"/>
	
		<ellipse transform="matrix(7.063060e-02 -0.9975 0.9975 7.063060e-02 -0.5845 853.366)" class="st23" cx="457.7" cy="427" rx="0.8" ry="2.3"/>
	
		<ellipse transform="matrix(7.063060e-02 -0.9975 0.9975 7.063060e-02 -6.0272 860.8898)" class="st23" cx="459" cy="433.7" rx="1" ry="1"/>
	
		<ellipse transform="matrix(7.063060e-02 -0.9975 0.9975 7.063060e-02 4.5902 866.8697)" class="st23" cx="467.5" cy="431" rx="1.2" ry="3.3"/>
	
		<ellipse transform="matrix(7.063060e-02 -0.9975 0.9975 7.063060e-02 -9.1381 843.6122)" class="st23" cx="448.2" cy="426.7" rx="0.4" ry="2"/>
	
		<ellipse transform="matrix(0.9529 -0.3032 0.3032 0.9529 -110.0738 146.4162)" class="st22" cx="416.5" cy="427.7" rx="17.6" ry="6.5"/>
	
		<ellipse transform="matrix(0.9529 -0.3032 0.3032 0.9529 -111.8366 143.6115)" class="st23" cx="406.6" cy="432" rx="2.3" ry="1.1"/>
	
		<ellipse transform="matrix(0.9529 -0.3032 0.3032 0.9529 -109.0409 146.1611)" class="st23" cx="416.2" cy="424.2" rx="2.3" ry="0.8"/>
	<ellipse transform="matrix(0.9529 -0.3032 0.3032 0.9529 -110.605 147.5532)" class="st23" cx="419.9" cy="430" rx="1" ry="1"/>
	
		<ellipse transform="matrix(0.9529 -0.3032 0.3032 0.9529 -108.5593 149.3818)" class="st23" cx="426.8" cy="424.3" rx="3.3" ry="1.2"/>
	
		<ellipse transform="matrix(0.9529 -0.3032 0.3032 0.9529 -110.4475 143.608)" class="st23" cx="407.3" cy="427.5" rx="2" ry="0.4"/>
	<ellipse class="st22" cx="455" cy="424.5" rx="17.6" ry="6.5"/>
	<ellipse class="st23" cx="444.3" cy="425.6" rx="2.3" ry="1.1"/>
	<ellipse class="st23" cx="455.8" cy="421.1" rx="2.3" ry="0.8"/>
	<circle class="st23" cx="457.6" cy="427.7" r="1"/>
	<ellipse class="st23" cx="465.9" cy="424.4" rx="3.3" ry="1.2"/>
	<ellipse class="st23" cx="446.3" cy="421.5" rx="2" ry="0.4"/>
	
		<ellipse transform="matrix(0.2395 -0.9709 0.9709 0.2395 -57.2388 784.3751)" class="st22" cx="472.1" cy="428.7" rx="6.5" ry="17.6"/>
	
		<ellipse transform="matrix(0.2395 -0.9709 0.9709 0.2395 -63.9095 772.8428)" class="st23" cx="461.4" cy="427.2" rx="1.1" ry="2.3"/>
	
		<ellipse transform="matrix(0.2395 -0.9709 0.9709 0.2395 -53.0705 783.5407)" class="st23" cx="473.6" cy="425.6" rx="0.8" ry="2.3"/>
	<ellipse transform="matrix(0.2395 -0.9709 0.9709 0.2395 -59.5667 788.8655)" class="st23" cx="473.8" cy="432.5" rx="1" ry="1"/>
	
		<ellipse transform="matrix(0.2395 -0.9709 0.9709 0.2395 -51.6228 796.5341)" class="st23" cx="482.6" cy="431.2" rx="1.2" ry="3.3"/>
	<ellipse transform="matrix(0.2395 -0.9709 0.9709 0.2395 -58.3033 773.032)" class="st23" cx="464.3" cy="423.7" rx="0.4" ry="2"/>
	<path class="st24" d="M447.9,197c-3.5-14.1,7.2-26.2,21.8-32.5c10.2-4.4,17.3-5.2,26.7-3.6c10.8,2,19.3,5.1,30,11
		c12.7,6.7,21.5,12.4,25.7,30.5c3.5,15.1,1.8,11.8,3.2,19.4c1.7,9-6.2,58.1-8.8,64.5c-3.2-0.3-4.6-11-5.8-20.3
		c-3.5-27,3.5-36-2.4-52.1c-21.5-60.4,8.7,9.6,2.7,14.8c-3,2.6-1-1.6-14.9-3.4c-14-1.9-43.5-5.5-57.1-11.1
		C461.5,211.1,450.3,206.5,447.9,197z"/>
	<path class="st25" d="M445,217.4c-4.6-1.8-9.2-6.1-8.2-9.4c0.7-2.2,3-1.8,3.8-3.9c1.5-3.9-5.5-7.4-3.9-11c0.6-1.3,1.4-0.8,3.8-3.4
		c2.7-2.9,2.2-4.1,3.9-5.2c3.9-2.5,12.2,0.3,12.1,1.6c0,0.9-4.3,1.4-4.3,1.6c0.1,0.5,12.8-3.6,19.5,0.9c2.6,1.7,2.5,3.5,5.2,4.1
		c3.7,0.8,5.4-2.2,10.1-2c4.1,0.3,4.2,2.7,8.9,3.3c4.5,0.5,5.9-1.6,9.5-0.6c3.4,0.9,2.9,3,6.2,4.1c5.2,1.7,9.5-2.1,12.7-0.1
		c2.2,1.4,0.7,3.4,3,4.9c3.3,2.1,8.3-0.9,10.5,1.1c1.5,1.4-0.3,3.5,1.5,4.9c1.8,1.5,4.5-0.3,6.8,1c2.5,1.4,0.7,4.1,3,7.1
		c3,3.8,3.5,3.5,4.2,6.1c0.5,1.9-2.7-0.3-4.9,4c-2,3.8,1,9.5-0.9,10.3c-2.2,1-1.8-0.9-5.2-0.4c-3.7,0.5-3.5,2-6.5,2.2
		c-3,0.2-3.7-4.1-8.1-4.9c-3.9-0.7-5.8,2.4-9.1,1.5c-3.3-0.9-2.5-4.4-6-5.8c-3.8-1.5-6.6,1.8-10.7,0.4c-4.2-1.4-3.4-5.6-7.2-6.5
		c-3.9-1-6.1,2.9-10.4,2.1c-4.7-0.9-4.1-6-8.8-7.2c-5.3-1.4-10.2,4.2-14.1,2.3c-2.3-1.1-1.6-3.7-3.8-4.2c-2.3-0.5-3.8,2-7.7,2.2
		C447.9,218.5,446.3,217.9,445,217.4z"/>
	<path class="st25" d="M545.7,281.1c-4.3,0.8-8.1-4.2-9.4-3.2c-1,0.9,1.9,4.1,0.6,7.3c-1.2,3-4.9,3.1-4.8,4.8c0.1,2,5.2,2,6.4,5.3
		c1,2.8-1.5,6-0.9,6.3c0.7,0.4,2.8-4.2,6-4.3c3.2-0.1,5.1,4.4,6.9,3.8c1.4-0.6,0.5-3.6,2.4-5c2.2-1.6,5.9,0.6,6.4-0.3
		c0.5-0.9-3.4-2.9-3.2-5.5c0.2-2.4,4.3-3.6,4-4.5c-0.4-1.2-6.3,1-8.3-1.5c-1.8-2.2,0.8-6.7-0.2-7.2
		C550.7,276.6,549.1,280.4,545.7,281.1z"/>
	<path class="st26" d="M525.5,184.3"/>
	<path class="st26" d="M534.4,197.5"/>
</g>
<rect id="rect4799-6-8-3" y="633.6" class="st1" width="595.3" height="208.2"/>
<g id="g5902" transform="matrix(1.2833263,0,0,1.2833263,1487.7059,1035.0505)">
	<g id="flowRoot3915-1" transform="translate(-649.1227,-316.58845)">
		<path id="path3282-6" inkscape:connector-curvature="0" class="st27" d="M-183.3,64.8c0,1.7-0.2,3.4-0.6,4.9c-0.4,1.5-1,2.8-2,3.9
			c-0.9,1.1-2.2,2-3.8,2.7c-1.6,0.6-3.6,1-6,1c-2.3,0-4.2-0.3-5.9-0.9c-1.6-0.6-2.9-1.3-3.8-2l2.3-5.1c0.9,0.6,1.9,1.1,3.1,1.7
			c1.3,0.5,2.5,0.8,3.8,0.8c2.2,0,3.8-0.5,4.8-1.6s1.5-3,1.5-5.6V41h6.5L-183.3,64.8"/>
		<path id="path3284-1" inkscape:connector-curvature="0" class="st27" d="M-161.3,77.2c-2.4,0-4.5-0.3-6.2-1
			c-1.7-0.7-3.2-1.7-4.4-3c-1.1-1.3-2-2.7-2.5-4.5c-0.5-1.7-0.8-3.6-0.8-5.6V41h6.5v21.6c0,1.6,0.2,3,0.5,4.1c0.4,1.1,0.9,2,1.5,2.8
			c0.7,0.7,1.5,1.2,2.4,1.6c0.9,0.3,1.9,0.5,3.1,0.5c1.1,0,2.2-0.2,3.1-0.5c0.9-0.3,1.7-0.9,2.4-1.6c0.7-0.7,1.2-1.6,1.5-2.8
			c0.4-1.2,0.6-2.5,0.6-4.1V41h6.5v22.2c0,2-0.3,3.9-0.9,5.6c-0.5,1.7-1.4,3.2-2.6,4.5c-1.1,1.3-2.6,2.3-4.4,3
			C-156.8,76.9-158.9,77.2-161.3,77.2"/>
		<path id="path3286-0" inkscape:connector-curvature="0" class="st27" d="M-122.4,45.8c-3.7,0-6.5,1.1-8.4,3.4
			c-1.9,2.3-2.9,5.4-2.9,9.4c0,1.9,0.2,3.7,0.7,5.3s1.2,2.9,2,4c0.9,1.1,2,2,3.4,2.7c1.4,0.6,3,0.9,4.8,0.9c1.1,0,2.1,0,2.9-0.1
			s1.5-0.2,1.9-0.4V58.4h6.5v17c-0.9,0.3-2.4,0.7-4.5,1.1s-4.6,0.6-7.3,0.6c-2.6,0-4.9-0.4-7-1.2c-2.1-0.8-3.9-2-5.4-3.6
			s-2.6-3.5-3.4-5.8c-0.8-2.3-1.2-4.9-1.2-7.9s0.4-5.6,1.3-7.9c0.9-2.3,2.2-4.2,3.7-5.8c1.6-1.6,3.4-2.8,5.5-3.6
			c2.1-0.8,4.4-1.2,6.8-1.2c1.6,0,3.1,0.1,4.4,0.4c1.3,0.2,2.4,0.4,3.3,0.7s1.7,0.6,2.3,0.9c0.6,0.3,1,0.5,1.3,0.7l-1.9,5.3
			c-1-0.6-2.3-1.1-3.8-1.5C-119.1,46.1-120.7,45.8-122.4,45.8"/>
	</g>
	<g id="text3927-1" transform="translate(-952.12858,-907.87941)">
		<path id="path3267-8" inkscape:connector-curvature="0" class="st27" d="M52.5,687.5c-3.7,0-6.5,1.1-8.4,3.4
			c-1.9,2.3-2.9,5.4-2.9,9.4c0,1.9,0.2,3.7,0.7,5.3s1.2,2.9,2,4c0.9,1.1,2,2,3.4,2.7c1.4,0.6,3,0.9,4.8,0.9c1.1,0,2.1,0,2.9-0.1
			c0.8-0.1,1.5-0.2,1.9-0.4V700h6.5v17c-0.9,0.3-2.4,0.7-4.5,1.1c-2.1,0.4-4.6,0.6-7.3,0.6c-2.6,0-4.9-0.4-7-1.2
			c-2.1-0.8-3.9-2-5.4-3.6s-2.6-3.5-3.4-5.8c-0.8-2.3-1.2-4.9-1.2-7.9s0.4-5.6,1.3-7.9c0.9-2.3,2.2-4.2,3.7-5.8
			c1.6-1.6,3.4-2.8,5.5-3.6c2.1-0.8,4.4-1.2,6.8-1.2c1.6,0,3.1,0.1,4.4,0.4c1.3,0.2,2.4,0.4,3.3,0.7c0.9,0.3,1.7,0.6,2.3,0.9
			c0.6,0.3,1,0.5,1.3,0.7l-1.9,5.3c-1-0.6-2.3-1.1-3.8-1.5C55.7,687.8,54.1,687.5,52.5,687.5"/>
		<path id="path3269-1" inkscape:connector-curvature="0" class="st27" d="M94.8,704.7c0,2.1-0.3,4-0.9,5.8
			c-0.6,1.7-1.5,3.2-2.6,4.5c-1.1,1.2-2.5,2.2-4.1,2.9s-3.3,1-5.2,1c-1.9,0-3.7-0.3-5.2-1c-1.6-0.7-2.9-1.6-4-2.9
			c-1.1-1.2-2-2.7-2.7-4.5c-0.6-1.7-0.9-3.7-0.9-5.8s0.3-4,0.9-5.7s1.5-3.2,2.7-4.5c1.2-1.2,2.5-2.2,4.1-2.8c1.6-0.7,3.3-1,5.2-1
			c1.9,0,3.6,0.3,5.2,1c1.6,0.6,3,1.6,4.1,2.8s2,2.7,2.6,4.5C94.5,700.7,94.8,702.6,94.8,704.7 M88.4,704.7c0-2.7-0.6-4.8-1.7-6.3
			c-1.1-1.6-2.7-2.4-4.8-2.4c-2,0-3.7,0.8-4.8,2.4c-1.1,1.5-1.7,3.6-1.7,6.3s0.6,4.8,1.7,6.4c1.2,1.6,2.8,2.4,4.8,2.4
			s3.6-0.8,4.8-2.4C87.9,709.6,88.4,707.4,88.4,704.7 M76.6,687c-0.9,0-1.7-0.3-2.4-0.9c-0.7-0.6-1-1.5-1-2.5c0-1.1,0.3-1.9,1-2.5
			s1.5-1,2.4-1s1.7,0.3,2.4,1c0.7,0.6,1.1,1.5,1.1,2.5c0,1.1-0.4,1.9-1.1,2.5C78.3,686.7,77.5,687,76.6,687 M87.2,687
			c-0.9,0-1.7-0.3-2.5-0.9c-0.7-0.6-1-1.5-1-2.5c0-1.1,0.3-1.9,1-2.5s1.5-1,2.5-1c0.9,0,1.7,0.3,2.4,1c0.7,0.6,1,1.5,1,2.5
			c0,1.1-0.3,1.9-1,2.5C88.9,686.7,88.1,687,87.2,687"/>
		<path id="path3271-8" inkscape:connector-curvature="0" class="st27" d="M116.4,697c-0.5-0.2-1.2-0.3-2.2-0.5
			c-0.9-0.2-1.9-0.3-3.1-0.3c-0.7,0-1.4,0.1-2.2,0.2c-0.8,0.1-1.3,0.3-1.6,0.4v21.5h-6.2v-25.5c1.2-0.4,2.7-0.9,4.5-1.2
			c1.8-0.4,3.8-0.6,6-0.6c0.4,0,0.9,0,1.4,0.1c0.5,0,1.1,0.1,1.6,0.2c0.5,0.1,1.1,0.2,1.6,0.3s0.9,0.2,1.2,0.3L116.4,697"/>
		<path id="path3273-5" inkscape:connector-curvature="0" class="st27" d="M131.1,718.7c-1.8,0-3.4-0.2-4.6-0.6
			c-1.2-0.4-2.2-0.9-2.9-1.6c-0.7-0.7-1.2-1.6-1.5-2.6c-0.3-1.1-0.4-2.3-0.4-3.6v-30.8l6.2-1v30.7c0,0.8,0.1,1.4,0.2,1.9
			c0.1,0.5,0.4,1,0.7,1.3s0.7,0.6,1.2,0.8s1.2,0.3,2,0.4L131.1,718.7"/>
		<path id="path3275-0" inkscape:connector-curvature="0" class="st27" d="M143.2,718.2H137v-26.8h6.2V718.2 M143.9,683.5
			c0,1.2-0.4,2.1-1.1,2.8c-0.8,0.7-1.6,1-2.7,1c-1.1,0-2-0.3-2.7-1c-0.8-0.7-1.1-1.6-1.1-2.8s0.4-2.1,1.1-2.8c0.8-0.7,1.7-1,2.7-1
			s1.9,0.3,2.7,1C143.5,681.4,143.9,682.4,143.9,683.5"/>
		<path id="path3277-1" inkscape:connector-curvature="0" class="st27" d="M150.8,684.3l6.2-1v8.1h9.5v5.2H157v10.9
			c0,2.2,0.3,3.7,1,4.6c0.7,0.9,1.8,1.4,3.5,1.4c1.1,0,2.1-0.1,3-0.4c0.9-0.2,1.6-0.5,2.1-0.7l1,4.9c-0.7,0.3-1.7,0.6-2.8,0.9
			c-1.2,0.3-2.5,0.5-4.1,0.5c-1.9,0-3.5-0.3-4.8-0.8s-2.3-1.2-3-2.2c-0.8-1-1.3-2.2-1.6-3.5c-0.3-1.4-0.5-3-0.5-4.8L150.8,684.3"/>
		<path id="path3279-5" inkscape:connector-curvature="0" class="st27" d="M191.2,695.7c-0.7,0.7-1.6,1.7-2.7,3
			c-1.1,1.3-2.3,2.7-3.5,4.4c-1.3,1.6-2.5,3.2-3.8,5c-1.3,1.7-2.4,3.3-3.4,4.9h13.7v5.2h-21.3v-3.8c0.8-1.4,1.7-2.9,2.8-4.5
			s2.3-3.2,3.5-4.8s2.4-3.2,3.5-4.7c1.2-1.5,2.3-2.7,3.2-3.8h-12.3v-5.2h20.3V695.7"/>
	</g>
	<path id="path10-5" inkscape:connector-curvature="0" sodipodi:nodetypes="cccccc" class="st28" d="M-730.9-198.9
		c7.8,7.9-3.6,16.4-3.6,16.4s12.1-3.9,9.7-16.9c-1.9-5.1-18.8-23.7,1.2-42.6C-723.3-241.9-752-228.6-730.9-198.9L-730.9-198.9z"/>
	<path id="path10-7-2" inkscape:connector-curvature="0" sodipodi:nodetypes="cccccc" class="st29" d="M-743.5-278.5
		c0,0,15.1,30.2,6.5,39.3c-13.6,21.4-17.8,21.3,2.7,52.4c-16.5-13.6-25.2-29.9-20.4-38.1C-739.7-242.8-735.4-251.1-743.5-278.5
		L-743.5-278.5z"/>
</g>
<text transform="matrix(1 0 0 1 36.2049 694.6033)" class="st5 st3 st4">Mittwoch, 30.11.2016</text>
<text transform="matrix(1 0 0 1 36.2049 718.6033)" class="st5 st3 st4">19:00 Uhr</text>
<text transform="matrix(1 0 0 1 36.2049 742.6033)" class="st2 st3 st30">Saxonia Systems AG</text>
<text transform="matrix(1 0 0 1 36.2049 766.6033)" class="st2 st3 st30">Berliner Straße 63</text>
<text transform="matrix(1 0 0 1 36.2049 790.6033)" class="st2 st3 st30">02826 Görlitz</text>
<text transform="matrix(1 0 0 1 36.2049 814.6033)" class="st3 st4"> </text>
<rect x="36" y="430.4" class="st31" width="325.7" height="188.4"/>
<rect id="rect5741_1_" x="33.5" y="393.3" class="st1" width="330.7" height="36.8"/>
<rect id="rect4799-6_1_" x="41.2" y="441.4" class="st32" width="315.3" height="176.6"/>
<text transform="matrix(1 0 0 1 41.2002 455.0814)"><tspan x="0" y="0" class="st3 st33">Wie funktioniert virtuelle Maschine? </tspan><tspan x="0" y="21.6" class="st3 st33">Wo kommt der Just-In-Time-Compiler </tspan><tspan x="0" y="43.2" class="st3 st33">ins Spiel und was hat es mit Invoke</tspan><tspan x="292" y="43.2" class="st3 st33">-</tspan><tspan x="0" y="64.8" class="st3 st33">Dynamic auf sich? Diese und weitere </tspan><tspan x="0" y="86.4" class="st3 st33">Fragen beantwortet Michael Wiede</tspan><tspan x="292.8" y="86.4" class="st3 st33">-</tspan><tspan x="0" y="108" class="st3 st33">king bei einem Blick unter die Haube </tspan><tspan x="0" y="129.6" class="st3 st33">der Java Virtual Machine.</tspan></text>
<text transform="matrix(1 0 0 1 46.9287 421.1552)" class="st5 st3 st30">Thema</text>
<rect id="rect5741" x="33.5" y="241.3" class="st1" width="330.7" height="36.8"/>
<text transform="matrix(1 0 0 1 46.9287 269.2266)" class="st5 st3 st30">Zusatzevent</text>
<rect x="36" y="278.4" class="st31" width="325.7" height="83.7"/>
<rect id="rect4799-6" x="41.2" y="286.3" class="st32" width="315.3" height="121.5"/>
<text transform="matrix(1 0 0 1 41.2002 299.9801)"><tspan x="0" y="0" class="st3 st33">Plätzchenbacken am 29.11.2016 am </tspan><tspan x="0" y="21.6" class="st3 st33">Vorabend der JUG um 17 Uhr bei der </tspan><tspan x="0" y="43.2" class="st3 st33">Saxonia Systems AG.</tspan></text>
</svg>
